<?xml version="1.0" standalone="no"?>
<!DOCTYPE svg PUBLIC "-//W3C//DTD SVG 20010904//EN"
 "http://www.w3.org/TR/2001/REC-SVG-20010904/DTD/svg10.dtd">
<svg version="1.0" xmlns="http://www.w3.org/2000/svg"
 width="900.000000pt" height="444.000000pt" viewBox="0 0 900.000000 444.000000"
 preserveAspectRatio="xMidYMid meet">
<metadata>
Created by potrace 1.10, written by Peter Selinger 2001-2011
</metadata>
<g transform="translate(0.000000,444.000000) scale(0.100000,-0.100000)"
fill="#ffff00" stroke="none">
<path d="M5995 3649 c-100 -6 -149 -16 -260 -51 -164 -51 -340 -151 -457 -259
-53 -48 -91 -61 -101 -35 -3 8 -43 42 -89 75 -46 33 -88 65 -95 71 -7 5 -15
10 -19 10 -4 0 -28 13 -53 28 -25 15 -71 38 -101 51 -30 12 -64 26 -75 31
-125 54 -375 87 -540 71 -126 -12 -227 -30 -239 -42 -6 -5 -18 -9 -29 -9 -62
0 -337 -143 -417 -218 -48 -44 -74 -40 -145 22 -63 56 -227 145 -334 182 -152
53 -268 73 -431 73 -273 0 -488 -64 -705 -208 -88 -58 -113 -79 -200 -166 -73
-73 -88 -91 -156 -188 -66 -94 -69 -84 -69 244 l0 279 -595 0 -595 0 0 -254
c0 -140 3 -261 6 -270 5 -14 35 -16 229 -16 191 0 226 -2 239 -16 15 -14 16
-110 16 -951 0 -515 1 -938 3 -940 3 -2 159 -4 348 -4 l344 0 5 293 c3 161 7
294 8 296 6 6 32 1 32 -7 0 -5 6 -16 12 -23 7 -7 27 -33 43 -58 65 -98 324
-340 364 -340 5 0 16 -6 23 -13 26 -25 177 -91 273 -121 152 -46 187 -51 370
-50 181 0 212 4 375 50 65 18 68 20 190 78 53 25 136 75 185 111 49 36 94 65
98 65 5 0 37 -22 71 -49 61 -48 160 -111 226 -143 79 -38 115 -51 275 -98 74
-22 276 -32 407 -21 72 7 138 16 147 20 9 5 36 11 61 15 24 4 49 11 55 15 5 5
23 11 39 15 41 10 224 100 265 131 19 14 40 25 47 25 7 0 47 32 89 70 42 39
81 70 86 70 4 0 23 -15 42 -32 133 -130 387 -265 562 -299 22 -4 60 -12 85
-18 58 -13 362 -13 420 0 25 6 63 14 85 18 134 26 338 124 475 227 169 128
290 277 379 467 27 57 40 93 82 226 20 59 31 162 38 324 8 200 2 215 -85 233
-33 7 -90 15 -129 19 -38 3 -110 12 -160 20 -275 41 -1085 39 -1350 -4 -68
-11 -201 -30 -290 -41 -33 -4 -83 -12 -110 -18 -28 -6 -77 -16 -110 -23 -33
-6 -89 -17 -125 -25 -36 -8 -86 -19 -112 -24 -27 -5 -53 -12 -59 -16 -6 -3
-36 -12 -67 -19 -138 -32 -158 -38 -166 -46 -6 -5 -18 -9 -28 -9 -10 0 -84
-22 -165 -50 -214 -71 -236 -79 -255 -90 -10 -6 -23 -10 -28 -10 -6 0 -32 -9
-58 -21 -58 -25 -111 -48 -137 -58 -11 -5 -40 -17 -65 -28 -25 -11 -70 -31
-100 -44 -64 -27 -323 -158 -425 -214 -173 -95 -585 -361 -585 -377 0 -33 -78
36 -389 345 -196 193 -358 358 -360 366 -3 14 336 361 353 361 5 0 111 -103
235 -230 125 -127 231 -230 236 -230 5 0 58 24 119 54 116 56 213 101 281 130
22 10 54 23 70 31 17 7 41 18 55 23 14 6 46 20 72 31 26 12 51 21 56 21 5 0
23 7 38 15 16 8 36 15 45 15 8 0 19 4 25 8 5 5 41 19 79 31 39 12 79 26 90 31
43 18 248 80 265 80 10 0 21 4 24 9 3 5 27 12 52 16 26 4 54 11 63 15 9 5 39
14 66 20 28 6 79 18 115 26 114 26 202 44 305 60 55 8 141 22 190 30 301 47
554 64 955 64 454 0 634 -14 1130 -90 95 -14 209 -37 281 -56 82 -21 109 -19
109 9 0 12 -7 35 -15 51 -8 15 -15 34 -15 42 0 22 -90 193 -144 274 -61 91
-228 259 -314 318 -34 23 -67 42 -71 42 -5 0 -11 4 -13 8 -3 7 -121 67 -183
93 -160 67 -355 93 -590 78z"/>
<path d="M7520 2532 c0 -10 46 -22 88 -22 41 0 13 17 -40 25 -30 5 -48 3 -48
-3z"/>
<path d="M1805 868 c-48 -26 -65 -51 -65 -93 0 -48 20 -71 90 -100 51 -21 90
-52 90 -72 0 -7 -9 -22 -20 -33 -24 -24 -73 -26 -114 -5 -33 17 -56 13 -56 -9
0 -26 54 -46 123 -46 54 0 68 4 90 24 44 41 48 100 10 142 -19 20 -71 48 -111
59 -28 8 -45 39 -37 66 11 32 49 41 102 23 38 -13 47 -13 54 -2 14 21 11 24
-34 42 -49 18 -93 20 -122 4z"/>
<path d="M3200 861 c-19 -11 -46 -32 -60 -48 -23 -26 -25 -35 -25 -130 l0
-102 39 -36 c38 -34 40 -35 121 -35 103 0 115 10 115 97 0 89 -3 93 -66 93
-46 0 -54 -3 -54 -19 0 -13 10 -20 31 -25 29 -6 30 -7 27 -53 l-3 -48 -48 -3
c-43 -3 -51 0 -77 28 -80 85 -33 250 71 250 22 0 48 -5 58 -12 22 -13 51 -5
51 16 0 16 -79 46 -119 46 -14 -1 -42 -9 -61 -19z"/>
<path d="M3575 862 c-16 -10 -37 -26 -46 -37 -27 -31 -40 -124 -27 -195 9 -51
16 -65 46 -90 31 -25 45 -30 92 -30 102 0 150 59 150 182 0 88 -24 140 -80
168 -47 24 -94 24 -135 2z m117 -51 c32 -28 32 -30 32 -119 0 -82 -2 -94 -24
-117 -32 -34 -83 -34 -114 0 -55 60 -45 207 18 250 30 22 52 18 88 -14z"/>
<path d="M3881 866 c-10 -12 -9 -26 4 -68 41 -127 45 -144 45 -165 0 -12 4
-24 9 -27 4 -3 11 -20 15 -37 9 -46 24 -59 65 -59 36 0 37 2 54 53 9 28 19 63
22 77 4 14 10 34 14 45 13 33 32 107 38 148 4 32 3 37 -15 37 -22 0 -29 -15
-58 -135 -14 -57 -19 -79 -30 -132 -11 -58 -50 -1 -73 107 -21 97 -39 144 -58
157 -17 11 -22 11 -32 -1z"/>
<path d="M5442 862 c-55 -30 -75 -74 -75 -169 -1 -129 41 -183 143 -183 103 0
145 55 145 190 -1 75 -4 91 -24 116 -48 61 -125 80 -189 46z m105 -37 c34 -24
53 -73 53 -134 -1 -69 -25 -122 -62 -135 -32 -11 -77 1 -88 24 -4 8 -12 25
-18 37 -29 55 -5 175 40 207 28 20 48 20 75 1z"/>
<path d="M787 863 c-4 -3 -7 -84 -7 -180 l0 -173 85 0 c150 0 195 42 195 181
0 100 -27 152 -87 168 -42 12 -176 15 -186 4z m180 -55 c25 -27 38 -100 28
-163 -8 -55 -43 -95 -85 -95 -60 0 -60 1 -60 139 0 70 3 131 7 134 3 4 25 7
48 7 30 0 47 -6 62 -22z"/>
<path d="M1185 848 c-3 -13 -4 -93 -3 -178 l3 -155 28 -3 27 -3 0 180 0 181
-25 0 c-17 0 -26 -7 -30 -22z"/>
<path d="M1456 845 c-9 -13 -16 -32 -16 -42 0 -10 -7 -31 -15 -47 -8 -15 -15
-36 -15 -45 0 -9 -7 -29 -15 -45 -8 -15 -15 -36 -15 -45 0 -9 -7 -29 -15 -45
-38 -73 9 -93 49 -21 21 38 26 40 74 43 63 4 83 -6 97 -50 9 -25 18 -34 38
-36 15 -2 27 0 27 4 0 14 -23 90 -36 121 -8 17 -14 40 -14 51 0 12 -4 23 -9
27 -5 3 -12 20 -16 38 -4 17 -14 51 -22 75 -14 38 -19 42 -48 42 -24 0 -37 -7
-49 -25z m64 -64 c5 -11 10 -33 10 -50 0 -16 5 -33 10 -36 19 -12 11 -44 -14
-51 -73 -18 -93 19 -55 105 23 55 33 61 49 32z"/>
<path d="M2245 848 c-3 -13 -4 -93 -3 -178 l3 -155 79 -3 c83 -3 126 9 158 45
24 27 39 122 28 187 -16 100 -56 126 -188 126 -66 0 -72 -2 -77 -22z m174 -39
c29 -27 41 -60 41 -115 0 -84 -42 -144 -101 -144 -58 0 -59 1 -59 139 0 70 3
131 7 134 15 16 90 7 112 -14z"/>
<path d="M2642 693 l3 -178 94 -3 c93 -3 121 5 121 34 0 10 -22 14 -82 16
l-83 3 -3 41 c-4 51 9 62 73 66 38 2 51 7 53 21 3 14 -4 17 -50 17 -64 0 -78
11 -78 61 0 43 10 49 80 49 57 0 80 7 80 25 0 20 -24 25 -121 25 l-89 0 2
-177z"/>
<path d="M4267 863 c-13 -12 -8 -328 5 -341 8 -8 46 -12 105 -12 80 0 94 3
102 19 6 10 7 21 4 25 -3 3 -39 6 -79 6 -78 0 -84 5 -84 59 0 39 17 51 77 51
46 0 53 3 53 20 0 18 -7 20 -55 20 -59 0 -75 14 -75 63 0 37 23 49 92 51 57 1
63 3 66 24 3 22 2 22 -101 22 -57 0 -107 -3 -110 -7z"/>
<path d="M4617 863 c-4 -3 -7 -84 -7 -180 l0 -173 25 0 c24 0 25 3 25 59 0 60
15 91 45 91 18 0 65 -47 65 -65 0 -8 8 -30 17 -50 12 -26 23 -35 41 -35 22 0
24 3 18 33 -7 35 -37 100 -48 105 -15 7 -8 23 18 45 21 18 26 31 26 69 0 58
-18 86 -62 98 -40 11 -153 13 -163 3z m154 -55 c23 -28 24 -51 3 -83 -13 -20
-25 -25 -59 -25 -46 0 -55 10 -55 58 0 59 10 72 52 72 29 0 45 -6 59 -22z"/>
<path d="M4978 848 c-3 -13 -4 -93 -3 -178 2 -151 2 -155 23 -158 21 -3 22 0
22 105 0 59 3 118 6 131 6 22 34 32 34 11 0 -9 19 -57 55 -134 8 -16 22 -49
32 -72 17 -39 21 -43 56 -43 l37 0 0 180 c0 141 -3 180 -13 180 -30 0 -37 -25
-37 -136 0 -90 -3 -113 -15 -118 -14 -5 -35 20 -35 44 0 6 -14 41 -31 78 -64
136 -61 132 -95 132 -25 0 -33 -5 -36 -22z"/>
</g>
</svg>
