<?xml version="1.0" standalone="no"?>
<!DOCTYPE svg PUBLIC "-//W3C//DTD SVG 20010904//EN"
 "http://www.w3.org/TR/2001/REC-SVG-20010904/DTD/svg10.dtd">
<svg version="1.0" xmlns="http://www.w3.org/2000/svg"
 width="900.000000pt" height="444.000000pt" viewBox="0 0 900.000000 444.000000"
 preserveAspectRatio="xMidYMid meet">
<metadata>
Created by potrace 1.10, written by Peter Selinger 2001-2011
</metadata>
<g transform="translate(0.000000,444.000000) scale(0.100000,-0.100000)"
fill="#38761d" stroke="none">
<path d="M5952 4097 c-121 -112 -154 -142 -167 -150 -8 -4 -26 -20 -42 -35
-15 -15 -64 -58 -107 -97 -44 -38 -84 -74 -90 -80 -6 -5 -40 -35 -76 -65 -132
-111 -280 -254 -280 -270 0 -11 67 23 80 41 7 9 135 105 180 135 187 125 269
186 275 205 3 9 18 22 33 28 15 7 36 26 46 45 9 18 29 40 44 49 15 9 56 43 90
76 35 33 75 62 89 66 28 7 86 -9 123 -35 14 -9 45 -24 70 -33 139 -48 212 -79
266 -110 33 -20 73 -39 90 -43 16 -3 52 -19 80 -35 28 -16 60 -29 69 -29 10 0
41 -13 69 -29 28 -15 75 -36 103 -45 29 -10 55 -22 58 -26 3 -5 25 -15 48 -21
23 -6 72 -26 108 -44 37 -18 81 -36 97 -40 17 -3 36 -13 43 -21 6 -8 37 -21
68 -30 31 -9 61 -20 67 -25 6 -5 42 -20 80 -35 38 -14 96 -40 129 -59 33 -18
80 -38 105 -45 25 -7 56 -20 70 -30 14 -10 43 -23 65 -29 22 -6 60 -22 84 -36
23 -14 49 -25 55 -25 7 0 40 -13 74 -30 34 -16 66 -30 70 -30 5 0 30 -11 58
-24 27 -13 67 -31 89 -40 22 -9 63 -28 90 -41 28 -13 61 -26 75 -30 14 -4 39
-15 56 -25 17 -10 45 -21 62 -25 16 -3 38 -15 48 -26 9 -10 25 -19 36 -19 10
0 18 -5 18 -11 0 -17 -62 -91 -175 -206 -55 -56 -117 -122 -137 -145 -54 -62
-132 -145 -306 -327 -85 -88 -166 -175 -180 -193 -15 -18 -41 -47 -57 -63 -17
-17 -60 -63 -98 -103 -37 -40 -71 -72 -75 -72 -4 0 -15 -14 -24 -30 -9 -17
-24 -30 -33 -30 -8 0 -15 -5 -15 -10 0 -6 -19 -32 -42 -57 -76 -82 -231 -243
-333 -346 -55 -56 -119 -126 -143 -157 -44 -56 -241 -269 -322 -348 -41 -39
-49 -43 -85 -39 -38 4 -124 38 -249 98 -32 16 -65 29 -72 29 -8 0 -20 11 -29
23 -11 17 -32 27 -73 36 -185 39 -300 69 -472 123 -134 41 -186 65 -360 163
-153 87 -197 105 -227 94 -32 -12 -29 -28 10 -45 17 -8 39 -18 47 -23 19 -11
73 -35 130 -56 25 -10 59 -23 75 -30 17 -7 50 -21 75 -30 25 -10 57 -23 72
-31 14 -8 33 -14 41 -14 18 0 78 -29 95 -47 7 -7 22 -13 32 -13 10 0 31 -6 47
-14 15 -8 44 -21 63 -30 19 -8 65 -29 103 -45 37 -17 73 -31 81 -31 8 0 27 -6
43 -14 37 -19 81 -38 178 -76 44 -18 96 -39 115 -48 34 -15 67 -29 120 -50 14
-5 59 -26 101 -46 41 -20 83 -36 92 -36 8 0 24 11 35 25 11 14 76 85 145 158
69 72 135 143 147 157 12 14 74 81 138 149 64 68 133 140 152 160 19 21 64 69
100 107 36 38 117 125 180 193 63 69 135 145 160 171 25 25 90 94 145 154 55
60 116 126 135 146 33 34 119 126 456 484 82 88 195 205 251 260 112 109 114
117 39 137 -39 10 -56 17 -143 56 -21 9 -51 22 -68 29 -16 6 -46 19 -65 27
-19 8 -51 22 -70 30 -48 21 -93 41 -173 76 -37 17 -71 31 -76 31 -5 0 -22 6
-38 14 -15 8 -44 21 -63 30 -19 8 -65 29 -103 45 -37 17 -70 31 -74 31 -4 0
-35 13 -68 28 -73 35 -185 84 -310 137 -22 9 -53 23 -70 30 -16 7 -48 21 -70
30 -22 9 -55 23 -72 31 -18 8 -47 21 -65 29 -18 8 -63 28 -101 44 -37 17 -71
31 -76 31 -5 0 -22 6 -38 14 -15 8 -46 22 -68 32 -22 9 -52 23 -67 31 -14 7
-33 13 -41 13 -8 0 -20 7 -27 15 -7 8 -19 15 -26 15 -8 0 -44 14 -81 31 -38
16 -99 44 -138 61 -38 16 -83 36 -98 44 -16 8 -33 14 -38 14 -5 0 -40 14 -77
31 -37 18 -82 38 -99 46 -83 35 -101 43 -145 63 -27 12 -50 26 -54 31 -10 17
-25 9 -92 -54z"/>
<path d="M6590 3730 c0 -5 7 -10 15 -10 8 0 15 5 15 10 0 6 -7 10 -15 10 -8 0
-15 -4 -15 -10z"/>
<path d="M2425 3651 c-44 -4 -90 -13 -102 -19 -12 -7 -33 -12 -47 -12 -14 0
-40 -6 -58 -14 -18 -8 -53 -22 -78 -31 -67 -26 -181 -84 -217 -111 -17 -13
-36 -24 -40 -24 -5 0 -49 -35 -98 -78 -82 -71 -105 -95 -170 -173 -32 -38 -84
-126 -91 -154 -3 -14 -12 -25 -20 -25 -8 0 -14 -4 -14 -10 0 -16 27 -12 70 10
23 12 73 59 119 113 106 124 253 245 351 291 19 9 62 30 95 47 87 45 164 67
305 88 104 16 146 18 245 11 121 -9 149 -14 260 -44 112 -31 262 -106 420
-212 74 -50 129 -49 215 1 36 20 70 43 75 50 13 16 249 128 300 143 22 6 65
18 95 26 99 28 243 35 380 20 147 -15 209 -28 249 -49 17 -8 36 -15 44 -15 30
0 254 -119 305 -162 9 -8 48 -32 87 -52 89 -49 137 -51 196 -10 23 16 50 34
61 40 10 6 29 20 41 31 32 28 193 123 210 123 8 0 20 7 27 15 6 8 22 17 33 21
12 3 36 12 52 19 17 8 91 26 164 40 115 23 152 26 250 22 167 -8 333 -38 366
-68 11 -9 38 -21 60 -25 64 -11 180 -80 290 -171 80 -66 220 -218 244 -266 9
-18 31 -55 50 -81 27 -41 31 -53 22 -72 -9 -21 -15 -22 -68 -18 -112 9 -238
27 -249 36 -7 5 -58 13 -115 18 -57 5 -160 16 -229 24 -69 8 -132 14 -140 14
-8 0 -85 5 -170 11 -144 10 -539 14 -620 7 -19 -2 -107 -7 -195 -11 -88 -4
-164 -10 -170 -13 -5 -4 -30 -7 -55 -8 -75 -3 -253 -24 -287 -35 -18 -6 -67
-15 -110 -20 -146 -17 -353 -55 -418 -76 -27 -8 -72 -19 -100 -23 -27 -4 -63
-12 -80 -18 -16 -6 -57 -18 -90 -27 -75 -20 -483 -152 -510 -165 -11 -6 -49
-21 -85 -34 -36 -14 -84 -34 -107 -45 -23 -12 -46 -21 -52 -21 -5 0 -22 -6
-38 -14 -15 -8 -48 -23 -73 -34 -25 -11 -60 -27 -79 -36 -19 -9 -42 -16 -52
-16 -10 0 -21 -5 -24 -10 -9 -14 -146 -80 -166 -80 -36 0 -82 36 -166 128 -48
53 -101 108 -118 122 -16 14 -48 43 -71 65 -51 50 -108 85 -137 85 -66 -1
-164 -71 -282 -200 -22 -24 -52 -56 -67 -70 -14 -14 -41 -51 -58 -83 -36 -66
-35 -100 6 -137 13 -13 24 -29 24 -36 0 -7 5 -14 10 -16 6 -2 149 -141 318
-309 169 -168 327 -322 351 -342 41 -35 75 -47 83 -29 2 5 35 28 73 51 39 24
104 65 145 92 128 83 387 239 398 239 6 0 12 4 14 9 3 8 409 212 478 240 33
13 91 37 155 66 17 7 89 34 160 60 72 26 139 51 150 56 19 9 140 47 235 74 25
8 83 24 130 38 149 43 423 104 595 132 55 9 125 21 155 26 30 6 98 14 150 19
52 5 131 13 175 19 44 5 172 13 285 17 113 3 207 8 211 10 11 6 537 -16 629
-27 52 -6 145 -16 205 -23 102 -12 149 -26 167 -51 19 -25 1 -318 -22 -370 -5
-11 -11 -33 -13 -50 -10 -58 -25 -107 -40 -123 -8 -9 -17 -33 -21 -53 -4 -21
-15 -48 -25 -60 -10 -13 -28 -42 -40 -64 -12 -22 -34 -56 -49 -76 -91 -121
-111 -143 -192 -208 -25 -19 -56 -46 -69 -58 -13 -13 -49 -38 -80 -56 -31 -17
-65 -37 -76 -44 -11 -7 -27 -15 -35 -18 -8 -4 -26 -13 -40 -20 -39 -20 -170
-62 -220 -70 -25 -3 -61 -11 -80 -17 -48 -15 -246 -12 -353 6 -49 8 -94 13
-101 10 -7 -3 -19 2 -26 11 -7 8 -20 15 -30 15 -30 0 -145 48 -266 112 -18 10
-52 31 -76 48 -24 17 -61 43 -83 57 -22 14 -45 32 -52 39 -36 35 -133 22 -189
-27 -18 -14 -56 -39 -85 -53 -30 -15 -79 -42 -109 -61 -30 -19 -63 -35 -72
-35 -10 0 -18 -4 -18 -9 0 -9 -146 -67 -240 -94 -68 -20 -286 -38 -383 -31
-86 6 -260 47 -325 76 -94 42 -207 101 -228 119 -11 11 -24 19 -28 19 -4 0
-37 18 -73 40 -40 24 -79 40 -97 40 -36 0 -101 -31 -201 -95 -103 -65 -254
-134 -340 -154 -22 -5 -67 -16 -100 -25 -45 -12 -95 -15 -200 -12 -249 6 -374
36 -565 134 -36 19 -72 40 -81 48 -8 8 -19 14 -23 14 -27 0 -171 130 -270 244
-69 80 -129 126 -163 126 -27 0 -67 -38 -93 -90 -14 -28 -17 -65 -19 -190 -2
-175 -7 -218 -29 -242 -14 -16 -39 -18 -253 -18 -151 0 -240 4 -244 10 -13 21
-15 129 -17 949 l-3 833 -63 59 -63 59 -132 2 c-72 1 -145 2 -162 2 -46 1 -55
31 -55 186 0 74 4 142 10 150 12 19 17 19 495 19 432 1 490 -2 500 -28 4 -9 9
-83 11 -166 3 -82 9 -173 15 -202 10 -49 40 -103 58 -103 11 0 20 155 23 398
l2 203 -602 0 c-331 0 -605 -1 -609 -1 -5 0 -7 -127 -7 -282 l2 -283 53 1
c150 2 406 5 422 4 17 0 18 -40 16 -961 l-1 -961 361 -1 c234 -1 361 2 362 8
3 31 -2 427 -7 518 -6 105 -6 107 15 107 16 0 23 -8 27 -30 4 -16 10 -30 15
-30 5 0 9 -5 9 -11 0 -35 155 -217 251 -294 139 -113 356 -221 489 -245 25 -5
59 -14 75 -20 20 -8 100 -12 235 -13 165 0 217 3 265 17 33 10 85 24 115 33
71 19 213 83 288 128 57 34 95 63 150 113 28 25 47 28 59 9 9 -15 130 -110
153 -120 8 -4 29 -16 45 -27 17 -11 37 -22 45 -26 8 -3 22 -10 30 -15 8 -5 22
-12 30 -15 8 -3 29 -11 45 -18 47 -20 97 -37 135 -46 19 -5 53 -13 75 -19 76
-19 242 -34 321 -28 137 11 229 24 251 35 12 7 35 12 50 12 16 0 38 7 49 15
10 8 27 15 37 15 11 0 31 6 45 14 15 7 59 28 97 47 39 19 86 46 105 60 19 14
50 34 69 44 18 9 62 47 96 83 l62 66 54 -55 c30 -31 74 -69 99 -85 25 -16 47
-32 50 -36 3 -4 17 -12 30 -18 14 -5 39 -19 55 -30 17 -11 37 -23 45 -26 8 -3
31 -13 50 -22 92 -41 154 -62 210 -72 25 -4 61 -13 80 -19 54 -17 425 -14 475
4 22 8 51 15 65 15 14 0 38 7 54 15 15 8 35 15 43 15 21 0 186 76 251 115 33
20 77 50 82 55 3 3 32 27 65 52 81 61 180 168 240 258 57 86 72 109 80 130 4
8 11 22 16 30 5 8 12 22 15 30 3 8 12 27 20 42 8 14 14 34 14 45 0 10 7 27 15
37 8 11 15 30 15 42 0 12 7 38 15 57 8 20 15 53 15 74 0 21 5 54 11 73 6 19
11 105 13 190 2 183 -5 205 -62 213 -47 5 -176 24 -267 39 -38 6 -126 14 -195
18 -69 5 -212 14 -318 20 -195 13 -231 12 -732 -20 -74 -5 -153 -14 -175 -19
-22 -6 -65 -11 -95 -11 -30 0 -80 -7 -110 -15 -30 -8 -74 -15 -96 -15 -23 0
-61 -7 -84 -15 -23 -8 -59 -15 -80 -15 -21 0 -57 -7 -80 -15 -23 -8 -54 -15
-69 -15 -14 0 -46 -6 -71 -14 -58 -18 -124 -35 -175 -45 -38 -7 -80 -19 -150
-43 -16 -5 -46 -14 -65 -18 -19 -4 -51 -14 -70 -20 -19 -7 -51 -18 -70 -25
-19 -7 -51 -18 -70 -24 -19 -7 -50 -17 -69 -21 -18 -5 -38 -13 -44 -19 -6 -6
-20 -11 -32 -11 -12 0 -30 -7 -41 -15 -10 -8 -27 -15 -37 -15 -11 0 -31 -6
-45 -13 -15 -8 -42 -21 -60 -30 -19 -9 -40 -17 -47 -17 -7 0 -26 -6 -42 -14
-15 -8 -57 -28 -93 -44 -107 -49 -264 -123 -280 -133 -8 -5 -21 -11 -27 -14
-33 -13 -40 -16 -68 -34 -16 -11 -50 -30 -75 -42 -25 -13 -89 -49 -143 -81
-54 -32 -100 -58 -103 -58 -2 0 -33 -20 -70 -45 -36 -25 -68 -45 -71 -45 -3 0
-22 -14 -43 -30 -21 -17 -41 -30 -44 -30 -11 0 -146 -104 -146 -112 0 -5 -11
-8 -25 -8 -14 0 -25 5 -25 10 0 14 -612 627 -662 665 -21 15 -38 33 -38 41 0
7 72 83 160 170 88 86 162 165 165 175 9 28 30 23 62 -13 15 -17 105 -109 198
-203 94 -95 184 -190 201 -211 l31 -38 49 26 c58 31 245 123 292 144 63 28
102 45 137 59 87 37 112 48 138 61 16 8 36 14 46 14 9 0 26 7 37 15 10 8 28
15 40 15 11 0 29 7 40 15 10 8 28 15 40 15 11 0 29 7 40 15 10 8 28 15 39 15
11 0 33 7 49 15 15 8 38 15 50 15 11 1 32 7 46 15 14 8 33 14 43 15 11 0 33 6
50 14 18 8 46 16 62 19 17 3 44 9 60 15 29 10 90 27 185 52 25 6 68 15 96 20
28 4 61 13 72 19 11 6 36 11 55 11 19 0 54 7 77 15 23 8 63 15 89 15 25 0 71
7 101 15 30 8 75 15 100 15 25 0 72 7 105 15 33 8 87 14 120 15 33 0 103 7
155 16 79 14 179 16 580 16 319 0 500 -4 530 -11 25 -6 95 -14 155 -17 61 -4
135 -13 165 -20 30 -8 75 -14 101 -14 26 0 60 -5 75 -11 16 -5 66 -14 113 -19
118 -13 205 -31 339 -72 19 -5 36 -8 38 -5 5 5 -18 80 -34 114 -5 10 -16 34
-24 53 -32 75 -92 190 -100 190 -4 0 -8 5 -8 11 0 17 -114 162 -177 225 -67
67 -191 161 -255 193 -23 12 -63 33 -87 47 -24 13 -51 24 -60 24 -9 0 -25 7
-35 15 -11 8 -27 15 -37 15 -9 0 -30 7 -45 15 -16 8 -40 15 -54 15 -14 0 -45
8 -70 16 -65 24 -434 23 -500 0 -25 -9 -56 -16 -70 -16 -14 0 -38 -7 -54 -15
-15 -8 -34 -15 -42 -15 -20 0 -190 -77 -249 -113 -54 -33 -145 -105 -187 -149
-26 -26 -53 -48 -61 -48 -8 0 -25 15 -37 33 -23 33 -141 127 -160 127 -5 0
-10 4 -10 8 0 5 -24 21 -52 36 -29 15 -60 31 -68 36 -8 4 -33 16 -55 25 -22
10 -53 24 -68 31 -16 8 -37 14 -47 14 -10 0 -31 7 -46 15 -16 8 -40 15 -54 15
-14 0 -47 7 -74 15 -60 18 -398 21 -443 4 -15 -6 -50 -15 -78 -19 -53 -8 -103
-24 -148 -46 -16 -8 -35 -14 -42 -14 -12 0 -122 -54 -173 -85 -70 -42 -112
-73 -140 -101 -41 -42 -60 -43 -98 -3 -58 61 -213 153 -344 204 -25 9 -60 23
-78 31 -18 8 -43 14 -55 14 -12 0 -41 7 -64 15 -50 17 -329 27 -448 16z"/>
<path d="M7472 2748 c-19 -19 -14 -35 15 -58 20 -15 36 -20 56 -16 18 4 41 -1
65 -14 20 -11 53 -20 72 -20 20 0 41 -5 47 -11 14 -14 53 -2 53 17 0 16 -18
25 -110 50 -36 10 -78 28 -93 41 -31 25 -85 31 -105 11z"/>
<path d="M7440 2570 c-13 -9 -11 -14 13 -34 28 -22 77 -36 202 -57 32 -5 64
-14 69 -19 6 -6 26 -10 46 -10 19 0 48 -7 64 -15 15 -8 48 -15 72 -15 24 0 44
-4 44 -9 0 -14 37 -23 60 -16 30 9 14 25 -25 25 -20 0 -35 6 -39 15 -3 9 -18
15 -34 15 -16 0 -41 9 -55 20 -14 11 -39 20 -57 20 -17 0 -38 7 -46 15 -9 8
-26 15 -39 15 -12 0 -36 7 -51 15 -16 8 -43 15 -60 15 -17 0 -37 7 -44 15 -14
17 -96 20 -120 5z"/>
<path d="M2735 2131 c-86 -14 -283 -147 -257 -173 9 -9 60 15 152 71 19 11 42
24 50 28 40 19 123 85 103 82 -4 -1 -26 -4 -48 -8z"/>
<path d="M770 695 l0 -195 103 0 c112 0 141 11 178 66 29 44 27 203 -2 251
-34 54 -83 73 -189 73 l-90 0 0 -195z m190 105 c23 -17 25 -25 25 -103 0 -77
-2 -88 -24 -111 -18 -19 -35 -26 -63 -26 l-38 0 0 130 0 130 38 0 c21 0 48 -9
62 -20z"/>
<path d="M1169 888 c-1 -2 -2 -89 -3 -195 l-1 -192 34 -6 c18 -4 38 -2 43 3 7
7 14 297 9 380 -1 7 -16 12 -41 12 -22 0 -41 -1 -41 -2z"/>
<path d="M1446 865 c-9 -13 -16 -33 -16 -44 0 -11 -6 -35 -14 -53 -8 -18 -22
-60 -31 -93 -10 -33 -23 -71 -30 -85 -7 -14 -16 -39 -20 -57 -6 -29 -4 -33 18
-38 37 -10 64 10 74 52 9 37 9 38 62 41 61 4 78 -7 87 -53 6 -36 37 -52 76
-39 21 6 21 18 -2 84 -7 19 -18 51 -25 70 -7 19 -18 51 -25 70 -6 19 -16 51
-20 70 -4 19 -14 50 -21 68 -12 29 -17 32 -55 32 -33 0 -45 -5 -58 -25z m80
-133 c6 -26 13 -53 15 -61 6 -19 -58 -36 -77 -20 -16 13 -11 45 18 102 23 45
29 42 44 -21z"/>
<path d="M1764 856 c-35 -30 -39 -39 -39 -79 0 -34 6 -52 24 -71 14 -14 32
-26 40 -26 9 0 25 -7 35 -15 11 -8 27 -15 36 -15 9 0 24 -8 33 -18 52 -58 -25
-94 -108 -52 l-40 21 -17 -22 c-10 -12 -18 -26 -18 -33 0 -31 100 -59 177 -49
59 8 113 62 113 113 0 28 -7 43 -32 66 -38 34 -81 58 -120 68 -28 6 -43 33
-32 59 9 25 41 30 76 13 42 -21 75 -20 88 3 15 29 13 34 -21 54 -20 11 -52 17
-93 17 -57 0 -66 -3 -102 -34z"/>
<path d="M2234 879 c-3 -6 -6 -93 -6 -193 l0 -181 104 -3 104 -3 36 33 c44 40
58 81 57 162 -1 93 -26 146 -86 179 -36 20 -197 25 -209 6z m167 -69 c49 -27
65 -130 29 -200 -21 -41 -47 -55 -91 -48 -23 3 -24 7 -29 116 -3 63 -1 120 3
128 9 16 60 19 88 4z"/>
<path d="M2629 886 c-7 -8 -3 -362 5 -374 5 -8 44 -12 116 -12 100 0 110 2
120 20 6 12 9 29 5 39 -5 16 -16 18 -88 17 l-82 -1 0 40 0 40 65 0 65 0 0 35
0 35 -59 0 c-67 0 -92 21 -75 63 9 23 13 24 87 20 l77 -3 3 43 3 42 -119 0
c-65 0 -121 -2 -123 -4z"/>
<path d="M3174 862 c-58 -42 -59 -45 -84 -142 -7 -25 -5 -52 7 -95 20 -72 66
-120 123 -128 58 -7 170 7 181 24 14 22 5 157 -12 173 -20 19 -116 27 -130 10
-19 -23 -1 -54 32 -54 28 0 29 -2 29 -45 l0 -45 -43 0 c-45 0 -71 18 -96 67
-26 50 -5 137 43 175 27 22 49 22 104 1 44 -16 44 -16 63 8 25 33 24 36 -21
59 -26 13 -59 20 -98 20 -49 0 -66 -5 -98 -28z"/>
<path d="M3560 872 c-71 -48 -99 -158 -68 -266 38 -132 217 -154 290 -35 14
22 18 50 18 115 0 100 -20 150 -73 183 -43 26 -130 28 -167 3z m124 -66 c27
-22 28 -28 28 -108 1 -106 -17 -140 -72 -136 -29 3 -38 10 -57 43 -39 68 -25
172 28 209 31 21 41 20 73 -8z"/>
<path d="M3863 848 c2 -24 10 -59 17 -78 26 -74 32 -96 40 -135 5 -22 15 -60
23 -85 l14 -45 58 0 c65 0 65 0 85 100 4 22 13 55 19 73 27 78 33 100 46 150
14 60 10 66 -42 60 -26 -3 -29 -8 -41 -63 -7 -33 -20 -88 -28 -122 -8 -34 -14
-73 -14 -87 0 -15 -6 -26 -14 -26 -12 0 -33 65 -50 155 -9 47 -30 119 -39 133
-5 6 -24 12 -44 12 l-35 0 5 -42z"/>
<path d="M4257 883 c-13 -12 -8 -358 5 -371 8 -8 49 -12 118 -12 106 0 107 0
119 27 11 23 10 29 -4 40 -10 6 -29 10 -44 8 -112 -17 -125 -12 -119 47 l3 33
59 0 c50 0 60 3 66 20 4 11 5 28 2 39 -4 16 -12 18 -63 12 -56 -5 -59 -5 -65
18 -13 54 -5 61 75 61 66 0 74 2 82 22 4 11 5 30 2 42 -5 20 -12 21 -117 21
-62 0 -116 -3 -119 -7z"/>
<path d="M4596 882 c-3 -5 -6 -91 -7 -192 l-2 -184 24 -8 c13 -5 34 -7 46 -3
20 5 22 10 20 78 -2 68 -1 72 21 75 25 4 61 -31 62 -60 0 -29 33 -87 51 -93
50 -16 90 25 54 55 -8 7 -15 18 -15 26 0 7 -11 30 -25 50 l-25 37 30 34 c49
56 37 126 -29 170 -29 19 -47 23 -117 23 -46 0 -85 -4 -88 -8z m158 -73 c41
-32 30 -91 -20 -103 -48 -13 -64 0 -64 53 0 72 32 91 84 50z"/>
<path d="M4966 882 c-3 -5 -6 -91 -7 -191 -1 -164 0 -185 15 -193 10 -6 28 -7
41 -4 l24 6 -6 130 c-5 117 -4 130 10 130 10 0 17 -7 17 -16 0 -15 8 -37 45
-119 7 -16 21 -52 32 -78 l18 -48 53 3 53 3 1 190 1 190 -39 0 -39 0 0 -127
c0 -69 -3 -129 -7 -133 -10 -10 -28 4 -28 22 0 15 -19 65 -46 116 -8 16 -14
34 -14 40 0 6 -8 28 -17 48 -17 36 -21 39 -60 39 -23 0 -44 -4 -47 -8z"/>
<path d="M5426 871 c-56 -37 -71 -75 -71 -181 1 -100 12 -131 60 -172 25 -21
83 -30 135 -22 91 15 145 130 119 252 -22 98 -71 142 -159 142 -37 0 -64 -6
-84 -19z m121 -59 c47 -37 54 -173 11 -227 -23 -30 -67 -33 -91 -7 -43 48 -39
195 7 234 27 22 45 22 73 0z"/>
</g>
</svg>
