<?xml version="1.0" standalone="no"?>
<!DOCTYPE svg PUBLIC "-//W3C//DTD SVG 20010904//EN"
 "http://www.w3.org/TR/2001/REC-SVG-20010904/DTD/svg10.dtd">
<svg version="1.0" xmlns="http://www.w3.org/2000/svg"
 width="525.000000pt" height="390.000000pt" viewBox="0 0 525.000000 390.000000"
 preserveAspectRatio="xMidYMid meet">
<metadata>
Created by potrace 1.10, written by Peter Selinger 2001-2011
</metadata>
<g transform="translate(0.000000,390.000000) scale(0.100000,-0.100000)"
fill="#38761d" stroke="none">
<path d="M300 3890 c0 -5 -19 -29 -43 -52 -49 -49 -144 -208 -153 -255 -3 -18
-12 -37 -20 -44 -17 -14 -18 -45 -3 -55 12 -7 54 39 65 71 4 11 9 22 13 25 3
3 17 27 31 54 30 58 103 142 131 151 12 4 30 0 45 -10 23 -15 24 -20 18 -63
-3 -26 -13 -54 -20 -63 -8 -8 -14 -29 -14 -45 0 -17 -7 -39 -15 -50 -8 -10
-15 -30 -15 -42 0 -13 -6 -38 -14 -55 -8 -18 -17 -43 -19 -57 -3 -14 -24 -88
-46 -165 -22 -77 -48 -171 -57 -208 -15 -59 -20 -68 -38 -65 -15 2 -32 25 -58
78 -21 41 -38 80 -38 86 0 7 -6 14 -14 17 -7 3 -17 20 -21 39 l-9 33 -3 -37
c-5 -46 39 -194 65 -220 7 -7 12 -17 13 -23 0 -5 10 -26 23 -45 l23 -34 -19
-59 c-25 -81 -24 -95 7 -90 13 3 27 14 30 24 10 29 80 116 171 209 45 47 91
95 101 107 10 12 45 54 78 93 33 40 77 93 99 118 21 25 43 56 49 69 5 13 14
23 19 23 18 0 58 -45 58 -66 0 -21 -23 -54 -38 -54 -4 0 -21 -12 -38 -27 -17
-16 -57 -49 -90 -75 -32 -26 -67 -54 -76 -62 -10 -9 -22 -16 -28 -16 -5 0 -10
-7 -10 -15 0 -8 4 -15 9 -15 19 0 243 128 249 142 2 5 8 8 14 8 5 0 18 10 27
21 l18 22 21 -31 c12 -16 22 -37 22 -45 0 -28 40 -108 50 -102 5 3 10 11 10
17 0 19 33 83 57 109 l23 26 -22 25 c-13 13 -40 50 -62 81 -21 31 -42 57 -47
57 -5 0 -9 5 -9 11 0 6 -12 28 -27 48 -32 41 -50 69 -60 91 -4 8 -19 33 -35
54 -15 21 -28 45 -28 53 0 7 -4 13 -9 13 -5 0 -12 8 -16 19 -3 10 -33 67 -67
127 -33 60 -61 115 -61 122 0 6 -9 12 -19 12 -10 0 -17 -3 -17 -7 4 -24 -4
-33 -35 -38 -45 -9 -76 2 -76 26 0 14 -7 19 -25 19 -14 0 -25 -4 -25 -10z
m243 -282 c80 -139 88 -158 77 -179 -16 -29 -54 -22 -58 11 -2 14 -10 32 -17
40 -7 8 -17 27 -20 42 -8 31 -25 28 -25 -3 0 -11 9 -47 21 -81 23 -68 22 -133
-1 -133 -8 0 -19 15 -24 35 -5 19 -13 37 -17 40 -4 3 -9 23 -11 45 -2 22 -7
40 -13 40 -6 0 -10 -52 -10 -136 0 -151 4 -138 -90 -257 -34 -42 -71 -72 -90
-72 -11 0 -3 57 10 80 8 14 14 36 15 50 0 14 7 38 15 54 8 15 15 38 15 51 0
12 12 53 26 91 14 38 28 80 31 94 3 14 12 34 19 45 8 11 14 26 14 33 0 8 15
45 33 83 40 85 62 91 100 27z"/>
<path d="M4490 3838 c0 -36 -6 -75 -15 -91 -12 -24 -12 -29 0 -34 19 -7 19
-22 0 -29 -7 -3 -30 7 -50 22 -19 15 -38 24 -41 21 -8 -8 19 -47 33 -47 25 0
15 -15 -56 -85 -28 -28 -43 -35 -83 -37 -66 -4 -56 -23 12 -22 92 3 134 16
138 43 4 23 47 70 67 71 6 0 23 11 39 24 28 23 28 46 0 46 -11 0 -14 14 -14
59 0 69 -9 121 -21 121 -5 0 -9 -28 -9 -62z"/>
<path d="M4566 3796 c2 -97 3 -101 30 -120 15 -12 39 -23 53 -26 19 -4 25 -11
24 -27 -3 -24 4 -31 70 -67 37 -21 59 -26 97 -24 56 3 72 21 23 26 -17 2 -37
10 -43 18 -7 8 -21 14 -31 14 -24 0 -88 42 -89 58 0 17 40 6 57 -15 12 -16 58
-14 58 2 0 6 -10 11 -22 13 -22 3 -33 32 -13 32 14 0 70 42 70 52 0 4 -13 8
-30 8 -16 0 -30 -4 -30 -10 0 -5 -10 -20 -21 -31 -19 -19 -25 -20 -43 -9 -14
9 -21 10 -24 1 -5 -15 -29 -14 -39 3 -4 7 -18 18 -30 25 -14 7 -23 21 -23 35
0 15 -7 26 -19 29 -16 4 -21 16 -24 58 -2 30 -2 9 -1 -45z"/>
<path d="M4612 3884 c4 -21 22 -23 26 -1 2 10 -3 17 -13 17 -10 0 -15 -6 -13
-16z"/>
<path d="M4670 3840 c0 -11 9 -28 19 -37 11 -9 17 -22 14 -30 -3 -8 4 -23 15
-34 23 -21 42 -25 42 -9 0 6 6 10 13 10 6 0 17 11 24 25 10 22 9 25 -8 25 -10
0 -23 -9 -29 -20 -15 -28 -30 -25 -30 5 0 16 6 25 15 25 8 0 15 7 15 16 0 12
-7 14 -30 9 -26 -6 -30 -4 -30 14 0 12 -6 21 -15 21 -8 0 -15 -9 -15 -20z"/>
<path d="M4430 3810 c0 -36 -15 -39 -31 -7 -16 29 -14 28 -32 21 -13 -5 -14
-10 -6 -25 5 -10 16 -19 25 -19 8 0 19 -10 24 -22 l9 -23 7 23 c3 12 10 22 15
22 5 0 9 14 9 30 0 17 -4 30 -10 30 -5 0 -10 -13 -10 -30z"/>
<path d="M4610 3816 c0 -13 7 -26 15 -30 8 -3 15 -14 15 -24 0 -18 29 -52 43
-52 4 0 7 7 7 15 0 8 -4 15 -10 15 -5 0 -10 11 -10 24 0 13 -7 29 -15 36 -8 7
-15 19 -15 26 0 8 -7 14 -15 14 -9 0 -15 -9 -15 -24z"/>
<path d="M4316 3792 c-3 -6 -1 -14 5 -17 15 -10 25 3 12 16 -7 7 -13 7 -17 1z"/>
<path d="M4270 3734 c0 -19 55 -55 78 -52 38 5 40 28 3 28 -19 0 -34 6 -37 15
-6 14 -44 22 -44 9z"/>
<path d="M4245 3670 c-8 -13 20 -24 41 -16 20 8 9 26 -16 26 -10 0 -22 -5 -25
-10z"/>
<path d="M4827 3674 c-11 -12 3 -24 29 -24 15 0 24 6 24 15 0 15 -40 21 -53 9z"/>
<path d="M4308 3633 c-10 -10 -31 -16 -52 -15 -24 1 -36 -3 -36 -12 0 -23 78
-16 116 9 18 12 30 25 27 29 -12 11 -39 6 -55 -11z"/>
<path d="M1862 3594 l-34 -36 -94 1 c-58 1 -94 -2 -94 -8 0 -6 -12 -14 -27
-17 -38 -10 -62 -43 -63 -84 0 -20 -5 -41 -11 -47 -14 -14 -17 -137 -4 -141 5
-2 13 10 16 27 11 55 58 121 89 128 16 3 35 12 41 19 15 18 83 18 98 0 14 -16
-4 -26 -49 -26 -15 0 -30 -6 -33 -14 -3 -8 -18 -16 -33 -18 -15 -2 -30 -9 -32
-17 -4 -12 7 -13 58 -8 77 8 92 -1 78 -46 -5 -18 -10 -115 -11 -217 0 -153 2
-191 15 -215 9 -17 19 -37 21 -46 7 -20 84 -34 118 -20 24 9 63 48 124 125 17
21 38 46 48 56 15 15 16 19 3 29 -11 9 -23 4 -60 -24 -38 -29 -55 -35 -94 -35
-46 0 -49 2 -65 38 -13 30 -17 68 -17 165 0 75 4 128 10 132 6 4 30 -3 53 -14
43 -21 97 -28 97 -13 0 13 -57 52 -75 52 -16 0 -20 2 -67 45 -25 21 -28 31
-28 84 0 46 4 63 18 73 9 7 23 24 29 38 l12 25 0 -27 c1 -16 -3 -28 -9 -28 -6
0 -10 -27 -10 -61 0 -53 4 -65 26 -85 14 -13 31 -24 38 -24 7 0 23 -9 36 -20
27 -24 85 -27 94 -5 3 8 12 15 21 15 19 0 41 22 88 90 37 55 49 111 27 125
-15 9 -40 -13 -34 -29 3 -7 -12 -32 -34 -55 -34 -37 -43 -41 -86 -41 -42 0
-51 4 -82 38 -30 32 -34 42 -30 72 3 19 10 36 16 38 16 6 12 32 -5 32 -8 0
-15 -7 -15 -15 0 -21 -15 -19 -31 5 -14 20 -15 20 -47 -16z"/>
<path d="M4827 3614 c-12 -12 4 -24 34 -24 19 0 29 5 29 15 0 15 -50 22 -63 9z"/>
<path d="M4487 3583 c-13 -12 -7 -34 11 -40 9 -4 22 -14 29 -22 15 -21 27 -8
14 16 -5 10 -12 26 -15 36 -5 17 -27 23 -39 10z"/>
<path d="M4605 3580 c-3 -6 -18 -7 -32 -4 l-27 7 23 -31 c15 -22 27 -29 39
-25 21 8 32 23 32 46 0 18 -25 24 -35 7z"/>
<path d="M1320 3515 c-14 -8 -41 -14 -61 -15 -20 0 -42 -7 -49 -15 -7 -8 -20
-15 -30 -15 -10 0 -23 -7 -30 -15 -7 -8 -20 -15 -30 -15 -10 0 -20 -7 -24 -15
-3 -8 -15 -15 -26 -15 -11 0 -23 -7 -26 -15 -4 -10 -20 -15 -44 -15 -21 0 -43
7 -50 15 -14 17 -50 20 -50 5 0 -6 21 -32 47 -57 l47 -47 -3 -118 c-1 -65 1
-123 5 -130 5 -7 9 -33 11 -58 2 -25 4 -54 6 -65 2 -17 -5 -21 -40 -25 -26 -3
-40 -9 -35 -15 11 -16 60 -45 76 -45 7 0 16 -7 20 -15 3 -8 18 -15 33 -15 16
0 38 -6 49 -14 12 -8 44 -18 72 -22 61 -8 68 5 29 53 -13 15 -27 35 -30 43 -4
8 -11 22 -16 30 -23 40 -41 94 -41 128 -1 20 -7 48 -15 62 -9 16 -14 54 -15
103 0 69 3 82 26 112 14 19 50 50 79 70 45 29 62 35 107 35 51 0 54 -2 83 -42
22 -31 30 -55 31 -90 1 -54 6 -63 28 -55 31 12 53 259 26 292 -16 20 -126 20
-160 0z"/>
<path d="M4693 3505 c-13 -12 -23 -27 -23 -32 0 -20 -46 -63 -68 -63 -17 0
-22 -6 -22 -24 0 -37 -17 -40 -29 -6 -6 20 -17 30 -30 30 -11 0 -33 11 -49 25
-18 15 -37 23 -46 19 -19 -7 -21 8 -5 38 13 25 1 39 -13 15 -9 -16 -18 -18
-67 -12 -52 6 -58 4 -80 -19 -21 -22 -22 -26 -7 -32 9 -3 16 -12 16 -19 0 -7
14 -15 32 -19 30 -6 30 -7 14 -25 -13 -14 -14 -21 -5 -26 7 -5 16 -1 21 9 5 9
16 16 23 16 23 0 17 -30 -10 -52 -14 -11 -25 -24 -25 -29 0 -5 11 -9 25 -9 19
0 25 -5 25 -21 0 -24 23 -21 28 4 2 10 -3 17 -13 17 -11 0 -15 7 -13 22 5 36
22 31 41 -12 21 -49 22 -70 2 -70 -8 0 -15 -7 -15 -15 0 -26 29 -16 45 15 19
38 19 57 -2 68 -10 6 -14 16 -10 27 6 14 11 12 32 -13 18 -21 25 -42 25 -71 0
-30 4 -41 15 -41 21 0 21 105 0 117 -22 13 -24 56 -2 61 10 2 17 -3 17 -13 0
-8 7 -18 15 -21 12 -5 15 -24 15 -85 0 -64 3 -79 15 -79 10 0 15 10 15 34 0
19 5 38 10 41 6 3 10 19 10 35 0 65 39 112 65 77 15 -20 35 -22 35 -4 0 7 -7
22 -15 33 -8 10 -15 25 -15 32 0 18 21 15 36 -5 11 -16 15 -15 53 15 30 24 50
32 81 32 29 0 40 4 38 13 -7 19 -86 21 -114 2 -20 -13 -25 -13 -30 -2 -3 8 -4
20 -2 27 5 21 -16 19 -39 -5z m-353 -45 c0 -6 11 -15 25 -20 14 -5 30 -22 35
-36 10 -25 11 -26 29 -10 13 12 21 14 26 7 3 -6 -1 -14 -9 -17 -9 -3 -16 -12
-16 -20 0 -8 -4 -14 -10 -14 -5 0 -10 7 -10 15 0 8 -6 15 -14 15 -8 0 -16 7
-20 15 -3 8 -12 15 -20 15 -7 0 -16 7 -20 15 -3 9 -18 15 -36 15 -29 0 -38 9
-23 23 10 11 63 8 63 -3z"/>
<path d="M3163 3464 c-10 -7 -34 -14 -53 -14 -43 0 -65 -17 -49 -37 15 -17 40
-16 101 3 39 13 62 15 106 8 30 -5 57 -14 59 -21 2 -6 -13 -19 -33 -29 -43
-21 -214 -186 -214 -208 0 -8 -6 -19 -12 -23 -32 -20 -94 -157 -102 -223 -13
-113 -10 -189 9 -210 35 -38 45 -26 45 53 0 60 4 77 21 96 19 20 27 21 82 15
34 -4 67 -11 74 -16 6 -5 122 -12 257 -15 188 -5 249 -9 257 -20 6 -7 26 -13
44 -13 30 0 33 -3 39 -37 10 -62 7 -118 -9 -180 -8 -31 -15 -85 -15 -118 0
-34 -6 -69 -13 -80 -8 -11 -17 -36 -21 -55 -5 -26 -25 -53 -76 -102 -87 -83
-94 -108 -19 -72 114 55 217 254 236 454 8 90 43 103 57 22 22 -125 7 -219
-50 -332 -51 -99 -146 -214 -229 -277 -100 -76 -125 -93 -138 -93 -8 0 -17 -7
-21 -15 -3 -9 -19 -15 -41 -15 -22 0 -38 -6 -41 -15 -9 -22 -274 -22 -274 0 0
11 -11 15 -40 15 -22 0 -40 5 -40 10 0 6 -12 15 -26 20 -26 10 -26 11 -20 83
4 39 14 82 22 94 8 12 14 28 14 35 0 19 63 142 78 151 6 4 12 15 12 23 0 8 37
51 83 97 95 94 111 107 130 107 8 0 22 9 32 20 11 13 25 18 39 14 15 -3 32 5
55 25 30 27 32 31 16 38 -11 4 -20 2 -23 -5 -2 -7 -21 -12 -43 -12 -26 0 -42
-5 -45 -15 -4 -8 -16 -15 -28 -15 -11 -1 -39 -12 -61 -25 -22 -14 -51 -30 -65
-37 -26 -14 -31 -16 -69 -48 -13 -11 -27 -20 -31 -20 -11 0 -140 -131 -140
-142 0 -6 -13 -27 -28 -47 -15 -20 -37 -53 -47 -74 -25 -48 -60 -81 -75 -72
-13 8 -6 80 9 100 5 5 12 32 15 58 9 57 66 159 116 205 71 66 258 182 292 182
27 0 22 29 -6 36 -28 7 -66 -3 -66 -17 0 -5 -11 -9 -24 -9 -14 0 -31 -7 -40
-15 -8 -8 -18 -15 -23 -15 -5 0 -32 -16 -62 -35 -29 -19 -55 -35 -58 -35 -6 0
-84 -60 -98 -76 -5 -6 -20 -18 -32 -25 -31 -21 -106 -126 -126 -177 -23 -58
-24 -317 -2 -346 8 -11 15 -34 15 -50 1 -39 36 -84 52 -68 9 9 9 20 0 45 -7
18 -12 41 -12 50 0 16 4 18 30 21 5 1 22 -20 39 -45 36 -57 140 -139 176 -139
14 0 42 -7 62 -15 46 -20 153 -20 179 0 10 8 33 15 50 15 17 0 37 7 44 15 7 8
27 15 45 15 18 0 38 7 45 15 7 8 18 15 25 15 6 0 31 13 53 30 23 16 45 30 48
30 7 0 83 58 99 76 6 6 30 26 55 44 79 59 152 145 232 273 34 55 68 156 81
246 9 57 22 111 29 120 29 35 47 93 54 173 5 69 4 86 -9 96 -20 17 -27 4 -31
-52 -3 -54 -21 -78 -55 -74 -21 2 -27 10 -32 41 -6 38 -61 107 -85 107 -6 0
-17 7 -24 15 -8 9 -30 15 -60 15 -30 0 -52 6 -60 15 -10 12 -37 15 -121 15
-64 0 -110 4 -114 10 -4 6 -30 11 -58 10 -29 0 -83 3 -120 6 -78 7 -87 17 -79
92 3 35 13 51 53 91 49 49 52 61 15 61 -39 -1 -114 -87 -136 -155 -20 -62 -37
-76 -68 -56 -45 28 110 271 172 271 9 0 19 7 22 15 5 12 29 15 129 15 97 0
125 -3 135 -15 7 -8 25 -15 41 -15 65 0 119 -59 119 -130 0 -31 -7 -45 -45
-81 -50 -48 -52 -54 -29 -63 16 -6 94 31 107 52 4 6 17 12 28 12 11 0 22 7 25
15 4 8 12 15 18 15 14 0 76 61 76 75 0 4 7 16 16 26 8 9 16 37 17 60 2 38 -1
44 -20 47 -12 2 -27 10 -33 18 -7 8 -23 14 -37 14 -13 0 -26 7 -29 15 -4 8
-18 15 -34 15 -15 0 -33 7 -40 15 -7 8 -26 15 -43 15 -17 0 -38 6 -46 14 -24
20 -512 30 -538 10z m-251 -1389 c11 -11 -5 -65 -20 -65 -35 0 -67 52 -39 63
16 7 52 8 59 2z"/>
<path d="M4550 3460 c0 -5 7 -10 15 -10 8 0 15 5 15 10 0 6 -7 10 -15 10 -8 0
-15 -4 -15 -10z"/>
<path d="M2492 3425 c-7 -8 -26 -15 -41 -15 -16 0 -34 -7 -41 -15 -7 -8 -21
-15 -32 -15 -10 0 -21 -7 -24 -15 -5 -11 -21 -15 -59 -15 -30 0 -57 -4 -60
-10 -3 -5 -14 -10 -24 -10 -10 0 -24 -6 -30 -14 -17 -20 3 -31 54 -31 40 0 40
0 37 -35 -2 -19 -10 -42 -17 -50 -15 -17 -30 -157 -20 -189 8 -25 35 -28 36
-3 4 64 8 85 18 95 6 6 11 19 11 29 0 62 116 188 173 188 14 0 39 8 56 18 30
16 32 16 62 0 17 -10 45 -18 62 -18 18 0 40 -7 50 -14 17 -13 24 -46 9 -46 -4
0 -29 -20 -55 -45 -27 -25 -51 -45 -54 -45 -4 0 -46 -31 -98 -73 -47 -37 -152
-107 -162 -107 -7 0 -13 -4 -13 -9 0 -5 -13 -12 -30 -16 -16 -4 -30 -10 -30
-15 0 -4 -13 -13 -30 -19 -16 -5 -30 -15 -30 -22 0 -7 -10 -9 -24 -7 -32 6
-51 -6 -43 -26 8 -20 37 -21 63 -1 10 8 27 15 37 15 11 0 31 6 45 14 15 8 50
24 77 36 28 12 63 28 78 36 16 8 37 14 47 14 9 0 23 7 30 15 7 8 20 15 30 15
10 0 20 7 24 15 3 8 14 15 25 15 11 0 22 4 25 9 3 5 36 27 73 49 69 41 193
159 193 184 0 16 -71 88 -87 88 -6 0 -16 7 -23 15 -7 8 -27 15 -45 15 -18 0
-38 7 -45 15 -17 21 -179 21 -198 0z"/>
<path d="M4790 3426 c0 -11 10 -16 31 -16 38 0 35 24 -4 28 -19 2 -27 -1 -27
-12z"/>
<path d="M4780 3367 c0 -18 24 -29 45 -20 23 8 12 28 -18 31 -18 2 -27 -1 -27
-11z"/>
<path d="M4730 3344 c0 -15 54 -55 67 -50 11 5 7 12 -15 31 -29 24 -52 32 -52
19z"/>
<path d="M4644 3327 c-7 -20 1 -47 15 -47 17 0 22 33 7 49 -14 13 -16 13 -22
-2z"/>
<path d="M4700 3308 c0 -21 47 -60 56 -47 4 6 -1 16 -10 21 -9 5 -16 16 -16
23 0 8 -7 15 -15 15 -8 0 -15 -6 -15 -12z"/>
<path d="M4672 3235 c2 -14 8 -26 13 -26 6 0 11 12 13 26 2 18 -1 25 -13 25
-12 0 -15 -7 -13 -25z"/>
<path d="M4610 3225 c0 -16 6 -25 15 -25 9 0 15 9 15 25 0 16 -6 25 -15 25 -9
0 -15 -9 -15 -25z"/>
<path d="M2770 3035 c0 -7 7 -18 16 -23 26 -15 20 -58 -12 -86 -16 -14 -35
-26 -42 -26 -7 0 -15 -7 -18 -15 -4 -11 -21 -15 -55 -15 -29 0 -60 -7 -75 -16
-28 -19 -104 -13 -151 11 -15 8 -36 12 -46 9 -10 -3 -24 0 -32 6 -18 15 -20 0
-2 -21 37 -45 140 -79 241 -79 65 0 139 18 213 52 45 21 93 75 93 106 0 27
-84 112 -110 112 -11 0 -20 -7 -20 -15z"/>
<path d="M559 2887 c-8 -18 -17 -22 -43 -19 -30 3 -34 0 -47 -35 -13 -34 -13
-41 2 -71 l17 -33 9 38 c9 40 35 52 41 20 6 -29 -7 -67 -22 -67 -8 0 -16 -7
-20 -15 -3 -8 -17 -15 -32 -15 -26 0 -27 1 -21 50 5 45 4 50 -14 50 -11 0 -22
-7 -25 -15 -10 -25 5 -85 21 -85 8 0 15 -4 15 -9 0 -5 14 -14 31 -20 42 -14
33 -37 -13 -33 -33 3 -58 -6 -140 -54 -27 -16 -58 -69 -58 -98 0 -43 77 -44
94 -1 3 8 14 15 25 15 11 0 25 9 31 21 7 11 25 25 42 31 l31 11 -24 18 -24 19
28 0 c22 0 27 -4 27 -25 0 -15 -11 -36 -25 -49 -14 -13 -25 -28 -25 -33 0 -5
-21 -30 -47 -55 -69 -67 -83 -83 -83 -99 0 -8 -5 -20 -12 -27 -8 -8 -8 -15 3
-28 7 -9 12 -30 11 -48 -3 -33 25 -67 65 -80 23 -7 79 36 69 53 -10 15 -33 14
-39 -1 -6 -20 -35 8 -53 51 -21 50 -6 85 69 163 9 10 17 22 17 26 0 5 14 21
30 37 17 16 30 35 30 42 0 7 7 13 15 13 19 0 19 -24 0 -54 -8 -12 -17 -55 -20
-95 -7 -99 22 -189 74 -229 49 -38 105 -62 142 -62 l31 0 -7 -56 c-5 -43 -3
-59 7 -65 20 -13 65 -11 80 4 7 8 23 19 36 26 28 15 30 57 3 66 -22 7 -71 -10
-71 -25 0 -6 -5 -8 -10 -5 -7 4 -7 12 0 25 17 32 12 68 -11 75 -13 4 -25 2
-29 -5 -4 -6 -18 -10 -31 -8 -19 2 -25 10 -27 34 -4 38 29 77 72 88 35 9 46
-4 46 -54 0 -24 7 -42 21 -53 21 -18 49 -17 49 3 0 5 11 10 24 10 27 0 59 41
54 68 -5 28 -47 27 -78 -3 -24 -23 -28 -24 -34 -10 -3 9 -6 34 -6 56 0 37 -2
39 -29 39 -17 0 -32 -4 -35 -9 -4 -5 -29 -12 -57 -16 -39 -6 -54 -4 -68 9 -10
9 -22 16 -27 16 -11 0 -64 65 -64 79 0 6 6 11 13 11 6 1 22 9 35 20 24 20 22
40 -3 40 -16 0 -58 74 -48 84 4 3 27 6 52 6 38 0 48 -4 56 -22 6 -13 13 -22
18 -20 13 5 67 -28 67 -42 0 -13 -41 -56 -53 -56 -4 0 -7 15 -7 34 0 41 -16
56 -26 24 -4 -13 -17 -34 -31 -47 -32 -33 -25 -45 28 -49 39 -2 49 2 88 38
l44 39 28 -20 c16 -11 31 -24 34 -29 4 -6 22 -10 41 -10 31 0 35 3 32 22 -2
13 -11 24 -22 26 -11 3 -26 10 -34 18 -7 8 -20 14 -27 14 -8 0 -22 11 -31 25
-9 14 -24 25 -34 25 -10 0 -31 11 -47 24 -15 13 -43 27 -60 30 -38 9 -49 22
-34 40 15 18 2 75 -20 87 -11 5 -19 16 -19 24 0 7 -6 15 -12 18 -23 7 10 36
45 39 22 2 35 11 44 28 11 21 10 26 -3 28 -25 6 -72 -18 -77 -39 -7 -26 -37
-14 -37 16 0 14 12 31 35 46 38 26 44 43 19 53 -26 10 -34 7 -45 -17z m-227
-377 c-23 -22 -42 -26 -42 -10 0 6 7 10 15 10 8 0 15 5 15 10 0 6 8 10 17 10
14 0 14 -3 -5 -20z m278 -270 c0 -11 -7 -20 -15 -20 -18 0 -19 12 -3 28 16 16
18 15 18 -8z m38 -41 c-2 -6 -8 -10 -13 -10 -5 0 -11 4 -13 10 -2 6 4 11 13
11 9 0 15 -5 13 -11z"/>
<path d="M5038 2808 c-18 -17 -76 -58 -82 -58 -2 0 -29 -24 -59 -54 -60 -58
-61 -82 -4 -65 18 5 35 5 40 0 5 -5 9 -146 9 -313 1 -269 -1 -308 -15 -329
-10 -13 -17 -37 -17 -54 0 -17 -7 -40 -15 -51 -8 -10 -15 -22 -15 -26 0 -5 42
-8 94 -8 71 0 97 4 106 15 7 8 16 15 21 15 11 0 93 56 109 75 7 8 19 15 26 15
8 0 14 7 14 15 0 10 -10 15 -34 15 -21 0 -36 -6 -40 -15 -4 -11 -21 -15 -67
-15 l-62 0 8 53 c12 89 21 441 11 461 -11 24 -2 173 14 238 8 32 18 48 32 51
12 4 18 12 16 24 -4 22 -69 30 -90 11z"/>
<path d="M632 2748 l-23 -11 30 -13 c33 -14 71 -8 71 11 0 7 -10 15 -22 19
-28 7 -28 7 -56 -6z"/>
<path d="M4337 2614 c-27 -31 -87 -139 -87 -158 0 -7 -9 -23 -20 -36 -19 -22
-23 -23 -55 -11 -22 8 -41 9 -51 3 -13 -7 -9 -14 25 -44 45 -38 51 -66 26
-114 -21 -40 -21 -251 0 -278 8 -11 15 -34 15 -51 0 -53 24 -75 82 -75 35 0
58 -6 71 -17 22 -20 94 -24 106 -5 4 7 41 15 89 19 50 3 86 11 93 19 6 8 30
14 54 14 26 0 48 6 55 15 7 8 25 15 41 15 40 0 52 29 52 130 -1 105 -11 179
-29 205 -8 11 -14 27 -14 36 0 40 -139 299 -160 299 -6 0 -12 11 -16 25 -5 19
-13 25 -35 25 -35 0 -35 -3 -6 -43 27 -39 66 -117 67 -135 0 -7 4 -20 9 -30
15 -27 38 -112 46 -167 7 -53 8 -236 0 -243 -2 -3 -12 1 -20 8 -17 14 -25 11
-110 -33 -58 -30 -207 -30 -235 0 -40 44 -50 89 -50 234 0 115 4 150 22 206
21 65 71 161 91 174 14 10 0 39 -18 39 -8 0 -25 -12 -38 -26z m333 -624 c0
-23 -85 -80 -120 -80 -9 0 -23 -7 -30 -15 -7 -8 -25 -15 -40 -15 -16 0 -30 -7
-34 -15 -5 -15 -42 -20 -70 -9 -27 10 -18 23 22 30 20 4 42 10 47 14 6 4 35
15 65 26 30 10 62 23 70 30 8 6 23 14 33 17 9 4 17 11 17 17 0 5 9 10 20 10
11 0 20 -4 20 -10z"/>
<path d="M1031 2439 c-22 -24 -28 -49 -12 -49 5 0 12 -13 16 -30 4 -16 10 -30
15 -30 4 0 11 -16 15 -36 3 -20 13 -43 21 -51 20 -21 17 -52 -11 -98 -14 -22
-29 -50 -34 -62 -5 -11 -15 -24 -20 -28 -17 -10 -14 -122 3 -128 26 -10 29
-62 7 -113 -24 -54 -29 -185 -9 -240 10 -29 9 -39 -15 -86 -36 -72 -35 -86 9
-94 34 -6 36 -8 30 -38 -4 -17 -14 -36 -22 -43 -22 -17 -10 -43 20 -43 39 0
56 11 56 35 0 12 7 28 15 35 34 28 -1 90 -50 90 -49 0 -14 79 64 144 49 41 53
42 75 20 23 -22 21 -27 -29 -78 -25 -26 -45 -55 -45 -65 0 -10 15 -26 35 -37
31 -16 38 -17 72 -5 42 15 54 27 46 48 -6 16 -55 17 -71 1 -21 -21 -14 19 8
45 11 13 29 40 39 60 l19 36 -35 21 c-19 11 -43 20 -54 20 -12 0 -23 10 -29
25 -5 14 -14 25 -20 25 -5 0 -10 12 -10 26 0 14 -4 33 -10 43 -13 25 5 133 25
147 26 19 18 36 -14 29 -25 -5 -29 -3 -35 19 -8 32 -20 33 -34 4 -11 -23 -11
-23 -11 3 -1 15 -4 41 -7 58 -5 24 -3 31 10 31 9 0 16 8 16 19 0 28 20 37 27
12 6 -24 33 -29 33 -6 0 8 7 15 15 15 17 0 21 -35 5 -45 -21 -13 1 -87 31
-106 10 -6 9 -19 -6 -62 -21 -64 -14 -96 36 -143 16 -15 29 -34 29 -41 0 -7
11 -18 24 -25 34 -15 59 -81 51 -133 -5 -38 -3 -43 20 -53 37 -17 44 -9 43 49
0 36 -5 56 -19 70 -11 11 -27 37 -36 59 -11 25 -28 44 -45 51 -16 6 -28 16
-28 21 0 6 -13 27 -30 48 -32 41 -35 51 -21 78 5 9 13 31 18 47 4 17 15 30 23
30 12 0 14 -11 12 -51 -2 -37 1 -56 13 -68 9 -9 13 -21 10 -27 -9 -14 23 -49
45 -49 10 0 20 8 22 18 9 31 -11 150 -30 188 l-19 38 34 23 34 23 19 -22 c16
-21 17 -25 3 -51 -18 -36 -14 -102 7 -102 10 0 15 11 16 32 0 18 8 41 17 51
24 26 22 37 -19 82 -26 29 -44 40 -65 40 -15 0 -31 5 -34 10 -3 6 -19 17 -35
25 -23 12 -34 13 -49 4 -31 -20 -53 -4 -49 37 2 26 -2 40 -16 49 -10 8 -15 18
-12 24 4 6 -1 25 -10 43 -18 34 -41 108 -52 167 -9 43 -24 49 -51 20z m223
-395 c22 -9 20 -37 -4 -52 -25 -15 -60 0 -60 27 0 30 25 40 64 25z m-164 -315
c-6 -11 -15 -17 -21 -14 -5 4 -5 14 1 26 6 11 15 17 21 14 5 -4 5 -14 -1 -26z
m30 -94 c0 -8 -4 -15 -10 -15 -5 0 -10 7 -10 15 0 8 5 15 10 15 6 0 10 -7 10
-15z"/>
<path d="M1760 2376 c0 -8 4 -17 9 -20 10 -7 41 -95 52 -151 17 -88 27 -79
-98 -85 l-112 -5 -46 -38 c-25 -21 -45 -44 -45 -51 0 -8 -7 -19 -15 -26 -22
-19 -19 -101 6 -149 37 -71 73 -90 187 -97 l100 -7 69 38 c75 41 162 120 163
148 0 24 -11 21 -46 -10 -36 -33 -121 -93 -132 -93 -4 -1 -25 -9 -47 -20 -48
-23 -78 -25 -95 -5 -7 8 -25 15 -39 15 -17 0 -39 12 -59 33 -43 45 -45 101 -4
140 36 35 99 67 130 67 23 0 24 -3 20 -57 -2 -46 0 -58 12 -58 10 0 17 13 20
40 4 35 9 40 33 43 28 3 34 -7 18 -36 -5 -9 -12 -43 -16 -74 -6 -46 -4 -58 7
-58 16 0 44 51 53 98 8 40 29 51 54 28 22 -20 51 -21 51 -2 0 8 -17 31 -39 51
-36 35 -39 40 -44 112 -3 42 -10 80 -16 86 -6 6 -11 17 -11 24 0 23 39 14 88
-20 26 -18 55 -36 65 -40 15 -6 17 -3 11 15 -4 12 -17 31 -30 41 -13 10 -30
25 -38 32 -7 8 -33 24 -57 37 -24 12 -46 24 -49 27 -12 14 -73 41 -91 41 -10
0 -19 -6 -19 -14z"/>
<path d="M2226 2205 c-15 -8 -35 -15 -43 -15 -8 0 -35 -12 -60 -27 -49 -28
-77 -76 -63 -104 5 -9 6 -25 3 -37 -3 -13 -1 -22 6 -22 11 0 51 -70 51 -90 0
-23 104 -150 122 -150 10 0 21 -7 24 -15 4 -8 18 -15 34 -15 15 0 33 7 40 15
7 8 18 15 24 15 35 1 113 127 147 237 5 18 14 35 19 38 18 11 11 101 -9 126
-16 20 -26 22 -86 21 -45 -1 -74 -7 -85 -17 -9 -8 -26 -15 -38 -15 -22 0 -39
-17 -27 -28 4 -4 39 -7 78 -7 l72 0 3 -49 c2 -37 -5 -67 -30 -128 -36 -87 -94
-161 -104 -134 -3 9 -17 16 -30 16 -14 0 -27 7 -31 18 -3 9 -12 24 -19 32 -7
8 -16 28 -19 43 -6 24 -2 33 35 67 23 21 39 44 35 49 -11 18 -43 12 -65 -11
-27 -30 -54 -14 -58 33 -2 27 3 40 25 61 40 38 103 68 140 68 26 0 33 4 33 20
0 17 -7 20 -47 20 -27 0 -61 -7 -77 -15z"/>
<path d="M1253 2183 c-7 -2 -13 -12 -13 -21 1 -20 104 -72 142 -72 14 0 31 -7
38 -15 15 -18 50 -20 50 -2 0 22 -57 57 -92 57 l-33 0 23 18 c24 19 20 32 -10
32 -10 0 -18 -7 -18 -15 0 -22 -38 -18 -50 5 -11 20 -16 22 -37 13z"/>
<path d="M1070 2020 c0 -32 14 -40 24 -14 10 27 7 44 -9 44 -10 0 -15 -10 -15
-30z"/>
<path d="M1454 1725 c-9 -22 4 -35 37 -35 16 0 29 -3 29 -8 0 -4 20 -18 45
-32 25 -14 45 -28 45 -32 0 -5 5 -8 11 -8 17 0 129 -89 189 -151 87 -89 126
-133 133 -149 4 -8 16 -28 27 -45 11 -16 23 -37 26 -45 4 -8 13 -22 21 -32 27
-31 6 -213 -33 -291 -8 -16 -14 -41 -14 -57 0 -15 -7 -33 -15 -40 -8 -7 -15
-21 -15 -30 0 -16 -15 -52 -42 -100 -4 -8 -12 -25 -17 -37 -6 -11 -15 -24 -20
-28 -6 -3 -11 -14 -11 -25 0 -10 -7 -20 -15 -24 -8 -3 -15 -14 -15 -25 0 -11
-3 -21 -7 -23 -11 -5 -53 -66 -53 -77 0 -9 -90 -103 -124 -129 -9 -8 -24 -11
-32 -8 -29 11 -14 53 44 123 33 39 74 96 93 128 19 31 41 69 51 84 17 27 108
211 134 271 9 19 22 48 30 63 8 16 14 39 14 52 0 13 5 27 10 30 6 3 10 15 10
26 0 19 -1 19 -25 2 -13 -10 -25 -25 -25 -33 -1 -28 -108 -232 -152 -291 -16
-20 -28 -40 -28 -44 0 -14 -76 -101 -117 -135 -24 -19 -51 -43 -61 -52 -35
-37 -91 -13 -92 39 0 12 -6 26 -12 30 -7 4 -20 24 -29 43 -9 19 -25 54 -36 77
-11 24 -18 55 -15 72 6 40 58 101 87 101 12 0 27 6 34 13 17 21 -7 37 -55 37
-35 0 -48 -7 -90 -45 -26 -25 -51 -45 -55 -45 -4 0 -18 17 -30 38 -13 20 -28
42 -34 48 -5 6 -29 34 -52 61 -53 63 -167 174 -198 193 -13 8 -27 11 -31 7
-12 -12 9 -44 78 -115 37 -38 72 -80 78 -93 6 -13 19 -37 30 -54 78 -123 115
-272 75 -305 -8 -7 -15 -22 -15 -34 0 -12 -6 -31 -14 -42 -8 -11 -16 -31 -18
-44 -1 -14 -10 -26 -19 -28 -17 -3 -88 65 -131 125 -13 17 -44 58 -69 91 -42
55 -89 142 -150 280 -13 28 -29 52 -36 52 -15 0 -18 -66 -4 -75 5 -3 12 -19
16 -36 4 -17 13 -42 21 -57 8 -15 14 -37 14 -48 0 -12 7 -27 15 -34 8 -7 15
-19 15 -27 0 -21 82 -182 121 -239 19 -27 41 -63 51 -80 9 -18 29 -44 43 -60
25 -26 25 -29 9 -41 -25 -18 -35 -16 -70 15 -39 33 -121 152 -130 187 -3 14
-10 27 -14 30 -8 5 -112 216 -144 290 -7 17 -20 46 -28 65 -9 19 -19 46 -21
60 -3 14 -10 39 -15 55 -22 63 -30 119 -21 137 5 9 9 32 9 50 0 18 7 42 15 52
8 11 15 28 15 39 0 17 14 49 41 97 5 8 11 21 14 28 13 32 16 39 35 67 11 17
24 40 29 52 6 12 42 56 82 97 59 62 68 77 54 82 -21 9 -66 -17 -123 -70 -24
-23 -50 -45 -58 -49 -8 -4 -14 -13 -14 -20 -1 -7 -26 -39 -56 -72 -31 -33 -77
-93 -102 -133 -26 -40 -62 -96 -81 -125 -32 -47 -35 -58 -33 -117 1 -36 9 -78
16 -95 28 -60 30 -82 5 -95 -39 -21 -109 -92 -109 -111 0 -9 -6 -24 -13 -31
-16 -16 -50 -118 -43 -126 10 -10 55 21 62 42 10 31 46 76 60 76 7 0 17 6 21
14 17 29 50 28 82 -3 17 -17 31 -36 31 -43 0 -6 9 -32 21 -57 42 -94 81 -176
90 -191 5 -8 13 -25 18 -37 6 -11 15 -24 20 -28 6 -3 11 -15 11 -26 0 -11 7
-22 15 -25 8 -4 15 -14 15 -25 0 -10 6 -22 13 -26 8 -4 17 -15 21 -23 20 -42
96 -150 106 -150 3 0 14 -14 24 -32 23 -38 116 -128 134 -128 7 0 21 -6 32
-12 17 -11 22 -9 37 12 31 43 43 64 59 105 2 6 8 17 13 25 9 15 15 29 64 140
21 48 42 106 53 147 2 7 14 13 26 13 20 0 25 -8 37 -57 7 -32 19 -69 25 -83 7
-14 20 -40 29 -58 9 -19 17 -42 17 -52 0 -9 7 -23 15 -30 8 -7 15 -22 15 -34
0 -12 7 -31 15 -42 8 -10 15 -26 15 -34 1 -16 34 -60 45 -60 3 0 30 15 59 34
93 59 269 247 325 346 8 13 24 44 37 69 13 24 28 49 32 55 5 6 26 56 46 111
21 55 42 109 46 120 5 11 14 42 22 68 16 60 31 74 61 58 71 -38 107 -69 107
-94 0 -9 7 -20 15 -23 8 -4 15 -12 15 -20 0 -16 16 -19 25 -4 3 6 -1 13 -9 16
-17 6 -22 39 -8 48 4 2 27 -1 51 -7 41 -11 43 -13 38 -43 -3 -17 -15 -52 -26
-77 -13 -29 -21 -66 -21 -101 0 -30 -4 -58 -10 -61 -14 -8 -13 -78 1 -92 6 -6
12 -26 13 -45 1 -22 7 -34 19 -36 13 -3 17 4 19 35 0 21 0 50 -1 65 -4 49 31
162 67 218 43 66 101 130 119 130 8 0 16 7 19 15 4 8 14 15 24 15 10 0 23 7
30 15 7 8 28 15 47 15 19 0 51 7 70 16 32 16 37 16 69 0 19 -9 57 -16 84 -16
27 0 52 -5 55 -10 3 -6 18 -10 33 -10 70 -1 65 -40 -13 -115 -71 -69 -100 -93
-175 -150 -36 -27 -68 -53 -71 -58 -6 -8 -38 -29 -69 -43 -8 -4 -19 -13 -23
-21 -4 -7 -15 -13 -22 -13 -8 0 -15 -4 -15 -10 0 -5 -11 -12 -24 -16 -14 -3
-27 -12 -30 -20 -3 -8 -15 -14 -26 -14 -11 0 -20 -3 -20 -7 0 -15 -223 -133
-251 -133 -10 0 -24 -8 -31 -18 -7 -10 -22 -22 -33 -26 -20 -7 -20 -8 -1 -22
17 -12 22 -12 36 1 9 8 25 15 36 15 11 0 29 7 40 15 10 8 29 15 41 15 12 0 28
6 35 14 8 7 25 17 38 20 26 8 74 29 122 53 14 7 36 13 47 13 12 0 24 7 27 15
4 8 18 15 34 15 15 0 33 7 40 15 7 8 26 15 42 15 16 0 31 6 34 15 4 8 17 15
29 15 13 0 27 5 30 11 4 5 17 15 28 20 12 5 36 18 52 29 17 11 40 24 53 30 12
5 22 14 22 20 0 5 7 10 16 10 22 0 162 109 214 168 65 72 68 78 76 106 5 23
-2 34 -56 86 -34 33 -68 60 -75 60 -7 0 -18 7 -25 15 -7 8 -23 15 -35 15 -12
0 -28 7 -35 15 -8 9 -30 15 -57 15 -30 0 -45 5 -49 15 -8 21 -170 21 -198 0
-11 -8 -34 -15 -50 -15 -17 0 -40 -7 -50 -15 -11 -8 -30 -15 -43 -15 -13 0
-23 -4 -23 -10 0 -5 -12 -13 -27 -16 -16 -4 -33 -13 -38 -21 -6 -8 -30 -14
-60 -15 -28 0 -59 -7 -70 -14 -11 -8 -28 -14 -39 -14 -11 0 -27 -7 -37 -16
-25 -23 -59 -10 -59 23 0 25 -38 69 -94 110 -27 19 -28 22 -14 36 18 18 31
169 17 201 -12 27 -31 58 -45 71 -6 5 -39 43 -75 83 -35 41 -75 80 -90 87 -14
8 -37 25 -50 39 -13 14 -31 26 -39 26 -8 0 -28 14 -44 30 -16 17 -37 30 -47
30 -10 0 -22 6 -26 13 -4 7 -32 24 -60 37 -29 14 -53 28 -53 32 0 5 -11 8 -24
8 -13 0 -29 7 -36 15 -7 8 -21 15 -31 15 -11 0 -28 9 -39 20 -24 24 -88 28
-96 5z m646 -798 c0 -31 -15 -51 -34 -44 -23 9 -21 64 2 70 24 5 32 -1 32 -26z
m1058 -179 c-5 -32 -28 -35 -28 -4 0 17 5 26 16 26 10 0 14 -7 12 -22z m-1817
-167 c11 -38 10 -40 -27 -80 -39 -41 -74 -54 -74 -27 0 7 6 19 14 25 8 7 17
23 20 36 4 14 11 25 16 25 6 0 10 14 10 30 0 44 27 38 41 -9z m-103 -159 c2
-15 -2 -22 -12 -22 -11 0 -16 9 -16 26 0 31 23 28 28 -4z m257 16 c29 -13 31
-21 10 -38 -18 -15 -31 -7 -37 25 -6 29 -7 29 27 13z m-339 -55 c3 -10 10 -26
15 -35 15 -29 10 -53 -16 -78 -15 -14 -25 -35 -25 -52 0 -54 -80 -50 -117 5
-13 18 -23 36 -23 40 0 3 27 9 60 13 46 5 61 11 65 25 4 11 11 19 17 19 6 0 7
15 3 40 -5 27 -3 40 4 40 7 0 14 -8 17 -17z m415 -73 c5 0 9 -13 9 -30 0 -27
3 -30 29 -30 17 0 32 4 36 9 3 5 19 12 35 16 17 4 30 11 30 16 0 5 7 9 15 9 8
0 15 -4 15 -8 0 -17 -97 -112 -114 -112 -25 0 -56 19 -56 33 0 7 -9 20 -20 30
-25 21 -29 82 -4 73 9 -3 20 -6 25 -6z"/>
<path d="M3940 1450 c-13 -11 -31 -20 -40 -20 -10 0 -23 -7 -30 -15 -7 -8 -20
-15 -30 -15 -10 0 -23 -7 -30 -15 -7 -8 -20 -15 -30 -15 -10 0 -23 -7 -30 -15
-7 -8 -17 -15 -22 -15 -18 0 -165 -119 -249 -202 -47 -47 -95 -91 -107 -97
-28 -15 -28 -27 -1 -34 15 -4 31 4 58 31 21 20 57 50 82 67 24 16 46 32 49 35
14 14 70 50 78 50 5 0 15 7 22 15 7 8 20 15 30 15 9 0 29 9 43 20 28 22 62 26
73 8 4 -7 -2 -18 -14 -26 -14 -9 -22 -25 -22 -42 0 -15 -7 -44 -15 -63 -9 -22
-15 -68 -15 -115 0 -43 -3 -82 -7 -86 -5 -4 -9 -17 -10 -29 -13 -130 -15 -140
-37 -161 -67 -63 -164 -184 -156 -195 10 -17 43 -6 78 26 15 14 36 29 47 35
11 5 31 15 44 23 13 7 29 11 35 9 16 -6 36 -54 36 -88 0 -17 7 -40 15 -50 8
-11 15 -30 15 -42 0 -12 7 -27 15 -34 8 -7 15 -18 15 -25 0 -17 32 -79 43 -84
5 -2 12 -14 18 -28 5 -13 13 -21 19 -18 13 8 13 58 0 71 -13 13 -49 245 -50
322 0 27 4 32 24 32 13 0 29 7 36 15 8 10 31 15 69 15 35 0 65 6 77 15 24 19
74 19 98 0 11 -8 36 -15 57 -15 20 0 42 -7 49 -15 7 -8 22 -15 34 -15 29 0
111 -84 139 -143 19 -38 23 -61 20 -124 -2 -72 -4 -78 -41 -121 -21 -25 -47
-50 -57 -56 -11 -6 -24 -17 -28 -23 -4 -7 -18 -13 -31 -13 -13 0 -29 -7 -36
-15 -8 -9 -30 -15 -59 -15 -26 0 -52 -5 -58 -11 -6 -6 -38 -13 -72 -16 -46 -4
-66 -2 -85 11 -14 9 -36 16 -49 16 -13 0 -32 7 -43 15 -10 8 -29 15 -42 15
-12 0 -25 7 -28 15 -4 8 -16 15 -29 15 -13 0 -25 6 -28 13 -2 7 -24 22 -49 34
-40 21 -258 233 -258 253 0 4 -16 32 -36 61 -20 30 -41 67 -46 82 -6 15 -15
26 -22 24 -18 -6 -19 -46 -2 -53 9 -3 16 -14 16 -25 0 -10 11 -30 25 -45 14
-15 25 -33 25 -40 0 -13 75 -129 105 -164 58 -67 211 -200 229 -200 3 0 25
-13 49 -30 25 -16 52 -30 60 -30 8 0 17 -7 21 -15 3 -8 17 -15 31 -15 14 0 40
-8 58 -17 45 -23 362 -25 398 -2 13 9 36 19 52 23 15 3 27 11 27 16 0 6 7 10
15 10 18 0 120 104 142 145 25 49 36 105 36 185 -1 89 -11 149 -28 170 -7 8
-14 20 -16 26 -2 6 -24 37 -48 70 -45 60 -119 124 -144 124 -8 0 -20 7 -27 15
-7 8 -28 15 -47 15 -21 0 -36 6 -39 15 -5 12 -25 15 -90 15 -81 0 -85 1 -94
26 -13 34 -13 94 2 149 7 24 9 47 5 51 -14 14 -56 -16 -62 -43 -4 -15 -10 -36
-16 -45 -5 -10 -9 -28 -9 -42 0 -30 -24 -89 -45 -110 -9 -9 -29 -16 -45 -16
-16 0 -30 -7 -34 -15 -7 -18 -56 -20 -56 -2 0 26 40 224 55 277 9 30 23 80 31
110 27 108 53 182 71 202 15 16 15 21 3 28 -24 15 -55 11 -80 -10z m-95 -666
c0 -15 -55 -78 -61 -71 -9 9 15 75 29 81 16 6 32 1 32 -10z"/>
<path d="M1327 1453 c-13 -12 -7 -23 13 -23 11 0 20 7 20 15 0 15 -21 21 -33
8z"/>
<path d="M3110 425 c0 -8 6 -15 13 -15 17 -1 72 -50 86 -78 7 -12 9 -32 6 -43
-10 -31 -65 -89 -85 -89 -10 0 -20 -7 -24 -15 -3 -9 -18 -15 -34 -15 -16 0
-35 -7 -42 -15 -7 -9 -29 -15 -54 -15 -23 0 -51 -7 -62 -15 -31 -23 -227 -20
-279 5 -22 11 -52 19 -67 20 -16 0 -28 5 -28 10 0 6 -9 10 -20 10 -11 0 -20
-7 -20 -15 0 -8 6 -15 14 -15 8 0 16 -7 19 -14 7 -18 106 -66 159 -78 21 -4
57 -12 81 -18 69 -15 237 -12 271 5 15 8 40 15 55 15 14 0 35 7 45 15 11 8 30
15 42 15 12 0 27 7 34 15 7 8 18 15 24 15 7 0 33 22 59 48 40 41 47 54 47 87
0 36 -6 46 -60 97 -82 79 -180 124 -180 83z"/>
</g>
</svg>
