<?xml version="1.0" standalone="no"?>
<!DOCTYPE svg PUBLIC "-//W3C//DTD SVG 20010904//EN"
 "http://www.w3.org/TR/2001/REC-SVG-20010904/DTD/svg10.dtd">
<svg version="1.0" xmlns="http://www.w3.org/2000/svg"
 width="175.000000pt" height="130.000000pt" viewBox="0 0 175.000000 130.000000"
 preserveAspectRatio="xMidYMid meet">
<metadata>
Created by potrace 1.10, written by Peter Selinger 2001-2011
</metadata>
<g transform="translate(0.000000,130.000000) scale(0.050000,-0.050000)"
fill="#38761d" stroke="none">
<path d="M150 2532 c-48 -64 -90 -156 -90 -198 1 -13 28 19 61 72 58 93 108
132 133 106 7 -6 -16 -104 -50 -217 -35 -113 -69 -230 -76 -260 -15 -66 -36
-56 -87 41 -52 98 -51 39 0 -75 27 -58 36 -110 29 -150 -12 -57 -6 -54 95 57
59 65 123 121 141 123 19 3 75 28 125 56 l91 51 20 -54 21 -54 37 49 c36 49
36 50 -24 126 -34 43 -100 146 -148 229 -104 184 -189 214 -278 98z m235 -160
c37 -77 21 -118 -18 -48 -23 42 -24 39 -16 -34 l9 -80 -29 60 -29 60 -1 -102
c-1 -98 -54 -208 -101 -208 -21 0 31 201 84 325 49 113 59 116 101 27z m95
-176 c0 -22 -17 -37 -130 -121 -56 -41 -55 -38 20 58 74 95 110 116 110 63z"/>
<path d="M3000 2550 c-3 -33 -3 -67 -2 -76 2 -10 -7 -11 -18 -4 -12 7 -17 29
-11 48 8 23 1 35 -19 35 -16 0 -30 -8 -30 -18 0 -9 -10 -11 -23 -3 -15 9 -18
5 -9 -9 8 -13 25 -18 36 -10 14 8 16 4 7 -11 -8 -14 -28 -20 -44 -14 -16 7
-24 3 -17 -8 7 -11 1 -20 -14 -20 -20 -1 -20 -5 2 -18 24 -15 24 -19 0 -27
-15 -5 -5 -5 22 -1 58 10 34 -24 -30 -41 -22 -6 -11 -9 25 -6 36 4 65 -1 65
-10 0 -10 -22 -17 -49 -17 -36 0 -48 -10 -46 -39 2 -21 10 -34 19 -28 9 5 16
-1 16 -13 0 -13 11 -16 25 -7 19 11 20 8 3 -14 -18 -22 -14 -38 14 -67 36 -36
38 -37 51 -1 13 34 15 34 31 -2 11 -27 14 -17 6 31 -7 50 -4 61 10 40 11 -16
20 -52 21 -80 2 -45 5 -43 31 20 27 66 28 67 18 10 -8 -40 -5 -51 7 -33 15 23
20 23 30 0 6 -15 6 -2 0 28 -7 34 -3 55 11 55 12 0 20 -7 17 -15 -5 -16 11
-25 46 -25 12 0 -4 23 -35 52 -31 28 -46 46 -33 40 13 -7 49 2 80 20 l57 31
-54 -8 c-30 -5 -50 -2 -44 8 6 9 35 17 64 18 52 1 52 1 -14 30 -37 16 -62 35
-56 42 14 14 -56 110 -77 106 -8 -1 -22 10 -31 24 -12 19 -18 13 -20 -23 -3
-47 -4 -46 -18 10 l-15 60 -5 -60z m113 -117 c35 -30 -6 -153 -50 -153 -29 1
-29 3 -3 20 26 17 25 19 -5 20 -19 0 -35 -11 -35 -24 0 -34 -46 14 -52 54 -3
22 4 25 27 13 35 -20 105 -7 105 19 0 10 -33 18 -74 18 -69 0 -71 2 -35 29 30
23 96 25 122 4z"/>
<path d="M3120 2559 c0 -11 22 -43 49 -70 27 -27 38 -49 25 -49 -15 0 -12 -8
6 -20 17 -11 44 -19 60 -18 20 0 16 7 -10 18 -27 12 -30 18 -10 19 27 1 27 4
0 21 -16 11 -22 20 -12 20 10 0 -6 23 -36 50 -60 55 -72 60 -72 29z"/>
<path d="M1248 2397 c-6 -9 -40 -17 -75 -17 -91 0 -132 -37 -145 -130 -9 -68
-7 -74 13 -40 32 54 80 90 118 89 20 0 13 -11 -19 -29 -49 -28 -49 -29 -6 -29
42 -1 44 -9 41 -136 -5 -238 43 -291 160 -174 38 38 64 76 57 83 -7 7 -23 3
-36 -10 -67 -67 -116 -15 -116 120 0 77 2 80 55 68 l55 -13 -55 42 c-32 25
-54 60 -53 86 2 39 3 38 16 -7 33 -119 222 -72 222 56 0 26 -7 24 -31 -12 -50
-71 -173 -35 -143 42 11 29 -41 39 -58 11z"/>
<path d="M781 2309 c-59 -28 -120 -46 -135 -40 -30 11 -35 -12 -8 -40 37 -41
42 -286 6 -293 -20 -4 10 -26 73 -53 128 -55 133 -52 84 46 -71 139 -76 250
-13 305 75 64 128 59 159 -14 33 -77 53 -57 53 53 0 107 -48 115 -219 36z"/>
<path d="M2070 2299 c-33 -15 -27 -18 30 -17 121 3 125 -1 58 -57 -139 -117
-235 -368 -158 -415 11 -7 20 9 20 38 0 27 7 54 15 59 22 14 482 -17 498 -33
35 -35 -30 -318 -86 -379 -47 -50 -50 -56 -13 -38 66 35 123 127 150 243 27
118 70 71 45 -49 -54 -257 -346 -452 -558 -371 -123 46 78 440 225 440 12 0
27 9 34 19 67 109 -264 -107 -352 -229 -76 -106 -89 -104 -58 10 24 91 105
178 220 241 104 56 34 47 -78 -10 -116 -59 -217 -155 -234 -223 -19 -75 2
-266 31 -294 21 -19 24 -15 16 21 -14 58 -10 57 60 -14 208 -207 670 48 777
429 40 143 60 307 29 235 -24 -56 -53 -58 -67 -5 -15 57 -117 93 -309 110
-180 15 -210 47 -130 136 28 31 29 38 5 30 -16 -5 -50 -39 -75 -75 -40 -59
-45 -62 -45 -22 0 95 109 168 233 155 155 -16 218 -87 137 -154 -53 -44 -18
-45 66 -2 219 112 72 243 -270 241 -97 -1 -194 -10 -216 -20z"/>
<path d="M1610 2272 c-33 -15 -82 -36 -110 -48 -34 -15 -39 -22 -16 -23 29 -1
33 -17 25 -106 -6 -76 -4 -91 8 -54 49 145 151 218 252 179 28 -10 51 -23 51
-28 0 -17 -229 -186 -310 -228 -103 -55 -81 -55 64 -1 124 46 299 149 343 203
74 89 -162 171 -307 106z"/>
<path d="M1866 2012 c27 -68 -152 -131 -259 -91 -55 21 -56 20 -21 -15 53 -54
258 -51 314 5 44 45 38 98 -14 118 -21 8 -27 2 -20 -17z"/>
<path d="M358 1927 c-61 -17 -93 -107 -49 -139 38 -28 38 -28 0 -29 -55 -1
-116 -51 -98 -81 10 -15 7 -19 -8 -10 -13 8 -23 5 -23 -7 0 -31 44 -26 98 12
45 31 46 31 23 -10 -12 -24 -30 -43 -38 -43 -9 0 -26 -20 -37 -45 -34 -74 25
-179 64 -115 7 12 1 19 -14 15 -57 -11 -39 94 26 155 35 33 57 47 48 32 -52
-91 29 -262 123 -262 22 0 28 -13 21 -40 -8 -30 0 -40 29 -40 22 0 34 9 27 20
-7 11 1 14 19 8 17 -7 31 -2 31 10 0 12 -13 22 -28 22 -15 0 -33 13 -39 30 -7
18 -25 24 -44 17 -25 -10 -31 -3 -26 25 11 54 69 59 83 7 9 -36 17 -39 53 -20
53 29 54 68 1 51 -28 -9 -40 -4 -40 18 0 23 -14 28 -57 20 -69 -14 -138 40
-103 82 15 18 16 30 1 39 -31 20 -25 51 9 51 36 0 40 -62 6 -96 -19 -19 -14
-24 19 -24 23 0 49 10 56 21 7 12 40 16 76 9 l63 -12 -50 41 c-27 22 -74 52
-104 65 -29 13 -48 32 -43 41 6 9 0 30 -14 46 -20 24 -16 29 24 31 26 0 36 6
23 11 -13 5 -18 24 -12 41 9 21 3 28 -16 21 -15 -5 -25 -22 -22 -37 5 -22 2
-23 -18 -4 -19 19 -19 31 1 55 26 31 19 34 -41 18z"/>
<path d="M3295 1821 c-50 -46 -57 -60 -30 -60 40 -1 52 -332 16 -456 -24 -86
82 -96 173 -15 l56 49 -61 -11 -61 -11 4 264 c3 197 11 268 31 281 20 13 15
17 -18 18 -24 0 -74 -27 -110 -59z"/>
<path d="M2860 1681 c-27 -55 -50 -76 -70 -68 -30 11 -42 -15 -18 -39 7 -7 14
-79 15 -161 4 -180 3 -180 148 -179 174 1 278 36 294 98 24 99 -109 428 -174
428 -13 0 -13 -9 1 -25 91 -112 105 -364 21 -393 -201 -70 -287 92 -178 333
49 107 16 112 -39 6z"/>
<path d="M696 1629 c-7 -7 0 -43 16 -81 25 -59 25 -76 1 -123 -18 -35 -28
-121 -29 -235 0 -99 -6 -196 -14 -215 -9 -22 -5 -35 10 -35 15 0 20 -16 14
-40 -13 -50 36 -55 55 -6 8 21 1 44 -18 58 -41 29 -39 39 12 87 54 49 92 31
45 -21 -26 -29 -29 -45 -13 -61 27 -27 93 -6 75 23 -7 11 -22 15 -33 8 -12 -7
-6 10 12 38 32 48 31 51 -8 64 -46 14 -70 85 -56 160 5 28 2 50 -8 50 -9 0
-18 20 -19 45 -2 43 -3 43 -19 -5 l-17 -50 4 50 c3 28 16 48 29 45 52 -10 60
64 17 161 -24 53 -49 90 -56 83z"/>
<path d="M1189 1565 c46 -119 40 -145 -36 -145 -162 0 -215 -182 -69 -238 72
-27 177 4 237 72 l49 53 -60 -41 c-94 -64 -146 -73 -201 -37 -61 40 -62 79 -5
120 60 42 76 39 78 -14 2 -34 5 -36 12 -10 16 60 40 38 30 -28 -7 -43 -2 -58
13 -49 13 8 23 32 23 55 0 32 9 37 45 26 43 -14 43 -12 12 23 -28 34 -63 168
-42 168 4 0 27 -10 51 -23 40 -22 42 -21 15 11 -27 33 -125 92 -152 92 -7 0
-7 -16 0 -35z"/>
<path d="M1475 1468 c-110 -34 -118 -64 -55 -188 75 -147 165 -147 240 0 78
154 32 221 -110 160 -35 -15 -34 -17 15 -19 45 -1 55 -10 55 -52 0 -75 -54
-170 -89 -156 -42 16 -59 84 -29 120 22 26 20 30 -13 24 -24 -4 -39 4 -39 23
0 17 12 28 26 25 15 -4 21 3 15 14 -7 11 10 26 38 33 28 7 51 20 51 30 0 10
-2 17 -5 17 -3 -1 -48 -15 -100 -31z"/>
<path d="M800 1406 c-26 -27 -37 -55 -28 -70 9 -14 14 -48 12 -77 -3 -32 16
-76 46 -111 43 -49 62 -113 52 -173 -1 -8 7 -15 18 -15 43 0 18 113 -40 184
-49 59 -57 81 -41 119 17 43 19 44 20 6 0 -23 15 -59 32 -80 28 -36 30 -33 25
56 -4 53 3 94 14 94 11 -1 18 -25 15 -55 -4 -51 -4 -52 15 -9 23 54 8 99 -37
113 -18 6 -9 8 20 4 46 -5 51 -1 32 29 -29 46 -103 39 -155 -15z"/>
<path d="M505 1065 c-139 -151 -192 -252 -178 -344 9 -56 4 -83 -18 -102 -32
-26 -89 -124 -89 -152 0 -8 26 11 58 41 74 71 75 70 182 -138 91 -178 193
-314 262 -351 38 -21 158 175 158 258 0 63 48 2 93 -118 67 -177 69 -178 193
-61 108 102 206 261 253 407 29 89 47 93 113 21 28 -31 44 -39 37 -20 -10 26
-5 31 19 22 17 -7 32 -14 32 -16 0 -3 -9 -56 -21 -118 -14 -78 -15 -125 -1
-149 18 -30 21 -27 21 19 3 220 303 403 438 266 29 -30 -249 -246 -467 -364
-166 -90 -113 -82 133 20 330 137 522 280 490 364 -40 103 -269 155 -420 95
-99 -39 -231 -85 -246 -85 -4 0 -7 13 -7 29 0 16 -17 39 -38 50 -31 17 -35 32
-22 89 27 120 -148 299 -389 400 -123 52 -121 38 12 -63 192 -145 264 -251
249 -364 -14 -111 -150 -393 -221 -460 -70 -66 -64 -18 11 92 68 99 206 386
192 400 -5 4 -32 -40 -62 -100 -53 -108 -200 -293 -233 -293 -69 0 -114 207
-55 249 43 30 43 31 4 31 -22 0 -51 -11 -64 -24 -19 -19 -49 1 -138 90 -121
122 -171 141 -71 27 122 -139 161 -421 53 -379 -35 13 -179 219 -209 298 -11
29 -24 49 -30 44 -19 -19 74 -249 142 -351 73 -111 49 -157 -27 -50 -226 322
-248 566 -72 796 90 118 45 114 -67 -6z"/>
<path d="M2530 921 c-108 -62 -311 -241 -275 -241 13 0 28 9 35 20 14 22 211
140 235 140 7 0 6 -20 -3 -45 -9 -25 -23 -99 -31 -165 -12 -91 -29 -135 -74
-187 -68 -77 -64 -101 10 -53 55 36 93 26 93 -22 0 -32 79 -196 89 -185 4 4
-3 63 -14 132 -24 144 -24 143 78 166 216 49 404 -164 262 -296 -167 -154
-469 -53 -638 213 -81 127 -71 80 11 -55 206 -338 652 -424 782 -150 82 174
-76 407 -277 407 -57 0 -73 31 -58 109 15 79 -26 50 -55 -39 -21 -65 -90 -127
-113 -103 -12 12 66 323 95 376 30 56 -33 47 -152 -22z"/>
<path d="M2107 270 c132 -99 -149 -232 -363 -171 -84 24 -65 -12 28 -51 256
-107 608 89 391 217 -71 42 -108 45 -56 5z"/>
</g>
</svg>
