<?xml version="1.0" standalone="no"?>
<!DOCTYPE svg PUBLIC "-//W3C//DTD SVG 20010904//EN"
 "http://www.w3.org/TR/2001/REC-SVG-20010904/DTD/svg10.dtd">
<svg version="1.0" xmlns="http://www.w3.org/2000/svg"
 width="175.000000pt" height="130.000000pt" viewBox="0 0 175.000000 130.000000"
 preserveAspectRatio="xMidYMid meet">
<metadata>
Created by potrace 1.10, written by Peter Selinger 2001-2011
</metadata>
<g transform="translate(0.000000,130.000000) scale(0.100000,-0.100000)"
fill="#000000" stroke="none">
<path d="M86 1281 c-19 -20 -59 -111 -53 -117 2 -3 10 8 16 25 7 16 25 41 41
56 24 23 30 25 35 13 7 -17 -64 -268 -75 -268 -3 0 -16 19 -28 43 -24 45 -20
15 6 -43 17 -40 17 -37 7 -70 -5 -18 8 -8 50 38 31 34 60 60 64 58 4 -3 31 8
60 24 l52 29 14 -32 c8 -18 14 -26 15 -18 0 8 6 22 14 30 13 14 10 22 -25 68
-22 28 -55 79 -73 113 -31 58 -36 63 -70 65 -23 1 -41 -4 -50 -14z m107 -92
c19 -34 22 -49 8 -49 -5 0 -12 12 -16 28 -4 15 -9 22 -12 15 -2 -6 0 -28 6
-47 12 -45 -2 -48 -17 -3 l-11 32 1 -45 c1 -25 -3 -54 -9 -65 -14 -26 -53 -61
-53 -48 0 33 66 213 79 213 3 0 14 -14 24 -31z m47 -90 c0 -10 -49 -56 -78
-73 -19 -11 -7 10 33 56 28 33 45 39 45 17z"/>
<path d="M1500 1275 c-1 -16 -2 -33 -1 -37 0 -5 -3 -8 -7 -8 -17 0 -21 13 -9
31 6 10 8 21 5 24 -10 10 -49 -15 -43 -26 4 -5 11 -6 17 -3 7 5 8 2 4 -5 -5
-7 -15 -10 -23 -7 -8 3 -11 1 -8 -4 3 -6 0 -10 -7 -10 -9 0 -9 -3 2 -10 13 -8
12 -10 -4 -10 -11 0 -17 -3 -13 -6 3 -3 15 -3 28 1 15 5 18 10 9 15 -9 5 -8 9
4 13 8 3 17 3 20 -1 8 -14 -10 -33 -40 -42 -29 -8 -29 -8 -3 -9 15 -1 38 10
55 27 26 23 29 32 23 62 l-6 35 -3 -30z"/>
<path d="M1525 1270 c6 -42 58 -90 95 -89 21 0 20 2 -13 16 -24 10 -36 20 -33
29 3 8 2 13 -2 13 -22 -4 -33 4 -42 34 l-10 32 5 -35z"/>
<path d="M1560 1282 c0 -7 -5 -10 -11 -6 -8 4 -8 0 0 -15 7 -11 17 -20 24 -18
7 1 11 -3 10 -10 -3 -15 33 -36 50 -29 7 2 3 5 -8 5 -17 1 -17 3 -5 11 11 7
11 10 2 10 -7 0 -10 5 -7 10 3 6 1 10 -5 10 -6 0 -8 5 -5 10 5 9 -1 12 -21 9
-4 0 -11 5 -15 13 -7 10 -9 10 -9 0z m34 -28 c3 -8 2 -12 -4 -9 -6 3 -10 10
-10 16 0 14 7 11 14 -7z"/>
<path d="M630 1205 c-7 -8 -27 -15 -44 -15 -45 0 -66 -19 -72 -65 -5 -34 -4
-37 7 -20 17 29 40 45 63 45 17 -1 15 -4 -9 -15 -29 -13 -29 -13 -5 -14 24 -1
25 -3 22 -67 -2 -36 -1 -76 2 -90 9 -36 48 -32 80 10 l26 34 -31 -11 c-38 -15
-49 -1 -49 61 l0 44 33 -7 32 -6 -32 20 c-33 21 -42 51 -24 80 5 8 8 0 7 -25
-1 -34 2 -38 34 -52 19 -7 32 -11 29 -7 -4 3 4 17 17 30 13 13 24 32 24 42 0
15 -2 14 -16 -5 -8 -12 -23 -22 -33 -22 -24 0 -45 25 -38 45 8 20 -8 28 -23
10z m-43 -31 c-3 -3 -12 -4 -19 -1 -8 3 -5 6 6 6 11 1 17 -2 13 -5z"/>
<path d="M1500 1191 c0 -6 4 -13 10 -16 6 -3 7 1 4 9 -7 18 -14 21 -14 7z"/>
<path d="M1526 1188 c3 -4 9 -8 15 -8 5 0 9 4 9 8 0 5 -7 9 -15 9 -8 0 -12 -4
-9 -9z"/>
<path d="M391 1155 c-34 -16 -62 -23 -75 -19 -20 6 -21 6 -3 -14 13 -14 19
-41 22 -86 4 -65 3 -67 -18 -61 l-22 7 22 -16 c22 -17 103 -49 103 -41 0 2 -9
19 -20 38 -12 19 -23 57 -27 84 -5 46 -3 51 22 71 43 34 85 24 85 -21 0 -10 5
-15 10 -12 6 3 10 26 10 51 0 41 -2 44 -27 44 -16 0 -52 -11 -82 -25z"/>
<path d="M1440 1168 c-19 -6 -29 -13 -22 -15 6 -3 10 -9 7 -14 -4 -5 2 -6 12
-2 16 6 16 5 4 -10 -11 -14 -11 -18 3 -23 9 -3 14 -10 11 -14 -3 -4 2 -10 10
-14 20 -7 28 10 15 31 -9 15 -10 14 -4 -7 7 -29 2 -26 -16 9 -10 19 -10 22 2
16 7 -3 2 3 -12 16 -23 20 -23 21 -4 15 15 -4 24 -2 28 9 3 8 4 15 3 14 -1 0
-18 -5 -37 -11z"/>
<path d="M1548 1148 c-19 -21 -28 -43 -27 -63 2 -30 2 -30 12 8 6 20 14 37 18
37 5 0 6 -8 3 -17 -3 -10 1 -7 9 7 9 14 13 28 11 32 -3 4 2 5 10 2 9 -3 14
-10 11 -14 -8 -14 16 -23 28 -11 7 7 5 12 -8 17 -18 7 -18 8 1 16 15 7 14 8
-8 5 -15 -2 -29 0 -30 4 -2 5 -15 -6 -30 -23z"/>
<path d="M1035 1149 c-15 -7 -12 -8 15 -4 52 7 66 -7 31 -32 -48 -36 -91 -111
-91 -159 0 -24 5 -46 10 -49 6 -3 10 5 10 19 0 14 3 27 8 29 11 7 240 -8 248
-16 4 -4 2 -41 -4 -83 -8 -61 -16 -82 -39 -107 -27 -30 -27 -30 -3 -15 32 19
67 81 76 133 7 39 7 39 16 13 20 -58 -35 -163 -112 -214 -74 -49 -190 -42
-190 11 0 58 92 185 135 185 7 0 17 5 20 11 9 14 -61 -16 -107 -46 -20 -13
-51 -44 -69 -69 -18 -25 -34 -44 -36 -42 -7 7 16 80 32 104 9 12 40 36 68 52
29 16 45 30 37 30 -27 0 -117 -59 -150 -97 -30 -36 -31 -42 -28 -105 2 -39 9
-73 17 -80 11 -11 12 -9 6 10 -9 30 1 28 36 -7 61 -62 159 -48 265 38 42 34
68 65 86 103 35 73 58 149 57 189 -1 30 -2 31 -8 10 -9 -33 -24 -36 -36 -9
-14 33 -95 54 -217 57 -12 1 -18 9 -18 23 0 12 8 30 18 41 13 16 14 19 2 15
-8 -2 -24 -19 -35 -36 -25 -40 -37 -41 -23 -2 15 44 53 70 102 70 77 0 117
-40 80 -81 -31 -34 21 -14 64 24 35 32 28 52 -27 76 -39 16 -69 21 -138 20
-48 0 -97 -5 -108 -10z m254 -43 c7 -8 8 -17 3 -19 -4 -3 -13 3 -20 14 -14 22
0 26 17 5z m-253 -75 c-6 -9 22 -26 38 -22 4 1 14 -3 20 -9 7 -5 17 -6 21 -2
5 4 5 1 1 -5 -10 -19 -85 -17 -92 2 -6 16 1 45 11 45 4 0 4 -4 1 -9z m232 -60
c38 -20 72 -53 72 -71 0 -23 -37 1 -56 35 -6 11 -26 28 -45 37 -19 9 -28 17
-21 18 7 0 29 -9 50 -19z m-290 -258 c19 18 20 17 15 -25 -5 -40 -3 -44 27
-61 17 -10 37 -16 45 -13 8 3 17 1 20 -4 4 -6 -2 -10 -13 -10 -35 0 -77 20
-96 45 -10 14 -24 25 -31 25 -15 0 -25 22 -25 52 0 19 1 19 19 -3 18 -23 20
-23 39 -6z"/>
<path d="M1474 1149 c-3 -6 1 -18 9 -27 8 -9 17 -24 20 -32 2 -8 3 -2 1 13 -2
17 0 26 6 22 6 -3 10 -2 10 2 0 15 -38 34 -46 22z"/>
<path d="M785 1127 c-33 -12 -52 -23 -43 -25 14 -3 16 -12 13 -55 -4 -50 -4
-51 6 -16 15 51 51 83 94 83 63 0 62 -17 -4 -68 -33 -26 -80 -56 -103 -67 -35
-16 -37 -19 -13 -14 52 11 193 84 214 111 24 31 20 41 -25 60 -43 18 -66 17
-139 -9z"/>
<path d="M1576 1112 c-10 -16 9 -30 21 -17 10 10 9 14 -2 19 -8 3 -16 2 -19
-2z"/>
<path d="M924 1016 c10 -8 16 -22 13 -30 -9 -23 -85 -40 -124 -28 -18 6 -33 8
-33 6 0 -10 63 -34 92 -34 33 0 98 32 98 48 0 10 -28 35 -50 46 -8 4 -7 1 4
-8z"/>
<path d="M179 963 c-9 -2 -22 -15 -30 -29 -12 -23 -11 -28 6 -40 18 -14 18
-14 -1 -14 -21 0 -64 -34 -64 -50 0 -6 6 -10 13 -10 18 0 42 18 34 26 -3 4
-12 3 -20 -2 -7 -5 -4 -1 6 9 36 32 66 11 48 -36 -14 -36 9 -90 46 -107 18 -8
33 -23 33 -32 0 -19 8 -22 34 -12 21 8 21 24 0 24 -9 0 -12 -5 -8 -12 4 -8 3
-9 -2 -5 -5 5 -9 16 -9 25 0 11 -7 16 -17 14 -10 -2 -18 2 -18 7 0 5 -9 12
-20 16 -11 3 -19 9 -19 13 1 4 0 10 -1 15 -7 20 -4 33 10 44 10 9 11 12 3 13
-17 0 -17 30 0 30 24 0 51 -26 42 -40 -7 -11 -10 -10 -14 3 -6 15 -8 15 -19
-3 -11 -17 -10 -20 7 -20 10 0 24 7 31 15 9 11 16 13 24 5 5 -5 17 -10 26 -10
11 1 10 4 -5 12 -11 6 -29 20 -39 30 -11 10 -26 18 -35 18 -8 0 -11 3 -8 6 3
4 1 16 -5 28 -17 30 -19 48 -6 63 11 13 6 14 -23 6z m-2 -48 c-9 -21 -27 -19
-27 3 0 14 2 15 10 2 8 -13 10 -12 10 4 0 11 3 17 6 13 4 -3 4 -13 1 -22z m20
-35 c-1 -12 -5 -16 -10 -11 -5 5 -6 14 -3 20 11 16 15 13 13 -9z"/>
<path d="M205 940 c-3 -5 -2 -10 4 -10 5 0 13 5 16 10 3 6 2 10 -4 10 -5 0
-13 -4 -16 -10z"/>
<path d="M1650 910 c-19 -16 -31 -29 -26 -30 5 0 18 7 28 17 11 9 18 11 18 5
0 -7 -4 -12 -10 -12 -6 0 -10 -41 -10 -103 0 -56 -4 -117 -9 -135 -9 -31 -9
-32 22 -32 19 0 44 10 62 25 l30 25 -32 -6 -32 -6 1 118 c0 66 5 129 9 142 12
32 -9 29 -51 -8z m30 -261 c0 -5 -4 -9 -10 -9 -5 0 -10 7 -10 16 0 8 5 12 10
9 6 -3 10 -10 10 -16z"/>
<path d="M218 913 c7 -3 16 -2 19 1 4 3 -2 6 -13 5 -11 0 -14 -3 -6 -6z"/>
<path d="M1430 841 c-16 -32 -24 -38 -42 -34 -20 4 -21 3 -8 -9 11 -9 15 -34
15 -85 0 -44 5 -77 12 -84 17 -17 96 -16 155 0 57 16 66 40 44 114 -15 50 -64
137 -77 137 -4 0 3 -19 14 -42 20 -40 39 -182 22 -166 -4 3 -23 1 -43 -6 -66
-23 -92 1 -92 84 0 35 7 70 19 93 10 20 15 37 10 37 -5 0 -18 -18 -29 -39z
m157 -171 c-1 -11 -5 -20 -9 -20 -10 0 -10 4 -2 24 8 22 13 20 11 -4z m-32
-10 c-7 -12 -72 -40 -89 -39 -6 0 12 11 39 24 60 28 58 27 50 15z"/>
<path d="M148 852 c9 -7 5 -18 -17 -45 -39 -49 -27 -105 16 -77 17 11 17 11 1
6 -11 -3 -22 2 -28 14 -8 15 -4 26 21 54 29 34 32 56 6 56 -9 0 -8 -3 1 -8z"/>
<path d="M348 814 c-3 -3 3 -28 13 -55 11 -28 15 -48 9 -44 -17 11 -35 -42
-23 -68 7 -15 8 -29 2 -38 -5 -8 -8 -34 -7 -59 0 -25 -2 -53 -6 -62 -6 -13 -4
-18 8 -18 19 0 21 -11 4 -28 -9 -9 -8 -12 4 -12 23 0 32 32 13 46 -18 14 -12
35 16 52 28 18 37 7 15 -17 -19 -21 -14 -41 9 -41 8 0 17 5 21 12 5 8 2 9 -9
5 -21 -8 -21 -3 -1 28 17 26 37 25 27 0 -3 -8 0 -15 6 -15 21 0 11 39 -19 73
-20 23 -27 40 -23 55 3 12 9 22 13 22 5 0 6 -9 3 -20 -4 -14 0 -20 11 -20 9 0
16 6 16 13 0 18 -18 42 -31 42 -7 0 -14 6 -16 13 -3 6 2 12 11 12 9 0 16 -5
16 -11 0 -6 7 -9 15 -6 8 4 17 1 21 -5 4 -6 3 -8 -3 -5 -6 4 -8 -3 -5 -18 6
-34 18 -32 16 3 -2 40 -2 39 -29 46 -14 4 -25 11 -25 16 0 5 16 2 36 -6 20 -8
33 -10 29 -5 -3 6 -14 11 -23 11 -15 0 -15 2 -2 10 11 7 8 8 -11 6 -14 -1 -37
-12 -50 -24 -20 -19 -22 -26 -11 -42 6 -11 9 -26 5 -35 -3 -10 4 -29 17 -47
12 -16 20 -32 17 -34 -9 -9 -35 8 -46 29 -11 21 -11 21 -6 -5 5 -27 -8 -47
-20 -28 -3 5 -1 10 6 10 8 0 9 3 0 14 -8 10 -8 16 3 25 16 13 27 61 15 61 -5
0 -9 10 -10 23 -1 21 -1 21 -10 -3 l-8 -25 2 25 c1 14 8 24 14 23 7 -2 17 6
23 17 6 11 7 20 2 20 -6 0 -15 20 -21 45 -11 46 -13 49 -23 39z"/>
<path d="M606 755 l13 -45 -39 0 c-46 0 -80 -27 -80 -63 0 -35 30 -57 77 -57
32 0 48 7 79 36 38 35 38 35 4 11 -51 -36 -77 -41 -105 -23 -31 20 -32 40 -3
60 30 21 38 20 39 -6 1 -17 2 -19 6 -5 8 30 23 18 18 -15 l-5 -33 12 28 c9 21
16 26 32 21 20 -6 20 -6 5 12 -16 19 -31 84 -19 84 3 0 17 -8 30 -17 l25 -17
-20 23 c-17 20 -65 51 -79 51 -2 0 2 -20 10 -45z"/>
<path d="M202 761 c15 -24 21 -25 49 -11 16 9 19 7 19 -9 0 -11 4 -22 9 -25
11 -7 48 21 39 30 -4 4 -14 1 -23 -6 -13 -10 -15 -9 -15 9 0 18 -4 20 -24 15
-13 -3 -34 -1 -46 6 -19 10 -20 10 -8 -9z"/>
<path d="M751 737 c-63 -17 -72 -36 -42 -93 43 -80 82 -80 121 1 28 58 24 80
-15 80 -17 -1 -41 -5 -54 -9 -16 -6 -21 -5 -17 3 4 6 16 11 26 11 10 0 22 5
25 10 3 6 5 10 3 9 -2 0 -23 -6 -47 -12z m69 -42 c0 -22 -26 -81 -38 -89 -6
-4 -20 3 -31 16 -20 21 -20 23 -3 41 16 19 16 19 -5 13 -16 -5 -23 -3 -23 7 0
20 4 22 54 25 36 2 46 0 46 -13z"/>
<path d="M435 590 c4 -6 11 -8 16 -5 14 9 11 15 -7 15 -8 0 -12 -5 -9 -10z"/>
<path d="M255 533 c-70 -71 -99 -125 -91 -172 4 -30 2 -42 -13 -56 -11 -9 -25
-31 -30 -47 l-11 -31 25 27 c14 15 31 26 38 23 6 -2 29 -37 50 -78 42 -83 101
-165 134 -186 21 -14 23 -12 57 55 19 38 32 72 29 76 -4 3 -1 6 4 6 6 0 24
-32 39 -71 15 -38 31 -72 36 -75 4 -3 32 18 62 46 51 48 95 121 127 208 14 39
23 40 55 5 14 -15 22 -20 18 -10 -5 13 -2 16 10 11 18 -7 19 -14 6 -71 -6 -26
-6 -51 -1 -65 9 -21 10 -20 10 10 2 97 88 163 181 140 22 -6 39 -16 37 -22 -7
-23 -137 -123 -210 -161 -41 -22 -74 -41 -72 -43 1 -2 54 18 116 43 128 51
216 106 239 148 14 27 14 29 -13 52 -15 13 -46 29 -70 36 -45 12 -74 7 -181
-30 -70 -25 -66 -25 -66 -6 0 8 -9 19 -19 24 -16 9 -18 17 -11 46 7 30 4 40
-24 76 -37 45 -65 67 -148 110 -71 36 -96 38 -43 3 54 -36 112 -92 137 -132
16 -26 19 -42 13 -78 -8 -54 -75 -191 -110 -224 -34 -32 -32 -11 6 44 33 51
103 195 96 202 -2 2 -18 -24 -35 -59 -30 -61 -93 -137 -112 -137 -11 0 -50 73
-50 94 0 8 10 22 22 30 22 16 22 16 1 16 -11 0 -26 -7 -33 -15 -10 -12 -20 -5
-67 45 -30 33 -60 60 -66 60 -6 0 3 -15 20 -32 34 -36 73 -104 73 -127 0 -22
-23 -81 -31 -81 -12 0 -68 76 -100 133 -16 28 -29 49 -29 45 0 -21 54 -145 80
-184 28 -42 29 -53 4 -36 -20 13 -87 134 -110 200 -20 58 -21 68 -9 102 21 58
45 102 73 133 45 47 6 29 -43 -20z m-50 -115 c-13 -47 -7 -86 26 -150 11 -21
19 -43 19 -50 -1 -7 -10 6 -21 29 -11 22 -29 43 -40 46 -17 5 -18 8 -8 26 11
16 10 25 0 45 -12 22 -11 29 9 60 12 20 23 36 25 36 1 0 -3 -19 -10 -42z m500
-9 c-4 -5 -2 -9 3 -9 6 0 10 -16 10 -36 0 -19 2 -38 5 -41 3 -3 -2 -14 -12
-24 -10 -11 -23 -35 -29 -55 -16 -53 -72 -141 -99 -155 -13 -7 -21 -19 -19
-26 3 -7 -1 -13 -8 -13 -8 0 -16 -6 -19 -12 -3 -8 -9 -3 -15 12 -6 14 -20 46
-31 73 -22 52 -45 61 -62 23 -8 -16 -17 -23 -28 -19 -13 5 -14 3 -4 -7 10 -11
9 -17 -4 -32 -9 -10 -13 -18 -9 -18 4 0 2 -10 -5 -21 -11 -21 -12 -21 -43 12
-28 29 -86 120 -86 134 0 13 18 3 24 -12 17 -52 42 -79 71 -78 25 0 30 4 28
21 -2 14 4 24 17 27 10 3 26 21 34 41 15 37 36 49 36 21 0 -9 12 -27 27 -41
25 -23 27 -24 52 -8 l26 17 -23 -26 c-17 -17 -22 -32 -17 -46 27 -85 159 130
167 271 2 25 6 44 11 41 4 -2 5 -9 2 -14z m200 -115 c-33 -14 -65 -27 -71 -30
-7 -3 -15 -1 -19 5 -3 7 2 11 14 11 11 0 35 9 53 20 18 11 44 20 58 20 18 0 7
-8 -35 -26z m169 -15 c12 -12 15 -19 9 -15 -8 4 -13 1 -13 -7 0 -16 -57 -67
-112 -100 -24 -15 -19 -8 20 27 82 75 87 100 21 117 -32 8 -31 8 10 5 28 -3
51 -12 65 -27z m-624 -25 c0 -8 -5 -12 -10 -9 -6 4 -8 11 -5 16 9 14 15 11 15
-7z"/>
<path d="M1283 471 c-39 -18 -172 -131 -154 -131 5 0 14 7 21 15 15 19 68 51
98 60 20 6 21 4 13 -17 -4 -13 -11 -49 -15 -81 -4 -44 -13 -67 -36 -95 -34
-41 -33 -51 4 -27 26 17 46 13 46 -8 0 -7 12 -34 25 -62 14 -27 23 -39 20 -25
-3 14 -8 48 -11 77 -7 51 -6 52 22 58 16 4 35 9 43 11 24 8 92 -19 112 -44 69
-89 -56 -186 -173 -134 -56 24 -113 74 -150 132 -17 25 -27 37 -24 27 15 -47
81 -128 132 -163 49 -34 64 -39 127 -42 79 -5 117 9 152 56 61 82 -20 222
-129 222 -28 0 -41 27 -31 63 6 21 6 21 -9 3 -9 -11 -16 -28 -16 -37 0 -10
-10 -25 -22 -33 -43 -31 -43 -30 -10 109 9 39 21 73 27 77 20 15 -21 7 -62
-11z m21 -23 c-9 -30 -8 -30 -35 -20 l-23 9 29 16 c38 21 38 21 29 -5z m-24
-88 l-7 -45 -2 41 c0 22 2 44 6 47 10 11 11 5 3 -43z m181 -96 c48 -30 69 -65
69 -116 -1 -60 -45 -108 -100 -108 -21 0 -19 3 17 19 61 28 80 81 51 144 -28
59 -149 82 -208 39 -16 -12 -34 -22 -40 -22 -13 0 -13 17 0 25 6 3 10 15 10
26 0 10 5 19 10 19 6 0 10 -4 10 -10 0 -15 33 -12 55 4 25 18 79 10 126 -20z"/>
<path d="M1058 130 c32 -30 14 -56 -50 -75 -60 -17 -106 -19 -143 -5 -15 6
-24 6 -20 1 3 -5 25 -17 50 -27 53 -20 122 -16 177 10 53 25 59 53 19 88 -36
32 -67 39 -33 8z m32 -58 c0 -5 -11 -14 -25 -20 -39 -18 -44 -14 -10 7 36 23
35 23 35 13z"/>
</g>
</svg>
