<?xml version="1.0" standalone="no"?>
<!DOCTYPE svg PUBLIC "-//W3C//DTD SVG 20010904//EN"
 "http://www.w3.org/TR/2001/REC-SVG-20010904/DTD/svg10.dtd">
<svg version="1.0" xmlns="http://www.w3.org/2000/svg"
 width="175.000000pt" height="130.000000pt" viewBox="0 0 175.000000 130.000000"
 preserveAspectRatio="xMidYMid meet">
<metadata>
Created by potrace 1.10, written by Peter Selinger 2001-2011
</metadata>
<g transform="translate(0.000000,130.000000) scale(0.100000,-0.100000)"
fill="#38761d" stroke="none">
<path d="M91 1286 c-5 -6 -16 -27 -26 -46 l-18 -35 32 34 c23 25 35 31 43 23
13 -13 -50 -263 -69 -269 -6 -2 -19 8 -27 24 -22 41 -19 19 3 -26 12 -23 17
-47 14 -61 -6 -23 32 15 144 144 36 41 44 46 49 31 5 -11 1 -22 -7 -29 -9 -6
-31 -24 -50 -40 l-34 -28 56 31 57 31 14 -22 15 -22 12 22 c11 20 8 28 -17 60
-30 38 -112 171 -112 181 0 11 -70 8 -79 -3z m106 -101 c16 -34 10 -63 -7 -35
-7 11 -10 6 -10 -20 0 -23 -3 -30 -9 -22 -6 10 -10 4 -15 -20 -7 -37 -66 -105
-66 -76 0 8 11 50 25 93 42 128 54 139 82 80z"/>
<path d="M1500 1260 c0 -7 3 -10 7 -7 3 4 3 10 0 14 -4 3 -7 0 -7 -7z"/>
<path d="M1530 1245 c0 -9 7 -18 15 -22 23 -8 24 0 3 20 -15 14 -18 15 -18 2z"/>
<path d="M1479 1219 c-11 -11 -30 -24 -42 -30 -20 -8 -19 -9 5 -4 28 5 90 55
69 55 -6 0 -20 -9 -32 -21z"/>
<path d="M1585 1220 c3 -5 8 -10 11 -10 3 0 2 5 -1 10 -3 6 -8 10 -11 10 -3 0
-2 -4 1 -10z"/>
<path d="M625 1201 c-3 -6 -21 -11 -39 -11 -40 0 -62 -17 -68 -52 l-5 -27 25
19 c14 11 32 20 41 20 11 -1 8 -5 -9 -15 l-25 -14 25 -1 c25 0 25 -1 22 -69
-5 -107 30 -144 76 -82 l21 29 -32 -2 c-32 -1 -32 -1 -35 53 l-3 53 28 -6 28
-6 -27 21 c-29 21 -35 52 -18 79 6 10 8 3 3 -22 -5 -34 -3 -39 21 -47 34 -14
53 -5 73 33 l16 31 -21 -18 c-26 -23 -53 -19 -68 11 -15 31 -21 35 -29 23z"/>
<path d="M1575 1196 c11 -8 29 -15 40 -15 16 0 17 1 5 8 -8 5 -26 12 -40 16
-24 7 -24 7 -5 -9z"/>
<path d="M1534 1188 c-4 -7 -3 -8 4 -4 7 4 12 9 12 12 0 8 -9 4 -16 -8z"/>
<path d="M430 1170 c-14 -4 -44 -16 -67 -27 -32 -15 -39 -23 -32 -34 14 -22
11 -136 -3 -142 -13 -5 51 -37 72 -37 6 0 4 12 -5 31 -9 16 -19 52 -22 80 -5
43 -3 53 17 74 38 40 81 31 92 -20 3 -14 7 -9 12 17 14 64 -2 78 -64 58z"/>
<path d="M1431 1166 c15 -14 89 -45 89 -37 0 5 -11 12 -25 15 -14 4 -25 11
-25 16 0 6 -10 10 -22 10 -12 0 -19 -2 -17 -4z"/>
<path d="M1566 1162 c-3 -5 1 -9 9 -9 8 0 12 4 9 9 -3 4 -7 8 -9 8 -2 0 -6 -4
-9 -8z"/>
<path d="M1070 1153 c8 -2 22 -7 29 -9 11 -4 3 -16 -27 -44 -50 -47 -82 -107
-82 -152 1 -30 2 -31 12 -13 6 11 15 22 19 25 8 5 143 -5 218 -16 l34 -5 -7
-70 c-3 -39 -13 -85 -22 -102 l-15 -32 20 25 c12 14 29 51 39 84 13 41 21 53
25 41 19 -49 -2 -112 -60 -175 -63 -71 -159 -100 -223 -67 -19 10 -24 20 -22
42 5 42 40 106 81 144 l36 34 -45 -25 c-25 -14 -63 -49 -85 -78 -34 -46 -40
-50 -43 -31 -5 34 29 93 76 128 56 43 39 43 -24 1 -60 -42 -84 -74 -91 -126
-7 -49 3 -95 18 -86 6 3 23 -6 38 -20 57 -55 131 -53 223 6 79 50 158 153 158
206 0 11 7 36 16 57 8 20 13 44 11 53 -4 15 -5 15 -6 0 -2 -26 -26 -22 -39 6
-12 28 -63 46 -128 46 -72 0 -104 10 -104 33 0 11 8 29 18 40 17 19 16 20 -6
8 -13 -7 -27 -23 -32 -37 -12 -32 -29 -31 -22 1 2 14 18 36 34 50 71 60 211 4
156 -62 -12 -14 -10 -14 19 0 33 17 63 52 63 74 0 24 -106 53 -193 52 -45 0
-75 -3 -67 -6z"/>
<path d="M785 1127 c-36 -13 -53 -23 -42 -25 15 -3 17 -11 13 -50 -5 -39 -4
-42 4 -18 20 62 75 95 126 76 26 -10 26 -11 9 -30 -9 -10 -43 -36 -74 -57 -80
-54 -83 -57 -21 -33 68 27 108 51 140 85 l24 25 -21 21 c-29 30 -87 32 -158 6z"/>
<path d="M1033 1143 c4 -3 10 -3 14 0 3 4 0 7 -7 7 -7 0 -10 -3 -7 -7z"/>
<path d="M1431 1147 c2 -1 13 -9 24 -17 19 -14 19 -14 6 3 -7 9 -18 17 -24 17
-6 0 -8 -1 -6 -3z"/>
<path d="M1530 1129 c0 -5 5 -7 10 -4 6 3 10 8 10 11 0 2 -4 4 -10 4 -5 0 -10
-5 -10 -11z"/>
<path d="M937 991 c-5 -22 -75 -46 -113 -38 -13 2 -21 1 -19 -3 9 -14 68 -20
106 -10 44 12 66 41 45 59 -11 9 -15 7 -19 -8z"/>
<path d="M203 933 c4 -3 10 -3 14 0 3 4 0 7 -7 7 -7 0 -10 -3 -7 -7z"/>
<path d="M1650 909 c-19 -17 -27 -28 -17 -25 14 5 17 -2 19 -47 3 -82 3 -98
-5 -159 -7 -57 -7 -58 17 -58 13 0 34 9 47 20 l24 19 -25 1 -25 0 4 127 c1 71
8 134 13 141 21 25 -18 12 -52 -19z"/>
<path d="M141 917 c0 -10 6 -20 14 -23 11 -5 7 -11 -17 -23 -17 -9 -33 -24
-34 -33 -3 -22 10 -23 31 -2 28 28 27 8 -1 -27 l-28 -34 35 32 34 33 -3 -38
c-3 -44 15 -82 44 -93 18 -6 21 -4 17 11 -3 12 3 22 16 29 18 10 21 9 21 -8 0
-11 4 -22 8 -25 5 -3 6 8 4 24 -4 25 -8 28 -31 24 -15 -3 -34 1 -46 10 -17 12
-18 17 -6 28 10 9 12 9 7 1 -4 -8 -1 -13 7 -13 7 0 14 7 14 14 0 8 -3 15 -6
14 -20 -2 -31 4 -31 17 0 18 14 19 41 4 13 -6 18 -16 15 -26 -5 -12 -3 -13 7
-5 8 7 18 7 27 2 8 -6 20 -10 25 -10 6 0 -14 14 -42 31 -33 19 -53 37 -53 49
0 22 -26 45 -35 30 -10 -15 -23 -12 -28 8 -4 16 -5 16 -6 -1z"/>
<path d="M1426 830 c-9 -17 -20 -30 -24 -30 -12 0 -13 -113 -1 -147 6 -18 17
-33 24 -33 21 0 124 40 130 50 3 5 -10 3 -30 -6 -51 -21 -82 -10 -95 35 -13
47 -12 68 5 116 17 48 14 54 -9 15z"/>
<path d="M1550 836 c0 -3 5 -17 11 -33 14 -38 13 -121 -2 -139 -7 -8 -26 -22
-43 -30 l-31 -14 44 5 c68 9 81 19 81 68 0 38 -41 147 -55 147 -3 0 -5 -2 -5
-4z"/>
<path d="M356 795 c11 -59 13 -106 4 -100 -6 3 -7 -1 -4 -10 6 -14 8 -13 21 5
13 18 12 27 -6 78 -12 31 -18 44 -15 27z"/>
<path d="M604 773 c2 -10 7 -28 11 -40 6 -21 3 -23 -33 -23 -40 0 -82 -31 -82
-61 0 -33 30 -59 68 -59 32 0 102 31 102 45 0 2 -16 -5 -36 -17 -28 -16 -41
-19 -67 -11 -38 10 -50 49 -21 70 25 18 44 16 45 -4 0 -11 3 -13 6 -5 9 22 25
12 21 -13 -3 -13 -1 -22 3 -19 5 3 9 12 9 20 0 8 7 14 16 14 12 0 14 3 6 13
-5 6 -13 27 -17 46 -7 31 -5 33 14 28 30 -7 26 0 -9 18 -37 19 -42 19 -36 -2z"/>
<path d="M110 740 c0 -5 5 -10 11 -10 5 0 7 5 4 10 -3 6 -8 10 -11 10 -2 0 -4
-4 -4 -10z"/>
<path d="M295 741 c-3 -5 -1 -12 5 -16 5 -3 10 1 10 9 0 18 -6 21 -15 7z"/>
<path d="M728 729 c-14 -6 -28 -16 -31 -22 -7 -18 29 -88 54 -110 20 -16 23
-16 40 -1 25 23 60 100 53 119 -7 17 -41 20 -64 5 -12 -8 -9 -10 13 -10 21 0
27 -5 27 -22 0 -35 -36 -89 -55 -82 -28 11 -37 41 -18 60 16 16 16 16 -5 10
-18 -6 -22 -3 -22 14 0 14 11 26 33 35 36 16 17 19 -25 4z"/>
<path d="M424 721 c3 -5 20 -14 38 -20 38 -13 26 0 -15 17 -16 7 -26 8 -23 3z"/>
<path d="M251 687 c-1 -21 3 -28 16 -25 19 3 31 28 13 28 -6 0 -8 -4 -5 -10 3
-5 4 -10 0 -10 -3 0 -10 10 -15 23 -8 21 -9 21 -9 -6z"/>
<path d="M396 694 c-11 -11 -13 -20 -6 -33 5 -10 7 -27 4 -38 -3 -12 2 -25 13
-34 16 -13 17 -12 5 2 -9 12 -9 24 -3 40 l10 24 0 -22 c1 -14 7 -23 17 -23 12
0 14 7 9 29 -4 18 -2 32 6 37 8 5 9 3 4 -6 -5 -9 -4 -11 4 -6 8 6 10 0 6 -21
-5 -26 -5 -26 5 -5 12 29 7 38 -30 57 -26 13 -30 13 -44 -1z"/>
<path d="M346 660 c3 -14 5 -29 4 -35 -1 -5 -3 -37 -4 -71 l-3 -61 23 24 c13
13 28 23 34 23 17 0 11 -28 -7 -39 -10 -5 -14 -13 -10 -17 8 -8 36 24 37 43 0
7 -9 17 -20 23 -11 6 -20 18 -20 26 0 8 -5 12 -11 9 -5 -4 -3 9 5 29 14 33 12
38 -11 35 -4 0 -11 8 -15 18 -6 13 -7 11 -2 -7z"/>
<path d="M1463 613 c4 -3 10 -3 14 0 3 4 0 7 -7 7 -7 0 -10 -3 -7 -7z"/>
<path d="M551 538 c70 -48 129 -125 129 -168 0 -59 -59 -188 -113 -247 -38
-43 -36 -12 3 46 37 53 91 162 90 179 -1 4 -14 -19 -30 -50 -31 -59 -92 -128
-113 -128 -14 1 -47 62 -47 87 0 9 7 25 17 35 14 16 14 18 1 18 -9 0 -21 -7
-28 -15 -11 -14 -19 -9 -61 37 l-49 53 35 -59 c19 -33 35 -70 35 -81 0 -30
-20 -85 -30 -85 -14 0 -100 110 -100 128 0 8 -3 13 -6 9 -9 -8 21 -81 57 -139
19 -32 24 -48 15 -48 -20 0 -40 28 -84 115 -61 125 -66 146 -47 204 8 26 29
70 46 97 l31 49 -37 -35 c-21 -19 -53 -59 -72 -88 -29 -45 -34 -60 -28 -88 5
-28 1 -41 -19 -65 -15 -17 -26 -38 -26 -47 0 -13 3 -12 16 6 29 42 49 28 92
-61 44 -90 115 -187 138 -187 9 0 29 30 47 70 31 66 56 90 57 53 1 -10 13 -45
29 -78 l27 -60 60 60 c48 47 67 77 95 143 36 88 49 103 75 81 9 -7 24 -13 35
-14 27 -2 32 -10 20 -33 -6 -12 -10 -40 -10 -64 l2 -43 6 38 c14 86 96 140
179 118 23 -7 42 -16 42 -20 0 -16 -91 -92 -168 -142 -42 -27 -74 -49 -70 -49
13 0 170 69 212 94 24 14 58 42 76 62 l32 37 -29 28 c-15 15 -49 34 -74 40
-42 11 -53 10 -105 -10 -33 -12 -70 -24 -83 -27 -14 -3 -28 -7 -33 -10 -4 -3
-19 7 -32 22 -19 23 -23 36 -18 67 4 36 1 41 -49 90 -50 48 -161 117 -189 117
-6 0 16 -19 51 -42z"/>
<path d="M423 563 c4 -3 10 -3 14 0 3 4 0 7 -7 7 -7 0 -10 -3 -7 -7z"/>
<path d="M413 483 c4 -3 10 -3 14 0 3 4 0 7 -7 7 -7 0 -10 -3 -7 -7z"/>
<path d="M1270 459 c-30 -16 -68 -44 -85 -61 l-30 -30 46 26 c61 35 69 34 59
-6 -5 -18 -10 -54 -13 -80 -2 -31 -13 -59 -31 -83 -15 -19 -23 -35 -17 -35 5
0 13 4 16 10 11 17 45 11 45 -7 1 -10 9 -34 20 -53 l18 -35 -5 62 -6 61 39 11
c53 15 61 14 111 -10 32 -15 45 -29 51 -52 18 -67 -19 -109 -107 -123 -34 -5
-52 -1 -106 25 -35 18 -73 44 -85 58 -11 14 -20 22 -20 16 0 -5 19 -28 43 -50
132 -130 337 -103 337 45 0 79 -48 131 -137 150 -34 7 -39 12 -43 42 l-6 35
-7 -30 c-9 -39 -17 -51 -44 -59 -17 -6 -23 -3 -23 9 0 24 31 158 42 178 12 24
2 21 -62 -14z"/>
<path d="M360 471 c0 -5 -3 -16 -6 -25 -3 -9 -2 -16 4 -16 13 0 23 38 11 46
-5 3 -9 1 -9 -5z"/>
<path d="M1072 120 c11 -19 10 -24 -10 -41 -34 -27 -98 -42 -160 -37 -48 4
-52 3 -31 -8 64 -34 174 -25 225 19 23 20 25 26 15 45 -6 12 -21 26 -32 32
-18 10 -19 10 -7 -10z"/>
</g>
</svg>
