<?xml version="1.0" standalone="no"?>
<!DOCTYPE svg PUBLIC "-//W3C//DTD SVG 20010904//EN"
 "http://www.w3.org/TR/2001/REC-SVG-20010904/DTD/svg10.dtd">
<svg version="1.0" xmlns="http://www.w3.org/2000/svg"
 width="175.000000pt" height="130.000000pt" viewBox="0 0 175.000000 130.000000"
 preserveAspectRatio="xMidYMid meet">
<metadata>
Created by potrace 1.10, written by Peter Selinger 2001-2011
</metadata>
<g transform="translate(0.000000,130.000000) scale(0.100000,-0.100000)"
fill="#38761d" stroke="none">
<path d="M86 1281 c-20 -23 -56 -93 -56 -110 0 -8 13 5 28 30 65 102 87 83 49
-43 -14 -46 -31 -102 -37 -125 -6 -24 -14 -43 -19 -43 -4 0 -16 19 -27 41 -10
23 -20 37 -22 31 -2 -6 7 -33 19 -59 25 -54 24 -49 14 -83 -5 -18 8 -9 50 38
31 34 60 60 64 58 4 -3 30 8 59 24 l53 29 13 -32 c8 -18 15 -25 15 -16 1 9 8
22 16 29 12 10 8 20 -26 65 -22 30 -55 82 -74 116 -30 57 -35 62 -69 64 -22 1
-41 -4 -50 -14z m107 -90 c19 -32 22 -51 8 -51 -5 0 -14 12 -19 28 -9 23 -10
19 -6 -23 l4 -50 -14 35 -14 35 -1 -52 c-1 -40 -7 -58 -27 -83 -15 -17 -29
-29 -31 -26 -11 11 61 216 76 216 4 0 14 -13 24 -29z m47 -92 c0 -10 -49 -56
-78 -73 -19 -11 -9 6 32 56 29 34 46 40 46 17z"/>
<path d="M1500 1275 c-1 -16 -2 -33 -1 -37 1 -10 -13 -10 -22 -1 -4 3 -2 12 5
20 6 7 8 16 4 20 -3 3 -6 0 -6 -8 0 -12 -2 -12 -9 0 -5 7 -14 10 -20 6 -9 -5
-9 -11 1 -23 11 -13 10 -15 -5 -9 -11 4 -16 3 -12 -3 3 -6 0 -10 -7 -10 -10 0
-10 -2 1 -9 12 -8 12 -10 0 -14 -8 -2 -3 -2 11 0 29 5 16 -12 -15 -20 -16 -4
-15 -5 6 -6 15 -1 37 10 55 27 26 23 29 32 23 62 l-6 35 -3 -30z m-25 -55 c-3
-5 -13 -6 -21 -3 -12 4 -13 8 -3 14 15 9 32 2 24 -11z"/>
<path d="M1560 1279 c0 -6 -4 -7 -10 -4 -6 3 -7 -1 -3 -10 5 -13 7 -14 14 -3
7 10 9 10 9 -2 0 -13 1 -13 10 0 9 14 12 7 9 -16 0 -4 5 -11 13 -15 10 -7 10
-9 -2 -9 -11 -1 -11 -3 3 -11 10 -6 21 -8 24 -5 4 3 0 6 -8 6 -11 0 -11 2 1
10 11 7 11 10 2 10 -7 0 -10 5 -7 10 3 6 1 10 -5 10 -6 0 -9 4 -6 9 3 4 -6 13
-19 19 -17 8 -25 8 -25 1z"/>
<path d="M1527 1253 c-10 -16 62 -73 91 -73 25 1 23 2 -13 19 -22 11 -35 20
-29 20 6 1 11 7 11 15 0 9 -8 13 -21 10 -11 -2 -23 1 -27 7 -4 7 -9 7 -12 2z"/>
<path d="M624 1198 c-3 -4 -20 -8 -38 -8 -45 0 -66 -18 -72 -65 -5 -34 -4 -37
7 -20 17 29 40 45 63 45 17 -1 15 -4 -9 -15 -29 -13 -29 -13 -5 -14 24 -1 25
-3 22 -67 -2 -36 -1 -76 2 -90 9 -36 48 -32 80 8 24 32 27 53 4 30 -17 -17
-45 -15 -52 4 -3 9 -6 34 -6 56 0 39 1 40 28 34 l27 -6 -27 21 c-29 21 -35 52
-18 79 7 11 8 5 3 -19 -5 -27 -2 -37 12 -48 11 -7 25 -13 32 -13 20 0 63 46
63 67 0 15 -2 14 -16 -5 -8 -12 -23 -22 -33 -22 -23 0 -45 25 -38 43 5 15 -20
19 -29 5z"/>
<path d="M391 1155 c-34 -16 -62 -23 -75 -19 -20 6 -21 6 -3 -14 22 -24 32
-143 14 -154 -12 -7 50 -38 77 -38 13 0 12 6 -5 34 -11 19 -22 56 -26 83 -5
46 -3 51 22 71 43 34 85 24 85 -21 0 -10 5 -15 10 -12 6 3 10 26 10 51 0 41
-2 44 -27 44 -16 0 -52 -11 -82 -25z"/>
<path d="M1450 1170 c-13 -3 -24 -13 -26 -22 -1 -10 3 -15 12 -11 9 3 12 -2 9
-16 -3 -19 6 -26 29 -22 5 1 5 -6 2 -16 -5 -13 -4 -15 4 -7 6 6 8 19 4 28 -5
12 -9 14 -14 6 -5 -8 -9 -7 -13 5 -5 11 -3 14 6 10 6 -4 2 2 -10 13 l-23 20
24 -2 c16 -1 22 -6 18 -15 -4 -10 -1 -12 8 -6 7 5 11 4 8 -1 -3 -5 1 -22 9
-39 l14 -30 -5 33 c-4 20 -2 31 4 27 18 -11 11 3 -13 27 -16 16 -31 22 -47 18z"/>
<path d="M1566 1172 c-4 -7 -4 -17 0 -24 4 -6 3 -8 -4 -4 -18 11 -42 -23 -41
-57 l2 -32 10 38 c6 20 14 37 18 37 5 0 6 -8 3 -17 -3 -10 2 -5 11 10 11 18
22 27 32 23 8 -3 18 -6 21 -6 4 0 0 -5 -8 -10 -9 -6 -10 -10 -3 -10 20 0 25
20 7 27 -16 6 -16 7 2 15 15 7 14 8 -8 5 -15 -2 -29 1 -31 6 -2 7 -6 7 -11 -1z"/>
<path d="M1035 1149 c-16 -7 -12 -8 16 -5 54 6 64 -6 28 -33 -48 -36 -89 -108
-89 -157 0 -24 5 -46 10 -49 6 -3 10 5 10 19 0 14 3 27 8 29 11 7 240 -8 248
-16 4 -4 2 -41 -4 -83 -8 -61 -16 -82 -39 -107 -27 -30 -27 -30 -3 -15 31 19
59 65 75 126 12 46 13 46 20 19 16 -60 -40 -163 -115 -213 -74 -49 -190 -42
-190 11 0 58 92 185 135 185 7 0 16 4 20 10 10 16 -57 -11 -102 -42 -23 -16
-56 -49 -74 -74 -17 -25 -33 -43 -36 -41 -2 3 1 24 7 48 13 46 52 89 109 119
20 11 30 19 23 20 -27 1 -110 -50 -146 -90 -38 -42 -38 -43 -34 -111 2 -39 9
-74 17 -81 11 -11 12 -9 6 10 -9 30 1 28 36 -7 61 -62 159 -48 265 38 42 34
68 65 86 103 35 73 58 149 57 189 -1 30 -2 31 -8 10 -9 -33 -24 -36 -36 -9
-14 33 -95 54 -217 57 -23 1 -24 38 -1 63 9 10 12 18 6 18 -12 0 -38 -29 -46
-52 -4 -10 -11 -18 -17 -18 -13 0 -13 6 5 40 21 41 53 60 100 60 76 0 116 -40
79 -81 -31 -34 21 -14 64 24 35 32 28 52 -27 76 -39 16 -69 21 -138 20 -48 0
-97 -5 -108 -10z"/>
<path d="M785 1127 c-33 -12 -52 -23 -43 -25 14 -3 16 -12 12 -55 l-5 -52 15
39 c21 56 49 80 91 80 62 0 62 -17 -2 -66 -32 -25 -76 -55 -98 -67 -64 -35 0
-14 92 30 79 38 129 81 117 101 -9 15 -70 38 -96 37 -13 0 -50 -11 -83 -22z"/>
<path d="M1575 1110 c-8 -13 9 -20 24 -11 10 6 9 10 -3 14 -8 3 -18 2 -21 -3z"/>
<path d="M937 1004 c13 -34 -79 -64 -132 -44 -28 10 -29 10 -14 -6 35 -35 149
-25 173 15 8 13 -3 38 -19 45 -9 3 -12 0 -8 -10z"/>
<path d="M179 963 c-9 -2 -22 -15 -30 -29 -12 -23 -11 -28 6 -40 18 -14 18
-14 -1 -14 -21 0 -64 -34 -64 -50 0 -6 6 -10 13 -10 18 0 58 35 50 44 -3 3 -1
6 5 6 7 0 12 -4 12 -10 0 -5 11 -10 23 -10 33 0 39 -10 22 -37 -14 -21 -14
-23 4 -23 10 0 24 7 31 15 9 11 16 13 24 5 5 -5 17 -10 25 -10 18 0 -59 59
-78 60 -8 0 -11 3 -8 6 3 4 1 16 -5 28 -17 30 -19 48 -6 63 11 13 6 14 -23 6z
m-2 -48 c-9 -21 -27 -19 -27 3 0 14 2 15 10 2 8 -13 10 -12 10 4 0 11 3 17 6
13 4 -3 4 -13 1 -22z"/>
<path d="M1648 910 c-25 -22 -29 -29 -15 -30 15 0 17 -11 17 -98 0 -53 -4
-112 -9 -130 -9 -31 -9 -32 22 -32 19 0 44 10 62 25 l30 25 -33 -6 -32 -7 1
118 c0 65 5 129 10 142 12 33 -13 30 -53 -7z"/>
<path d="M1430 841 c-16 -32 -24 -38 -42 -34 -20 4 -21 3 -8 -9 11 -9 15 -34
15 -85 0 -44 5 -77 12 -84 17 -17 96 -16 155 0 57 16 66 40 44 114 -15 50 -64
137 -77 137 -4 0 3 -19 15 -42 15 -31 21 -62 21 -108 l0 -64 -40 -23 c-22 -12
-47 -22 -55 -22 -8 0 9 11 38 24 53 24 73 42 26 25 -44 -17 -82 -12 -95 12
-16 29 -6 138 16 171 10 16 13 27 6 27 -6 0 -20 -18 -31 -39z"/>
<path d="M142 823 c-34 -38 -41 -56 -31 -80 9 -24 24 -30 34 -13 4 6 1 9 -7 8
-25 -6 -20 43 8 73 15 16 26 31 23 33 -2 3 -14 -7 -27 -21z"/>
<path d="M176 833 c-3 -4 -6 -24 -6 -45 0 -41 34 -88 65 -88 8 0 15 -9 15 -20
0 -21 8 -24 34 -14 21 8 21 24 0 24 -9 0 -12 -5 -8 -12 4 -8 3 -9 -2 -5 -5 5
-9 16 -9 25 0 11 -7 16 -18 14 -13 -2 -18 2 -15 15 5 26 34 28 41 3 5 -18 9
-20 26 -10 12 6 21 15 21 20 0 14 -14 12 -28 -2 -9 -9 -12 -7 -12 10 0 18 -4
21 -27 16 -36 -7 -72 18 -56 37 8 11 8 17 -2 26 -7 6 -16 9 -19 6z"/>
<path d="M349 815 c-4 -3 2 -29 12 -56 11 -28 15 -48 10 -45 -18 12 -26 -19
-27 -114 -1 -52 -5 -103 -9 -112 -4 -12 -3 -18 5 -18 7 0 10 -8 7 -20 -6 -25
18 -27 27 -3 4 11 1 22 -9 29 -18 14 -12 35 16 52 28 18 36 7 14 -18 -22 -24
-7 -47 22 -35 17 8 17 8 1 12 -16 4 -16 6 -2 28 14 22 14 24 -5 30 -11 3 -23
15 -26 26 -4 11 -11 16 -18 12 -9 -5 -9 -3 -1 8 27 35 23 65 -9 60 -5 -1 -7 8
-5 20 4 26 36 35 37 11 2 -66 9 -94 29 -114 12 -13 22 -38 24 -56 3 -40 18
-42 18 -2 0 18 -11 42 -30 64 -25 28 -29 38 -21 57 9 22 10 22 10 3 1 -11 8
-29 16 -40 14 -18 14 -18 15 11 0 34 -14 60 -31 60 -7 0 -14 6 -16 13 -6 15
13 16 22 1 4 -6 13 -8 21 -5 8 3 13 2 13 -2 -1 -4 -1 -18 1 -32 1 -23 2 -23
10 -5 5 11 9 23 9 28 2 13 -61 46 -77 39 -11 -4 -14 -1 -9 11 3 9 2 17 -4 17
-6 0 -8 3 -6 8 6 10 -27 85 -34 77z"/>
<path d="M606 755 l13 -45 -39 0 c-46 0 -80 -27 -80 -63 0 -35 30 -57 78 -57
33 0 49 7 74 31 l33 31 -30 -20 c-48 -31 -73 -36 -100 -18 -31 20 -32 40 -3
60 30 21 38 20 39 -6 1 -17 2 -19 6 -5 8 30 23 18 18 -15 l-5 -33 12 28 c9 21
16 26 32 21 20 -6 20 -6 5 12 -16 19 -31 84 -19 84 3 0 17 -8 30 -17 l25 -17
-20 23 c-17 20 -65 51 -79 51 -2 0 2 -20 10 -45z"/>
<path d="M722 730 c-34 -15 -38 -38 -12 -87 28 -53 52 -68 81 -53 34 19 73
120 52 133 -18 11 -100 16 -121 7z m53 -10 c-17 -7 -15 -9 13 -9 36 -1 39 -11
17 -64 -18 -45 -29 -51 -49 -31 -19 19 -20 36 -3 53 10 11 8 12 -11 6 -20 -6
-23 -4 -20 12 2 10 10 17 16 16 7 -2 11 0 11 5 -3 17 2 22 24 21 21 0 21 -1 2
-9z"/>
<path d="M426 718 c2 -3 18 -11 34 -17 18 -6 28 -6 25 -1 -4 6 -14 10 -23 10
-14 0 -14 2 -3 9 10 7 7 9 -12 8 -14 -1 -23 -5 -21 -9z"/>
<path d="M254 533 c-70 -73 -98 -126 -90 -172 4 -29 2 -42 -10 -52 -16 -13
-44 -62 -44 -76 0 -4 12 5 26 20 14 15 31 26 37 24 7 -2 29 -37 50 -78 42 -84
101 -165 134 -187 22 -14 24 -12 53 49 16 35 30 70 30 77 0 32 24 1 47 -58 13
-36 28 -69 33 -74 11 -11 106 78 135 129 13 22 33 66 45 98 12 31 26 57 31 57
6 0 21 -12 35 -27 14 -15 22 -20 18 -10 -5 13 -2 16 10 11 18 -7 19 -14 6 -71
-6 -26 -6 -51 -1 -65 9 -21 10 -20 10 10 1 46 36 109 69 126 42 22 112 25 142
6 12 -7 11 -12 -5 -31 -35 -38 -131 -107 -206 -149 -41 -22 -71 -40 -67 -40 5
0 59 20 120 45 124 50 215 107 238 149 14 26 14 28 -13 51 -15 13 -46 29 -70
36 -45 12 -74 7 -181 -30 -70 -25 -66 -25 -66 -6 0 7 -8 18 -17 24 -13 7 -16
20 -14 53 2 39 -2 48 -41 88 -40 42 -170 120 -199 120 -8 0 9 -15 37 -34 59
-40 132 -119 140 -153 14 -54 -45 -200 -108 -266 -36 -38 -36 -39 -10 -32 26
6 26 6 7 -15 -18 -20 -19 -20 -37 -2 -18 18 -18 19 17 56 36 38 132 222 122
233 -3 3 -13 -11 -21 -31 -28 -67 -104 -165 -128 -166 -10 0 -48 75 -48 94 0
8 10 22 22 30 22 16 22 16 1 16 -11 0 -26 -7 -33 -15 -10 -12 -20 -5 -67 46
-31 33 -58 57 -61 54 -3 -3 6 -18 20 -33 44 -45 71 -108 64 -145 -12 -62 -23
-66 -61 -22 -20 22 -47 64 -61 93 -15 29 -28 51 -31 49 -7 -8 37 -113 71 -170
22 -36 30 -57 21 -57 -7 0 -17 6 -23 13 -23 28 -77 136 -98 195 -20 58 -21 68
-9 102 21 58 45 102 73 133 14 15 20 27 14 27 -7 0 -33 -21 -58 -47z m191
-352 c-3 -12 -10 -21 -15 -21 -5 0 -4 11 2 25 13 29 23 26 13 -4z m-58 -95
c-13 -28 -16 -30 -36 -17 -16 10 -6 31 15 31 8 0 14 10 14 23 1 18 2 19 10 6
6 -11 5 -25 -3 -43z"/>
<path d="M1283 471 c-34 -16 -174 -131 -158 -131 3 0 26 15 52 34 27 18 58 37
71 40 20 7 21 5 13 -16 -4 -13 -11 -49 -15 -81 -4 -44 -13 -67 -36 -95 -34
-42 -33 -51 5 -26 30 20 36 16 59 -48 10 -26 22 -51 28 -55 7 -4 9 -1 6 9 -4
8 -9 40 -13 71 -7 56 -7 56 21 62 16 4 35 9 43 11 26 8 90 -17 110 -43 71 -89
-53 -188 -171 -135 -56 24 -113 75 -151 132 -16 25 -27 37 -23 27 17 -50 83
-132 134 -165 47 -32 64 -37 125 -40 79 -5 117 9 151 55 30 41 27 112 -7 157
-33 42 -54 55 -110 65 -41 7 -42 8 -40 44 3 47 -13 40 -27 -12 -7 -27 -17 -41
-32 -44 -12 -4 -24 -4 -26 -2 -7 7 38 178 50 192 15 19 -9 16 -59 -6z"/>
<path d="M1058 130 c32 -30 14 -56 -50 -75 -60 -18 -106 -19 -144 -5 -24 9
-25 9 -14 -5 41 -49 190 -44 248 8 29 27 28 40 -9 71 -36 31 -63 35 -31 6z"/>
</g>
</svg>
