<?xml version="1.0" standalone="no"?>
<!DOCTYPE svg PUBLIC "-//W3C//DTD SVG 20010904//EN"
 "http://www.w3.org/TR/2001/REC-SVG-20010904/DTD/svg10.dtd">
<svg version="1.0" xmlns="http://www.w3.org/2000/svg"
 width="175.000000pt" height="130.000000pt" viewBox="0 0 175.000000 130.000000"
 preserveAspectRatio="xMidYMid meet">
<metadata>
Created by potrace 1.10, written by Peter Selinger 2001-2011
</metadata>
<g transform="translate(0.000000,130.000000) scale(0.050000,-0.050000)"
fill="#38761d" stroke="none">
<path d="M182 2572 c-9 -12 -33 -53 -52 -92 l-36 -70 64 68 c109 116 118 62
40 -230 -72 -269 -97 -305 -146 -214 -45 82 -39 38 7 -52 23 -46 34 -95 27
-122 -12 -46 65 31 289 288 71 81 87 91 98 62 8 -22 2 -45 -16 -58 -16 -12
-60 -48 -98 -79 l-69 -57 113 62 112 62 30 -44 29 -45 24 45 c21 40 17 55 -34
120 -59 76 -224 342 -224 363 0 21 -141 14 -158 -7z m212 -202 c33 -69 21
-126 -15 -69 -13 21 -19 10 -19 -41 0 -47 -6 -61 -18 -43 -12 19 -21 7 -30
-42 -13 -72 -132 -208 -132 -151 0 17 23 101 51 186 83 256 106 279 163 160z"/>
<path d="M2959 2439 c-23 -23 -61 -50 -85 -60 -40 -18 -39 -19 10 -9 55 11
181 110 139 110 -13 0 -41 -18 -64 -41z"/>
<path d="M1251 2401 c-7 -11 -43 -21 -78 -21 -81 0 -126 -34 -138 -104 l-9
-54 50 39 c27 21 64 39 82 38 22 0 16 -10 -18 -29 l-50 -29 50 0 c49 -1 50 -3
43 -139 -10 -213 60 -289 152 -164 l43 58 -64 -3 c-64 -3 -64 -3 -70 104 l-6
108 56 -13 56 -13 -55 42 c-56 43 -70 105 -35 159 13 21 15 7 7 -45 -21 -130
123 -152 186 -28 l32 63 -41 -37 c-51 -46 -106 -37 -136 23 -30 61 -42 70 -57
45z"/>
<path d="M860 2340 c-137 -43 -217 -93 -199 -121 28 -45 24 -274 -6 -285 -24
-9 103 -74 145 -74 12 0 8 25 -11 61 -58 112 -62 253 -8 310 74 79 161 60 184
-41 6 -29 13 -19 24 35 26 127 -5 155 -129 115z"/>
<path d="M2862 2332 c30 -27 178 -89 178 -75 0 10 -22 24 -50 31 -27 7 -50 22
-50 32 0 11 -19 20 -43 20 -24 0 -40 -3 -35 -8z"/>
<path d="M2140 2307 c17 -6 43 -14 59 -19 21 -7 5 -32 -54 -88 -100 -94 -165
-215 -164 -304 0 -60 2 -62 23 -26 12 22 30 45 38 51 15 9 285 -11 436 -34
l67 -10 -13 -140 c-7 -77 -26 -169 -43 -204 l-31 -63 41 50 c22 28 58 103 78
168 26 82 41 107 50 83 97 -254 -321 -611 -567 -485 -87 45 -27 235 118 372
l72 69 -90 -51 c-49 -28 -126 -98 -170 -157 -69 -90 -81 -99 -86 -62 -11 70
59 187 153 258 112 84 76 84 -48 0 -122 -82 -169 -147 -183 -251 -13 -97 7
-191 36 -173 12 8 46 -10 76 -39 115 -110 261 -106 446 11 158 100 316 308
316 414 0 21 14 72 31 113 17 40 27 89 22 107 -7 29 -9 29 -11 -2 -3 -51 -52
-43 -78 14 -25 55 -126 91 -257 91 -199 0 -257 50 -172 146 34 39 34 39 -11
16 -25 -14 -54 -46 -64 -73 -25 -64 -57 -63 -45 1 23 122 213 191 345 124 57
-29 75 -101 37 -148 -24 -29 -20 -29 37 1 66 34 126 104 126 146 0 49 -212
107 -386 105 -90 0 -150 -6 -134 -11z"/>
<path d="M1570 2255 c-71 -26 -105 -47 -84 -51 30 -6 34 -22 25 -101 -9 -76
-7 -83 8 -35 41 124 150 190 252 152 68 -26 44 -59 -128 -174 -162 -107 -166
-114 -43 -66 136 53 216 102 279 169 l49 52 -41 41 c-59 59 -176 64 -317 13z"/>
<path d="M1875 1982 c-12 -44 -152 -91 -228 -77 -25 5 -42 3 -37 -5 18 -29
137 -40 212 -19 88 23 133 82 90 117 -21 18 -29 14 -37 -16z"/>
<path d="M3299 1818 c-38 -33 -53 -56 -34 -50 30 9 36 -4 39 -94 6 -164 5
-197 -10 -319 -16 -131 30 -158 129 -76 l47 40 -50 0 -50 1 7 255 c4 140 16
266 27 280 43 52 -36 24 -105 -37z"/>
<path d="M282 1834 c-1 -19 12 -41 28 -47 23 -9 14 -20 -33 -44 -35 -18 -66
-49 -69 -68 -6 -44 19 -45 62 -3 56 57 54 16 -3 -54 l-55 -68 70 65 69 64 -6
-74 c-7 -89 29 -165 88 -186 35 -13 41 -10 33 21 -6 23 5 45 32 59 36 19 42
17 42 -17 0 -22 7 -44 16 -50 9 -5 13 16 8 48 -7 51 -15 57 -61 48 -72 -14
-145 38 -105 76 20 18 24 19 14 1 -9 -15 -3 -25 13 -25 16 0 28 13 28 29 0 16
-5 28 -11 28 -41 -5 -62 7 -62 33 0 35 27 38 83 8 25 -13 36 -33 28 -52 -9
-24 -6 -27 14 -10 17 14 37 15 56 3 16 -10 38 -18 49 -18 11 0 -27 27 -85 61
-65 38 -105 75 -105 97 0 46 -51 91 -69 62 -20 -32 -47 -25 -57 14 -9 33 -10
33 -12 -1z"/>
<path d="M2853 1659 c-19 -32 -42 -59 -49 -59 -23 0 -25 -226 -2 -295 11 -36
34 -65 49 -65 41 0 246 80 259 101 6 9 -20 4 -59 -12 -169 -71 -260 79 -181
300 35 98 29 108 -17 30z"/>
<path d="M3100 1671 c0 -4 10 -33 21 -64 58 -152 22 -286 -90 -339 l-61 -28
88 11 c178 21 210 114 113 324 -42 90 -71 129 -71 96z"/>
<path d="M711 1590 c23 -118 27 -211 8 -199 -10 6 -13 -3 -6 -21 41 -108 69
53 28 166 -22 62 -36 87 -30 54z"/>
<path d="M1207 1545 c5 -19 16 -55 23 -80 12 -41 6 -45 -65 -45 -130 0 -200
-101 -134 -196 48 -68 309 -31 309 45 0 5 -32 -9 -71 -32 -128 -76 -292 33
-177 117 50 36 88 32 90 -9 1 -21 5 -25 11 -10 19 45 52 26 42 -24 -5 -28 -2
-45 8 -39 9 6 17 23 17 39 0 16 15 29 32 29 24 0 27 7 13 25 -48 59 -53 162
-7 150 59 -16 52 -1 -17 34 -75 39 -86 39 -74 -4z"/>
<path d="M1457 1457 c-73 -26 -79 -55 -35 -148 85 -177 153 -176 236 2 59 125
6 196 -98 129 -23 -15 -18 -19 25 -20 44 0 55 -9 55 -45 0 -69 -73 -176 -110
-162 -56 21 -74 80 -36 118 32 32 32 33 -10 20 -76 -24 -58 65 21 99 73 32 34
38 -48 7z"/>
<path d="M501 1374 c-1 -43 7 -55 32 -50 38 7 62 56 27 56 -12 0 -17 -9 -10
-20 7 -11 7 -20 1 -20 -7 0 -20 20 -30 45 -18 43 -19 42 -20 -11z"/>
<path d="M791 1388 c-22 -22 -25 -41 -12 -66 10 -20 14 -53 9 -75 -7 -24 3
-51 26 -68 32 -26 33 -26 11 3 -18 23 -20 47 -7 80 l19 48 2 -45 c0 -27 14
-45 33 -45 24 0 28 13 18 58 -8 37 -3 64 12 73 16 10 19 7 8 -11 -11 -18 -8
-21 8 -11 17 10 20 -1 12 -42 -10 -53 -10 -54 10 -10 35 80 -88 173 -149 111z"/>
<path d="M691 1320 c7 -27 11 -59 9 -70 -2 -11 -6 -75 -9 -142 l-6 -121 47 46
c25 26 56 47 67 47 34 0 24 -56 -14 -78 -19 -10 -28 -26 -20 -34 17 -17 73 49
74 86 1 14 -17 34 -39 46 -22 12 -40 35 -40 52 0 17 -9 25 -21 17 -12 -7 -8
20 9 59 27 65 24 75 -22 71 -8 -1 -22 14 -31 35 -11 25 -12 21 -4 -14z"/>
<path d="M1102 1075 c139 -94 258 -248 258 -334 0 -119 -117 -377 -225 -495
-77 -85 -74 -24 5 92 73 107 181 323 179 358 0 8 -27 -37 -60 -100 -61 -119
-182 -256 -225 -256 -66 2 -113 186 -61 243 29 32 29 37 3 37 -17 0 -43 -14
-56 -31 -22 -26 -39 -16 -123 75 l-97 106 70 -119 c39 -65 70 -138 70 -162 0
-58 -40 -169 -61 -169 -27 0 -199 220 -199 255 0 17 -6 26 -13 19 -16 -17 43
-163 114 -279 59 -95 41 -136 -26 -60 -39 45 -182 331 -214 430 -29 91 4 212
102 367 l61 98 -74 -70 c-130 -122 -216 -273 -201 -353 11 -56 4 -80 -38 -129
-28 -34 -51 -76 -51 -94 0 -26 7 -23 31 12 59 83 100 56 186 -121 87 -182 230
-375 276 -375 16 0 56 59 93 139 61 133 113 181 115 106 1 -19 26 -89 56 -155
l56 -120 119 120 c95 95 135 155 189 287 73 175 99 204 151 161 17 -14 49 -27
70 -28 54 -5 64 -21 40 -67 -12 -22 -21 -79 -19 -127 l3 -86 12 75 c28 173
192 281 358 236 46 -12 84 -30 84 -39 0 -31 -181 -184 -336 -283 -183 -117
-179 -121 35 -31 218 92 323 156 400 244 l65 74 -57 56 c-95 93 -219 114 -360
61 -64 -25 -139 -49 -166 -55 -26 -6 -56 -15 -65 -20 -40 -25 -111 99 -101
177 13 95 -125 243 -328 350 -172 91 -194 81 -45 -20z"/>
<path d="M2540 919 c-60 -33 -137 -88 -170 -122 l-60 -62 92 53 c122 69 139
67 118 -13 -9 -36 -21 -107 -25 -159 -6 -62 -27 -118 -63 -165 -30 -39 -45
-71 -34 -71 11 0 25 9 32 20 21 34 90 23 91 -15 0 -19 18 -66 38 -105 l38 -70
-11 123 -11 124 77 21 c206 57 380 -75 323 -244 -61 -177 -444 -152 -594 40
-23 28 -41 43 -41 33 0 -93 295 -266 456 -267 395 -1 420 475 30 556 -67 14
-77 24 -87 85 l-10 69 -14 -60 c-23 -100 -135 -183 -135 -100 0 49 62 315 83
355 25 48 4 44 -123 -26z"/>
<path d="M2144 240 c52 -85 -139 -172 -341 -155 -136 11 -70 -34 79 -55 249
-35 453 136 277 231 -38 20 -39 18 -15 -21z"/>
</g>
</svg>
