<?xml version="1.0" standalone="no"?>
<!DOCTYPE svg PUBLIC "-//W3C//DTD SVG 20010904//EN"
 "http://www.w3.org/TR/2001/REC-SVG-20010904/DTD/svg10.dtd">
<svg version="1.0" xmlns="http://www.w3.org/2000/svg"
 width="212.000000pt" height="160.000000pt" viewBox="0 0 212.000000 160.000000"
 preserveAspectRatio="xMidYMid meet">
<metadata>
Created by potrace 1.10, written by Peter Selinger 2001-2011
</metadata>
<g transform="translate(0.000000,160.000000) scale(0.100000,-0.100000)"
fill="#38761d" stroke="none">
<path d="M1212 1318 c-7 -7 -12 -19 -11 -27 0 -10 4 -7 9 7 10 22 20 25 55 14
19 -7 19 -8 -4 -31 -23 -22 -24 -22 -18 -2 3 12 1 19 -4 15 -5 -3 -9 -16 -9
-28 0 -17 -7 -25 -25 -28 -22 -5 -23 -3 -13 16 10 19 10 20 -5 7 -10 -7 -17
-22 -17 -32 0 -11 -10 -23 -25 -29 -13 -5 -36 -27 -51 -50 -25 -37 -26 -44
-15 -80 6 -21 18 -45 25 -53 9 -9 13 -30 10 -63 l-3 -49 9 43 c12 54 17 62 41
62 11 0 29 5 40 10 25 14 59 -4 59 -30 0 -10 4 -21 8 -24 5 -3 21 -37 37 -77
l28 -71 -24 -75 c-17 -55 -27 -73 -38 -70 -9 2 -15 9 -13 17 2 8 5 28 8 44 l4
31 -10 -30 c-6 -16 -12 -46 -15 -66 -5 -39 7 -49 66 -49 39 0 43 12 10 26
l-30 13 24 72 c14 40 25 79 25 86 0 8 -18 57 -41 110 -22 52 -39 97 -37 98 2
2 19 7 38 10 49 8 124 56 128 81 5 33 -22 49 -57 34 -17 -6 -34 -9 -39 -6 -16
10 -19 53 -6 77 18 33 17 53 -3 77 -22 24 -94 37 -111 20z m108 -52 c0 -26
-22 -50 -35 -38 -4 4 -5 0 -3 -8 31 -116 28 -111 62 -104 17 3 37 11 43 16 9
7 15 5 19 -6 4 -9 5 -18 3 -19 -37 -22 -90 -47 -102 -47 -12 0 -15 8 -11 38 3
30 2 32 -5 11 -18 -54 -32 -71 -53 -65 -12 3 -29 1 -39 -5 -14 -7 -24 -3 -45
16 -27 25 -44 32 -44 17 0 -4 12 -15 27 -23 26 -16 26 -17 5 -28 -19 -10 -23
-7 -42 36 -13 29 -17 49 -10 51 5 2 10 10 10 17 0 16 60 63 114 90 22 11 46
31 53 45 7 14 13 21 13 16 0 -6 5 -5 12 2 18 18 28 14 28 -12z"/>
<path d="M1248 1173 c7 -3 16 -2 19 1 4 3 -2 6 -13 5 -11 0 -14 -3 -6 -6z"/>
<path d="M1185 1150 c-3 -6 1 -7 9 -4 24 9 20 -33 -3 -48 -24 -15 -10 -38 24
-38 32 0 34 6 16 55 -15 43 -33 56 -46 35z"/>
<path d="M549 1219 c-13 -13 -19 -28 -15 -42 3 -12 -1 -29 -11 -39 -18 -20
-20 -67 -4 -97 6 -11 11 -43 11 -72 0 -46 -2 -51 -20 -46 -11 3 -23 1 -26 -4
-3 -5 -10 -6 -16 -3 -6 4 -8 -1 -6 -12 2 -11 17 -23 36 -29 40 -11 40 -40 0
-40 l-26 1 5 -93 c4 -79 1 -105 -22 -185 -25 -86 -25 -93 -9 -105 9 -7 20 -10
24 -8 18 11 82 182 87 231 3 31 11 54 17 54 7 0 27 -12 45 -28 30 -25 33 -33
42 -112 6 -47 11 -105 12 -130 l2 -45 68 -3 c42 -2 67 1 67 8 0 5 -8 10 -18
10 -10 0 -28 7 -40 16 -12 8 -31 13 -41 9 -11 -3 -22 -2 -25 3 -3 5 7 12 23
15 l29 6 -5 88 c-7 140 -8 143 -78 220 -36 40 -61 74 -55 78 5 3 10 -1 10 -9
0 -9 5 -16 11 -16 7 0 8 14 4 43 l-7 42 20 -35 c11 -19 18 -39 15 -43 -7 -12
18 -37 38 -37 21 0 43 35 35 56 -3 8 -12 14 -21 14 -23 0 -67 78 -81 145 -11
54 -11 64 7 102 23 52 23 49 -2 84 -24 34 -51 37 -80 8z m31 -10 c-17 -14 -26
-17 -28 -9 -5 14 16 30 38 30 10 -1 7 -7 -10 -21z m46 -25 c-3 -9 -6 -25 -6
-36 0 -15 -6 -19 -25 -16 -13 2 -23 -1 -22 -7 1 -5 5 -9 10 -7 4 1 7 -1 8 -5
0 -5 3 -17 5 -28 11 -47 16 -205 7 -205 -6 0 -25 -3 -43 -6 l-32 -7 14 29 c8
16 14 49 12 74 -3 44 -2 44 6 10 7 -25 7 -16 3 35 -5 64 -6 95 -3 148 1 12 6
17 16 13 8 -3 14 1 14 9 0 9 9 15 21 15 15 0 19 -4 15 -16z m-72 -139 c5 -19
4 -26 -2 -20 -15 16 -32 76 -25 88 7 11 10 2 27 -68z m-31 -145 c8 0 8 -3 1
-10 -12 -12 -44 -3 -44 12 0 6 7 7 16 4 9 -3 21 -6 27 -6z m141 -6 c3 -8 2
-12 -4 -9 -6 3 -10 10 -10 16 0 14 7 11 14 -7z m41 -34 c10 -16 -16 -43 -28
-31 -11 11 -2 41 12 41 5 0 13 -5 16 -10z m-61 -80 l70 -70 3 -102 c2 -71 -1
-104 -9 -109 -21 -13 -26 -1 -33 79 -4 42 -11 87 -16 98 -10 28 -75 67 -99 61
-11 -3 -18 -2 -15 2 2 5 -7 19 -20 31 -34 32 -33 7 1 -44 24 -35 25 -41 14
-84 -14 -58 -68 -172 -81 -172 -13 0 -11 15 11 95 13 45 20 102 20 161 0 89 1
92 25 98 14 4 25 11 25 16 0 27 40 3 104 -60z"/>
<path d="M485 999 c-22 -42 -15 -44 12 -3 12 19 18 34 13 34 -5 0 -17 -14 -25
-31z"/>
<path d="M1208 974 c-15 -15 -7 -40 32 -99 45 -66 55 -69 13 -2 -15 23 -29 57
-32 75 -3 19 -9 30 -13 26z"/>
<path d="M441 954 c0 -11 3 -14 6 -6 3 7 2 16 -1 19 -3 4 -6 -2 -5 -13z"/>
<path d="M1175 910 c-4 -17 -5 -34 -2 -36 2 -3 7 10 11 27 3 18 4 34 2 36 -2
3 -7 -10 -11 -27z"/>
<path d="M1097 839 c-4 -28 -18 -89 -32 -136 -15 -47 -24 -91 -21 -99 3 -7 -3
-18 -12 -24 -16 -9 -16 -11 2 -25 20 -15 20 -15 0 -15 -11 0 -24 4 -30 9 -5 5
-23 4 -44 -2 -34 -12 -35 -14 -38 -67 -3 -61 -9 -72 -25 -49 -9 11 -22 15 -45
11 -46 -6 -40 -20 11 -24 l42 -3 3 -90 c2 -84 2 -116 -2 -267 -1 -49 2 -58 16
-58 16 0 18 21 20 263 l3 262 65 6 c36 4 75 3 86 -2 34 -12 37 2 7 27 -23 18
-25 24 -15 37 16 19 34 79 21 72 -5 -4 -9 -14 -9 -24 0 -9 -6 -26 -14 -37 -12
-15 -17 -16 -27 -7 -10 10 -7 31 15 100 25 84 45 193 34 193 -3 0 -8 -23 -11
-51z m-27 -269 c0 -5 -4 -10 -9 -10 -6 0 -13 5 -16 10 -3 6 1 10 9 10 9 0 16
-4 16 -10z"/>
<path d="M375 856 c-11 -17 -22 -22 -44 -18 -31 4 -32 2 -45 -63 -4 -20 -3
-25 2 -16 8 11 10 11 15 0 4 -11 6 -11 6 -1 1 7 7 10 14 7 6 -4 4 0 -5 8 -11
8 -15 21 -11 35 6 25 15 27 44 11 11 -6 43 -16 70 -23 43 -12 48 -11 37 2 -7
8 -13 20 -13 26 0 18 -19 42 -37 49 -12 4 -23 -1 -33 -17z m55 -27 c0 -14 -7
-19 -25 -19 -18 0 -25 5 -25 18 0 25 7 31 31 25 10 -3 19 -14 19 -24z"/>
<path d="M1813 854 c-7 -7 -13 -38 -13 -69 0 -56 0 -56 -22 -41 -26 19 -217
23 -249 6 -15 -9 -19 -22 -19 -70 0 -33 -4 -60 -9 -60 -5 0 -11 4 -13 9 -4 11
-29 14 -88 10 -41 -2 -39 -3 20 -8 l65 -6 3 -122 c1 -68 7 -123 11 -123 10 0
9 -26 -2 -36 -4 -4 -7 -83 -7 -176 0 -161 1 -168 20 -168 20 0 20 7 20 370 l0
371 123 -3 122 -3 3 -367 c2 -359 3 -368 22 -368 19 0 20 9 22 423 l3 422 120
0 120 0 3 -422 c2 -371 4 -423 17 -423 11 0 13 5 8 18 -4 9 -6 125 -3 257 3
132 4 315 2 406 l-2 167 -28 11 c-40 16 -234 12 -249 -5z"/>
<path d="M1146 799 c-10 -33 -16 -63 -13 -65 2 -2 11 24 21 57 9 34 15 63 13
66 -2 2 -12 -24 -21 -58z"/>
<path d="M1271 784 c0 -11 3 -14 6 -6 3 7 2 16 -1 19 -3 4 -6 -2 -5 -13z"/>
<path d="M340 759 c0 -5 4 -9 10 -9 5 0 6 -8 3 -17 -6 -15 -4 -16 9 -5 14 11
17 10 21 -5 4 -16 5 -16 6 2 1 17 3 18 11 5 9 -13 10 -13 10 0 0 9 -15 20 -35
26 -19 6 -35 7 -35 3z"/>
<path d="M424 729 c-4 -7 -3 -9 4 -5 5 3 13 0 15 -6 4 -9 6 -10 6 -1 1 17 -16
25 -25 12z"/>
<path d="M1121 704 c0 -11 3 -14 6 -6 3 7 2 16 -1 19 -3 4 -6 -2 -5 -13z"/>
<path d="M1216 594 c-4 -14 -4 -34 -1 -44 3 -10 1 -21 -5 -25 -7 -4 -10 -91
-9 -266 1 -234 2 -259 17 -259 16 0 17 27 17 310 0 170 -3 310 -6 310 -4 0
-10 -12 -13 -26z"/>
<path d="M1140 546 c0 -10 9 -16 25 -16 14 0 25 5 25 10 0 6 -4 10 -9 10 -5 0
-16 3 -25 6 -11 4 -16 1 -16 -10z"/>
<path d="M402 440 c-9 -15 -6 -22 21 -45 l32 -26 -36 5 c-58 7 -89 -33 -80
-101 1 -7 -3 -13 -9 -13 -15 0 -14 -197 2 -206 7 -4 8 -3 4 4 -4 7 -1 12 8 12
13 0 16 22 18 143 l3 142 50 6 c28 4 56 2 63 -4 20 -16 27 1 9 21 -10 10 -17
23 -17 28 0 6 -13 20 -28 31 -27 20 -29 20 -40 3z"/>
<path d="M640 385 c0 -25 -4 -45 -8 -45 -12 0 -13 -6 -18 -182 -5 -155 -5
-158 15 -158 21 0 21 4 21 199 0 110 3 206 6 215 3 9 1 16 -5 16 -6 0 -11 -19
-11 -45z"/>
<path d="M510 370 c0 -12 86 -14 94 -2 3 5 -17 9 -45 11 -29 1 -49 -2 -49 -9z"/>
<path d="M132 279 c-34 -3 -65 -8 -68 -12 -9 -8 -11 -267 -2 -267 4 0 8 58 8
130 l0 130 125 0 c69 0 125 4 125 9 0 12 -108 18 -188 10z"/>
<path d="M330 10 c-12 -8 -11 -10 8 -10 12 0 22 5 22 10 0 13 -11 13 -30 0z"/>
</g>
</svg>
