<?xml version="1.0" standalone="no"?>
<!DOCTYPE svg PUBLIC "-//W3C//DTD SVG 20010904//EN"
 "http://www.w3.org/TR/2001/REC-SVG-20010904/DTD/svg10.dtd">
<svg version="1.0" xmlns="http://www.w3.org/2000/svg"
 width="207.000000pt" height="159.000000pt" viewBox="0 0 207.000000 159.000000"
 preserveAspectRatio="xMidYMid meet">
<metadata>
Created by potrace 1.10, written by Peter Selinger 2001-2011
</metadata>
<g transform="translate(0.000000,159.000000) scale(0.100000,-0.100000)"
fill="#38761d" stroke="none">
<path d="M178 1435 c-15 -8 -29 -24 -33 -35 -9 -27 -3 -380 6 -405 4 -11 8 77
8 196 1 153 4 218 13 227 17 17 1639 17 1656 0 8 -8 12 -55 13 -143 0 -71 4
-139 9 -150 11 -25 11 -25 11 145 0 133 0 135 -26 157 l-26 23 -802 -1 c-683
0 -806 -2 -829 -14z"/>
<path d="M418 1348 c-13 -3 247 -6 576 -7 330 -1 596 2 592 6 -9 9 -1136 10
-1168 1z"/>
<path d="M399 1286 c6 -7 8 -16 4 -19 -3 -4 159 -7 361 -7 242 0 365 3 361 10
-4 7 77 10 235 10 161 0 239 3 235 10 -4 7 -211 10 -607 10 -494 -1 -598 -3
-589 -14z"/>
<path d="M384 1185 c0 -38 1 -62 3 -52 4 16 30 17 374 17 233 0 369 4 369 10
0 6 -135 9 -367 9 -325 0 -368 2 -371 16 -3 14 37 15 372 13 296 -2 376 0 376
10 0 9 -82 12 -374 12 -349 0 -375 1 -378 18 -2 9 -4 -14 -4 -53z"/>
<path d="M1532 1108 l2 -63 3 59 c4 56 5 58 29 53 13 -2 27 0 30 4 3 5 -11 9
-30 9 l-36 0 2 -62z"/>
<path d="M224 1143 c-22 -16 -34 -53 -34 -106 0 -38 -7 -68 -25 -101 -30 -56
-31 -72 -7 -80 9 -3 24 -11 33 -17 25 -19 49 -4 49 29 0 16 7 35 15 42 10 8
13 24 9 53 -6 48 15 108 46 130 16 11 17 16 7 30 -14 18 -76 31 -93 20z m36
-45 c-1 -7 -7 -24 -15 -38 -11 -21 -15 -22 -20 -8 -7 18 10 58 25 58 6 0 10
-6 10 -12z m-30 -157 c0 -16 -38 -56 -46 -49 -11 12 13 58 31 58 8 0 15 -4 15
-9z"/>
<path d="M1490 1104 c0 -14 4 -23 9 -20 5 3 7 15 4 26 -7 28 -13 25 -13 -6z"/>
<path d="M1403 1055 c0 -38 2 -53 4 -32 2 20 2 52 0 70 -2 17 -4 1 -4 -38z"/>
<path d="M403 1103 c10 -9 695 -10 710 -1 7 4 -152 8 -352 8 -200 0 -361 -3
-358 -7z"/>
<path d="M1732 1098 c-15 -15 -16 -38 -2 -38 6 0 10 -9 10 -20 0 -11 5 -20 10
-20 6 0 10 5 10 10 0 6 5 10 11 10 6 0 9 -6 6 -14 -7 -18 12 -36 40 -36 17 0
23 7 28 34 10 51 -16 86 -64 86 -20 0 -42 -5 -49 -12z m98 -59 c0 -5 -11 -3
-25 3 -14 6 -25 17 -25 25 0 11 5 10 25 -3 14 -9 25 -20 25 -25z"/>
<path d="M585 1053 c11 -11 15 -26 11 -45 -5 -27 -5 -28 39 -28 34 0 45 4 45
16 0 25 -56 74 -85 74 -25 0 -25 -1 -10 -17z"/>
<path d="M1466 1027 c-17 -12 -13 -19 50 -83 43 -43 89 -79 122 -93 l52 -24 0
-78 c0 -42 -7 -113 -15 -156 -19 -98 -19 -103 1 -103 15 0 16 -14 9 -127 -4
-71 -11 -159 -16 -198 -8 -69 -10 -154 -3 -125 11 42 36 286 38 363 l1 87 35
2 35 1 -33 4 c-46 6 -52 30 -35 138 18 117 11 178 -28 224 l-29 36 106 12
c113 12 161 6 150 -22 -3 -8 1 -18 8 -22 7 -5 16 -19 19 -33 3 -14 10 -43 16
-65 6 -22 10 -76 9 -120 -1 -44 -3 -60 -5 -35 -4 67 -24 149 -39 161 -11 9
-11 4 -3 -23 6 -18 14 -69 17 -112 6 -71 9 -80 31 -88 l24 -8 -6 102 c-4 75
-13 126 -34 187 -27 81 -30 85 -68 99 -28 9 -59 11 -105 6 -148 -16 -195 -3
-246 66 -33 45 -33 45 -58 27z"/>
<path d="M507 1013 c-4 -3 -7 -17 -7 -30 0 -22 3 -24 33 -18 45 10 53 21 20
30 -15 3 -30 11 -34 16 -3 5 -8 6 -12 2z"/>
<path d="M300 974 c0 -6 8 -18 18 -28 11 -9 25 -42 31 -73 8 -34 23 -66 38
-81 22 -22 24 -31 19 -69 -3 -26 -2 -43 5 -43 5 0 9 6 7 13 -1 6 4 23 11 36
10 18 10 22 0 16 -9 -6 -11 -2 -7 13 4 12 2 22 -3 22 -11 0 -59 102 -59 123 0
7 -14 28 -30 47 -16 19 -30 30 -30 24z"/>
<path d="M552 930 c-14 -32 -9 -50 14 -50 10 0 14 12 14 40 0 48 -10 51 -28
10z"/>
<path d="M518 942 c-19 -4 -24 -17 -10 -26 11 -7 35 10 31 21 -2 5 -12 7 -21
5z"/>
<path d="M1217 863 c-4 -3 -7 -66 -7 -139 0 -108 3 -133 15 -138 13 -5 15 15
15 139 0 133 -4 157 -23 138z"/>
<path d="M274 844 c4 -9 11 -37 17 -63 7 -25 18 -53 27 -61 13 -13 14 -13 7 5
-4 11 -16 46 -27 78 -11 31 -22 57 -25 57 -3 0 -2 -7 1 -16z"/>
<path d="M110 830 c0 -12 7 -48 15 -79 9 -34 16 -124 19 -231 2 -96 7 -183 11
-193 4 -10 18 -22 30 -27 25 -9 38 -69 29 -129 -7 -40 2 -81 17 -81 7 0 9 39
8 110 l-2 110 -27 0 c-48 0 -50 10 -50 229 -1 136 -5 223 -14 255 -13 52 -36
74 -36 36z"/>
<path d="M899 821 c-2 -6 -3 -62 -1 -126 3 -93 6 -115 18 -115 12 0 14 20 12
122 -2 80 -7 123 -14 125 -7 2 -14 -1 -15 -6z"/>
<path d="M1100 706 c0 -106 2 -126 15 -126 13 0 15 18 13 122 -2 86 -7 123
-15 126 -10 3 -13 -26 -13 -122z"/>
<path d="M1320 790 c0 -24 3 -26 30 -22 20 3 30 10 30 22 0 12 -10 19 -30 22
-27 4 -30 2 -30 -22z"/>
<path d="M1160 701 c0 -93 2 -111 15 -111 13 0 15 16 13 107 -2 74 -7 108 -15
111 -10 3 -13 -23 -13 -107z"/>
<path d="M1876 722 c-4 -31 -2 -81 4 -111 13 -72 13 -94 -3 -88 -6 2 -18 -2
-25 -9 -11 -12 -9 -14 10 -14 43 0 50 12 38 66 -6 27 -11 86 -11 132 0 45 -1
82 -3 82 -2 0 -6 -26 -10 -58z"/>
<path d="M197 728 c9 -18 16 -42 15 -53 -2 -12 0 -16 5 -9 4 6 33 12 64 13 54
1 57 0 69 -29 7 -17 15 -29 17 -26 2 2 -3 20 -11 40 -15 36 -15 36 -75 36 -57
0 -61 2 -76 30 -9 17 -18 30 -21 30 -2 0 3 -15 13 -32z"/>
<path d="M768 753 c-3 -4 -3 -45 0 -90 3 -63 8 -83 18 -83 12 0 14 17 12 87
-2 54 -7 88 -15 90 -6 2 -13 0 -15 -4z"/>
<path d="M700 665 c0 -60 3 -75 15 -75 12 0 15 15 15 75 0 60 -3 75 -15 75
-12 0 -15 -15 -15 -75z"/>
<path d="M830 665 c0 -60 3 -75 15 -75 12 0 15 15 15 75 0 60 -3 75 -15 75
-12 0 -15 -15 -15 -75z"/>
<path d="M960 660 c0 -56 3 -70 15 -70 12 0 15 14 15 70 0 56 -3 70 -15 70
-12 0 -15 -14 -15 -70z"/>
<path d="M1320 705 c0 -21 5 -25 30 -25 25 0 30 4 30 25 0 21 -5 25 -30 25
-25 0 -30 -4 -30 -25z"/>
<path d="M1030 625 c0 -33 4 -45 15 -45 11 0 15 12 15 45 0 33 -4 45 -15 45
-11 0 -15 -12 -15 -45z"/>
<path d="M1320 615 c0 -21 5 -25 30 -25 25 0 30 4 30 25 0 21 -5 25 -30 25
-25 0 -30 -4 -30 -25z"/>
<path d="M201 595 c-1 -11 6 -42 13 -70 12 -41 14 -45 15 -20 0 17 -6 48 -14
70 -8 22 -14 31 -14 20z"/>
<path d="M660 568 c0 -5 139 -8 310 -8 171 0 310 3 310 8 0 4 -139 7 -310 7
-170 0 -310 -3 -310 -7z"/>
<path d="M1988 535 c0 -6 -2 -14 -3 -20 -2 -5 -3 -16 -4 -24 -1 -9 -9 -12 -26
-9 -26 6 -35 -9 -11 -18 35 -13 82 44 57 69 -6 6 -12 7 -13 2z"/>
<path d="M1882 450 c-1 -25 3 -63 7 -85 l9 -40 0 35 c0 19 -3 58 -8 85 l-7 50
-1 -45z"/>
<path d="M1761 436 c-19 -38 -23 -66 -26 -183 -1 -76 -6 -159 -10 -185 -7 -42
-11 -48 -31 -48 -13 0 -24 -4 -24 -10 0 -18 48 -11 54 8 9 31 26 185 26 242 0
30 9 91 19 135 11 44 18 81 16 83 -1 2 -13 -17 -24 -42z"/>
<path d="M1801 475 c-1 -5 8 -46 20 -90 11 -44 26 -129 33 -190 10 -78 14 -95
15 -60 2 80 -29 276 -49 315 -11 19 -19 31 -19 25z"/>
<path d="M743 453 c170 -2 444 -2 610 0 166 1 28 2 -308 2 -335 0 -471 -1
-302 -2z"/>
<path d="M1901 275 c0 -27 3 -56 8 -63 5 -8 6 8 4 40 -6 73 -11 83 -12 23z"/>
<path d="M308 264 c-3 -44 5 -67 15 -41 3 6 12 29 21 50 16 37 16 37 -8 37
-21 0 -24 -5 -28 -46z"/>
<path d="M470 282 c0 -18 -13 -44 -35 -69 -19 -23 -35 -43 -35 -45 0 -1 81 -3
180 -3 167 0 180 1 180 18 0 13 -5 17 -18 13 -28 -9 -289 -12 -298 -4 -4 4 10
27 29 52 34 41 41 44 89 48 82 5 173 -5 174 -19 1 -7 2 -24 3 -38 0 -14 6 -25
11 -25 6 0 9 20 8 50 l-3 50 -142 0 -143 0 0 -28z"/>
<path d="M770 299 c0 -5 5 -7 10 -4 6 3 10 2 10 -4 0 -5 -6 -12 -12 -14 -7 -3
100 -5 237 -5 138 0 242 2 233 5 -24 6 -23 23 2 23 15 0 20 -7 21 -27 2 -24 2
-25 6 -5 4 21 9 22 96 22 214 1 297 5 297 12 0 4 -202 8 -450 8 -310 0 -450
-3 -450 -11z"/>
<path d="M1774 302 c6 -10 42 -9 52 1 4 4 -7 7 -25 7 -18 0 -30 -4 -27 -8z"/>
<path d="M1264 185 c-4 -9 -5 -17 -3 -18 10 -5 403 9 394 14 -5 4 -89 7 -186
6 -97 0 -181 3 -188 7 -6 4 -14 0 -17 -9z"/>
<path d="M354 106 c-17 -25 -11 -32 14 -15 16 11 115 14 531 12 297 0 513 3
517 8 6 10 -43 11 -655 13 -379 1 -394 0 -407 -18z"/>
<path d="M1918 101 c-2 -16 -1 -37 3 -47 5 -13 8 -3 8 29 1 53 -5 62 -11 18z"/>
<path d="M1475 110 c72 -12 133 -12 140 0 4 6 -29 10 -92 9 -86 -2 -92 -3 -48
-9z"/>
<path d="M280 80 c0 -5 -9 -10 -19 -10 -14 0 -19 -7 -17 -25 1 -25 16 -36 16
-13 0 9 3 9 12 0 7 -7 31 -12 55 -12 l43 0 -37 35 c-38 36 -53 43 -53 25z"/>
<path d="M1880 10 c0 -5 11 -10 25 -10 14 0 25 5 25 10 0 6 -11 10 -25 10 -14
0 -25 -4 -25 -10z"/>
</g>
</svg>
