<?xml version="1.0" standalone="no"?>
<!DOCTYPE svg PUBLIC "-//W3C//DTD SVG 20010904//EN"
 "http://www.w3.org/TR/2001/REC-SVG-20010904/DTD/svg10.dtd">
<svg version="1.0" xmlns="http://www.w3.org/2000/svg"
 width="300.000000pt" height="148.000000pt" viewBox="0 0 300.000000 148.000000"
 preserveAspectRatio="xMidYMid meet">
<metadata>
Created by potrace 1.10, written by Peter Selinger 2001-2011
</metadata>
<g transform="translate(0.000000,148.000000) scale(0.050000,-0.050000)"
fill="#ffff00" stroke="none">
<path d="M1119 2941 c17 -10 91 -34 166 -52 75 -19 133 -38 127 -43 -5 -6
-102 14 -215 43 -210 54 -257 48 -257 -31 0 -26 84 -43 98 -21 9 15 47 5 111
-28 54 -27 117 -50 139 -51 30 -2 25 -7 -18 -18 -33 -8 -44 -16 -25 -18 19 -1
35 -11 35 -21 0 -11 -16 -15 -35 -9 -32 10 -32 9 1 -12 26 -17 43 -17 63 -1
33 27 324 -60 316 -96 -3 -13 4 -23 15 -23 11 0 20 9 20 20 0 11 10 20 22 20
12 0 17 -13 11 -30 -7 -16 -4 -30 6 -30 10 0 21 10 25 21 4 14 77 3 204 -30
108 -28 211 -50 229 -49 18 1 -3 11 -47 21 -139 34 -431 123 -424 130 7 7 722
-158 824 -191 94 -29 29 -25 -139 10 -85 17 -158 28 -163 23 -5 -5 45 -21 110
-35 95 -20 117 -31 109 -57 -9 -27 -7 -28 9 -5 17 24 56 18 247 -33 206 -55
446 -112 577 -137 40 -7 44 -5 20 13 -25 18 -22 21 15 13 25 -6 40 -2 34 8
-16 26 79 22 105 -4 32 -32 -7 -156 -70 -223 -72 -77 -31 -69 53 10 l68 65
-12 -60 -11 -60 26 58 c25 54 28 56 48 20 20 -35 53 -38 483 -45 381 -5 461
-11 461 -35 0 -15 14 -28 31 -28 17 0 26 8 20 18 -6 9 23 18 64 18 41 1 105 3
141 6 85 5 136 -53 88 -101 -17 -17 -34 -26 -37 -21 -14 23 -100 -132 -91
-165 5 -21 -6 -48 -26 -63 -20 -14 -30 -36 -23 -48 8 -12 2 -29 -12 -38 -14
-9 -25 -38 -25 -64 0 -58 -103 -106 -130 -62 -9 15 -35 21 -58 15 -27 -7 -37
-3 -29 10 8 13 -6 17 -40 11 -36 -7 -53 -2 -53 16 0 17 -13 22 -33 14 -26 -10
-31 -5 -21 21 7 18 3 33 -9 33 -12 0 -16 15 -9 32 10 26 2 31 -39 23 -39 -8
-49 -3 -40 19 22 57 -27 116 -61 73 -27 -35 -27 -35 -15 3 7 22 21 51 31 63
13 17 6 21 -26 12 -29 -7 -40 -4 -31 10 7 12 -9 40 -37 61 -27 22 -50 44 -50
49 0 17 125 -4 151 -26 18 -15 27 -14 33 3 5 14 54 27 117 30 60 4 125 7 144
8 19 1 35 16 35 32 0 25 -53 29 -345 27 -190 -2 -403 3 -475 10 -80 9 -120 7
-104 -4 20 -14 12 -34 -36 -85 -33 -36 -56 -71 -49 -78 7 -6 38 20 70 58 40
48 58 60 58 37 1 -24 13 -30 44 -22 33 9 39 5 27 -17 -13 -23 -11 -23 11 -3
36 34 59 31 59 -6 0 -17 -9 -26 -20 -19 -11 7 -20 -2 -20 -20 0 -18 9 -26 22
-19 12 8 76 2 143 -12 l121 -26 -50 -41 c-28 -23 -67 -53 -88 -66 -21 -13 -28
-24 -16 -25 12 0 57 23 100 52 79 54 168 78 168 46 0 -24 -77 -63 -98 -50 -9
5 -33 -8 -52 -29 -20 -22 -48 -40 -63 -40 -15 0 -27 -10 -27 -21 0 -13 19 -17
45 -10 25 6 -9 -15 -75 -46 -66 -31 -129 -56 -139 -55 -25 3 -112 165 -96 180
21 21 48 13 34 -10 -20 -32 63 -3 171 60 l90 52 -100 10 c-115 12 -170 4 -170
-24 0 -11 14 -15 30 -9 53 20 32 -5 -30 -37 -58 -30 -64 -29 -125 17 -141 104
-307 120 -465 45 -100 -47 -190 -119 -190 -151 0 -9 -28 -27 -62 -39 -33 -11
-55 -30 -48 -41 7 -12 -1 -21 -18 -21 -16 0 -35 -9 -42 -19 -7 -12 13 -11 49
2 34 11 56 29 50 38 -15 25 364 9 468 -20 48 -13 100 -19 115 -13 15 6 28 2
28 -8 0 -11 34 -33 75 -51 41 -17 109 -58 150 -91 41 -33 75 -49 75 -36 0 13
16 36 35 51 33 26 33 27 0 15 -24 -9 -35 -2 -35 21 0 33 119 97 180 97 17 0
55 21 87 47 31 26 62 48 70 48 7 1 42 4 78 8 118 12 86 -28 -143 -175 -98 -63
-165 -114 -150 -114 32 0 200 98 283 164 81 65 96 22 16 -46 -38 -32 -60 -58
-49 -58 11 0 55 36 98 80 50 51 85 73 97 61 20 -20 -19 -86 -44 -75 -7 3 -40
-21 -73 -54 -38 -37 -47 -54 -24 -46 20 8 31 5 25 -5 -20 -32 -300 -161 -351
-161 -28 0 -63 -10 -80 -22 -68 -48 175 8 276 64 134 73 153 72 65 -3 l-69
-58 59 17 c91 27 169 60 169 71 0 5 -16 5 -35 -1 -19 -6 0 9 44 33 43 24 89
45 102 47 12 2 47 19 76 38 66 43 68 -14 3 -86 l-38 -42 59 31 c33 17 101 31
152 31 51 0 132 18 180 40 92 41 197 53 197 21 0 -10 -25 -21 -55 -25 -30 -3
-50 -15 -45 -26 8 -17 -77 -35 -255 -54 -14 -1 -20 -7 -15 -13 6 -6 -25 -27
-70 -47 -75 -35 -116 -74 -50 -49 17 7 28 1 25 -13 -5 -25 1 -26 95 -3 178 44
-386 -313 -577 -364 -268 -73 -331 -94 -322 -108 5 -8 -10 -10 -34 -4 -32 8
-39 4 -28 -14 12 -19 5 -22 -29 -11 -26 8 -40 7 -33 -4 6 -11 -49 -30 -123
-44 -74 -14 -179 -37 -234 -51 -192 -51 -237 -55 -201 -19 17 17 64 40 103 51
40 11 67 24 62 30 -6 5 -58 -4 -116 -22 -129 -38 -131 -38 -131 -2 0 15 16 32
36 38 20 5 37 1 37 -10 0 -11 16 -10 39 2 21 12 64 22 95 23 l56 2 -50 14 -50
15 47 15 c25 9 51 11 56 5 6 -5 57 4 114 22 57 17 121 30 143 29 22 -1 76 7
119 19 44 11 110 24 147 27 38 4 79 18 91 31 18 19 14 21 -17 9 -22 -9 -89
-19 -150 -24 -60 -4 -159 -22 -220 -39 -60 -18 -141 -36 -180 -40 -111 -13 3
46 121 63 101 14 179 49 109 50 -34 0 -166 -31 -390 -90 l-50 -13 47 41 c53
47 34 56 -25 12 -39 -30 -72 -24 -72 13 0 12 11 17 25 12 14 -5 41 6 61 26 58
55 -110 102 -241 66 -56 -15 -59 -47 -5 -47 22 0 40 -9 40 -20 0 -11 17 -20
39 -20 21 0 44 -9 51 -20 7 -11 -7 -20 -30 -20 l-43 0 43 -60 c23 -33 33 -60
21 -60 -11 0 -21 8 -21 17 0 10 -22 13 -49 8 -27 -5 -48 -15 -45 -22 2 -7 -5
-13 -16 -13 -11 0 -17 14 -13 30 5 24 1 25 -19 5 -14 -14 -50 -25 -80 -25 -87
0 -123 -20 -96 -52 18 -22 16 -28 -10 -28 -17 0 -33 16 -34 35 0 19 -5 25 -11
12 -6 -16 -28 -18 -71 -6 -34 10 -71 12 -82 5 -11 -7 -15 -4 -8 7 6 11 -24 29
-67 40 -81 22 -97 13 -55 -29 19 -19 16 -24 -10 -24 -86 0 -11 -38 258 -130
273 -93 352 -130 280 -130 -16 0 -55 10 -86 22 -392 152 -548 197 -534 153 8
-25 14 -56 14 -69 1 -13 8 -20 16 -15 8 5 22 -1 30 -13 10 -18 -15 -20 -94
-10 -59 7 -133 15 -163 16 -30 2 -55 11 -55 20 0 9 -18 16 -40 16 -22 0 -40 7
-40 16 0 15 -16 18 -130 26 -27 1 -50 11 -50 20 0 10 -11 16 -25 13 -44 -9
-27 54 20 75 25 11 45 30 45 43 0 12 14 28 30 34 31 12 41 76 15 101 -8 9 -15
21 -16 29 -2 25 -170 189 -181 177 -7 -6 -36 -2 -65 10 -29 11 -79 24 -111 28
-32 4 -68 15 -80 24 -12 9 -47 18 -78 20 -31 2 -70 17 -87 34 -16 16 -47 30
-68 30 -22 0 -39 13 -39 29 0 15 -16 32 -35 36 -19 4 6 15 55 24 50 9 96 25
103 36 15 24 342 36 414 14 29 -8 44 -17 33 -19 -44 -6 227 -82 335 -94 63 -6
115 -19 115 -28 0 -9 59 -14 131 -12 84 3 136 -5 145 -20 8 -13 55 -30 105
-38 49 -7 124 -30 168 -51 43 -20 90 -37 105 -37 18 0 24 -17 17 -52 -11 -60
101 -58 134 2 22 40 130 38 228 -2 188 -80 419 -14 539 152 41 58 93 103 133
117 56 19 57 21 9 12 -42 -8 -73 3 -118 41 -216 182 -856 310 -856 171 0 -25
-37 -42 -149 -68 -145 -33 -286 -28 -228 9 22 14 21 18 -3 19 -20 1 -17 7 10
19 39 17 38 17 -4 19 -60 2 -80 40 -22 43 34 2 37 5 11 12 -19 5 -62 -10 -95
-34 -48 -34 -60 -37 -60 -13 0 17 9 36 20 43 11 7 20 22 20 34 0 12 -18 6 -40
-14 -21 -19 -35 -43 -29 -51 5 -9 0 -22 -11 -29 -12 -7 -19 -2 -15 12 3 16
-35 33 -105 47 -124 25 -116 41 30 61 93 13 97 12 60 -17 -40 -30 -40 -31 3
-28 47 4 106 74 62 76 -14 0 -1 14 29 30 29 16 74 28 100 26 51 -3 248 78 231
95 -6 6 -46 -6 -88 -27 -42 -21 -92 -34 -111 -30 -18 4 -74 -6 -124 -23 -50
-17 -121 -36 -157 -43 -36 -6 -99 -28 -141 -50 -90 -47 -171 -49 -389 -9 -91
16 -241 44 -334 61 -181 33 -301 19 -351 -41 -43 -51 129 -81 650 -111 296
-17 450 -39 695 -99 52 -13 90 -32 84 -42 -20 -31 156 -20 301 21 77 21 141
37 142 35 1 -2 7 -37 14 -77 l11 -72 -104 -13 c-267 -34 -313 -36 -313 -16 0
11 -29 28 -65 37 -61 15 -59 17 45 27 102 9 93 12 -123 35 -129 14 -322 48
-430 77 -145 37 -287 56 -537 70 -187 11 -400 24 -474 30 -78 7 -149 3 -170
-10 -40 -23 -14 -30 94 -23 49 3 140 -46 120 -65 -6 -5 -79 2 -164 15 -85 14
-161 18 -170 10 -38 -35 -197 -46 -168 -12 24 30 15 33 -94 33 -116 0 -184
-30 -184 -81 0 -28 35 -23 48 6 7 14 9 0 5 -30 -7 -55 -7 -55 105 -52 97 2
103 4 42 15 -61 12 -52 15 70 28 199 20 419 17 479 -6 86 -32 59 -59 -47 -47
-174 21 -399 -10 -425 -58 -24 -45 18 -95 81 -95 22 0 20 7 -9 29 -35 26 -31
27 41 10 44 -10 119 -18 166 -19 51 0 81 -8 74 -19 -6 -11 13 -25 44 -32 31
-6 70 -20 86 -30 67 -42 145 -67 477 -150 387 -97 389 -98 316 -131 -41 -19
-96 -19 -242 -1 -381 47 -628 7 -631 -102 0 -22 115 -18 123 4 9 24 281 -23
385 -67 l78 -32 -56 -52 c-45 -42 -51 -55 -28 -70 38 -24 63 -23 48 2 -19 31
18 24 165 -31 249 -94 507 -153 735 -166 222 -13 259 -30 168 -78 -27 -13 -39
-25 -28 -25 11 0 7 -9 -9 -19 -37 -23 51 -49 122 -35 34 6 28 9 -23 12 -53 2
-63 7 -40 22 47 30 702 23 1025 -11 256 -26 301 -27 378 -1 48 17 177 44 287
61 110 18 243 46 296 63 52 18 109 26 126 20 19 -7 25 -3 16 12 -10 15 -3 19
20 10 19 -8 29 -6 24 3 -6 10 12 28 40 40 40 18 48 18 36 -2 -8 -14 15 7 51
45 l64 70 -63 6 c-34 4 -73 -2 -86 -13 -97 -79 -722 -224 -951 -221 -137 2
-388 27 -363 36 6 2 186 16 400 31 386 27 393 28 638 120 246 92 422 133 422
99 2 -45 79 -112 146 -127 40 -9 69 -10 64 -1 -5 9 4 21 21 28 21 8 26 3 17
-13 -44 -77 125 113 192 215 112 172 103 180 -89 78 -172 -92 -308 -119 -356
-71 -23 23 -27 22 120 61 46 13 125 59 176 103 51 44 100 74 111 68 10 -6 18
0 18 13 0 14 7 18 15 10 8 -9 -2 -27 -22 -42 -20 -15 -31 -37 -24 -49 8 -12
-31 -41 -93 -69 -62 -29 -90 -49 -66 -50 55 -2 201 86 195 116 -4 14 2 20 12
14 17 -11 60 29 93 86 12 22 8 26 -17 16 -28 -11 -31 -4 -20 39 l13 53 -88
-55 c-171 -106 -414 -214 -461 -206 -45 8 -45 9 -7 24 127 50 287 131 330 166
120 99 -35 71 -384 -68 -240 -97 -390 -131 -405 -92 -18 47 -14 51 47 38 41
-8 73 0 106 26 27 21 81 44 122 52 75 14 103 49 39 49 -30 1 -31 3 -5 20 23
15 16 20 -30 20 -127 2 8 55 205 80 107 14 288 55 402 91 114 36 220 61 235
55 25 -9 38 26 31 78 -2 8 11 10 27 3 18 -7 38 8 53 41 30 66 17 79 -55 51
-32 -12 -94 -25 -138 -29 -44 -3 -107 -13 -140 -21 -58 -13 -59 -13 -20 19 38
31 -105 32 -205 1 -14 -4 -25 1 -25 12 0 10 21 19 46 19 26 0 64 14 85 30 38
29 38 30 1 17 -32 -11 -36 -7 -25 22 13 34 4 36 -102 25 -110 -11 -113 -10
-60 18 l55 30 -55 48 c-61 54 -40 63 71 31 46 -13 61 -12 51 4 -9 14 -2 17 20
9 18 -7 33 -3 33 8 0 11 7 16 16 10 9 -5 27 8 40 29 27 44 11 48 -68 18 -43
-16 -61 -14 -85 9 -36 36 38 62 136 48 32 -5 55 -3 51 4 -32 51 207 136 387
138 102 1 194 6 203 12 10 6 23 2 30 -10 7 -11 21 -20 32 -20 11 0 15 9 8 20
-7 11 2 20 20 20 18 0 27 9 20 20 -7 11 1 15 17 8 31 -12 82 57 59 79 -7 7
-38 13 -68 13 -31 0 -60 8 -66 17 -6 10 -59 25 -117 33 -86 13 -96 18 -55 29
71 19 -285 43 -415 28 -56 -7 -119 -5 -139 4 -20 9 -137 13 -261 10 -136 -3
-225 2 -225 14 0 11 -86 26 -191 34 -105 7 -242 31 -305 52 -63 21 -132 38
-154 39 -22 0 -53 10 -70 22 -72 50 479 -22 759 -100 135 -38 171 -40 360 -22
121 11 256 12 315 3 102 -16 273 -3 300 24 7 7 -28 13 -78 13 -61 0 -100 11
-119 33 -28 35 35 34 243 -4 55 -10 64 -8 40 11 -24 19 -20 22 24 14 30 -4 51
-2 46 6 -13 21 133 60 212 58 54 -2 43 -8 -52 -28 -107 -22 -112 -25 -50 -30
63 -5 65 -7 15 -14 -31 -5 -50 -17 -44 -27 6 -11 31 -15 55 -10 24 5 78 14
119 21 47 7 83 27 97 54 20 37 18 41 -20 31 -47 -13 -54 5 -18 41 32 32 -23
31 -264 -6 -269 -42 -440 -38 -440 9 0 8 79 21 175 28 201 15 289 35 300 69
18 52 -101 69 -375 53 -148 -9 -297 -16 -330 -16 -127 -1 -662 49 -825 77 -93
17 -203 29 -243 27 -56 -2 -40 -8 68 -29 132 -25 134 -26 30 -17 -572 48 -755
74 -865 122 -191 82 -483 146 -905 198 -220 27 -566 72 -770 99 -412 56 -422
57 -381 31z m2149 -441 c64 -10 123 -25 130 -32 14 -16 -277 5 -325 24 -55 21
-37 52 22 39 30 -6 108 -20 173 -31z m-383 -43 c267 -58 387 -95 317 -96 -28
-1 -651 133 -692 148 -81 30 139 0 375 -52z m745 -139 c88 -13 174 -32 190
-42 21 -12 11 -15 -30 -8 -33 6 -129 16 -214 23 -85 8 -171 26 -190 42 -33 26
-31 28 24 19 33 -6 132 -21 220 -34z m1035 -69 c37 3 55 -4 55 -22 0 -22 9
-24 39 -8 21 12 55 14 75 7 59 -23 -111 -64 -182 -44 -32 9 -65 13 -73 7 -9
-5 -12 7 -9 26 4 19 8 44 9 55 1 11 8 9 17 -4 8 -13 39 -21 69 -17z m-916
-140 c37 -28 37 -29 -13 -29 -28 0 -57 14 -63 30 -15 38 25 38 76 -1z m1657
-224 c-47 -4 -128 -4 -180 0 -53 4 -15 8 84 8 99 0 142 -3 96 -8z m-356 -115
c-87 -40 -229 -59 -254 -34 -14 14 9 25 77 34 53 7 111 15 127 19 82 17 108 7
50 -19z m-285 -564 c-36 -5 -94 -5 -130 0 -36 4 -6 8 65 8 72 0 101 -4 65 -8z
m-1966 -129 l47 -63 -88 14 c-238 37 -292 106 -87 110 69 2 89 -8 128 -61z
m-1869 -26 l60 -27 -80 11 c-117 16 -178 42 -100 43 33 0 87 -12 120 -27z
m1960 -71 c7 -11 1 -20 -14 -20 -14 0 -60 -6 -101 -13 -49 -8 -75 -5 -75 10 0
12 13 17 29 11 16 -6 45 -2 65 10 46 27 80 27 96 2z m1510 -119 c0 -17 -121
-47 -135 -33 -5 5 17 22 48 39 56 29 87 27 87 -6z m-300 -181 c17 -11 21 -20
11 -20 -26 0 73 -70 99 -70 18 0 21 -21 13 -91 -2 -12 -13 -15 -24 -8 -12 7
-33 -2 -47 -21 -39 -54 -472 -112 -472 -64 0 10 -13 8 -30 -6 -24 -20 -30 -20
-30 0 0 17 -8 19 -25 5 -14 -11 -42 -13 -65 -4 -22 9 -74 17 -116 18 -90 1
-82 41 7 41 33 0 75 8 94 19 107 57 269 121 309 121 34 1 39 5 18 18 -20 13
-1 26 70 48 120 37 150 39 188 14z m-1307 -213 c143 -36 173 -74 42 -54 -128
19 -221 54 -231 85 -7 20 1 24 26 15 20 -8 93 -28 163 -46z m517 -67 c-7 -11
-39 -17 -71 -13 -94 10 -94 33 -1 33 50 0 79 -8 72 -20z m-70 -141 c50 -13 15
-15 -119 -8 -103 6 -202 20 -220 31 -37 24 229 6 339 -23z"/>
<path d="M3423 2600 c30 -8 111 -21 180 -27 l127 -11 -100 27 c-112 30 -304
41 -207 11z"/>
<path d="M1751 2538 c11 -18 445 -123 469 -114 10 3 -93 33 -230 67 -136 33
-243 54 -239 47z"/>
<path d="M1340 2440 l50 -16 -47 -2 c-40 -2 -44 -7 -23 -32 17 -21 18 -30 2
-30 -12 0 -22 -8 -22 -18 0 -24 116 -64 124 -42 16 46 421 -147 432 -206 6
-31 -10 -27 -118 27 -268 135 -404 143 -254 14 l64 -55 -54 0 c-108 0 -50 -35
111 -66 172 -33 173 -33 -190 0 -125 11 -182 -10 -110 -40 143 -60 423 -174
428 -174 4 0 7 13 7 29 0 15 11 32 25 37 14 4 5 5 -19 1 -39 -7 -43 -2 -28 38
10 26 31 43 50 39 17 -3 32 4 32 15 0 12 7 19 15 17 28 -7 105 27 105 47 0 11
25 18 55 16 30 -2 60 -2 65 1 43 16 106 9 114 -13 6 -15 18 -22 28 -16 10 6
18 1 18 -11 0 -14 22 -20 55 -15 30 5 42 5 27 0 -24 -8 -24 -12 0 -27 19 -12
6 -18 -42 -18 -52 0 -62 -6 -40 -19 25 -17 26 -23 2 -45 -23 -21 -25 -21 -13
0 24 42 -53 20 -99 -28 -39 -41 -89 -68 -148 -80 -15 -3 -36 -17 -45 -32 -14
-21 -20 -21 -34 0 -9 14 -25 24 -35 22 -10 -2 -31 1 -48 7 -16 6 -124 40 -240
75 -115 35 -268 87 -338 115 -143 56 -232 24 -150 -54 25 -24 35 -25 42 -6 5
14 17 20 27 14 9 -5 13 -22 7 -36 -5 -15 6 -39 26 -55 33 -26 34 -25 9 7 -38
48 -21 44 113 -22 63 -32 230 -96 371 -142 l257 -86 93 54 c125 71 313 158
543 251 105 42 226 92 270 111 l80 34 -130 38 c-71 21 -217 46 -324 55 -167
15 -212 27 -320 88 -195 109 -449 175 -287 75 39 -25 71 -57 71 -73 0 -39 -9
-36 -101 31 -45 32 -110 65 -145 72 -122 27 -166 49 -134 69 38 23 -92 81
-174 78 l-56 -2 50 -16z"/>
<path d="M2123 2303 c-35 -23 45 -83 110 -83 24 0 56 -12 71 -27 17 -17 104
-33 237 -42 115 -8 274 -22 352 -32 116 -14 163 -11 240 15 l97 33 -60 15
c-33 9 -177 25 -320 37 -143 11 -316 33 -385 49 -186 42 -312 55 -342 35z"/>
<path d="M2682 1789 c-55 -31 -74 -49 -50 -49 21 0 65 22 98 49 75 62 64 61
-48 0z"/>
<path d="M2430 1729 c-55 -27 -77 -43 -50 -37 74 18 215 85 180 85 -16 0 -75
-21 -130 -48z"/>
<path d="M5247 1758 c-53 -15 -102 -69 -82 -90 17 -16 93 19 81 38 -8 13 0 16
21 8 18 -7 33 -4 33 7 0 10 7 17 15 14 8 -3 18 4 22 15 9 27 -17 29 -90 8z"/>
<path d="M1250 1659 c141 -41 610 -132 610 -119 0 44 -407 141 -577 138 -86
-1 -89 -3 -33 -19z"/>
<path d="M2420 1529 c-51 -28 -74 -49 -53 -49 20 0 61 17 90 37 29 21 67 42
83 49 27 10 27 11 0 12 -16 0 -70 -22 -120 -49z"/>
<path d="M4290 1077 c-33 -11 -131 -28 -217 -39 -202 -24 -275 -61 -93 -47
133 11 346 59 400 90 42 25 -9 23 -90 -4z"/>
<path d="M4078 971 c-5 -5 -89 -19 -187 -31 -225 -28 -301 -67 -101 -52 239
18 499 86 348 90 -28 1 -55 -2 -60 -7z"/>
</g>
</svg>
