<?xml version="1.0" standalone="no"?>
<!DOCTYPE svg PUBLIC "-//W3C//DTD SVG 20010904//EN"
 "http://www.w3.org/TR/2001/REC-SVG-20010904/DTD/svg10.dtd">
<svg version="1.0" xmlns="http://www.w3.org/2000/svg"
 width="300.000000pt" height="299.000000pt" viewBox="0 0 300.000000 299.000000"
 preserveAspectRatio="xMidYMid meet">
<metadata>
Created by potrace 1.10, written by Peter Selinger 2001-2011
</metadata>
<g transform="translate(0.000000,299.000000) scale(0.050000,-0.050000)"
fill="#38761d" stroke="none">
<path d="M1957 5947 c-18 -5 -37 -27 -43 -48 -6 -21 -27 -45 -47 -52 -20 -7
-50 -25 -67 -38 -16 -14 -61 -29 -98 -32 -57 -6 -98 -39 -113 -92 -3 -8 -149
70 -180 96 -23 19 -36 18 -59 -1 -42 -35 -37 -60 11 -60 48 0 74 -53 42 -85
-56 -56 -6 -164 71 -151 21 4 36 -6 36 -24 0 -16 -20 -33 -44 -36 -24 -4 -50
-24 -57 -46 -7 -22 -23 -36 -36 -32 -13 5 -57 -23 -98 -62 -72 -70 -76 -71
-104 -33 -28 38 -29 38 -45 -6 l-17 -45 -74 51 c-41 28 -75 64 -75 81 0 72
-43 119 -72 79 -21 -30 -33 -32 -56 -13 -23 19 -30 17 -35 -11 -6 -29 -26 -34
-124 -29 l-116 5 7 -56 c5 -46 15 -56 51 -51 37 5 45 -3 45 -45 0 -51 -27 -68
-49 -32 -7 11 -25 14 -42 8 -36 -14 -39 -138 -4 -161 54 -35 70 -96 54 -214
-50 -364 -79 -457 -120 -390 -14 22 -22 23 -42 3 -14 -14 -53 -25 -88 -25
-104 0 -220 -124 -237 -253 -8 -63 -24 -107 -42 -114 -17 -7 -30 -33 -30 -58
0 -26 -8 -56 -19 -66 -12 -12 11 -63 62 -136 58 -85 75 -123 59 -139 -37 -37
-24 -55 30 -42 42 11 61 2 98 -44 l46 -58 55 56 c75 75 100 59 95 -59 l-4 -98
161 1 c128 1 166 8 186 36 14 19 40 34 59 34 18 0 38 14 45 30 6 17 23 30 37
30 14 0 31 13 37 29 6 16 49 39 96 52 46 12 112 44 146 69 33 26 471 308 971
626 501 319 925 593 943 610 18 16 51 36 74 43 22 7 60 53 83 101 24 49 76
117 116 153 162 141 193 219 94 237 -53 9 -59 21 -103 198 -44 181 -67 242
-67 178 0 -18 -14 -30 -32 -29 -20 2 -60 -51 -111 -147 -89 -167 -100 -176
-170 -138 -39 20 -58 21 -88 2 -43 -27 -129 -3 -143 39 -7 21 -20 22 -61 3
-28 -13 -71 -18 -95 -12 -41 11 -43 7 -31 -51 14 -64 -3 -81 -43 -41 -14 14
-26 15 -34 1 -7 -11 -44 -15 -82 -9 -42 7 -70 3 -70 -9 0 -11 -25 -27 -55 -34
-30 -8 -70 -28 -89 -44 -38 -35 -130 -4 -157 53 -64 133 -66 246 -5 290 34 25
-2 150 -44 150 -32 0 -53 50 -37 90 11 30 4 33 -56 17z m-117 -410 c0 -19 9
-40 20 -47 11 -7 20 -30 20 -51 0 -22 23 -59 50 -83 28 -24 50 -53 50 -65 0
-103 184 -190 319 -151 50 14 127 34 171 45 44 10 127 37 184 59 86 32 130 37
260 25 161 -14 325 24 297 69 -7 11 6 18 28 17 67 -5 27 -93 -97 -215 -61 -60
-109 -117 -107 -125 3 -8 -8 -15 -25 -15 -16 0 -30 -9 -30 -20 0 -11 -13 -20
-30 -20 -16 0 -30 -9 -30 -20 0 -11 -10 -20 -23 -20 -33 0 -218 -118 -273
-174 -26 -26 -55 -42 -65 -35 -11 6 -19 2 -19 -10 0 -11 -13 -21 -30 -21 -16
0 -30 -9 -30 -20 0 -11 -13 -20 -30 -20 -16 0 -30 -8 -30 -18 0 -10 -22 -23
-50 -30 -27 -7 -48 -24 -45 -37 3 -14 -11 -22 -30 -19 -19 3 -35 -4 -35 -15 0
-12 -13 -21 -28 -21 -16 0 -70 -31 -121 -70 -50 -38 -100 -70 -111 -70 -11 0
-20 -9 -20 -20 0 -11 -13 -20 -30 -20 -16 0 -30 -7 -30 -16 0 -8 -28 -26 -62
-39 -34 -12 -56 -32 -49 -44 8 -12 1 -16 -18 -9 -18 7 -36 -1 -43 -20 -7 -17
-20 -27 -29 -21 -10 6 -35 -7 -56 -28 -22 -22 -58 -45 -81 -52 -24 -8 -37 -22
-31 -32 6 -11 -7 -19 -30 -19 -22 0 -41 -9 -41 -20 0 -11 -13 -20 -30 -20 -16
0 -30 -9 -30 -20 0 -11 -13 -20 -30 -20 -16 0 -46 -16 -67 -35 -20 -19 -45
-37 -55 -39 -61 -15 -287 -119 -384 -177 -122 -74 -223 -89 -264 -39 -14 17
-29 27 -34 23 -5 -5 -30 13 -56 39 -32 32 -71 48 -117 48 -38 0 -88 16 -111
35 -46 37 -77 145 -42 145 11 0 18 7 16 15 -19 68 86 178 197 207 209 54 308
254 323 647 11 314 20 329 157 267 97 -43 287 -65 287 -33 0 9 18 17 40 17 22
0 40 9 40 20 0 11 18 20 40 20 59 0 271 220 300 313 42 127 180 207 180 104z"/>
<path d="M3518 5207 c-20 -25 -21 -30 -2 -19 14 8 37 6 51 -5 23 -19 94 4 72
23 -33 31 -96 31 -121 1z"/>
<path d="M3419 5122 c-52 -54 -101 -142 -80 -142 11 0 35 25 54 55 19 30 47
65 62 78 15 13 20 27 11 33 -9 5 -30 -6 -47 -24z"/>
<path d="M3525 5115 c-104 -129 -9 -260 133 -186 32 16 62 24 69 17 7 -6 18 5
26 26 7 21 37 58 65 83 44 37 48 47 22 65 -46 31 -89 15 -96 -35 -4 -25 -16
-45 -28 -45 -11 0 -16 17 -11 39 16 60 -136 91 -180 36z"/>
<path d="M3872 5018 c-38 -30 -50 -53 -41 -81 8 -27 4 -38 -14 -35 -26 4 -53
-4 -154 -44 -26 -11 -65 -14 -85 -7 -57 18 -46 -21 13 -48 72 -33 2069 -1310
2068 -1323 0 -5 -47 -39 -105 -75 -57 -35 -585 -373 -1174 -751 l-1070 -686
-250 158 c-137 88 -358 230 -490 317 -285 188 -392 181 -208 -14 68 -72 70
-96 20 -227 -27 -73 -31 -105 -15 -121 17 -17 16 -27 -3 -38 -20 -13 -19 -30
4 -86 18 -42 25 -101 18 -151 l-11 -83 108 1 c136 1 213 -29 225 -88 33 -162
29 -156 100 -156 63 0 125 -40 100 -65 -6 -6 -14 -33 -17 -58 -3 -26 -13 -72
-21 -102 -13 -49 -9 -55 37 -55 63 0 80 -26 77 -116 -4 -110 -21 -140 -91
-163 -70 -23 -121 -67 -298 -257 -107 -115 -137 -164 -99 -164 9 0 26 10 39
23 32 32 79 8 123 -64 33 -56 40 -59 57 -28 11 19 30 28 43 20 12 -7 18 -22
12 -32 -6 -10 23 -40 64 -68 112 -73 146 -103 146 -127 0 -12 20 -35 44 -52
41 -29 41 -33 10 -68 -62 -68 -35 -107 45 -65 33 18 59 87 73 199 3 26 23 66
45 90 59 65 82 121 70 169 -14 52 23 58 51 8 10 -19 26 -32 35 -29 39 16 25
-39 -21 -85 -27 -28 -44 -51 -36 -51 8 0 -13 -22 -46 -48 -33 -27 -54 -55 -46
-62 22 -23 179 134 210 210 16 39 39 94 52 124 12 29 57 73 98 96 94 53 98 69
118 476 2 35 11 43 40 33 25 -7 42 -1 50 19 21 54 278 212 344 212 40 0 81 19
117 56 58 56 136 69 213 35 21 -10 46 -7 58 5 14 14 38 15 72 2 60 -23 104
-11 104 29 0 15 26 39 58 52 36 15 64 45 71 76 8 28 65 116 129 194 86 107
118 164 127 226 6 46 30 110 53 142 23 33 42 79 42 102 0 24 18 83 40 131 25
54 40 131 40 204 0 64 1 148 1 186 0 39 8 93 18 120 9 28 23 67 30 88 12 37
13 37 40 0 36 -48 136 37 184 155 16 40 90 131 163 202 272 263 317 356 296
621 -18 224 -54 282 -181 290 -105 7 -186 53 -359 206 -160 141 -326 204 -413
157 -28 -15 -52 -13 -84 5 -152 86 -455 108 -455 34 0 -22 -13 -44 -30 -51
-16 -6 -30 -28 -30 -49 0 -21 -9 -38 -20 -38 -29 0 -24 51 13 136 46 105 46
138 -1 188 -38 40 -42 41 -49 9 -8 -43 -55 -32 -48 11 4 22 -18 34 -78 42 -45
6 -88 20 -95 31 -41 67 -197 79 -270 21z m305 -270 c19 -22 46 -37 61 -32 16
5 23 -2 17 -18 -5 -16 -22 -26 -37 -23 -16 3 -11 -7 11 -25 21 -16 33 -35 26
-42 -17 -17 -134 37 -122 56 5 9 -3 16 -17 16 -15 0 -37 18 -51 39 -16 26 -37
36 -60 28 -32 -11 -32 -10 2 16 52 41 131 34 170 -15z m558 -247 c42 -12 65
-11 65 2 0 11 14 6 31 -11 25 -25 62 -30 171 -22 77 5 135 1 129 -9 -6 -9 7
-13 29 -7 25 7 44 -1 52 -22 7 -17 29 -32 50 -32 21 0 36 -7 33 -16 -8 -24
136 -144 173 -144 17 0 32 -13 32 -29 0 -25 57 -57 110 -60 92 -5 189 -85 201
-166 14 -90 5 -111 -106 -242 l-58 -67 -68 62 c-38 35 -89 69 -114 75 -25 6
-45 19 -45 29 0 9 -16 11 -35 4 -19 -7 -28 -5 -20 4 16 18 -99 110 -139 110
-14 0 -26 9 -26 20 0 11 -13 20 -30 20 -16 0 -30 9 -30 20 0 11 -19 20 -43 20
-24 0 -38 6 -31 13 14 14 -224 173 -260 173 -13 1 -29 13 -35 29 -6 15 -20 22
-31 15 -11 -7 -26 2 -32 19 -7 17 -25 31 -40 31 -15 0 -28 9 -28 20 0 11 -7
18 -15 15 -23 -8 -105 81 -105 113 0 51 100 66 215 33z m294 -1692 c21 -16 29
-29 17 -29 -17 0 -45 -200 -48 -345 0 -19 -7 -35 -15 -35 -8 0 -27 -43 -42
-95 -15 -52 -36 -101 -47 -108 -11 -7 -21 -29 -23 -50 -4 -50 -55 -153 -83
-171 -12 -8 -65 -73 -117 -143 -92 -125 -96 -129 -170 -119 -46 7 -81 2 -90
-13 -11 -17 -21 -17 -43 0 -19 16 -36 17 -53 4 -14 -11 -38 -20 -55 -20 -50
-2 -363 -141 -408 -182 -23 -21 -63 -49 -89 -62 -72 -38 -204 -163 -192 -183
6 -10 2 -18 -10 -18 -11 0 -21 -19 -21 -41 0 -23 -8 -36 -18 -30 -26 16 -59
-99 -64 -219 -5 -104 -150 -290 -227 -290 -33 0 -184 -173 -176 -202 7 -24 -9
-23 -57 3 -21 12 -34 30 -27 40 6 10 -8 19 -31 19 -23 0 -37 9 -30 20 7 11 -1
20 -17 20 -41 0 -64 78 -32 107 19 18 21 16 8 -7 -21 -39 52 21 177 145 53 53
90 105 84 115 -7 11 -4 20 6 20 19 0 18 202 -2 270 -6 22 -12 40 -14 40 -2 0
-8 26 -13 58 -5 33 -18 75 -28 94 -11 20 -19 50 -19 69 0 18 -36 74 -80 124
-44 50 -80 99 -80 109 0 10 -8 13 -18 7 -9 -6 -30 5 -45 23 -23 29 -23 31 3
16 17 -9 -1 17 -40 58 -38 41 -103 91 -143 112 -106 56 -120 280 -18 280 12 0
21 -9 21 -20 0 -11 19 -20 41 -20 23 0 36 -8 30 -18 -15 -24 122 -109 149 -92
11 7 20 -2 20 -19 0 -28 24 -40 66 -33 10 2 12 -5 6 -15 -12 -19 72 -63 120
-63 17 0 25 -9 18 -20 -7 -11 2 -20 19 -20 17 0 31 -9 31 -20 0 -11 17 -20 39
-20 21 0 44 -9 51 -20 23 -37 189 2 190 45 0 8 14 15 30 15 17 0 30 8 30 18 0
16 73 48 103 45 7 -1 38 22 68 50 31 28 70 54 87 57 18 3 30 16 27 29 -4 13 3
18 15 11 11 -7 20 -4 20 7 0 10 16 17 35 16 19 -2 33 8 30 22 -3 14 8 25 25
25 16 0 30 9 30 20 0 11 17 20 38 20 21 0 43 14 49 30 7 17 25 30 42 30 44 0
332 182 319 203 -6 9 8 17 31 17 22 0 41 9 41 20 0 11 14 20 30 20 17 0 30 9
30 20 0 11 13 20 29 20 16 0 43 20 59 44 17 24 37 38 44 30 21 -20 128 51 130
85 1 20 5 22 11 7 8 -19 22 -17 58 7 27 17 44 39 38 49 -6 10 3 18 20 18 17 0
31 9 31 20 0 29 44 24 89 -11z"/>
<path d="M3317 4913 c-72 -43 -72 -113 0 -113 13 0 23 -11 23 -25 1 -17 7 -15
20 5 16 25 19 24 20 -6 0 -22 9 -31 22 -23 12 8 30 2 40 -13 14 -23 22 -22 51
6 38 39 4 107 -46 88 -40 -16 -51 21 -17 55 78 78 3 95 -113 26z"/>
<path d="M3075 4449 c-232 -56 -444 -200 -584 -396 -50 -71 -91 -131 -91 -136
0 -4 120 -4 267 0 546 13 1057 -142 1488 -451 l145 -104 0 124 c0 631 -612
1111 -1225 963z m369 -151 c58 -12 115 -30 125 -40 10 -10 40 -18 65 -18 26 0
62 -18 81 -40 18 -22 42 -40 51 -40 40 0 130 -83 125 -115 -3 -19 -1 -24 3
-10 11 31 46 33 46 2 0 -13 21 -51 47 -85 26 -34 54 -91 62 -127 l14 -64 -75
31 c-87 36 -255 142 -326 205 -53 47 -74 53 -91 24 -14 -22 -125 -14 -241 16
-44 12 -162 32 -262 44 -270 34 -286 58 -102 153 164 84 297 102 478 64z m216
-455 c-1 -22 -34 -66 -50 -66 -29 0 -48 52 -27 76 19 24 77 16 77 -10z"/>
<path d="M2317 3907 c-21 -6 -29 -23 -23 -48 13 -47 57 -51 74 -7 25 66 18 73
-51 55z"/>
<path d="M2900 3852 c0 -30 49 -57 68 -37 7 6 12 26 12 43 -1 28 -3 28 -20 2
-13 -20 -19 -22 -20 -5 0 14 -9 25 -20 25 -11 0 -20 -13 -20 -28z"/>
<path d="M2396 3767 c-65 -11 -79 -62 -79 -286 0 -1041 1417 -1375 1879 -443
82 165 83 163 -41 256 -486 366 -1230 566 -1759 473z m144 -139 c0 -36 -73
-36 -86 0 -16 41 27 76 60 49 14 -12 26 -34 26 -49z m259 -47 c25 -16 23 -30
-14 -96 -35 -63 -39 -84 -19 -106 13 -15 3 -10 -23 12 -26 21 -51 37 -55 34
-38 -24 -128 0 -128 34 0 69 179 160 239 122z m781 -52 c0 -34 -52 -39 -71 -7
-15 25 29 61 55 46 9 -6 16 -23 16 -39z m-350 2 c100 -24 100 -25 45 -47 -30
-13 -54 -30 -53 -39 7 -39 -4 -52 -22 -25 -17 26 -19 25 -20 -4 0 -18 -21 -50
-47 -70 -97 -77 -119 -189 -46 -244 26 -19 30 -31 14 -42 -16 -9 6 -46 67
-112 50 -54 91 -109 91 -123 1 -30 81 -34 81 -4 0 14 13 14 40 -1 69 -37 44
-60 -65 -60 -58 0 -118 -9 -135 -20 -23 -15 -18 -19 25 -20 30 0 55 -9 55 -20
0 -27 -66 -25 -194 4 -118 28 -156 69 -59 64 36 -1 43 1 18 6 -25 5 -45 16
-45 25 0 26 52 62 68 46 8 -7 9 1 2 19 -7 17 -3 38 9 45 11 7 21 27 21 43 0
17 -9 25 -20 18 -11 -7 -20 -3 -20 7 0 11 -12 32 -26 47 -49 50 -121 244 -94
253 61 20 137 117 147 188 6 45 3 71 -8 64 -11 -6 -19 -2 -19 10 0 27 62 24
190 -8z m-274 -98 c5 -22 -6 -33 -32 -33 -45 0 -74 52 -38 67 37 15 63 3 70
-34z m803 -103 c114 -57 134 -81 100 -121 -13 -16 -18 -29 -10 -29 7 0 -18
-32 -56 -71 -72 -74 -251 -100 -238 -34 3 14 -4 25 -14 25 -11 0 -11 24 2 60
15 42 14 78 -1 122 -39 113 50 133 217 48z m-412 -41 c-6 -16 -23 -29 -37 -29
-35 0 -52 50 -25 77 29 29 77 -9 62 -48z m-647 1 c0 -16 -14 -30 -32 -30 -17
0 -36 -18 -42 -40 -14 -51 -78 -52 -91 -1 -12 42 27 67 75 48 19 -7 30 1 30
21 0 18 14 32 30 32 17 0 30 -13 30 -30z m727 -42 c35 -13 21 -68 -17 -68 -29
0 -54 49 -35 68 14 15 15 15 52 0z m-922 -80 c20 -19 -7 -68 -37 -68 -15 0
-28 12 -28 27 0 44 38 68 65 41z m311 -35 c5 -22 -7 -33 -35 -33 -22 0 -41 12
-41 27 0 61 65 67 76 6z m1220 30 c35 -23 8 -83 -38 -83 -24 0 -38 14 -38 37
0 59 28 76 76 46z m44 -134 c0 -34 -52 -39 -71 -7 -15 25 29 61 55 46 9 -6 16
-23 16 -39z m-1300 0 c0 -19 -14 -29 -33 -25 -51 9 -57 56 -9 56 25 0 42 -13
42 -31z m580 -6 c-1 -25 -30 -53 -62 -58 -35 -6 -45 57 -12 78 22 15 74 0 74
-20z m680 -66 c0 -22 -57 -46 -73 -30 -7 6 -7 25 0 42 12 31 73 22 73 -12z
m-1109 -31 c-6 -16 -11 -33 -11 -38 0 -4 -16 -8 -37 -8 -39 0 -51 61 -17 83
32 21 77 -5 65 -37z m629 -9 c0 -22 -57 -46 -73 -30 -7 6 -7 25 0 42 12 31 73
22 73 -12z m287 -109 c-6 -15 -23 -28 -37 -28 -34 0 -54 55 -24 66 39 13 72
-7 61 -38z m-211 -25 c5 -32 -3 -43 -35 -43 -26 0 -41 13 -41 37 0 76 65 81
76 6z m-156 -83 c0 -11 -27 -20 -60 -20 -33 0 -60 9 -60 20 0 11 27 20 60 20
33 0 60 -9 60 -20z"/>
<path d="M1253 3546 c-6 -40 -4 -83 7 -95 10 -13 10 -34 0 -50 -40 -66 139
-255 206 -218 24 14 58 5 121 -32 47 -28 100 -51 117 -51 17 0 45 -20 62 -45
25 -37 37 -41 67 -23 71 43 161 -22 177 -128 9 -61 6 -94 -10 -104 -18 -11
-18 -19 -2 -29 12 -7 22 -39 22 -70 0 -78 31 -93 170 -81 l120 10 -116 66
c-116 65 -120 76 -62 145 88 103 -56 294 -278 369 -53 18 -138 51 -190 74 -52
24 -101 41 -109 39 -8 -2 -15 6 -15 17 0 11 -10 20 -21 20 -34 0 -76 50 -90
108 -13 49 -113 152 -148 152 -9 0 -21 -33 -28 -74z"/>
<path d="M4313 3347 c-41 -42 -13 -106 37 -83 56 25 61 37 26 72 -27 27 -43
30 -63 11z"/>
</g>
</svg>
