<?xml version="1.0" standalone="no"?>
<!DOCTYPE svg PUBLIC "-//W3C//DTD SVG 20010904//EN"
 "http://www.w3.org/TR/2001/REC-SVG-20010904/DTD/svg10.dtd">
<svg version="1.0" xmlns="http://www.w3.org/2000/svg"
 width="900.000000pt" height="555.000000pt" viewBox="0 0 900.000000 555.000000"
 preserveAspectRatio="xMidYMid meet">
<metadata>
Created by potrace 1.10, written by Peter Selinger 2001-2011
</metadata>
<g transform="translate(0.000000,555.000000) scale(0.100000,-0.100000)"
fill="#38761d" stroke="none">
<path d="M0 2775 l0 -2775 4500 0 4500 0 0 2775 0 2775 -4500 0 -4500 0 0
-2775z m4592 1642 c13 -13 128 -100 164 -125 61 -40 126 -82 131 -82 3 0 18
-9 34 -21 42 -30 118 -70 239 -129 58 -28 118 -57 133 -65 16 -8 34 -15 40
-15 7 0 24 -6 38 -14 15 -7 55 -23 90 -35 35 -12 73 -25 84 -30 11 -4 45 -15
75 -24 30 -8 73 -21 95 -27 22 -6 72 -18 110 -26 454 -93 869 -96 1285 -9 96
21 264 66 315 85 11 5 49 18 85 30 65 22 74 25 140 54 136 58 231 104 345 166
50 28 100 55 113 62 12 6 22 15 22 20 0 4 6 8 13 8 12 0 27 10 75 50 13 12 15
6 6 -27 -4 -13 -11 -23 -16 -23 -6 0 -36 -28 -66 -62 -66 -74 -317 -326 -382
-383 -51 -46 -236 -192 -270 -215 -12 -8 -28 -20 -34 -25 -23 -21 -174 -120
-286 -188 -142 -86 -388 -212 -525 -268 -11 -4 -41 -17 -67 -28 -26 -12 -54
-21 -62 -21 -8 0 -17 -4 -21 -9 -3 -5 -19 -12 -36 -16 -17 -4 -42 -13 -57 -21
-15 -8 -37 -14 -49 -14 -12 0 -24 -4 -27 -9 -4 -5 -25 -12 -49 -16 -23 -4 -47
-11 -53 -16 -6 -5 -31 -13 -55 -19 -24 -5 -71 -16 -104 -24 -58 -15 -88 -22
-226 -52 -37 -8 -80 -14 -95 -14 -16 0 -45 -4 -64 -10 -61 -16 -210 -27 -218
-16 -4 6 -10 40 -13 76 -12 118 -60 250 -142 396 -42 74 -198 235 -273 281
-99 61 -137 83 -148 83 -7 0 -21 7 -32 15 -10 8 -26 15 -34 15 -8 0 -28 7 -44
15 -15 8 -40 15 -55 15 -15 0 -51 7 -80 16 -95 28 -328 10 -461 -36 -136 -47
-266 -128 -370 -230 -76 -75 -110 -118 -163 -207 -45 -75 -43 -98 5 -87 18 4
161 7 318 6 245 0 301 -3 395 -21 133 -25 216 -44 230 -52 6 -4 26 -10 45 -14
19 -4 40 -11 45 -15 28 -21 56 -21 73 1 24 29 67 19 58 -14 -5 -21 18 -57 37
-57 5 0 46 -18 90 -41 88 -43 99 -49 165 -91 24 -16 45 -28 47 -28 11 0 172
-122 237 -178 34 -31 42 -33 85 -29 113 12 272 35 281 41 6 3 36 10 69 16 66
10 162 32 245 55 32 8 82 22 110 29 29 8 80 24 113 36 33 11 69 23 80 26 11 3
29 10 40 14 11 5 45 19 75 30 57 23 62 25 145 60 211 90 605 315 730 417 6 5
33 25 60 46 66 49 94 71 126 99 15 13 54 46 88 73 85 69 335 324 406 415 33
41 62 77 65 80 14 14 70 102 70 110 0 6 5 10 10 10 13 0 13 -25 1 -48 -10 -18
-37 -79 -66 -147 -31 -74 -109 -234 -156 -323 -250 -464 -566 -817 -925 -1034
-78 -47 -208 -114 -269 -139 -11 -4 -40 -16 -65 -26 -25 -11 -92 -34 -150 -52
-58 -18 -112 -37 -120 -41 -9 -4 -31 -11 -50 -14 -19 -4 -44 -11 -55 -16 -11
-4 -72 -24 -135 -44 -111 -36 -159 -53 -227 -82 -17 -8 -33 -14 -36 -14 -17 0
-208 -93 -297 -144 -25 -14 -52 -29 -60 -33 -53 -24 -311 -207 -415 -294 -51
-43 -318 -309 -372 -372 -23 -26 -79 -97 -124 -157 -45 -61 -86 -110 -90 -110
-4 0 -14 6 -21 13 -36 35 -219 177 -227 177 -5 0 -11 4 -13 9 -4 12 -205 147
-313 210 -49 29 -97 56 -105 61 -44 26 -213 110 -222 110 -5 0 -16 7 -24 15
-9 8 -24 15 -33 15 -10 0 -24 7 -31 15 -7 8 -21 15 -30 15 -10 0 -33 8 -52 17
-18 9 -45 22 -60 30 -14 7 -34 13 -45 13 -10 0 -27 7 -37 15 -11 8 -31 15 -45
15 -14 0 -35 7 -45 15 -11 8 -31 15 -45 15 -14 0 -35 7 -45 15 -11 8 -36 15
-56 15 -20 0 -41 5 -46 10 -6 6 -33 15 -60 20 -107 20 -161 32 -194 42 -19 6
-66 15 -105 19 -38 4 -110 13 -160 19 -273 33 -515 40 -698 20 -51 -6 -132
-15 -182 -20 -163 -18 -481 -78 -525 -100 -9 -4 -31 -11 -50 -14 -19 -4 -53
-13 -75 -21 -22 -7 -65 -20 -95 -30 -30 -9 -69 -23 -87 -31 -17 -8 -38 -14
-46 -14 -8 0 -27 -7 -43 -14 -33 -18 -51 -11 -32 12 8 10 20 31 28 47 11 24
76 134 155 263 15 25 49 76 58 87 4 6 40 55 80 110 40 55 80 107 88 115 8 8
32 38 54 65 62 78 273 291 345 348 36 29 71 58 79 65 22 21 153 116 196 142
22 13 42 28 43 32 2 4 8 8 14 8 6 0 38 17 72 37 74 45 213 113 281 138 28 10
54 22 59 27 6 4 16 8 24 8 8 0 28 6 45 14 43 19 204 72 244 81 18 4 35 11 38
16 4 5 18 9 33 9 15 0 40 7 56 15 15 8 38 15 50 15 11 1 32 7 46 15 14 8 33
14 43 15 11 0 33 6 50 13 49 21 100 39 127 44 14 3 32 11 40 18 8 7 26 15 40
18 41 9 100 33 112 45 7 7 19 12 27 12 9 0 43 13 76 29 33 16 67 32 75 35 8 3
23 10 33 16 27 16 46 26 132 70 44 22 94 50 110 60 17 11 44 26 60 33 17 8 54
31 84 51 29 20 55 36 57 36 10 0 295 198 380 265 29 22 65 50 80 62 16 12 38
30 49 40 11 10 43 36 70 58 28 21 54 45 58 52 10 17 52 17 69 0z m2641 -180
c-36 -42 -170 -144 -248 -189 -64 -36 -82 -45 -160 -78 -27 -11 -58 -25 -67
-30 -10 -5 -34 -14 -55 -19 -21 -6 -69 -19 -108 -30 -114 -33 -284 -46 -433
-33 -70 6 -140 16 -157 21 -216 67 -319 109 -400 161 -16 11 -39 24 -50 29
-11 6 -31 20 -45 31 l-25 22 25 -6 c14 -2 57 -12 95 -21 283 -68 374 -79 620
-80 129 0 233 5 270 13 33 6 94 19 135 28 41 8 82 19 90 23 9 5 36 12 60 16
24 4 51 11 60 15 8 5 47 18 85 30 39 12 84 28 102 36 17 8 35 14 40 14 11 0
53 19 123 55 64 32 77 30 43 -8z m-3610 -83 c6 -6 -106 -86 -148 -105 -11 -5
-47 -25 -80 -44 -33 -19 -71 -40 -85 -46 -14 -6 -62 -28 -106 -50 -45 -21 -88
-39 -96 -39 -8 0 -23 -7 -34 -15 -10 -8 -26 -15 -34 -15 -8 0 -28 -7 -44 -15
-15 -8 -38 -15 -50 -15 -11 -1 -32 -7 -46 -15 -14 -8 -38 -15 -55 -15 -16 0
-41 -7 -55 -15 -14 -8 -43 -15 -65 -15 -22 -1 -58 -7 -80 -15 -22 -8 -62 -15
-90 -15 -27 0 -68 -5 -90 -11 -22 -6 -66 -14 -99 -19 -32 -4 -63 -13 -69 -19
-6 -6 -25 -11 -42 -11 -16 -1 -41 -7 -55 -15 -14 -8 -37 -14 -51 -15 -14 0
-34 -7 -45 -15 -10 -8 -28 -15 -39 -15 -11 0 -33 -7 -49 -15 -15 -8 -36 -15
-45 -15 -10 0 -26 -7 -37 -15 -10 -8 -26 -15 -34 -15 -8 0 -28 -7 -44 -15 -15
-8 -32 -15 -37 -15 -7 0 -39 -14 -194 -85 -44 -20 -51 -7 -13 26 69 59 365
249 389 249 6 0 23 6 37 13 15 8 45 22 67 31 22 10 53 24 68 32 16 8 39 14 51
14 12 0 31 7 42 15 10 8 34 15 52 15 18 0 45 6 60 14 15 7 59 16 99 19 40 3
81 11 92 16 11 6 43 11 71 11 28 0 67 7 87 15 19 8 49 15 65 15 16 0 45 7 65
15 19 8 47 15 62 15 14 0 39 7 55 15 15 8 38 15 50 15 11 0 34 7 50 15 15 8
40 15 55 15 15 0 36 7 47 15 10 8 30 15 44 15 14 0 36 7 50 15 14 8 34 14 45
15 11 0 33 7 49 15 15 8 38 15 50 15 12 0 31 7 42 15 10 8 27 15 37 15 11 0
33 6 50 14 57 26 71 29 80 20z m-1898 -976 c-11 -6 -22 -14 -25 -18 -3 -4 -23
-17 -46 -31 -59 -35 -181 -123 -297 -213 -94 -73 -377 -347 -377 -365 0 -4
-11 -21 -25 -37 -14 -16 -38 -50 -53 -76 -60 -106 -57 -28 4 98 77 159 229
337 362 425 29 18 52 37 52 41 0 5 5 8 11 8 6 0 43 19 82 43 68 40 101 56 172
87 60 27 120 47 140 48 20 1 20 1 0 -10z m5987 -456 c-7 -2 -12 -8 -12 -14 0
-18 -86 -132 -142 -189 -126 -129 -273 -223 -493 -319 -48 -21 -236 -80 -255
-80 -12 0 -29 -4 -38 -9 -10 -5 -49 -14 -87 -20 -132 -21 -240 -41 -300 -55
-111 -27 -150 -38 -170 -47 -11 -5 -42 -16 -70 -25 -27 -9 -63 -22 -80 -29
-16 -8 -52 -23 -80 -35 -94 -40 -180 -85 -305 -159 -111 -66 -337 -215 -350
-230 -3 -4 -45 -38 -95 -76 -49 -38 -92 -72 -95 -75 -3 -3 -34 -30 -70 -60
-36 -30 -83 -71 -105 -92 -22 -21 -44 -38 -48 -38 -13 0 8 31 98 142 151 188
363 389 550 522 90 64 258 162 360 210 55 26 107 51 115 55 14 7 171 57 299
95 29 9 70 16 91 16 20 0 50 4 66 10 16 5 72 14 124 19 145 16 200 27 380 78
248 69 483 198 635 350 44 43 82 75 84 69 2 -5 -1 -12 -7 -14z m-1128 -786
c37 -3 73 -9 80 -14 6 -5 28 -13 50 -16 21 -4 46 -11 55 -16 9 -4 59 -29 111
-53 52 -25 105 -54 118 -64 58 -45 102 -86 98 -90 -4 -4 -85 25 -191 68 -76
31 -304 80 -441 95 -83 9 -364 -29 -490 -67 -43 -13 -64 -11 -39 3 11 6 22 15
25 19 8 11 139 74 190 91 25 9 63 21 85 29 40 13 193 27 250 22 17 -1 61 -5
99 -7z m-4206 -46 c15 -5 59 -14 97 -19 89 -13 175 -31 196 -41 9 -5 34 -12
54 -16 21 -4 50 -13 64 -20 14 -8 36 -14 48 -14 12 0 24 -4 28 -9 3 -5 19 -12
35 -16 17 -4 30 -11 30 -15 0 -10 -140 -5 -330 11 -230 20 -803 2 -965 -30
-27 -5 -75 -14 -105 -20 -133 -24 -341 -79 -413 -109 -16 -7 -32 -12 -37 -12
-4 0 -21 -7 -36 -15 -32 -16 -64 -20 -64 -6 0 18 196 146 278 181 26 12 55 25
65 31 25 14 180 64 257 83 87 22 178 37 280 46 106 10 481 2 518 -10z m1332
-541 c25 -6 70 -15 100 -19 57 -8 105 -22 153 -46 16 -8 37 -14 47 -14 9 0 23
-7 30 -15 7 -8 21 -15 31 -15 11 0 19 -3 19 -7 0 -5 21 -20 48 -35 26 -14 58
-39 72 -54 l25 -27 -25 7 c-14 4 -59 11 -100 16 -41 4 -91 13 -110 19 -19 6
-54 11 -78 11 -24 0 -53 5 -64 11 -12 7 -69 16 -127 22 -206 20 -462 9 -521
-23 -24 -13 -24 -12 -10 6 24 32 73 73 102 85 16 6 28 15 28 20 0 5 9 9 21 9
11 0 33 6 47 14 33 17 161 43 222 44 25 1 65 -3 90 -9z m1675 -595 c13 -13 15
-60 15 -324 0 -307 0 -309 -22 -321 -16 -9 -241 -10 -900 -6 -483 3 -883 9
-888 12 -11 7 -14 584 -4 622 l6 23 337 2 c1145 9 1440 8 1456 -8z"/>
<path d="M3607 3010 c-61 -11 -73 -21 -81 -69 -6 -37 -7 -39 -43 -38 -21 0
-60 -3 -88 -6 -27 -4 -111 -11 -185 -16 -74 -5 -148 -14 -163 -20 -16 -6 -49
-11 -74 -11 -24 0 -72 -6 -106 -14 -74 -18 -154 -34 -223 -45 -28 -5 -59 -14
-70 -19 -10 -6 -40 -14 -66 -17 -26 -3 -50 -10 -53 -16 -4 -5 -18 -9 -33 -9
-15 0 -39 -6 -53 -14 -14 -7 -43 -16 -64 -20 -20 -4 -45 -11 -54 -16 -9 -5
-45 -18 -81 -30 -36 -12 -73 -26 -82 -31 -10 -5 -23 -9 -28 -9 -6 0 -32 -9
-58 -21 -48 -21 -101 -44 -137 -59 -67 -27 -310 -150 -363 -182 -34 -21 -66
-38 -71 -38 -10 0 -373 -241 -391 -260 -3 -3 -36 -30 -75 -60 -79 -62 -168
-151 -158 -159 3 -3 8 0 10 7 3 6 8 12 13 12 4 0 78 47 164 105 87 58 159 105
161 105 3 0 27 14 54 30 98 61 308 169 426 220 28 11 59 25 70 30 72 32 116
50 160 65 27 9 54 20 60 24 5 4 44 17 85 30 41 12 84 26 95 30 11 5 47 16 80
26 33 9 74 22 90 27 54 18 262 66 336 78 31 5 68 14 83 20 15 5 49 10 75 10
26 0 70 6 97 14 27 8 95 17 152 21 57 4 117 11 133 15 17 5 106 10 197 11
l167 1 5 -79 c3 -43 11 -88 18 -100 7 -12 12 -32 12 -45 0 -13 7 -36 15 -52 8
-15 15 -36 15 -46 0 -10 7 -23 15 -30 8 -7 15 -21 15 -31 0 -9 7 -24 15 -33 8
-8 15 -20 15 -26 0 -10 13 -28 93 -135 32 -44 115 -126 167 -166 49 -38 58
-44 127 -79 26 -14 50 -28 53 -32 3 -3 18 -10 34 -14 17 -4 41 -13 55 -20 14
-8 35 -14 47 -14 11 0 25 -5 30 -10 6 -6 64 -15 129 -21 323 -30 579 61 800
285 53 53 110 124 138 169 26 43 47 80 47 83 0 3 11 30 25 60 14 30 25 58 25
62 0 24 -245 219 -320 255 -8 4 -37 21 -65 37 -43 26 -179 94 -240 120 -11 5
-36 16 -55 24 -50 22 -212 75 -262 86 -24 5 -68 14 -98 20 -30 6 -77 16 -105
22 -60 14 -588 20 -658 8z m112 -63 c8 -10 7 -18 -3 -32 -15 -21 -36 -13 -36
14 0 31 20 40 39 18z m1041 -152 c0 -8 -7 -15 -15 -15 -8 0 -15 7 -15 15 0 8
7 15 15 15 8 0 15 -7 15 -15z m-626 -71 c8 -20 -1 -34 -20 -34 -8 0 -14 8 -14
18 0 33 23 44 34 16z m373 -120 c8 -22 -18 -37 -36 -20 -7 8 -10 19 -7 25 10
16 36 13 43 -5z m-697 -94 c-13 -24 -36 -26 -44 -4 -10 25 12 46 35 33 15 -8
17 -14 9 -29z m590 11 c0 -23 -16 -36 -25 -21 -9 14 1 40 15 40 5 0 10 -9 10
-19z m215 -11 c0 -27 -22 -39 -31 -16 -8 22 3 49 19 43 6 -2 12 -14 12 -27z
m-937 -77 c-4 -22 -22 -20 -26 1 -2 10 3 16 13 16 10 0 15 -7 13 -17z m329
-17 c-4 -9 -11 -16 -17 -16 -11 0 -14 33 -3 44 11 10 26 -11 20 -28z m1177 8
c8 -21 -1 -34 -25 -34 -12 0 -19 7 -19 18 0 34 33 45 44 16z m121 -13 c7 -12
-12 -24 -25 -16 -11 7 -4 25 10 25 5 0 11 -4 15 -9z m-89 -100 c-11 -18 -36
-13 -36 7 0 10 3 22 7 26 10 10 37 -20 29 -33z m-1236 15 c0 -18 -16 -29 -30
-21 -13 8 -1 35 16 35 8 0 14 -6 14 -14z m535 -5 c7 -12 -32 -34 -45 -26 -6 3
-10 13 -10 21 0 16 45 20 55 5z m640 -71 c0 -22 -29 -18 -33 3 -3 14 1 18 15
15 10 -2 18 -10 18 -18z m-1031 -6 c8 -20 -1 -34 -20 -34 -20 0 -30 30 -13 41
20 12 26 11 33 -7z m843 -30 c-9 -9 -28 6 -21 18 4 6 10 6 17 -1 6 -6 8 -13 4
-17z m118 -13 c7 -12 -12 -24 -25 -16 -11 7 -4 25 10 25 5 0 11 -4 15 -9z
m-95 -69 c0 -14 -11 -21 -26 -15 -8 3 -11 9 -8 14 7 11 34 12 34 1z m-200 -33
c0 -24 -23 -21 -28 4 -2 10 3 17 12 17 10 0 16 -9 16 -21z"/>
<path d="M3720 673 c0 -4 -1 -111 -1 -238 l0 -230 83 0 83 0 0 235 0 235 -82
3 c-46 2 -83 -1 -83 -5z m109 -75 c13 -36 2 -70 -23 -66 -25 4 -35 51 -15 74
16 20 28 18 38 -8z m2 -155 c11 -27 8 -168 -4 -179 -3 -3 -15 -3 -26 1 -19 6
-21 14 -21 94 0 82 9 111 32 111 5 0 13 -12 19 -27z"/>
<path d="M4015 672 c-6 -4 -10 -95 -10 -235 0 -226 0 -228 22 -233 39 -10 43
2 43 132 0 100 3 124 14 124 10 0 16 -19 21 -62 4 -35 13 -92 19 -128 10 -55
16 -65 34 -68 33 -5 36 18 18 117 -20 112 -20 168 0 217 18 44 14 121 -7 135
-17 11 -140 12 -154 1z m106 -76 c14 -30 -3 -66 -31 -66 -16 0 -20 7 -20 38 0
21 3 42 7 45 13 14 34 6 44 -17z"/>
<path d="M4333 672 c-9 -6 -21 -203 -28 -457 0 -5 14 -10 30 -10 l30 0 5 125
c5 120 6 125 27 128 28 4 32 -12 36 -148 2 -92 4 -105 20 -108 38 -8 42 10 35
145 -4 70 -8 171 -10 223 -2 52 -7 98 -13 102 -13 10 -117 10 -132 0z m81 -98
c10 -26 7 -34 -14 -34 -15 0 -20 7 -20 25 0 28 24 34 34 9z"/>
<path d="M4617 673 c-12 -11 -8 -53 6 -54 6 0 26 -2 42 -2 27 -2 30 -5 29 -32
-1 -16 -9 -64 -18 -105 -8 -41 -21 -100 -27 -130 -6 -30 -18 -73 -26 -94 -8
-23 -10 -43 -5 -48 5 -5 44 -8 88 -6 77 3 79 4 79 28 0 22 -5 26 -40 30 -35 4
-40 9 -43 33 -2 16 2 43 8 60 6 18 15 55 20 82 15 92 41 199 51 212 6 7 8 17
4 23 -7 11 -157 14 -168 3z"/>
<path d="M4915 668 c-3 -7 -4 -115 -3 -238 l3 -225 25 0 25 0 0 235 0 235 -23
3 c-12 2 -24 -3 -27 -10z"/>
<path d="M5095 673 c-6 -5 -10 -96 -10 -236 0 -262 -10 -240 110 -235 67 3 70
4 70 28 0 23 -4 25 -55 30 l-55 5 -5 205 c-5 196 -6 205 -25 208 -11 1 -24 -1
-30 -5z"/>
</g>
</svg>
