<svg xmlns="http://www.w3.org/2000/svg" xmlns:xlink="http://www.w3.org/1999/xlink" viewBox="0 0 512 512" aria-label="pn" role="img"><path d="m511,255.99999c0,140.86694 -114.13307,255.00001 -255.00001,255.00001c-26.32258,0 -51.61694,-4.01008 -75.47178,-11.41331c10.38508,-16.96573 25.91129,-44.72782 31.66936,-66.83468c3.08468,-11.92742 15.83468,-60.66532 15.83468,-60.66532c8.32863,15.83468 32.59476,29.30444 58.40323,29.30444c76.91129,0 132.33267,-70.74194 132.33267,-158.65525c0,-84.2117 -68.78831,-147.24194 -157.21573,-147.24194c-110.02017,0 -168.52622,73.82662 -168.52622,154.3367c0,37.42742 19.94758,84.00605 51.71976,98.8125c4.83266,2.2621 7.40323,1.23387 8.53427,-3.39315c0.82258,-3.49597 5.14113,-20.87298 7.09476,-28.89315c0.61694,-2.57056 0.30847,-4.83266 -1.74798,-7.3004c-10.38508,-12.85282 -18.81653,-36.29637 -18.81653,-58.19758c0,-56.24395 42.56855,-110.6371 115.16129,-110.6371c62.61895,0 106.5242,42.67137 106.5242,103.74799c0,68.99395 -34.85686,116.80646 -80.20162,116.80646c-24.98589,0 -43.80242,-20.66734 -37.73589,-46.06452c7.19758,-30.33266 21.07863,-63.03024 21.07863,-84.93145c0,-19.53629 -10.4879,-35.88508 -32.28629,-35.88508c-25.60282,0 -46.16734,26.4254 -46.16734,61.8992c0,22.62097 7.60887,37.83871 7.60887,37.83871s-25.19153,106.72984 -29.81855,126.67742c-5.14113,22.00403 -3.08468,53.05645 -0.9254,73.20968c-94.80242,-37.11895 -162.04839,-129.45363 -162.04839,-237.52017c0,-140.86694 114.13307,-255.00001 255.00001,-255.00001s255.00001,114.13307 255.00001,255.00001z"></path></svg>