<?xml version="1.0" encoding="UTF-8"?>
<!DOCTYPE svg PUBLIC "-//W3C//DTD SVG 1.1//EN" "http://www.w3.org/Graphics/SVG/1.1/DTD/svg11.dtd">
<svg xmlns="http://www.w3.org/2000/svg" version="1.1" width="207px" height="159px" style="shape-rendering:geometricPrecision; text-rendering:geometricPrecision; image-rendering:optimizeQuality; fill-rule:evenodd; clip-rule:evenodd" xmlns:xlink="http://www.w3.org/1999/xlink">
<g><path style="opacity:1" fill="#53d417" d="M 31.5,-0.5 C 55.1667,-0.5 78.8333,-0.5 102.5,-0.5C 102.5,4.83333 102.5,10.1667 102.5,15.5C 78.8333,15.5 55.1667,15.5 31.5,15.5C 31.5,10.1667 31.5,4.83333 31.5,-0.5 Z"/></g>
<g><path style="opacity:1" fill="#58dd11" d="M 102.5,-0.5 C 130.833,-0.5 159.167,-0.5 187.5,-0.5C 188.167,21.8333 188.833,44.1667 189.5,66.5C 187.302,66.1249 185.302,65.4582 183.5,64.5C 183.5,62.8333 183.5,61.1667 183.5,59.5C 184.707,56.1475 184.707,52.8142 183.5,49.5C 183.666,39.1613 183.5,28.828 183,18.5C 182.167,17.6667 181.333,16.8333 180.5,16C 154.502,15.5 128.502,15.3334 102.5,15.5C 102.5,10.1667 102.5,4.83333 102.5,-0.5 Z"/></g>
<g><path style="opacity:1" fill="#5ee115" d="M 187.5,-0.5 C 193.833,-0.5 200.167,-0.5 206.5,-0.5C 206.5,52.5 206.5,105.5 206.5,158.5C 201.833,158.5 197.167,158.5 192.5,158.5C 192.894,157.033 193.227,155.533 193.5,154C 191.637,138.518 189.97,123.018 188.5,107.5C 189.497,107.53 190.164,107.03 190.5,106C 188.672,97.5849 188.172,89.0849 189,80.5C 192.029,86.7713 193.195,93.438 192.5,100.5C 192.183,103.572 192.516,106.572 193.5,109.5C 194.72,110.711 195.887,110.711 197,109.5C 197.495,107.527 197.662,105.527 197.5,103.5C 199.061,90.0946 196.394,77.7613 189.5,66.5C 188.833,44.1667 188.167,21.8333 187.5,-0.5 Z"/></g>
<g><path style="opacity:1" fill="#52cb22" d="M -0.5,-0.5 C 10.1667,-0.5 20.8333,-0.5 31.5,-0.5C 31.5,4.83333 31.5,10.1667 31.5,15.5C 27.1539,15.3343 22.8206,15.501 18.5,16C 17.6667,16.8333 16.8333,17.6667 16,18.5C 15.5001,33.8297 15.3334,49.163 15.5,64.5C 14.2504,67.006 13.5838,69.6726 13.5,72.5C 14.0067,76.8595 14.6734,81.1928 15.5,85.5C 15.3334,98.5043 15.5001,111.504 16,124.5C 17.8484,127.041 20.3484,128.041 23.5,127.5C 24.1652,134.48 24.4985,141.48 24.5,148.5C 24.5,149.5 24.5,150.5 24.5,151.5C 24.5614,153.592 25.5614,155.092 27.5,156C 30.367,156.801 33.0336,156.634 35.5,155.5C 36.0431,155.56 36.3764,155.893 36.5,156.5C 33.6944,157.168 31.0277,157.834 28.5,158.5C 18.8333,158.5 9.16667,158.5 -0.5,158.5C -0.5,105.5 -0.5,52.5 -0.5,-0.5 Z"/></g>
<g><path style="opacity:1" fill="#9aa49d" d="M 31.5,15.5 C 55.1667,15.5 78.8333,15.5 102.5,15.5C 128.502,15.3334 154.502,15.5 180.5,16C 181.333,16.8333 182.167,17.6667 183,18.5C 183.5,28.828 183.666,39.1613 183.5,49.5C 182.5,49.1667 181.833,48.5 181.5,47.5C 181.666,38.4938 181.5,29.4938 181,20.5C 180.617,19.944 180.117,19.6107 179.5,19.5C 126.335,18.3349 73.0016,18.1682 19.5,19C 19,19.5 18.5,20 18,20.5C 17.5001,33.4957 17.3334,46.4957 17.5,59.5C 17.5979,61.5529 16.9313,63.2196 15.5,64.5C 15.3334,49.163 15.5001,33.8297 16,18.5C 16.8333,17.6667 17.6667,16.8333 18.5,16C 22.8206,15.501 27.1539,15.3343 31.5,15.5 Z"/></g>
<g><path style="opacity:1" fill="#a3e088" d="M 179.5,19.5 C 134.165,19.3333 88.8321,19.5 43.5,20C 42.6721,20.9147 41.6721,21.5814 40.5,22C 42.1749,22.9853 43.8415,23.8186 45.5,24.5C 43.5,24.5 41.5,24.5 39.5,24.5C 39.5,25.8333 39.5,27.1667 39.5,28.5C 79.5,28.5 119.5,28.5 159.5,28.5C 150.348,29.4936 141.015,29.8269 131.5,29.5C 127.833,29.5 124.167,29.5 120.5,29.5C 104.833,29.5 89.1667,29.5 73.5,29.5C 73.5,30.5 73.5,31.5 73.5,32.5C 86.3443,32.1713 99.011,32.5046 111.5,33.5C 87.5,33.5 63.5,33.5 39.5,33.5C 39.5,34.5 39.5,35.5 39.5,36.5C 41.1667,36.5 42.8333,36.5 44.5,36.5C 44.5,37.1667 44.5,37.8333 44.5,38.5C 42.8333,38.5 41.1667,38.5 39.5,38.5C 39.5,39.5 39.5,40.5 39.5,41.5C 63.5,41.5 87.5,41.5 111.5,41.5C 89.1667,42.1667 66.8333,42.8333 44.5,43.5C 42.5853,43.2155 40.9187,43.5489 39.5,44.5C 39.5,45.1667 39.5,45.8333 39.5,46.5C 41.2646,47.4614 43.2646,47.7947 45.5,47.5C 44.1855,56.265 44.1855,64.9317 45.5,73.5C 44.4611,76.9213 42.4611,79.5879 39.5,81.5C 35.6774,76.9675 33.3441,71.6342 32.5,65.5C 30.8144,64.1431 29.1477,62.8098 27.5,61.5C 27.5,60.5 27.5,59.5 27.5,58.5C 29.9732,58.264 31.6399,56.9307 32.5,54.5C 32.3806,52.0736 32.0473,49.7402 31.5,47.5C 31.4226,46.2502 30.756,45.4169 29.5,45C 25.1103,42.3557 21.6103,43.1891 19,47.5C 18.8238,51.6877 18.3238,55.6877 17.5,59.5C 17.3334,46.4957 17.5001,33.4957 18,20.5C 18.5,20 19,19.5 19.5,19C 73.0016,18.1682 126.335,18.3349 179.5,19.5 Z"/></g>
<g><path style="opacity:1" fill="#a5ea82" d="M 179.5,19.5 C 180.117,19.6107 180.617,19.944 181,20.5C 181.5,29.4938 181.666,38.4938 181.5,47.5C 178.813,47.3359 176.146,47.5026 173.5,48C 171.024,50.1368 171.024,52.3035 173.5,54.5C 173.018,55.4163 172.685,56.4163 172.5,57.5C 173.251,59.9963 174.251,62.3296 175.5,64.5C 171.33,66.2294 166.997,66.7294 162.5,66C 159.71,65.4391 157.377,64.1058 155.5,62C 157.058,61.79 158.391,61.29 159.5,60.5C 159.5,54.1667 159.5,47.8333 159.5,41.5C 157.167,41.5 154.833,41.5 152.5,41.5C 151.673,46.6509 151.173,51.9842 151,57.5C 149.955,56.6266 149.122,55.6266 148.5,54.5C 148.5,53.5 148.5,52.5 148.5,51.5C 148.5,49.1667 148.5,46.8333 148.5,44.5C 147.5,44.5 146.5,44.5 145.5,44.5C 145.5,39.8333 145.5,35.1667 145.5,30.5C 141.833,30.5 138.167,30.5 134.5,30.5C 134.5,32.8333 134.5,35.1667 134.5,37.5C 133.5,37.5 132.5,37.5 131.5,37.5C 131.5,34.8333 131.5,32.1667 131.5,29.5C 141.015,29.8269 150.348,29.4936 159.5,28.5C 159.5,27.1667 159.5,25.8333 159.5,24.5C 121.5,24.5 83.5,24.5 45.5,24.5C 43.8415,23.8186 42.1749,22.9853 40.5,22C 41.6721,21.5814 42.6721,20.9147 43.5,20C 88.8321,19.5 134.165,19.3333 179.5,19.5 Z"/></g>
<g><path style="opacity:1" fill="#d9ede5" d="M 45.5,24.5 C 83.5,24.5 121.5,24.5 159.5,24.5C 159.5,25.8333 159.5,27.1667 159.5,28.5C 119.5,28.5 79.5,28.5 39.5,28.5C 39.5,27.1667 39.5,25.8333 39.5,24.5C 41.5,24.5 43.5,24.5 45.5,24.5 Z"/></g>
<g><path style="opacity:1" fill="#a4e883" d="M 120.5,29.5 C 120.711,43.9816 120.711,58.3149 120.5,72.5C 120.5,81.8333 120.5,91.1667 120.5,100.5C 119.833,100.5 119.167,100.5 118.5,100.5C 118.666,93.1591 118.5,85.8258 118,78.5C 117.586,78.0426 117.086,77.7093 116.5,77.5C 115.503,85.1378 115.169,92.8045 115.5,100.5C 114.5,100.5 113.5,100.5 112.5,100.5C 112.666,92.4931 112.5,84.4931 112,76.5C 110.539,75.1175 109.706,75.4508 109.5,77.5C 108.521,80.6248 108.187,83.9581 108.5,87.5C 107.5,87.5 106.5,87.5 105.5,87.5C 105.5,88.5 105.5,89.5 105.5,90.5C 104.5,90.5 103.5,90.5 102.5,90.5C 102.851,76.3239 102.851,61.9906 102.5,47.5C 105.833,47.5 109.167,47.5 112.5,47.5C 112.5,46.1667 112.5,44.8333 112.5,43.5C 89.8333,43.5 67.1667,43.5 44.5,43.5C 66.8333,42.8333 89.1667,42.1667 111.5,41.5C 111.5,40.5 111.5,39.5 111.5,38.5C 89.1667,38.5 66.8333,38.5 44.5,38.5C 44.5,37.8333 44.5,37.1667 44.5,36.5C 66.8333,36.5 89.1667,36.5 111.5,36.5C 111.5,35.5 111.5,34.5 111.5,33.5C 99.011,32.5046 86.3443,32.1713 73.5,32.5C 73.5,31.5 73.5,30.5 73.5,29.5C 89.1667,29.5 104.833,29.5 120.5,29.5 Z"/></g>
<g><path style="opacity:1" fill="#a3e582" d="M 120.5,29.5 C 124.167,29.5 127.833,29.5 131.5,29.5C 131.5,32.1667 131.5,34.8333 131.5,37.5C 129.533,45.0968 128.866,53.0968 129.5,61.5C 132.167,61.5 134.833,61.5 137.5,61.5C 137.5,53.5 137.5,45.5 137.5,37.5C 136.5,37.5 135.5,37.5 134.5,37.5C 134.5,35.1667 134.5,32.8333 134.5,30.5C 138.167,30.5 141.833,30.5 145.5,30.5C 145.5,35.1667 145.5,39.8333 145.5,44.5C 143.833,44.5 142.167,44.5 140.5,44.5C 140.5,50.1667 140.5,55.8333 140.5,61.5C 142.167,61.5 143.833,61.5 145.5,61.5C 144.774,78.2089 144.774,94.8756 145.5,111.5C 126.488,111.833 107.488,111.5 88.5,110.5C 91.9755,109.92 95.3088,109.087 98.5,108C 96.7721,106.274 94.7721,104.941 92.5,104C 104.341,103.831 116.007,103.331 127.5,102.5C 127.179,100.952 126.179,100.285 124.5,100.5C 124.827,91.3178 124.493,82.3178 123.5,73.5C 123.196,71.2043 122.196,70.871 120.5,72.5C 120.711,58.3149 120.711,43.9816 120.5,29.5 Z"/></g>
<g><path style="opacity:1" fill="#dbeee8" d="M 111.5,33.5 C 111.5,34.5 111.5,35.5 111.5,36.5C 89.1667,36.5 66.8333,36.5 44.5,36.5C 42.8333,36.5 41.1667,36.5 39.5,36.5C 39.5,35.5 39.5,34.5 39.5,33.5C 63.5,33.5 87.5,33.5 111.5,33.5 Z"/></g>
<g><path style="opacity:1" fill="#dbeee8" d="M 44.5,38.5 C 66.8333,38.5 89.1667,38.5 111.5,38.5C 111.5,39.5 111.5,40.5 111.5,41.5C 87.5,41.5 63.5,41.5 39.5,41.5C 39.5,40.5 39.5,39.5 39.5,38.5C 41.1667,38.5 42.8333,38.5 44.5,38.5 Z"/></g>
<g><path style="opacity:1" fill="#bbfd6e" d="M 131.5,37.5 C 132.5,37.5 133.5,37.5 134.5,37.5C 135.5,37.5 136.5,37.5 137.5,37.5C 137.5,45.5 137.5,53.5 137.5,61.5C 134.833,61.5 132.167,61.5 129.5,61.5C 128.866,53.0968 129.533,45.0968 131.5,37.5 Z"/></g>
<g><path style="opacity:1" fill="#9643fc" d="M 152.5,41.5 C 154.833,41.5 157.167,41.5 159.5,41.5C 159.5,47.8333 159.5,54.1667 159.5,60.5C 157.208,60.7564 155.041,60.4231 153,59.5C 152.501,53.5092 152.334,47.5092 152.5,41.5 Z"/></g>
<g><path style="opacity:1" fill="#1f201d" d="M 31.5,47.5 C 27.7618,51.3692 25.7618,56.0359 25.5,61.5C 27.182,64.2899 26.682,66.6233 24,68.5C 23.7638,70.764 23.2638,72.9307 22.5,75C 21.1667,75.6667 19.8333,75.6667 18.5,75C 17.3474,73.117 15.6807,72.2837 13.5,72.5C 13.5838,69.6726 14.2504,67.006 15.5,64.5C 16.9313,63.2196 17.5979,61.5529 17.5,59.5C 18.3238,55.6877 18.8238,51.6877 19,47.5C 21.6103,43.1891 25.1103,42.3557 29.5,45C 30.756,45.4169 31.4226,46.2502 31.5,47.5 Z"/></g>
<g><path style="opacity:1" fill="#dbeee8" d="M 39.5,44.5 C 135.5,45.1667 135.5,45.8333 39.5,46.5C 39.5,45.8333 39.5,45.1667 39.5,44.5 Z"/></g>
<g><path style="opacity:1" fill="#f2f772" d="M 145.5,44.5 C 146.5,44.5 147.5,44.5 148.5,44.5C 148.5,46.8333 148.5,49.1667 148.5,51.5C 146.661,50.2475 144.828,50.2475 143,51.5C 142.721,53.4122 143.554,54.7456 145.5,55.5C 145.392,57.5138 146.058,59.1805 147.5,60.5C 147.158,61.3382 146.492,61.6716 145.5,61.5C 143.833,61.5 142.167,61.5 140.5,61.5C 140.5,55.8333 140.5,50.1667 140.5,44.5C 142.167,44.5 143.833,44.5 145.5,44.5 Z"/></g>
<g><path style="opacity:1" fill="#c7eac2" d="M 39.5,44.5 C 40.9187,43.5489 42.5853,43.2155 44.5,43.5C 67.1667,43.5 89.8333,43.5 112.5,43.5C 112.5,44.8333 112.5,46.1667 112.5,47.5C 109.167,47.5 105.833,47.5 102.5,47.5C 93.1667,47.5 83.8333,47.5 74.5,47.5C 64.8333,47.5 55.1667,47.5 45.5,47.5C 43.2646,47.7947 41.2646,47.4614 39.5,46.5C 135.5,45.8333 135.5,45.1667 39.5,44.5 Z"/></g>
<g><path style="opacity:1" fill="#a3e482" d="M 74.5,47.5 C 83.8333,47.5 93.1667,47.5 102.5,47.5C 102.851,61.9906 102.851,76.3239 102.5,90.5C 103.5,90.5 104.5,90.5 105.5,90.5C 105.5,89.5 105.5,88.5 105.5,87.5C 106.5,87.5 107.5,87.5 108.5,87.5C 108.5,91.8333 108.5,96.1667 108.5,100.5C 107.5,100.5 106.5,100.5 105.5,100.5C 105.5,97.5 105.5,94.5 105.5,91.5C 104.5,91.5 103.5,91.5 102.5,91.5C 102.5,94.5 102.5,97.5 102.5,100.5C 101.5,100.5 100.5,100.5 99.5,100.5C 99.8205,95.3054 99.4872,90.3054 98.5,85.5C 97.5,85.5 96.5,85.5 95.5,85.5C 95.5,90.5 95.5,95.5 95.5,100.5C 94.5,100.5 93.5,100.5 92.5,100.5C 92.6664,92.4931 92.4997,84.4931 92,76.5C 91.0228,75.2264 90.1894,75.2264 89.5,76.5C 88.5076,84.3159 88.1743,92.3159 88.5,100.5C 87.5,100.5 86.5,100.5 85.5,100.5C 85.5,95.1667 85.5,89.8333 85.5,84.5C 84.5,84.5 83.5,84.5 82.5,84.5C 82.5,89.8333 82.5,95.1667 82.5,100.5C 81.5,100.5 80.5,100.5 79.5,100.5C 79.6661,94.8236 79.4994,89.1569 79,83.5C 78.0228,82.2264 77.1894,82.2264 76.5,83.5C 75.8335,89.0139 75.1668,94.6805 74.5,100.5C 73.5052,95.2079 73.1718,89.8746 73.5,84.5C 73.5565,72.3962 73.8898,60.0629 74.5,47.5 Z"/></g>
<g><path style="opacity:1" fill="#252c35" d="M 181.5,47.5 C 181.833,48.5 182.5,49.1667 183.5,49.5C 184.707,52.8142 184.707,56.1475 183.5,59.5C 179.243,60.4029 176.743,58.7363 176,54.5C 175.23,55.5981 174.397,55.5981 173.5,54.5C 171.024,52.3035 171.024,50.1368 173.5,48C 176.146,47.5026 178.813,47.3359 181.5,47.5 Z"/></g>
<g><path style="opacity:1" fill="#d59885" d="M 31.5,47.5 C 32.0473,49.7402 32.3806,52.0736 32.5,54.5C 31.6399,56.9307 29.9732,58.264 27.5,58.5C 27.5,59.5 27.5,60.5 27.5,61.5C 26.8333,61.5 26.1667,61.5 25.5,61.5C 25.7618,56.0359 27.7618,51.3692 31.5,47.5 Z"/></g>
<g><path style="opacity:1" fill="#e9bc88" d="M 148.5,51.5 C 148.5,52.5 148.5,53.5 148.5,54.5C 147.609,55.1098 146.609,55.4431 145.5,55.5C 143.554,54.7456 142.721,53.4122 143,51.5C 144.828,50.2475 146.661,50.2475 148.5,51.5 Z"/></g>
<g><path style="opacity:1" fill="#a0df82" d="M 45.5,47.5 C 55.1667,47.5 64.8333,47.5 74.5,47.5C 73.8898,60.0629 73.5565,72.3962 73.5,84.5C 73.1667,84.5 72.8333,84.5 72.5,84.5C 71.5,84.5 70.5,84.5 69.5,84.5C 69.5,89.8333 69.5,95.1667 69.5,100.5C 68.0222,100.238 66.6888,100.571 65.5,101.5C 86.1559,102.5 106.823,102.833 127.5,102.5C 116.007,103.331 104.341,103.831 92.5,104C 94.7721,104.941 96.7721,106.274 98.5,108C 95.3088,109.087 91.9755,109.92 88.5,110.5C 107.488,111.5 126.488,111.833 145.5,111.5C 153.167,111.5 160.833,111.5 168.5,111.5C 168.5,112.167 168.167,112.5 167.5,112.5C 125.833,112.5 84.1667,112.5 42.5,112.5C 40.2314,104.694 37.5647,97.0275 34.5,89.5C 36.5857,91.0234 38.2524,90.69 39.5,88.5C 43.4074,85.0357 46.074,80.7024 47.5,75.5C 49.3159,74.1851 50.9825,72.6851 52.5,71C 52.6938,69.5701 52.6938,68.0701 52.5,66.5C 49.1447,67.8552 46.8114,70.1886 45.5,73.5C 44.1855,64.9317 44.1855,56.265 45.5,47.5 Z"/></g>
<g><path style="opacity:1" fill="#2ab394" d="M 67.5,60.5 C 64.5,60.5 61.5,60.5 58.5,60.5C 55.6575,59.7456 52.9909,58.4123 50.5,56.5C 55.8824,49.9493 61.3824,49.9493 67,56.5C 67.49,57.7932 67.6567,59.1266 67.5,60.5 Z"/></g>
<g><path style="opacity:1" fill="#f8c879" d="M 162.5,53.5 C 165.167,53.5 167.833,53.5 170.5,53.5C 170.5,56.1667 170.5,58.8333 170.5,61.5C 167.833,61.5 165.167,61.5 162.5,61.5C 162.5,58.8333 162.5,56.1667 162.5,53.5 Z"/></g>
<g><path style="opacity:1" fill="#23496c" d="M 152.5,41.5 C 152.334,47.5092 152.501,53.5092 153,59.5C 155.041,60.4231 157.208,60.7564 159.5,60.5C 158.391,61.29 157.058,61.79 155.5,62C 157.377,64.1058 159.71,65.4391 162.5,66C 166.997,66.7294 171.33,66.2294 175.5,64.5C 178.167,64.5 180.833,64.5 183.5,64.5C 185.302,65.4582 187.302,66.1249 189.5,66.5C 196.394,77.7613 199.061,90.0946 197.5,103.5C 196.167,103.5 194.833,103.5 193.5,103.5C 193.737,102.209 193.404,101.209 192.5,100.5C 193.195,93.438 192.029,86.7713 189,80.5C 188.172,89.0849 188.672,97.5849 190.5,106C 190.164,107.03 189.497,107.53 188.5,107.5C 181.945,108.82 175.278,109.487 168.5,109.5C 167.5,109.5 166.5,109.5 165.5,109.5C 165.898,103.778 166.731,98.1113 168,92.5C 168.83,86.8041 168.663,81.1375 167.5,75.5C 159.294,72.4132 152.628,67.4132 147.5,60.5C 146.058,59.1805 145.392,57.5138 145.5,55.5C 146.609,55.4431 147.609,55.1098 148.5,54.5C 149.122,55.6266 149.955,56.6266 151,57.5C 151.173,51.9842 151.673,46.6509 152.5,41.5 Z"/></g>
<g><path style="opacity:1" fill="#d8b187" d="M 173.5,54.5 C 174.397,55.5981 175.23,55.5981 176,54.5C 176.743,58.7363 179.243,60.4029 183.5,59.5C 183.5,61.1667 183.5,62.8333 183.5,64.5C 180.833,64.5 178.167,64.5 175.5,64.5C 174.251,62.3296 173.251,59.9963 172.5,57.5C 172.685,56.4163 173.018,55.4163 173.5,54.5 Z"/></g>
<g><path style="opacity:1" fill="#e2c63e" d="M 58.5,60.5 C 61.5,60.5 64.5,60.5 67.5,60.5C 66.8333,65.8333 63.8333,68.8333 58.5,69.5C 58.5,66.5 58.5,63.5 58.5,60.5 Z"/></g>
<g><path style="opacity:1" fill="#d8d8d7" d="M 25.5,61.5 C 26.1667,61.5 26.8333,61.5 27.5,61.5C 29.1477,62.8098 30.8144,64.1431 32.5,65.5C 33.3441,71.6342 35.6774,76.9675 39.5,81.5C 39.5,83.8333 39.5,86.1667 39.5,88.5C 38.2524,90.69 36.5857,91.0234 34.5,89.5C 29.6042,87.8792 24.9375,88.2125 20.5,90.5C 19.791,89.596 18.791,89.2627 17.5,89.5C 17.0113,88.0048 16.3446,86.6715 15.5,85.5C 14.6734,81.1928 14.0067,76.8595 13.5,72.5C 15.6807,72.2837 17.3474,73.117 18.5,75C 19.8333,75.6667 21.1667,75.6667 22.5,75C 23.2638,72.9307 23.7638,70.764 24,68.5C 26.682,66.6233 27.182,64.2899 25.5,61.5 Z"/></g>
<g><path style="opacity:1" fill="#a5e982" d="M 147.5,60.5 C 152.628,67.4132 159.294,72.4132 167.5,75.5C 168.663,81.1375 168.83,86.8041 168,92.5C 166.731,98.1113 165.898,103.778 165.5,109.5C 166.5,109.5 167.5,109.5 168.5,109.5C 168.5,110.167 168.5,110.833 168.5,111.5C 160.833,111.5 153.167,111.5 145.5,111.5C 144.774,94.8756 144.774,78.2089 145.5,61.5C 146.492,61.6716 147.158,61.3382 147.5,60.5 Z"/></g>
<g><path style="opacity:1" fill="#d8a189" d="M 39.5,88.5 C 39.5,86.1667 39.5,83.8333 39.5,81.5C 42.4611,79.5879 44.4611,76.9213 45.5,73.5C 46.8114,70.1886 49.1447,67.8552 52.5,66.5C 52.6938,68.0701 52.6938,69.5701 52.5,71C 50.9825,72.6851 49.3159,74.1851 47.5,75.5C 46.074,80.7024 43.4074,85.0357 39.5,88.5 Z"/></g>
<g><path style="opacity:1" fill="#fc6b2e" d="M 123.5,73.5 C 123.5,82.5 123.5,91.5 123.5,100.5C 122.5,100.5 121.5,100.5 120.5,100.5C 120.5,91.1667 120.5,81.8333 120.5,72.5C 122.196,70.871 123.196,71.2043 123.5,73.5 Z"/></g>
<g><path style="opacity:1" fill="#1d5ca4" d="M 92.5,100.5 C 91.5,100.5 90.5,100.5 89.5,100.5C 89.5,92.5 89.5,84.5 89.5,76.5C 90.1894,75.2264 91.0228,75.2264 92,76.5C 92.4997,84.4931 92.6664,92.4931 92.5,100.5 Z"/></g>
<g><path style="opacity:1" fill="#1556a5" d="M 112.5,100.5 C 111.5,100.5 110.5,100.5 109.5,100.5C 109.5,92.8333 109.5,85.1667 109.5,77.5C 109.706,75.4508 110.539,75.1175 112,76.5C 112.5,84.4931 112.666,92.4931 112.5,100.5 Z"/></g>
<g><path style="opacity:1" fill="#ef8740" d="M 131.5,76.5 C 133.5,76.5 135.5,76.5 137.5,76.5C 137.5,78.5 137.5,80.5 137.5,82.5C 135.5,82.5 133.5,82.5 131.5,82.5C 131.5,80.5 131.5,78.5 131.5,76.5 Z"/></g>
<g><path style="opacity:1" fill="#1f5da4" d="M 79.5,100.5 C 78.5,100.5 77.5,100.5 76.5,100.5C 76.5,94.8333 76.5,89.1667 76.5,83.5C 77.1894,82.2264 78.0228,82.2264 79,83.5C 79.4994,89.1569 79.6661,94.8236 79.5,100.5 Z"/></g>
<g><path style="opacity:1" fill="#fc6a2e" d="M 72.5,84.5 C 72.5,89.8333 72.5,95.1667 72.5,100.5C 71.5,100.5 70.5,100.5 69.5,100.5C 69.5,95.1667 69.5,89.8333 69.5,84.5C 70.5,84.5 71.5,84.5 72.5,84.5 Z"/></g>
<g><path style="opacity:1" fill="#27ce95" d="M 131.5,85.5 C 133.5,85.5 135.5,85.5 137.5,85.5C 137.5,87.1667 137.5,88.8333 137.5,90.5C 135.5,90.5 133.5,90.5 131.5,90.5C 131.5,88.8333 131.5,87.1667 131.5,85.5 Z"/></g>
<g><path style="opacity:1" fill="#99a39f" d="M 15.5,85.5 C 16.3446,86.6715 17.0113,88.0048 17.5,89.5C 17.3337,96.5079 17.5004,103.508 18,110.5C 19.5545,112.927 20.7211,112.927 21.5,110.5C 22.3649,116.004 23.0316,121.671 23.5,127.5C 20.3484,128.041 17.8484,127.041 16,124.5C 15.5001,111.504 15.3334,98.5043 15.5,85.5 Z"/></g>
<g><path style="opacity:1" fill="#8689df" d="M 34.5,89.5 C 37.5647,97.0275 40.2314,104.694 42.5,112.5C 44.3008,118.704 45.3008,125.037 45.5,131.5C 43.4164,135.336 41.083,139.003 38.5,142.5C 37.5987,143.29 36.9321,144.29 36.5,145.5C 35.1667,146.833 33.8333,148.167 32.5,149.5C 30.1824,147.579 27.5158,147.246 24.5,148.5C 24.4985,141.48 24.1652,134.48 23.5,127.5C 23.0316,121.671 22.3649,116.004 21.5,110.5C 19.5906,103.855 19.2572,97.1882 20.5,90.5C 24.9375,88.2125 29.6042,87.8792 34.5,89.5 Z"/></g>
<g><path style="opacity:1" fill="#a1d191" d="M 17.5,89.5 C 18.791,89.2627 19.791,89.596 20.5,90.5C 19.2572,97.1882 19.5906,103.855 21.5,110.5C 20.7211,112.927 19.5545,112.927 18,110.5C 17.5004,103.508 17.3337,96.5079 17.5,89.5 Z"/></g>
<g><path style="opacity:1" fill="#1c5ba4" d="M 131.5,94.5 C 133.5,94.5 135.5,94.5 137.5,94.5C 137.5,96.1667 137.5,97.8333 137.5,99.5C 135.5,99.5 133.5,99.5 131.5,99.5C 131.5,97.8333 131.5,96.1667 131.5,94.5 Z"/></g>
<g><path style="opacity:1" fill="#838f6a" d="M 123.5,73.5 C 124.493,82.3178 124.827,91.3178 124.5,100.5C 126.179,100.285 127.179,100.952 127.5,102.5C 106.823,102.833 86.1559,102.5 65.5,101.5C 66.6888,100.571 68.0222,100.238 69.5,100.5C 70.5,100.5 71.5,100.5 72.5,100.5C 72.5,95.1667 72.5,89.8333 72.5,84.5C 72.8333,84.5 73.1667,84.5 73.5,84.5C 73.1718,89.8746 73.5052,95.2079 74.5,100.5C 75.1668,94.6805 75.8335,89.0139 76.5,83.5C 76.5,89.1667 76.5,94.8333 76.5,100.5C 77.5,100.5 78.5,100.5 79.5,100.5C 80.5,100.5 81.5,100.5 82.5,100.5C 83.5,100.5 84.5,100.5 85.5,100.5C 86.5,100.5 87.5,100.5 88.5,100.5C 88.1743,92.3159 88.5076,84.3159 89.5,76.5C 89.5,84.5 89.5,92.5 89.5,100.5C 90.5,100.5 91.5,100.5 92.5,100.5C 93.5,100.5 94.5,100.5 95.5,100.5C 96.5,100.5 97.5,100.5 98.5,100.5C 98.5,95.5 98.5,90.5 98.5,85.5C 99.4872,90.3054 99.8205,95.3054 99.5,100.5C 100.5,100.5 101.5,100.5 102.5,100.5C 103.5,100.5 104.5,100.5 105.5,100.5C 106.5,100.5 107.5,100.5 108.5,100.5C 108.5,96.1667 108.5,91.8333 108.5,87.5C 108.187,83.9581 108.521,80.6248 109.5,77.5C 109.5,85.1667 109.5,92.8333 109.5,100.5C 110.5,100.5 111.5,100.5 112.5,100.5C 113.5,100.5 114.5,100.5 115.5,100.5C 116.5,100.5 117.5,100.5 118.5,100.5C 119.167,100.5 119.833,100.5 120.5,100.5C 121.5,100.5 122.5,100.5 123.5,100.5C 123.5,91.5 123.5,82.5 123.5,73.5 Z"/></g>
<g><path style="opacity:1" fill="#0f54a5" d="M 105.5,100.5 C 104.5,100.5 103.5,100.5 102.5,100.5C 102.5,97.5 102.5,94.5 102.5,91.5C 103.5,91.5 104.5,91.5 105.5,91.5C 105.5,94.5 105.5,97.5 105.5,100.5 Z"/></g>
<g><path style="opacity:1" fill="#fe682c" d="M 98.5,85.5 C 98.5,90.5 98.5,95.5 98.5,100.5C 97.5,100.5 96.5,100.5 95.5,100.5C 95.5,95.5 95.5,90.5 95.5,85.5C 96.5,85.5 97.5,85.5 98.5,85.5 Z"/></g>
<g><path style="opacity:1" fill="#fe662b" d="M 85.5,100.5 C 84.5,100.5 83.5,100.5 82.5,100.5C 82.5,95.1667 82.5,89.8333 82.5,84.5C 83.5,84.5 84.5,84.5 85.5,84.5C 85.5,89.8333 85.5,95.1667 85.5,100.5 Z"/></g>
<g><path style="opacity:1" fill="#1dcd95" d="M 118.5,100.5 C 117.5,100.5 116.5,100.5 115.5,100.5C 115.169,92.8045 115.503,85.1378 116.5,77.5C 117.086,77.7093 117.586,78.0426 118,78.5C 118.5,85.8258 118.666,93.1591 118.5,100.5 Z"/></g>
<g><path style="opacity:1" fill="#d3b381" d="M 192.5,100.5 C 193.404,101.209 193.737,102.209 193.5,103.5C 194.833,103.5 196.167,103.5 197.5,103.5C 197.662,105.527 197.495,107.527 197,109.5C 195.887,110.711 194.72,110.711 193.5,109.5C 192.516,106.572 192.183,103.572 192.5,100.5 Z"/></g>
<g><path style="opacity:1" fill="#55575c" d="M 188.5,107.5 C 189.97,123.018 191.637,138.518 193.5,154C 193.227,155.533 192.894,157.033 192.5,158.5C 190.833,158.5 189.167,158.5 187.5,158.5C 186.106,147.335 184.439,136.335 182.5,125.5C 181.809,120.402 180.642,115.402 179,110.5C 176.476,115.9 175.309,121.567 175.5,127.5C 174.336,137.732 173.003,148.066 171.5,158.5C 169.833,158.5 168.167,158.5 166.5,158.5C 165.627,154.232 165.294,149.898 165.5,145.5C 166.338,145.158 166.672,144.492 166.5,143.5C 166.5,143.167 166.5,142.833 166.5,142.5C 166.503,137.473 166.836,132.473 167.5,127.5C 167.5,122.5 167.5,117.5 167.5,112.5C 168.167,112.5 168.5,112.167 168.5,111.5C 168.5,110.833 168.5,110.167 168.5,109.5C 175.278,109.487 181.945,108.82 188.5,107.5 Z"/></g>
<g><path style="opacity:1" fill="#9da0a6" d="M 42.5,112.5 C 84.1667,112.5 125.833,112.5 167.5,112.5C 167.5,117.5 167.5,122.5 167.5,127.5C 153.5,127.5 139.5,127.5 125.5,127.5C 109.167,127.5 92.8333,127.5 76.5,127.5C 66.5,127.5 56.5,127.5 46.5,127.5C 46.7678,129.099 46.4345,130.432 45.5,131.5C 45.3008,125.037 44.3008,118.704 42.5,112.5 Z"/></g>
<g><path style="opacity:1" fill="#989c9f" d="M 182.5,125.5 C 180.521,127.168 178.188,127.834 175.5,127.5C 175.309,121.567 176.476,115.9 179,110.5C 180.642,115.402 181.809,120.402 182.5,125.5 Z"/></g>
<g><path style="opacity:1" fill="#7c7e84" d="M 76.5,127.5 C 92.8333,127.5 109.167,127.5 125.5,127.5C 125.5,128.833 125.5,130.167 125.5,131.5C 125.167,131.5 124.833,131.5 124.5,131.5C 108.5,131.5 92.5,131.5 76.5,131.5C 76.5,130.167 76.5,128.833 76.5,127.5 Z"/></g>
<g><path style="opacity:1" fill="#5cce36" d="M 30.5,127.5 C 32.1667,127.5 33.8333,127.5 35.5,127.5C 34.824,131.187 33.324,134.52 31,137.5C 30.5017,134.183 30.335,130.85 30.5,127.5 Z"/></g>
<g><path style="opacity:1" fill="#9d9fa6" d="M 76.5,131.5 C 92.5,131.5 108.5,131.5 124.5,131.5C 124.5,135.167 124.5,138.833 124.5,142.5C 108.5,142.5 92.5,142.5 76.5,142.5C 76.5,138.833 76.5,135.167 76.5,131.5 Z"/></g>
<g><path style="opacity:1" fill="#5bd327" d="M 76.5,127.5 C 76.5,128.833 76.5,130.167 76.5,131.5C 76.5,135.167 76.5,138.833 76.5,142.5C 63.8333,142.5 51.1667,142.5 38.5,142.5C 41.083,139.003 43.4164,135.336 45.5,131.5C 46.4345,130.432 46.7678,129.099 46.5,127.5C 56.5,127.5 66.5,127.5 76.5,127.5 Z"/></g>
<g><path style="opacity:1" fill="#5fdc1e" d="M 125.5,127.5 C 139.5,127.5 153.5,127.5 167.5,127.5C 166.836,132.473 166.503,137.473 166.5,142.5C 152.833,142.5 139.167,142.5 125.5,142.5C 125.5,138.833 125.5,135.167 125.5,131.5C 125.5,130.167 125.5,128.833 125.5,127.5 Z"/></g>
<g><path style="opacity:1" fill="#96a993" d="M 124.5,131.5 C 124.833,131.5 125.167,131.5 125.5,131.5C 125.5,135.167 125.5,138.833 125.5,142.5C 139.167,142.5 152.833,142.5 166.5,142.5C 166.5,142.833 166.5,143.167 166.5,143.5C 123.663,143.832 80.9967,143.499 38.5,142.5C 51.1667,142.5 63.8333,142.5 76.5,142.5C 92.5,142.5 108.5,142.5 124.5,142.5C 124.5,138.833 124.5,135.167 124.5,131.5 Z"/></g>
<g><path style="opacity:1" fill="#9d9fa6" d="M 38.5,142.5 C 80.9967,143.499 123.663,143.832 166.5,143.5C 166.672,144.492 166.338,145.158 165.5,145.5C 122.5,145.5 79.5,145.5 36.5,145.5C 36.9321,144.29 37.5987,143.29 38.5,142.5 Z"/></g>
<g><path style="opacity:1" fill="#ca9580" d="M 32.5,149.5 C 32.5,150.167 32.5,150.833 32.5,151.5C 30.9557,151.297 29.6223,150.63 28.5,149.5C 27.4763,150.853 26.143,151.52 24.5,151.5C 24.5,150.5 24.5,149.5 24.5,148.5C 27.5158,147.246 30.1824,147.579 32.5,149.5 Z"/></g>
<g><path style="opacity:1" fill="#63de20" d="M 182.5,125.5 C 184.439,136.335 186.106,147.335 187.5,158.5C 182.167,158.5 176.833,158.5 171.5,158.5C 173.003,148.066 174.336,137.732 175.5,127.5C 178.188,127.834 180.521,127.168 182.5,125.5 Z"/></g>
<g><path style="opacity:1" fill="#21211c" d="M 32.5,151.5 C 32.7376,153.404 33.7376,154.738 35.5,155.5C 33.0336,156.634 30.367,156.801 27.5,156C 25.5614,155.092 24.5614,153.592 24.5,151.5C 26.143,151.52 27.4763,150.853 28.5,149.5C 29.6223,150.63 30.9557,151.297 32.5,151.5 Z"/></g>
<g><path style="opacity:1" fill="#60d727" d="M 36.5,145.5 C 79.5,145.5 122.5,145.5 165.5,145.5C 165.294,149.898 165.627,154.232 166.5,158.5C 120.5,158.5 74.5,158.5 28.5,158.5C 31.0277,157.834 33.6944,157.168 36.5,156.5C 36.3764,155.893 36.0431,155.56 35.5,155.5C 33.7376,154.738 32.7376,153.404 32.5,151.5C 32.5,150.833 32.5,150.167 32.5,149.5C 33.8333,148.167 35.1667,146.833 36.5,145.5 Z"/></g>
</svg>
