<?xml version="1.0" encoding="UTF-8"?>
<!DOCTYPE svg PUBLIC "-//W3C//DTD SVG 1.1//EN" "http://www.w3.org/Graphics/SVG/1.1/DTD/svg11.dtd">
<svg xmlns="http://www.w3.org/2000/svg" version="1.1" width="212px" height="160px" style="shape-rendering:geometricPrecision; text-rendering:geometricPrecision; image-rendering:optimizeQuality; fill-rule:evenodd; clip-rule:evenodd" xmlns:xlink="http://www.w3.org/1999/xlink">
<g><path style="opacity:1" fill="#155e60" d="M 16.5,-0.5 C 34.5,-0.5 52.5,-0.5 70.5,-0.5C 70.8546,2.36767 72.1879,4.701 74.5,6.5C 75.1667,5.83333 75.8333,5.16667 76.5,4.5C 77.5937,5.868 77.2603,7.03467 75.5,8C 73.9751,9.00864 72.3084,9.50864 70.5,9.5C 70.6741,11.861 71.0074,14.1944 71.5,16.5C 72.9778,16.238 74.3112,16.5713 75.5,17.5C 73.9547,18.4519 72.288,18.7852 70.5,18.5C 70.7852,20.288 70.4519,21.9547 69.5,23.5C 68.5713,22.3112 68.238,20.9778 68.5,19.5C 65.2819,19.6509 64.9485,20.4842 67.5,22C 64.3455,22.9814 64.0122,24.3148 66.5,26C 65.6919,26.3076 65.0253,26.8076 64.5,27.5C 66.315,29.9062 68.6484,31.5728 71.5,32.5C 70.5967,34.6204 69.2633,34.9538 67.5,33.5C 66.6143,34.325 66.281,35.325 66.5,36.5C 68.924,36.1924 71.2573,36.5258 73.5,37.5C 72.0244,38.8802 71.0244,40.5469 70.5,42.5C 69.3112,43.4287 67.9778,43.762 66.5,43.5C 65.833,45.8194 65.6664,48.1527 66,50.5C 66.3076,49.6919 66.8076,49.0253 67.5,48.5C 68.5,49.5 69.5,50.5 70.5,51.5C 67.8694,53.0046 68.2027,53.6713 71.5,53.5C 71.5,54.8333 71.5,56.1667 71.5,57.5C 76.6817,57.5573 76.6817,58.224 71.5,59.5C 70.1285,61.6198 70.7952,62.6198 73.5,62.5C 74.1572,65.0101 75.4905,67.1768 77.5,69C 77.3333,69.5 77.1667,70 77,70.5C 74.4475,67.8059 73.2808,68.4726 73.5,72.5C 71.6776,72.1692 70.0109,71.5025 68.5,70.5C 64.9414,66.086 62.4414,61.086 61,55.5C 60.51,56.7932 60.3433,58.1266 60.5,59.5C 59.7698,55.9394 59.1031,52.2728 58.5,48.5C 58.8212,46.9519 59.8212,46.2852 61.5,46.5C 61.5,44.1667 61.5,41.8333 61.5,39.5C 62.6448,38.2073 62.3115,37.0407 60.5,36C 56.269,34.7327 53.6023,36.2327 52.5,40.5C 52.7538,42.4172 53.7538,43.7505 55.5,44.5C 55.5,45.1667 55.5,45.8333 55.5,46.5C 54.8333,46.5 54.5,46.8333 54.5,47.5C 52.9731,47.427 51.9731,48.0937 51.5,49.5C 40.7983,54.2731 36.465,62.6064 38.5,74.5C 37.596,75.209 37.2627,76.209 37.5,77.5C 37.5654,77.9382 37.3988,78.2716 37,78.5C 34.9935,77.3313 32.8268,76.6646 30.5,76.5C 30.3713,78.2161 30.038,79.8828 29.5,81.5C 28.3058,83.4844 28.3058,85.4844 29.5,87.5C 34.3009,89.6571 39.3009,90.9904 44.5,91.5C 44.6287,89.7839 44.962,88.1172 45.5,86.5C 46.1667,85.5 46.8333,84.5 47.5,83.5C 48.294,91.6675 46.9606,99.3342 43.5,106.5C 43.631,105.761 43.4643,105.094 43,104.5C 39.1302,105.34 35.2968,106.34 31.5,107.5C 31.6641,110.187 31.4974,112.854 31,115.5C 30.6121,116.428 29.9454,117.095 29,117.5C 23.3655,119.514 17.6988,121.181 12,122.5C 10.2663,121.751 8.43298,121.251 6.5,121C 5.42378,119.274 5.25711,117.441 6,115.5C 8.4286,114.971 10.2619,113.637 11.5,111.5C 12.7202,112.711 13.8869,112.711 15,111.5C 16.4389,109.725 17.4389,107.725 18,105.5C 18.3333,105.833 18.6667,106.167 19,106.5C 19.3143,104.131 20.1476,101.964 21.5,100C 21.3552,99.228 21.0219,98.5613 20.5,98C 23.1242,97.4236 23.7908,96.0902 22.5,94C 20.26,93.023 17.9267,92.523 15.5,92.5C 15.4614,91.2438 15.9614,90.2438 17,89.5C 17.1667,85.3333 17.3333,81.1667 17.5,77C 17.1386,67.2016 16.972,57.7016 17,48.5C 16.51,49.7932 16.3433,51.1266 16.5,52.5C 15.325,52.719 14.325,52.3857 13.5,51.5C 14.7366,49.2213 16.0699,47.0547 17.5,45C 17.1667,44.6667 16.8333,44.3333 16.5,44C 20.4557,42.8861 20.4557,42.0527 16.5,41.5C 17.4496,38.9321 17.4496,36.4321 16.5,34C 17.1498,31.5438 18.1498,29.2105 19.5,27C 18.1285,24.4851 17.1285,21.8184 16.5,19C 17.7797,16.8683 17.7797,14.7016 16.5,12.5C 17.3505,9.38757 18.5172,9.05424 20,11.5C 22.988,8.32388 22.988,5.32388 20,2.5C 20.3925,8.21746 18.8925,8.71746 15.5,4C 16.3081,3.69238 16.9747,3.19238 17.5,2.5C 16.8728,1.58317 16.5394,0.583168 16.5,-0.5 Z"/></g>
<g><path style="opacity:1" fill="#1a645c" d="M 104.5,-0.5 C 113.5,-0.5 122.5,-0.5 131.5,-0.5C 130.553,8.7803 130.22,18.1136 130.5,27.5C 127.134,27.2122 123.8,27.0455 120.5,27C 120.065,29.8669 118.899,32.3669 117,34.5C 116.506,36.1341 116.34,37.8008 116.5,39.5C 115.162,41.6698 113.328,43.3365 111,44.5C 110.209,45.745 109.709,47.0783 109.5,48.5C 108.624,48.3691 107.957,48.7025 107.5,49.5C 108.807,52.4686 110.473,55.1352 112.5,57.5C 111.213,59.6365 110.379,61.9699 110,64.5C 109.879,70.3237 109.046,75.9904 107.5,81.5C 105.964,79.9749 104.964,77.9749 104.5,75.5C 104.469,78.2769 103.969,80.9436 103,83.5C 102.508,65.4038 102.508,47.4038 103,29.5C 103.423,30.9561 104.256,31.4561 105.5,31C 107.464,28.8325 107.798,26.4992 106.5,24C 108.46,21.4191 110.794,20.2524 113.5,20.5C 116.961,19.2146 117.461,17.2146 115,14.5C 111.667,15.8333 108.333,17.1667 105,18.5C 104.51,17.2068 104.343,15.8734 104.5,14.5C 103.022,14.762 101.689,14.4287 100.5,13.5C 102.003,12.9478 103.669,12.9478 105.5,13.5C 105.328,11.5082 105.995,9.84152 107.5,8.5C 106.998,7.47899 106.332,7.31232 105.5,8C 104.583,11.8407 103.25,12.174 101.5,9C 102.685,7.64699 104.019,6.48032 105.5,5.5C 104.652,3.59136 104.318,1.59136 104.5,-0.5 Z"/></g>
<g><path style="opacity:1" fill="#1e685a" d="M 131.5,-0.5 C 141.5,-0.5 151.5,-0.5 161.5,-0.5C 161.631,0.376442 161.298,1.04311 160.5,1.5C 159.109,0.355358 157.776,0.355358 156.5,1.5C 158.737,2.1321 160.403,3.46543 161.5,5.5C 158.97,6.1319 156.637,7.1319 154.5,8.5C 156.546,10.3761 158.379,12.3761 160,14.5C 159.689,38.3587 159.856,62.0253 160.5,85.5C 157.881,85.2317 155.381,85.565 153,86.5C 152.5,110.831 152.333,135.164 152.5,159.5C 151.167,159.5 149.833,159.5 148.5,159.5C 148.831,138.66 148.497,117.993 147.5,97.5C 143.018,96.6745 138.351,96.1745 133.5,96C 131.668,95.2515 130.001,94.2515 128.5,93C 130.66,88.0203 132.326,82.8537 133.5,77.5C 130.826,70.1553 128.159,62.822 125.5,55.5C 127.212,52.7385 128.378,49.7385 129,46.5C 129.687,48.5675 129.52,50.5675 128.5,52.5C 132.837,53.1025 136.671,51.7692 140,48.5C 140.591,47.5165 140.257,46.8499 139,46.5C 136.209,47.4062 133.376,48.0728 130.5,48.5C 130.472,45.0836 129.472,42.0836 127.5,39.5C 127.5,38.5 127.5,37.5 127.5,36.5C 130.142,36.5123 131.475,35.179 131.5,32.5C 132.097,32.2648 132.43,31.7648 132.5,31C 132.022,29.6974 131.355,28.5307 130.5,27.5C 130.22,18.1136 130.553,8.7803 131.5,-0.5 Z"/></g>
<g><path style="opacity:1" fill="#1e6958" d="M 161.5,-0.5 C 168.167,-0.5 174.833,-0.5 181.5,-0.5C 182.82,1.36385 184.487,3.03052 186.5,4.5C 187.086,4.29069 187.586,3.95735 188,3.5C 188.49,4.79323 188.657,6.12656 188.5,7.5C 185.976,7.5713 183.976,6.5713 182.5,4.5C 181.708,6.46476 181.041,8.46476 180.5,10.5C 177.833,11.5 177.833,12.5 180.5,13.5C 181.604,11.6115 182.937,9.94478 184.5,8.5C 188.47,10.3923 188.137,11.3923 183.5,11.5C 183.48,13.143 184.147,14.4763 185.5,15.5C 183.936,17.5751 182.936,19.9084 182.5,22.5C 183.376,23.2508 184.376,23.7508 185.5,24C 182.676,24.2279 180.343,25.3946 178.5,27.5C 181.079,29.4377 181.079,31.271 178.5,33C 181.23,33.7284 183.897,33.5617 186.5,32.5C 187.646,33.1449 188.646,33.9783 189.5,35C 189.091,48.7443 188.757,61.9109 188.5,74.5C 186.208,74.2436 184.041,74.5769 182,75.5C 181.5,103.498 181.333,131.498 181.5,159.5C 180.167,159.5 178.833,159.5 177.5,159.5C 177.667,135.164 177.5,110.831 177,86.5C 171.593,85.5268 166.093,85.1934 160.5,85.5C 159.856,62.0253 159.689,38.3587 160,14.5C 158.379,12.3761 156.546,10.3761 154.5,8.5C 156.637,7.1319 158.97,6.1319 161.5,5.5C 160.403,3.46543 158.737,2.1321 156.5,1.5C 157.776,0.355358 159.109,0.355358 160.5,1.5C 161.298,1.04311 161.631,0.376442 161.5,-0.5 Z"/></g>
<g><path style="opacity:1" fill="#105960" d="M -0.5,-0.5 C 5.16667,-0.5 10.8333,-0.5 16.5,-0.5C 16.5394,0.583168 16.8728,1.58317 17.5,2.5C 16.9747,3.19238 16.3081,3.69238 15.5,4C 18.8925,8.71746 20.3925,8.21746 20,2.5C 22.988,5.32388 22.988,8.32388 20,11.5C 18.5172,9.05424 17.3505,9.38757 16.5,12.5C 17.7797,14.7016 17.7797,16.8683 16.5,19C 17.1285,21.8184 18.1285,24.4851 19.5,27C 18.1498,29.2105 17.1498,31.5438 16.5,34C 17.4496,36.4321 17.4496,38.9321 16.5,41.5C 20.4557,42.0527 20.4557,42.8861 16.5,44C 16.8333,44.3333 17.1667,44.6667 17.5,45C 16.0699,47.0547 14.7366,49.2213 13.5,51.5C 14.325,52.3857 15.325,52.719 16.5,52.5C 16.3433,51.1266 16.51,49.7932 17,48.5C 16.972,57.7016 17.1386,67.2016 17.5,77C 17.3333,81.1667 17.1667,85.3333 17,89.5C 15.9614,90.2438 15.4614,91.2438 15.5,92.5C 9.93818,93.0129 7.10485,96.0129 7,101.5C 6.33333,102.833 5.66667,102.833 5,101.5C 3.92432,104.079 2.09098,105.746 -0.5,106.5C -0.5,70.8333 -0.5,35.1667 -0.5,-0.5 Z"/></g>
<g><path style="opacity:1" fill="#1f6c56" d="M 181.5,-0.5 C 191.5,-0.5 201.5,-0.5 211.5,-0.5C 211.5,52.8333 211.5,106.167 211.5,159.5C 209.833,159.5 208.167,159.5 206.5,159.5C 206.667,131.498 206.5,103.498 206,75.5C 200.259,74.5251 194.425,74.1918 188.5,74.5C 188.757,61.9109 189.091,48.7443 189.5,35C 188.646,33.9783 187.646,33.1449 186.5,32.5C 183.897,33.5617 181.23,33.7284 178.5,33C 181.079,31.271 181.079,29.4377 178.5,27.5C 180.343,25.3946 182.676,24.2279 185.5,24C 184.376,23.7508 183.376,23.2508 182.5,22.5C 182.936,19.9084 183.936,17.5751 185.5,15.5C 184.147,14.4763 183.48,13.143 183.5,11.5C 188.137,11.3923 188.47,10.3923 184.5,8.5C 182.937,9.94478 181.604,11.6115 180.5,13.5C 177.833,12.5 177.833,11.5 180.5,10.5C 181.041,8.46476 181.708,6.46476 182.5,4.5C 183.976,6.5713 185.976,7.5713 188.5,7.5C 188.657,6.12656 188.49,4.79323 188,3.5C 187.586,3.95735 187.086,4.29069 186.5,4.5C 184.487,3.03052 182.82,1.36385 181.5,-0.5 Z"/></g>
<g><path style="opacity:1" fill="#2e2254" d="M 130.5,27.5 C 131.355,28.5307 132.022,29.6974 132.5,31C 132.43,31.7648 132.097,32.2648 131.5,32.5C 131.483,30.9719 130.816,30.4719 129.5,31C 127.263,32.3996 125.596,34.233 124.5,36.5C 121.69,37.1992 119.023,38.1992 116.5,39.5C 116.34,37.8008 116.506,36.1341 117,34.5C 118.899,32.3669 120.065,29.8669 120.5,27C 123.8,27.0455 127.134,27.2122 130.5,27.5 Z"/></g>
<g><path style="opacity:1" fill="#eebda2" d="M 131.5,32.5 C 131.475,35.179 130.142,36.5123 127.5,36.5C 127.5,37.5 127.5,38.5 127.5,39.5C 127.565,39.9382 127.399,40.2716 127,40.5C 125.519,39.5291 124.685,38.1958 124.5,36.5C 125.596,34.233 127.263,32.3996 129.5,31C 130.816,30.4719 131.483,30.9719 131.5,32.5 Z"/></g>
<g><path style="opacity:1" fill="#302257" d="M 61.5,39.5 C 59.6854,40.6298 57.6854,41.2964 55.5,41.5C 55.5,42.5 55.5,43.5 55.5,44.5C 53.7538,43.7505 52.7538,42.4172 52.5,40.5C 53.6023,36.2327 56.269,34.7327 60.5,36C 62.3115,37.0407 62.6448,38.2073 61.5,39.5 Z"/></g>
<g><path style="opacity:1" fill="#19625d" d="M 70.5,-0.5 C 81.8333,-0.5 93.1667,-0.5 104.5,-0.5C 104.318,1.59136 104.652,3.59136 105.5,5.5C 104.019,6.48032 102.685,7.64699 101.5,9C 103.25,12.174 104.583,11.8407 105.5,8C 106.332,7.31232 106.998,7.47899 107.5,8.5C 105.995,9.84152 105.328,11.5082 105.5,13.5C 103.669,12.9478 102.003,12.9478 100.5,13.5C 101.689,14.4287 103.022,14.762 104.5,14.5C 104.343,15.8734 104.51,17.2068 105,18.5C 108.333,17.1667 111.667,15.8333 115,14.5C 117.461,17.2146 116.961,19.2146 113.5,20.5C 110.794,20.2524 108.46,21.4191 106.5,24C 107.798,26.4992 107.464,28.8325 105.5,31C 104.256,31.4561 103.423,30.9561 103,29.5C 102.508,47.4038 102.508,65.4038 103,83.5C 103.969,80.9436 104.469,78.2769 104.5,75.5C 104.964,77.9749 105.964,79.9749 107.5,81.5C 105.885,88.6701 103.885,95.6701 101.5,102.5C 103.219,104.352 105.219,105.686 107.5,106.5C 102.901,106.2 98.4014,106.533 94,107.5C 93.5001,124.83 93.3334,142.163 93.5,159.5C 92.1667,159.5 90.8333,159.5 89.5,159.5C 89.6666,145.829 89.4999,132.163 89,118.5C 86.2809,117.556 83.4475,117.223 80.5,117.5C 77.2673,116.877 74.6006,115.21 72.5,112.5C 76.3154,97.5518 72.3154,85.3851 60.5,76C 62.0456,74.5604 62.879,72.7271 63,70.5C 63.7589,72.0629 64.9256,73.0629 66.5,73.5C 66.5,74.5 66.5,75.5 66.5,76.5C 70.5634,76.384 71.2301,75.0507 68.5,72.5C 68.5,71.8333 68.5,71.1667 68.5,70.5C 70.0109,71.5025 71.6776,72.1692 73.5,72.5C 73.2808,68.4726 74.4475,67.8059 77,70.5C 77.1667,70 77.3333,69.5 77.5,69C 75.4905,67.1768 74.1572,65.0101 73.5,62.5C 70.7952,62.6198 70.1285,61.6198 71.5,59.5C 76.6817,58.224 76.6817,57.5573 71.5,57.5C 71.5,56.1667 71.5,54.8333 71.5,53.5C 68.2027,53.6713 67.8694,53.0046 70.5,51.5C 69.5,50.5 68.5,49.5 67.5,48.5C 66.8076,49.0253 66.3076,49.6919 66,50.5C 65.6664,48.1527 65.833,45.8194 66.5,43.5C 67.9778,43.762 69.3112,43.4287 70.5,42.5C 71.0244,40.5469 72.0244,38.8802 73.5,37.5C 71.2573,36.5258 68.924,36.1924 66.5,36.5C 66.281,35.325 66.6143,34.325 67.5,33.5C 69.2633,34.9538 70.5967,34.6204 71.5,32.5C 68.6484,31.5728 66.315,29.9062 64.5,27.5C 65.0253,26.8076 65.6919,26.3076 66.5,26C 64.0122,24.3148 64.3455,22.9814 67.5,22C 64.9485,20.4842 65.2819,19.6509 68.5,19.5C 68.238,20.9778 68.5713,22.3112 69.5,23.5C 70.4519,21.9547 70.7852,20.288 70.5,18.5C 72.288,18.7852 73.9547,18.4519 75.5,17.5C 74.3112,16.5713 72.9778,16.238 71.5,16.5C 71.0074,14.1944 70.6741,11.861 70.5,9.5C 72.3084,9.50864 73.9751,9.00864 75.5,8C 77.2603,7.03467 77.5937,5.868 76.5,4.5C 75.8333,5.16667 75.1667,5.83333 74.5,6.5C 72.1879,4.701 70.8546,2.36767 70.5,-0.5 Z"/></g>
<g><path style="opacity:1" fill="#bab8b7" d="M 124.5,36.5 C 124.685,38.1958 125.519,39.5291 127,40.5C 127.399,40.2716 127.565,39.9382 127.5,39.5C 129.472,42.0836 130.472,45.0836 130.5,48.5C 133.376,48.0728 136.209,47.4062 139,46.5C 140.257,46.8499 140.591,47.5165 140,48.5C 136.671,51.7692 132.837,53.1025 128.5,52.5C 129.52,50.5675 129.687,48.5675 129,46.5C 128.378,49.7385 127.212,52.7385 125.5,55.5C 124.041,55.5674 122.708,55.2341 121.5,54.5C 123.751,51.6873 123.751,48.6873 121.5,45.5C 121.217,44.7109 120.717,44.0442 120,43.5C 117.1,44.7108 115.434,46.7108 115,49.5C 115.671,50.2524 116.504,50.5858 117.5,50.5C 117.468,52.6188 118.468,53.9522 120.5,54.5C 119.486,55.6737 118.153,56.3404 116.5,56.5C 116.5,55.5 116.5,54.5 116.5,53.5C 113.331,52.9975 110.998,51.3309 109.5,48.5C 109.709,47.0783 110.209,45.745 111,44.5C 113.328,43.3365 115.162,41.6698 116.5,39.5C 119.023,38.1992 121.69,37.1992 124.5,36.5 Z"/></g>
<g><path style="opacity:1" fill="#e48572" d="M 61.5,39.5 C 61.5,41.8333 61.5,44.1667 61.5,46.5C 59.8212,46.2852 58.8212,46.9519 58.5,48.5C 56.9731,48.573 55.9731,47.9063 55.5,46.5C 55.5,45.8333 55.5,45.1667 55.5,44.5C 55.5,43.5 55.5,42.5 55.5,41.5C 57.6854,41.2964 59.6854,40.6298 61.5,39.5 Z"/></g>
<g><path style="opacity:1" fill="#f2c455" d="M 121.5,45.5 C 120.872,47.6616 119.539,49.3282 117.5,50.5C 116.504,50.5858 115.671,50.2524 115,49.5C 115.434,46.7108 117.1,44.7108 120,43.5C 120.717,44.0442 121.217,44.7109 121.5,45.5 Z"/></g>
<g><path style="opacity:1" fill="#de8f26" d="M 121.5,45.5 C 123.751,48.6873 123.751,51.6873 121.5,54.5C 121.167,54.5 120.833,54.5 120.5,54.5C 118.468,53.9522 117.468,52.6188 117.5,50.5C 119.539,49.3282 120.872,47.6616 121.5,45.5 Z"/></g>
<g><path style="opacity:1" fill="#7a8190" d="M 54.5,47.5 C 55.6842,51.2268 56.3508,55.0601 56.5,59C 56.6397,62.1498 55.973,64.9831 54.5,67.5C 55.0514,61.1949 54.0514,55.1949 51.5,49.5C 51.9731,48.0937 52.9731,47.427 54.5,47.5 Z"/></g>
<g><path style="opacity:1" fill="#3d3c52" d="M 51.5,49.5 C 54.0514,55.1949 55.0514,61.1949 54.5,67.5C 53.962,69.1172 53.6287,70.7839 53.5,72.5C 52.6121,75.9867 50.2788,77.3201 46.5,76.5C 45.4695,75.4477 44.8029,74.1143 44.5,72.5C 45.7623,68.9006 46.2623,65.2339 46,61.5C 43.8861,66.2283 42.7194,71.2283 42.5,76.5C 41.5326,75.1938 40.1993,74.5271 38.5,74.5C 36.465,62.6064 40.7983,54.2731 51.5,49.5 Z"/></g>
<g><path style="opacity:1" fill="#c6d3d7" d="M 55.5,46.5 C 55.9731,47.9063 56.9731,48.573 58.5,48.5C 59.1031,52.2728 59.7698,55.9394 60.5,59.5C 60.6653,63.1817 60.4986,66.8484 60,70.5C 57.9935,71.6687 55.8268,72.3354 53.5,72.5C 53.6287,70.7839 53.962,69.1172 54.5,67.5C 55.973,64.9831 56.6397,62.1498 56.5,59C 56.3508,55.0601 55.6842,51.2268 54.5,47.5C 54.5,46.8333 54.8333,46.5 55.5,46.5 Z"/></g>
<g><path style="opacity:1" fill="#d99330" d="M 109.5,48.5 C 110.998,51.3309 113.331,52.9975 116.5,53.5C 116.5,54.5 116.5,55.5 116.5,56.5C 115.167,56.8333 113.833,57.1667 112.5,57.5C 110.473,55.1352 108.807,52.4686 107.5,49.5C 107.957,48.7025 108.624,48.3691 109.5,48.5 Z"/></g>
<g><path style="opacity:1" fill="#2b2255" d="M 120.5,54.5 C 120.833,54.5 121.167,54.5 121.5,54.5C 122.708,55.2341 124.041,55.5674 125.5,55.5C 128.159,62.822 130.826,70.1553 133.5,77.5C 132.326,82.8537 130.66,88.0203 128.5,93C 130.001,94.2515 131.668,95.2515 133.5,96C 138.351,96.1745 143.018,96.6745 147.5,97.5C 139.833,97.5 132.167,97.5 124.5,97.5C 123.89,95.2878 123.557,93.1211 123.5,91C 125.388,85.9617 126.221,80.7951 126,75.5C 123.667,72.1667 121.333,68.8333 119,65.5C 116.178,75.1225 113.511,84.7892 111,94.5C 110.496,97.1855 109.33,99.5188 107.5,101.5C 108.953,103.185 110.286,104.851 111.5,106.5C 110.167,106.5 108.833,106.5 107.5,106.5C 105.219,105.686 103.219,104.352 101.5,102.5C 103.885,95.6701 105.885,88.6701 107.5,81.5C 109.046,75.9904 109.879,70.3237 110,64.5C 110.379,61.9699 111.213,59.6365 112.5,57.5C 113.833,57.1667 115.167,56.8333 116.5,56.5C 118.153,56.3404 119.486,55.6737 120.5,54.5 Z"/></g>
<g><path style="opacity:1" fill="#1f635f" d="M 124.5,97.5 C 123.503,117.993 123.169,138.66 123.5,159.5C 122.167,159.5 120.833,159.5 119.5,159.5C 119.667,142.163 119.5,124.83 119,107.5C 116.619,106.565 114.119,106.232 111.5,106.5C 110.286,104.851 108.953,103.185 107.5,101.5C 109.33,99.5188 110.496,97.1855 111,94.5C 113.511,84.7892 116.178,75.1225 119,65.5C 121.333,68.8333 123.667,72.1667 126,75.5C 126.221,80.7951 125.388,85.9617 123.5,91C 123.557,93.1211 123.89,95.2878 124.5,97.5 Z"/></g>
<g><path style="opacity:1" fill="#1f5259" d="M 46.5,76.5 C 46.6287,78.2161 46.962,79.8828 47.5,81.5C 44.6027,80.871 41.936,79.871 39.5,78.5C 41.1788,78.7148 42.1788,78.0481 42.5,76.5C 42.7194,71.2283 43.8861,66.2283 46,61.5C 46.2623,65.2339 45.7623,68.9006 44.5,72.5C 44.8029,74.1143 45.4695,75.4477 46.5,76.5 Z"/></g>
<g><path style="opacity:1" fill="#1e183b" d="M 68.5,70.5 C 68.5,71.1667 68.5,71.8333 68.5,72.5C 67.8333,72.8333 67.1667,73.1667 66.5,73.5C 64.9256,73.0629 63.7589,72.0629 63,70.5C 62.879,72.7271 62.0456,74.5604 60.5,76C 72.3154,85.3851 76.3154,97.5518 72.5,112.5C 74.6006,115.21 77.2673,116.877 80.5,117.5C 75.6946,118.487 70.6946,118.821 65.5,118.5C 66.3007,116.958 66.634,115.292 66.5,113.5C 72.8532,113.547 73.0199,112.881 67,111.5C 66.0934,105.527 65.4267,99.5273 65,93.5C 62.9768,90.4797 60.3102,88.1464 57,86.5C 55.3926,97.176 51.5593,106.843 45.5,115.5C 44.7095,114.599 43.7095,113.932 42.5,113.5C 42.6741,111.139 43.0074,108.806 43.5,106.5C 46.9606,99.3342 48.294,91.6675 47.5,83.5C 47.5,82.8333 47.5,82.1667 47.5,81.5C 46.962,79.8828 46.6287,78.2161 46.5,76.5C 50.2788,77.3201 52.6121,75.9867 53.5,72.5C 55.8268,72.3354 57.9935,71.6687 60,70.5C 60.4986,66.8484 60.6653,63.1817 60.5,59.5C 60.3433,58.1266 60.51,56.7932 61,55.5C 62.4414,61.086 64.9414,66.086 68.5,70.5 Z"/></g>
<g><path style="opacity:1" fill="#e18771" d="M 68.5,72.5 C 71.2301,75.0507 70.5634,76.384 66.5,76.5C 66.5,75.5 66.5,74.5 66.5,73.5C 67.1667,73.1667 67.8333,72.8333 68.5,72.5 Z"/></g>
<g><path style="opacity:1" fill="#e58873" d="M 38.5,74.5 C 40.1993,74.5271 41.5326,75.1938 42.5,76.5C 42.1788,78.0481 41.1788,78.7148 39.5,78.5C 38.8333,78.1667 38.1667,77.8333 37.5,77.5C 37.2627,76.209 37.596,75.209 38.5,74.5 Z"/></g>
<g><path style="opacity:1" fill="#f8c74d" d="M 188.5,74.5 C 194.425,74.1918 200.259,74.5251 206,75.5C 206.5,103.498 206.667,131.498 206.5,159.5C 198.167,159.5 189.833,159.5 181.5,159.5C 181.333,131.498 181.5,103.498 182,75.5C 184.041,74.5769 186.208,74.2436 188.5,74.5 Z"/></g>
<g><path style="opacity:1" fill="#9d764f" d="M 37.5,77.5 C 38.1667,77.8333 38.8333,78.1667 39.5,78.5C 41.936,79.871 44.6027,80.871 47.5,81.5C 47.5,82.1667 47.5,82.8333 47.5,83.5C 46.8333,84.5 46.1667,85.5 45.5,86.5C 43.1977,84.9227 41.6977,85.5894 41,88.5C 40.51,87.2068 40.3433,85.8734 40.5,84.5C 38.0637,84.683 35.897,84.0163 34,82.5C 33.6667,83.1667 33.3333,83.8333 33,84.5C 32.5776,82.5743 31.4109,81.5743 29.5,81.5C 30.038,79.8828 30.3713,78.2161 30.5,76.5C 32.8268,76.6646 34.9935,77.3313 37,78.5C 37.3988,78.2716 37.5654,77.9382 37.5,77.5 Z"/></g>
<g><path style="opacity:1" fill="#79522c" d="M 29.5,81.5 C 31.4109,81.5743 32.5776,82.5743 33,84.5C 33.3333,83.8333 33.6667,83.1667 34,82.5C 35.897,84.0163 38.0637,84.683 40.5,84.5C 40.3433,85.8734 40.51,87.2068 41,88.5C 41.6977,85.5894 43.1977,84.9227 45.5,86.5C 44.962,88.1172 44.6287,89.7839 44.5,91.5C 39.3009,90.9904 34.3009,89.6571 29.5,87.5C 28.3058,85.4844 28.3058,83.4844 29.5,81.5 Z"/></g>
<g><path style="opacity:1" fill="#f7c74d" d="M 160.5,85.5 C 166.093,85.1934 171.593,85.5268 177,86.5C 177.5,110.831 177.667,135.164 177.5,159.5C 169.167,159.5 160.833,159.5 152.5,159.5C 152.333,135.164 152.5,110.831 153,86.5C 155.381,85.565 157.881,85.2317 160.5,85.5 Z"/></g>
<g><path style="opacity:1" fill="#4d5ecb" d="M 124.5,97.5 C 132.167,97.5 139.833,97.5 147.5,97.5C 148.497,117.993 148.831,138.66 148.5,159.5C 140.167,159.5 131.833,159.5 123.5,159.5C 123.169,138.66 123.503,117.993 124.5,97.5 Z"/></g>
<g><path style="opacity:1" fill="#1e6061" d="M 65.5,118.5 C 64.5043,131.99 64.171,145.656 64.5,159.5C 63.1667,159.5 61.8333,159.5 60.5,159.5C 60.8283,147.655 60.4949,135.988 59.5,124.5C 56.3586,123.679 53.0252,123.179 49.5,123C 47.5038,120.838 46.1705,118.338 45.5,115.5C 51.5593,106.843 55.3926,97.176 57,86.5C 60.3102,88.1464 62.9768,90.4797 65,93.5C 65.4267,99.5273 66.0934,105.527 67,111.5C 73.0199,112.881 72.8532,113.547 66.5,113.5C 66.634,115.292 66.3007,116.958 65.5,118.5 Z"/></g>
<g><path style="opacity:1" fill="#4c5ec9" d="M 107.5,106.5 C 108.833,106.5 110.167,106.5 111.5,106.5C 114.119,106.232 116.619,106.565 119,107.5C 119.5,124.83 119.667,142.163 119.5,159.5C 110.833,159.5 102.167,159.5 93.5,159.5C 93.3334,142.163 93.5001,124.83 94,107.5C 98.4014,106.533 102.901,106.2 107.5,106.5 Z"/></g>
<g><path style="opacity:1" fill="#206569" d="M 15.5,92.5 C 17.9267,92.523 20.26,93.023 22.5,94C 23.7908,96.0902 23.1242,97.4236 20.5,98C 21.0219,98.5613 21.3552,99.228 21.5,100C 20.1476,101.964 19.3143,104.131 19,106.5C 18.6667,106.167 18.3333,105.833 18,105.5C 17.4389,107.725 16.4389,109.725 15,111.5C 13.8869,112.711 12.7202,112.711 11.5,111.5C 10.2619,113.637 8.4286,114.971 6,115.5C 5.25711,117.441 5.42378,119.274 6.5,121C 8.43298,121.251 10.2663,121.751 12,122.5C 17.6988,121.181 23.3655,119.514 29,117.5C 29.9454,117.095 30.6121,116.428 31,115.5C 31.4974,112.854 31.6641,110.187 31.5,107.5C 35.2968,106.34 39.1302,105.34 43,104.5C 43.4643,105.094 43.631,105.761 43.5,106.5C 43.0074,108.806 42.6741,111.139 42.5,113.5C 40.0863,114.406 39.253,116.072 40,118.5C 42.0795,120.123 44.2462,121.623 46.5,123C 42.9748,123.179 39.6414,123.679 36.5,124.5C 35.5051,135.988 35.1717,147.655 35.5,159.5C 34.1667,159.5 32.8333,159.5 31.5,159.5C 31.5,150.833 31.5,142.167 31.5,133.5C 23.1667,133.5 14.8333,133.5 6.5,133.5C 6.5,142.167 6.5,150.833 6.5,159.5C 4.16667,159.5 1.83333,159.5 -0.5,159.5C -0.5,141.833 -0.5,124.167 -0.5,106.5C 2.09098,105.746 3.92432,104.079 5,101.5C 5.66667,102.833 6.33333,102.833 7,101.5C 7.10485,96.0129 9.93818,93.0129 15.5,92.5 Z"/></g>
<g><path style="opacity:1" fill="#292d54" d="M 42.5,113.5 C 42.8212,115.048 43.8212,115.715 45.5,115.5C 46.1705,118.338 47.5038,120.838 49.5,123C 53.0252,123.179 56.3586,123.679 59.5,124.5C 51.8333,124.5 44.1667,124.5 36.5,124.5C 39.6414,123.679 42.9748,123.179 46.5,123C 44.2462,121.623 42.0795,120.123 40,118.5C 39.253,116.072 40.0863,114.406 42.5,113.5 Z"/></g>
<g><path style="opacity:1" fill="#d67d6c" d="M 42.5,113.5 C 43.7095,113.932 44.7095,114.599 45.5,115.5C 43.8212,115.715 42.8212,115.048 42.5,113.5 Z"/></g>
<g><path style="opacity:1" fill="#4d5ecb" d="M 80.5,117.5 C 83.4475,117.223 86.2809,117.556 89,118.5C 89.4999,132.163 89.6666,145.829 89.5,159.5C 81.1667,159.5 72.8333,159.5 64.5,159.5C 64.171,145.656 64.5043,131.99 65.5,118.5C 70.6946,118.821 75.6946,118.487 80.5,117.5 Z"/></g>
<g><path style="opacity:1" fill="#4d5ecc" d="M 36.5,124.5 C 44.1667,124.5 51.8333,124.5 59.5,124.5C 60.4949,135.988 60.8283,147.655 60.5,159.5C 52.1667,159.5 43.8333,159.5 35.5,159.5C 35.1717,147.655 35.5051,135.988 36.5,124.5 Z"/></g>
<g><path style="opacity:1" fill="#44a792" d="M 31.5,159.5 C 23.1667,159.5 14.8333,159.5 6.5,159.5C 6.5,150.833 6.5,142.167 6.5,133.5C 14.8333,133.5 23.1667,133.5 31.5,133.5C 31.5,142.167 31.5,150.833 31.5,159.5 Z"/></g>
</svg>
