<?xml version="1.0" encoding="UTF-8"?>
<!DOCTYPE svg PUBLIC "-//W3C//DTD SVG 1.1//EN" "http://www.w3.org/Graphics/SVG/1.1/DTD/svg11.dtd">
<svg xmlns="http://www.w3.org/2000/svg" version="1.1" width="175px" height="130px" style="shape-rendering:geometricPrecision; text-rendering:geometricPrecision; image-rendering:optimizeQuality; fill-rule:evenodd; clip-rule:evenodd" xmlns:xlink="http://www.w3.org/1999/xlink">
<g><path style="opacity:0.78" fill="#2b904a" d="M 8.5,-0.5 C 11.5,-0.5 14.5,-0.5 17.5,-0.5C 18.758,1.68686 19.758,4.0202 20.5,6.5C 20.33,7.82207 20.6634,8.98873 21.5,10C 20.552,10.4828 19.552,10.6495 18.5,10.5C 18.1667,10.5 17.8333,10.5 17.5,10.5C 17.5,9.83333 17.1667,9.5 16.5,9.5C 16.1667,8.16667 15.8333,8.16667 15.5,9.5C 14.0357,8.59464 12.7024,8.59464 11.5,9.5C 11.2865,7.85613 11.6198,6.35613 12.5,5C 12,4.5 11.5,4 11,3.5C 7.89757,6.21229 5.39757,9.37896 3.5,13C 2.66828,13.6877 2.00161,13.521 1.5,12.5C 3.06832,7.69301 5.40165,3.35968 8.5,-0.5 Z"/></g>
<g><path style="opacity:0.467" fill="#9f692e" d="M 146.5,-0.5 C 148.5,-0.5 150.5,-0.5 152.5,-0.5C 152.5,-0.166667 152.5,0.166667 152.5,0.5C 152.5,0.833333 152.5,1.16667 152.5,1.5C 152.5,3.16667 152.5,4.83333 152.5,6.5C 151.833,6.5 151.167,6.5 150.5,6.5C 151.323,4.54536 151.49,2.54536 151,0.5C 150.167,2.5 149.333,4.5 148.5,6.5C 146.805,5.82556 145.138,5.1589 143.5,4.5C 143.389,3.88258 143.056,3.38258 142.5,3C 143.667,2.5 144.5,1.66667 145,0.5C 146.107,1.7119 146.607,1.37857 146.5,-0.5 Z"/></g>
<g><path style="opacity:0.776" fill="#8c5b27" d="M 150.5,6.5 C 148.614,7.93015 146.947,9.59682 145.5,11.5C 145.167,11.5 144.833,11.5 144.5,11.5C 144.5,10.8333 144.167,10.5 143.5,10.5C 142.391,9.71003 141.058,9.21003 139.5,9C 142.544,8.64114 142.878,7.97448 140.5,7C 141.471,5.95899 142.471,5.12565 143.5,4.5C 145.138,5.1589 146.805,5.82556 148.5,6.5C 149.333,4.5 150.167,2.5 151,0.5C 151.49,2.54536 151.323,4.54536 150.5,6.5 Z"/></g>
<g><path style="opacity:0.647" fill="#77491e" d="M 152.5,0.5 C 152.5,0.166667 152.5,-0.166667 152.5,-0.5C 153.167,-0.5 153.833,-0.5 154.5,-0.5C 154.833,0.833333 155.167,0.833333 155.5,-0.5C 155.833,-0.5 156.167,-0.5 156.5,-0.5C 158.163,1.53291 160.163,3.36625 162.5,5C 160.122,5.97448 160.456,6.64114 163.5,7C 161.122,7.97448 161.456,8.64114 164.5,9C 160.5,9.66667 160.5,10.3333 164.5,11C 158.825,11.4641 158.492,12.1307 163.5,13C 162.167,14 162.167,15 163.5,16C 162.906,16.4643 162.239,16.631 161.5,16.5C 161.158,15.6618 160.492,15.3284 159.5,15.5C 157.856,15.1898 156.856,14.1898 156.5,12.5C 156.653,9.46472 155.32,7.46472 152.5,6.5C 152.5,4.83333 152.5,3.16667 152.5,1.5C 153.833,1.16667 153.833,0.833333 152.5,0.5 Z"/></g>
<g><path style="opacity:0.711" fill="#0f3a21" d="M 63.5,8.5 C 63.1667,9.16667 62.8333,9.83333 62.5,10.5C 59.5299,11.1647 56.5299,11.8314 53.5,12.5C 51.8287,14.5098 51.162,16.8431 51.5,19.5C 51.1667,22.1667 50.8333,22.1667 50.5,19.5C 50.5,19.1667 50.5,18.8333 50.5,18.5C 50.5,18.1667 50.5,17.8333 50.5,17.5C 50.5,15.8333 50.5,14.1667 50.5,12.5C 54.7745,10.1519 59.1078,8.81852 63.5,8.5 Z"/></g>
<g><path style="opacity:0.667" fill="#238e53" d="M 20.5,6.5 C 22.653,8.79371 24.3197,11.4604 25.5,14.5C 22.3962,15.7752 19.3962,15.7752 16.5,14.5C 16.1667,13.1667 15.8333,13.1667 15.5,14.5C 15.1583,15.3382 14.4916,15.6716 13.5,15.5C 12.4789,15.8993 12.1455,17.2326 12.5,19.5C 10.6253,21.0781 9.29194,20.7448 8.5,18.5C 8.92809,15.2154 9.92809,12.2154 11.5,9.5C 12.7024,8.59464 14.0357,8.59464 15.5,9.5C 15.8333,9.5 16.1667,9.5 16.5,9.5C 17.1667,9.5 17.5,9.83333 17.5,10.5C 17.8333,11.8333 18.1667,11.8333 18.5,10.5C 19.552,10.6495 20.552,10.4828 21.5,10C 20.6634,8.98873 20.33,7.82207 20.5,6.5 Z"/></g>
<g><path style="opacity:1" fill="#efb143" d="M 150.5,6.5 C 151.167,6.5 151.833,6.5 152.5,6.5C 155.32,7.46472 156.653,9.46472 156.5,12.5C 154.893,14.7396 152.727,16.4063 150,17.5C 149.4,15.0904 148.234,13.0904 146.5,11.5C 146.167,11.5 145.833,11.5 145.5,11.5C 146.947,9.59682 148.614,7.93015 150.5,6.5 Z"/></g>
<g><path style="opacity:0.975" fill="#218e5c" d="M 50.5,12.5 C 50.5,14.1667 50.5,15.8333 50.5,17.5C 49.1667,17.8333 49.1667,18.1667 50.5,18.5C 50.5,18.8333 50.5,19.1667 50.5,19.5C 49.8423,20.3984 49.1757,21.3984 48.5,22.5C 47.1238,15.8794 43.7905,14.3794 38.5,18C 37.5495,21.0567 37.2161,24.2234 37.5,27.5C 36.5,27.5 35.5,27.5 34.5,27.5C 34.4349,24.5718 33.7682,21.9052 32.5,19.5C 28.1258,15.6666 28.7925,14.6666 34.5,16.5C 39.4614,13.7362 44.7947,12.4028 50.5,12.5 Z"/></g>
<g><path style="opacity:1" fill="#22915c" d="M 62.5,10.5 C 62.3359,13.1873 62.5026,15.854 63,18.5C 64.0113,19.3366 65.1779,19.67 66.5,19.5C 67.8333,19.1667 67.8333,18.8333 66.5,18.5C 65.7611,18.631 65.0944,18.4643 64.5,18C 66.1341,17.5065 67.8008,17.3398 69.5,17.5C 70.9526,18.8249 70.6192,19.6582 68.5,20C 66.5273,20.4955 64.5273,20.6621 62.5,20.5C 62.2641,23.6085 62.5975,26.6085 63.5,29.5C 62.2652,29.2786 61.2652,28.6119 60.5,27.5C 59.8326,24.3583 59.166,21.3583 58.5,18.5C 55.993,17.1024 53.6597,17.4357 51.5,19.5C 51.162,16.8431 51.8287,14.5098 53.5,12.5C 56.5299,11.8314 59.5299,11.1647 62.5,10.5 Z"/></g>
<g><path style="opacity:0.141" fill="#0c2617" d="M 124.5,14.5 C 117.615,12.9944 110.949,13.3277 104.5,15.5C 101.402,15.5875 101.068,15.0875 103.5,14C 107.279,13.0939 111.112,12.5939 115,12.5C 118.477,12.3275 121.644,12.9942 124.5,14.5 Z"/></g>
<g><path style="opacity:0.863" fill="#0c311d" d="M 50.5,12.5 C 44.7947,12.4028 39.4614,13.7362 34.5,16.5C 39.0602,11.779 44.3936,10.4457 50.5,12.5 Z"/></g>
<g><path style="opacity:0.675" fill="#0f3922" d="M 73.5,13.5 C 72.085,14.2894 70.585,14.9561 69,15.5C 67.9701,15.1639 67.4701,14.4972 67.5,13.5C 70.8595,14.2096 72.6929,12.8762 73,9.5C 74.6298,10.8179 74.7965,12.1512 73.5,13.5 Z"/></g>
<g><path style="opacity:0.784" fill="#21905c" d="M 15.5,14.5 C 15.8333,14.5 16.1667,14.5 16.5,14.5C 19.3962,15.7752 22.3962,15.7752 25.5,14.5C 26.1098,15.391 26.4431,16.391 26.5,17.5C 25.1667,18.1667 23.8333,18.8333 22.5,19.5C 21.5,20.1667 20.5,20.8333 19.5,21.5C 18.0821,19.6921 16.0821,19.0254 13.5,19.5C 13.5,18.1667 13.5,16.8333 13.5,15.5C 14.4916,15.6716 15.1583,15.3382 15.5,14.5 Z"/></g>
<g><path style="opacity:1" fill="#0c3420" d="M 93.5,16.5 C 91.1917,16.0862 88.8583,15.7529 86.5,15.5C 82.2211,16.7033 77.8878,17.7033 73.5,18.5C 77.6013,16.4421 81.9347,14.7755 86.5,13.5C 89.127,14.0578 91.4604,15.0578 93.5,16.5 Z"/></g>
<g><path style="opacity:1" fill="#1e7d4c" d="M 67.5,13.5 C 67.4701,14.4972 67.9701,15.1639 69,15.5C 70.585,14.9561 72.085,14.2894 73.5,13.5C 73.1667,15.8333 71.8333,17.1667 69.5,17.5C 67.8008,17.3398 66.1341,17.5065 64.5,18C 65.0944,18.4643 65.7611,18.631 66.5,18.5C 66.5,18.8333 66.5,19.1667 66.5,19.5C 65.1779,19.67 64.0113,19.3366 63,18.5C 62.5026,15.854 62.3359,13.1873 62.5,10.5C 62.8333,9.83333 63.1667,9.16667 63.5,8.5C 63.81,7.26166 64.31,7.26166 65,8.5C 65.0995,10.6526 65.9328,12.3192 67.5,13.5 Z"/></g>
<g><path style="opacity:1" fill="#208e5e" d="M 93.5,16.5 C 95.1898,16.8564 96.1898,17.8564 96.5,19.5C 93.9143,20.0098 91.581,21.0098 89.5,22.5C 90.5063,21.6043 90.5063,20.9377 89.5,20.5C 85.2077,17.4732 81.3743,18.1398 78,22.5C 76.6591,25.022 75.8257,27.6887 75.5,30.5C 74.5655,29.4324 74.2322,28.099 74.5,26.5C 75.3058,25.0028 75.9724,23.3361 76.5,21.5C 76.3764,20.8933 76.0431,20.56 75.5,20.5C 74.3915,19.71 73.0581,19.21 71.5,19C 72.0944,18.5357 72.7611,18.369 73.5,18.5C 77.8878,17.7033 82.2211,16.7033 86.5,15.5C 88.8583,15.7529 91.1917,16.0862 93.5,16.5 Z"/></g>
<g><path style="opacity:0.999" fill="#1f8858" d="M 124.5,14.5 C 128.053,14.943 131.053,16.443 133.5,19C 131.394,24.3357 127.727,27.169 122.5,27.5C 124.965,25.3424 125.465,23.0091 124,20.5C 120.574,18.1846 116.741,17.1846 112.5,17.5C 111.833,17.5 111.167,17.5 110.5,17.5C 110.672,16.5084 110.338,15.8417 109.5,15.5C 107.833,15.5 106.167,15.5 104.5,15.5C 110.949,13.3277 117.615,12.9944 124.5,14.5 Z"/></g>
<g><path style="opacity:0.02" fill="#6b431b" d="M 143.5,10.5 C 144.167,10.5 144.5,10.8333 144.5,11.5C 144.833,12.8333 145.167,12.8333 145.5,11.5C 145.833,11.5 146.167,11.5 146.5,11.5C 146.966,13.2012 146.966,14.7012 146.5,16C 148.028,17.3613 149.695,18.528 151.5,19.5C 152.086,19.2907 152.586,18.9574 153,18.5C 153.484,20.1933 152.984,21.5267 151.5,22.5C 149.067,23.3285 146.733,22.8285 144.5,21C 144.833,20.6667 145.167,20.3333 145.5,20C 144.167,19.3333 142.833,18.6667 141.5,18C 141.833,17.6667 142.167,17.3333 142.5,17C 140.893,15.951 140.227,14.451 140.5,12.5C 141.552,12.6495 142.552,12.4828 143.5,12C 138.206,11.1822 138.206,10.6822 143.5,10.5 Z"/></g>
<g><path style="opacity:0.075" fill="#b87932" d="M 146.5,11.5 C 148.234,13.0904 149.4,15.0904 150,17.5C 152.727,16.4063 154.893,14.7396 156.5,12.5C 156.856,14.1898 157.856,15.1898 159.5,15.5C 159.842,16.3382 160.508,16.6716 161.5,16.5C 161.611,17.1174 161.944,17.6174 162.5,18C 159.667,19.8333 156.833,21.6667 154,23.5C 153.049,23.1164 152.216,22.7831 151.5,22.5C 152.984,21.5267 153.484,20.1933 153,18.5C 152.586,18.9574 152.086,19.2907 151.5,19.5C 149.695,18.528 148.028,17.3613 146.5,16C 146.966,14.7012 146.966,13.2012 146.5,11.5 Z"/></g>
<g><path style="opacity:0.953" fill="#1d906a" d="M 26.5,17.5 C 32.687,20.7049 33.0203,24.3716 27.5,28.5C 26.1936,27.0878 25.3603,25.4211 25,23.5C 23.0065,24.914 20.8398,25.914 18.5,26.5C 20.3548,24.9669 22.1881,23.3003 24,21.5C 24.6917,20.5632 24.525,19.8966 23.5,19.5C 23.1667,19.5 22.8333,19.5 22.5,19.5C 23.8333,18.8333 25.1667,18.1667 26.5,17.5 Z"/></g>
<g><path style="opacity:0.584" fill="#0b3929" d="M 75.5,20.5 C 76.0431,20.56 76.3764,20.8933 76.5,21.5C 75.9724,23.3361 75.3058,25.0028 74.5,26.5C 74.3253,24.3792 74.6586,22.3792 75.5,20.5 Z"/></g>
<g><path style="opacity:0.484" fill="#0c3b2d" d="M 109.5,15.5 C 110.338,15.8417 110.672,16.5084 110.5,17.5C 105.346,20.9888 101.679,25.6555 99.5,31.5C 99.5,34.1667 99.5,36.8333 99.5,39.5C 97.7274,33.552 98.5608,27.8853 102,22.5C 104.479,20.0343 106.979,17.701 109.5,15.5 Z"/></g>
<g><path style="opacity:0.694" fill="#12533c" d="M 110.5,23.5 C 108.855,24.4787 107.521,25.812 106.5,27.5C 105.913,26.7666 105.913,25.7666 106.5,24.5C 107.167,24.5 107.5,24.1667 107.5,23.5C 108.338,23.1583 108.672,22.4916 108.5,21.5C 110.044,21.2969 111.378,20.6302 112.5,19.5C 113.395,21.3448 112.728,22.6782 110.5,23.5 Z"/></g>
<g><path style="opacity:0.589" fill="#1c8f6b" d="M 8.5,18.5 C 9.29194,20.7448 10.6253,21.0781 12.5,19.5C 11.511,21.782 11.011,24.1154 11,26.5C 12.5234,24.4308 13.3568,22.0974 13.5,19.5C 16.0821,19.0254 18.0821,19.6921 19.5,21.5C 19.1667,22.1667 18.8333,22.8333 18.5,23.5C 17.8333,23.5 17.5,23.8333 17.5,24.5C 16.8333,24.5 16.5,24.8333 16.5,25.5C 15.8333,25.5 15.5,25.8333 15.5,26.5C 14.6618,26.8417 14.3284,27.5084 14.5,28.5C 11.5701,27.701 8.57006,27.3677 5.5,27.5C 6.05414,24.2542 7.05414,21.2542 8.5,18.5 Z"/></g>
<g><path style="opacity:1" fill="#1e9878" d="M 96.5,19.5 C 95.4086,22.4278 93.4086,24.5945 90.5,26C 91.4158,26.2784 92.0825,26.7784 92.5,27.5C 92.1667,27.5 91.8333,27.5 91.5,27.5C 90.5041,27.5858 89.6708,27.2524 89,26.5C 86.1969,28.8186 83.0303,30.4853 79.5,31.5C 78.7025,31.9569 78.3691,32.6236 78.5,33.5C 78.5,33.8333 78.5,34.1667 78.5,34.5C 77.5178,33.8592 76.5178,33.1925 75.5,32.5C 73.9017,33.4847 72.235,33.6514 70.5,33C 72.323,33.0266 73.9896,32.1932 75.5,30.5C 76.1667,30.5 76.8333,30.5 77.5,30.5C 81.8154,28.3398 85.8154,25.6731 89.5,22.5C 91.581,21.0098 93.9143,20.0098 96.5,19.5 Z"/></g>
<g><path style="opacity:0.996" fill="#0f4534" d="M 23.5,19.5 C 24.525,19.8966 24.6917,20.5632 24,21.5C 22.1881,23.3003 20.3548,24.9669 18.5,26.5C 17.4863,27.6737 16.153,28.3404 14.5,28.5C 14.3284,27.5084 14.6618,26.8417 15.5,26.5C 16.1667,26.5 16.5,26.1667 16.5,25.5C 17.1667,25.5 17.5,25.1667 17.5,24.5C 18.1667,24.5 18.5,24.1667 18.5,23.5C 20.7488,22.9202 22.4154,21.5869 23.5,19.5 Z"/></g>
<g><path style="opacity:0.867" fill="#1b947c" d="M 5.5,27.5 C 8.57006,27.3677 11.5701,27.701 14.5,28.5C 10.8333,31.5 7.5,34.8333 4.5,38.5C 5.89156,35.9746 5.55822,33.8079 3.5,32C 5.5,31.6667 7.5,31.3333 9.5,31C 7.563,30.8784 6.22967,30.045 5.5,28.5C 5.5,28.1667 5.5,27.8333 5.5,27.5 Z"/></g>
<g><path style="opacity:0.894" fill="#12604d" d="M 32.5,19.5 C 33.7682,21.9052 34.4349,24.5718 34.5,27.5C 34.5,29.5 34.5,31.5 34.5,33.5C 33.5,33.5 32.5,33.5 31.5,33.5C 30.7109,33.2172 30.0442,32.7172 29.5,32C 30.8333,32 32.1667,32 33.5,32C 32.5363,27.9341 32.203,23.7675 32.5,19.5 Z"/></g>
<g><path style="opacity:0.496" fill="#0a3529" d="M 89.5,20.5 C 90.5063,20.9377 90.5063,21.6043 89.5,22.5C 85.8154,25.6731 81.8154,28.3398 77.5,30.5C 81.4602,27.177 85.4602,23.8437 89.5,20.5 Z"/></g>
<g><path style="opacity:1" fill="#19876b" d="M 110.5,17.5 C 111.167,17.5 111.833,17.5 112.5,17.5C 110.861,18.4725 109.527,19.8058 108.5,21.5C 107.662,21.8417 107.328,22.5084 107.5,23.5C 106.833,23.5 106.5,23.8333 106.5,24.5C 105.913,25.7666 105.913,26.7666 106.5,27.5C 107.521,25.812 108.855,24.4787 110.5,23.5C 110.286,25.1439 110.62,26.6439 111.5,28C 114.254,28.2724 116.921,28.7724 119.5,29.5C 120.263,30.2679 121.263,30.7679 122.5,31C 116.917,31.1911 111.417,31.6911 106,32.5C 103.959,31.5769 101.792,31.2436 99.5,31.5C 101.679,25.6555 105.346,20.9888 110.5,17.5 Z"/></g>
<g><path style="opacity:0.79" fill="#147361" d="M -0.5,21.5 C 1.22576,23.9422 2.72576,26.6089 4,29.5C 4.38258,28.944 4.88258,28.6107 5.5,28.5C 6.22967,30.045 7.563,30.8784 9.5,31C 7.5,31.3333 5.5,31.6667 3.5,32C 5.55822,33.8079 5.89156,35.9746 4.5,38.5C 3.74943,39.5735 2.74943,39.7401 1.5,39C 3.03696,35.0517 2.3703,31.5517 -0.5,28.5C -0.5,26.1667 -0.5,23.8333 -0.5,21.5 Z"/></g>
<g><path style="opacity:1" fill="#168675" d="M 91.5,27.5 C 91.8333,27.5 92.1667,27.5 92.5,27.5C 98.532,29.5435 98.8653,32.2102 93.5,35.5C 91.2246,36.1074 88.8912,36.4407 86.5,36.5C 83.4733,36.7135 80.8066,36.0468 78.5,34.5C 82.4169,35.9249 86.0836,35.5915 89.5,33.5C 90.4756,32.1851 91.4756,30.8518 92.5,29.5C 92.1373,28.8165 91.8039,28.1499 91.5,27.5 Z"/></g>
<g><path style="opacity:1" fill="#178271" d="M 119.5,29.5 C 123.546,29.1499 127.38,29.8166 131,31.5C 131.333,31.1667 131.667,30.8333 132,30.5C 132.662,31.9839 133.496,33.3172 134.5,34.5C 124.267,34.0575 113.934,33.7242 103.5,33.5C 101.836,34.9488 101.002,36.9488 101,39.5C 100.31,40.7383 99.81,40.7383 99.5,39.5C 99.5,36.8333 99.5,34.1667 99.5,31.5C 101.792,31.2436 103.959,31.5769 106,32.5C 111.417,31.6911 116.917,31.1911 122.5,31C 121.263,30.7679 120.263,30.2679 119.5,29.5 Z"/></g>
<g><path style="opacity:0.993" fill="#178f7e" d="M 34.5,27.5 C 35.5,27.5 36.5,27.5 37.5,27.5C 38.5442,30.5918 39.8775,33.5918 41.5,36.5C 37.7588,37.1443 34.4254,36.1443 31.5,33.5C 32.5,33.5 33.5,33.5 34.5,33.5C 34.5,31.5 34.5,29.5 34.5,27.5 Z"/></g>
<g><path style="opacity:1" fill="#167968" d="M 58.5,18.5 C 59.166,21.3583 59.8326,24.3583 60.5,27.5C 61.2652,28.6119 62.2652,29.2786 63.5,29.5C 65.4392,29.5608 67.4392,29.5608 69.5,29.5C 62.7482,39.583 58.7482,38.583 57.5,26.5C 57.7027,23.8031 58.036,21.1364 58.5,18.5 Z"/></g>
<g><path style="opacity:0.983" fill="#179283" d="M 103.5,33.5 C 113.934,33.7242 124.267,34.0575 134.5,34.5C 134.5,35.1667 134.5,35.8333 134.5,36.5C 131.5,37.8333 128.5,37.8333 125.5,36.5C 118.125,35.0878 110.792,34.0878 103.5,33.5 Z"/></g>
<g><path style="opacity:1" fill="#0b413a" d="M 89.5,33.5 C 86.0836,35.5915 82.4169,35.9249 78.5,34.5C 78.5,34.1667 78.5,33.8333 78.5,33.5C 81.8824,34.7778 85.5491,34.7778 89.5,33.5 Z"/></g>
<g><path style="opacity:0.004" fill="#0a4039" d="M 171.5,34.5 C 172.833,35.1667 172.833,35.1667 171.5,34.5 Z"/></g>
<g><path style="opacity:1" fill="#117675" d="M 138.5,38.5 C 136.409,39.8654 134.076,40.5321 131.5,40.5C 132.541,43.5422 132.541,46.5422 131.5,49.5C 131.5,50.1667 131.167,50.5 130.5,50.5C 130.5,49.1667 130.5,47.8333 130.5,46.5C 130.657,45.1266 130.49,43.7932 130,42.5C 129.134,45.9791 127.967,49.3124 126.5,52.5C 125.566,51.4324 125.232,50.099 125.5,48.5C 125.5,44.5 125.5,40.5 125.5,36.5C 128.5,37.8333 131.5,37.8333 134.5,36.5C 135.675,35.0262 136.675,33.3596 137.5,31.5C 138.474,33.7427 138.808,36.076 138.5,38.5 Z"/></g>
<g><path style="opacity:0.808" fill="#0c403f" d="M 105.5,42.5 C 105.167,42.5 104.833,42.5 104.5,42.5C 103.167,42.8333 101.833,43.1667 100.5,43.5C 102.508,41.7324 104.674,40.0657 107,38.5C 108.067,39.1905 109.234,39.6905 110.5,40C 108.509,40.3736 106.842,41.207 105.5,42.5 Z"/></g>
<g><path style="opacity:0.004" fill="#0b5352" d="M 146.5,40.5 C 147.833,41.1667 147.833,41.1667 146.5,40.5 Z"/></g>
<g><path style="opacity:0.282" fill="#128b8a" d="M 116.5,42.5 C 115.833,41.1667 115.833,41.1667 116.5,42.5 Z"/></g>
<g><path style="opacity:0.004" fill="#094645" d="M 161.5,41.5 C 160.833,42.1667 160.833,42.1667 161.5,41.5 Z"/></g>
<g><path style="opacity:1" fill="#343136" d="M 21.5,40.5 C 20.4168,40.4606 19.4168,40.1272 18.5,39.5C 17.7189,40.7287 17.2189,42.062 17,43.5C 15.9505,42.4829 14.7839,42.3162 13.5,43C 14.6843,44.1455 14.6843,45.3121 13.5,46.5C 12.8333,46.5 12.5,46.8333 12.5,47.5C 11.1667,47.5 9.83333,47.5 8.5,47.5C 9.02518,43.4771 11.3585,41.3104 15.5,41C 11.5379,38.7752 11.5379,36.4418 15.5,34C 17.3646,32.6986 19.3646,32.3653 21.5,33C 21.1667,33.3333 20.8333,33.6667 20.5,34C 22.8856,34.2835 23.5523,35.2835 22.5,37C 23.3081,37.3076 23.9747,37.8076 24.5,38.5C 23.2839,39.0959 21.9506,39.2626 20.5,39C 21.056,39.3826 21.3893,39.8826 21.5,40.5 Z"/></g>
<g><path style="opacity:0.004" fill="#15a5a5" d="M 105.5,42.5 C 106.833,43.1667 106.833,43.1667 105.5,42.5 Z"/></g>
<g><path style="opacity:0.004" fill="#128b8a" d="M 116.5,42.5 C 117.833,43.1667 117.833,43.1667 116.5,42.5 Z"/></g>
<g><path style="opacity:0.957" fill="#128483" d="M 171.5,35.5 C 169.676,38.8462 169.01,42.5128 169.5,46.5C 168.167,46.1667 166.833,45.8333 165.5,45.5C 165.843,43.5168 165.176,42.1834 163.5,41.5C 162.833,41.5 162.167,41.5 161.5,41.5C 163.587,37.4118 166.92,35.4118 171.5,35.5 Z"/></g>
<g><path style="opacity:0.655" fill="#4c444c" d="M 21.5,40.5 C 22.625,41.3478 22.625,42.3478 21.5,43.5C 21.5,44.1667 21.5,44.8333 21.5,45.5C 20.0755,43.9689 19.4088,44.3023 19.5,46.5C 17.6783,45.5714 16.3449,46.2381 15.5,48.5C 14.6236,48.3691 13.9569,48.7025 13.5,49.5C 12.9264,51.0589 12.2598,52.5589 11.5,54C 12.7588,54.9234 14.0921,55.7568 15.5,56.5C 13.563,57.1575 11.7297,57.4908 10,57.5C 9.02386,53.673 9.85719,50.3396 12.5,47.5C 13.1667,47.5 13.5,47.1667 13.5,46.5C 14.6843,45.3121 14.6843,44.1455 13.5,43C 14.7839,42.3162 15.9505,42.4829 17,43.5C 17.2189,42.062 17.7189,40.7287 18.5,39.5C 19.4168,40.1272 20.4168,40.4606 21.5,40.5 Z"/></g>
<g><path style="opacity:0.537" fill="#12979d" d="M 138.5,38.5 C 137.13,41.3124 136.13,44.3124 135.5,47.5C 135.624,48.1067 135.957,48.44 136.5,48.5C 136.5,48.8333 136.5,49.1667 136.5,49.5C 135.508,49.3284 134.842,49.6618 134.5,50.5C 133.609,49.8902 132.609,49.5569 131.5,49.5C 132.541,46.5422 132.541,43.5422 131.5,40.5C 134.076,40.5321 136.409,39.8654 138.5,38.5 Z"/></g>
<g><path style="opacity:0.514" fill="#45424b" d="M 21.5,43.5 C 24.6339,44.9009 27.6339,46.5675 30.5,48.5C 29.3038,50.9815 27.8038,50.9815 26,48.5C 24.4941,50.1742 22.6607,51.1742 20.5,51.5C 20.1667,50.1667 19.8333,50.1667 19.5,51.5C 19.4459,49.8604 19.4459,48.1937 19.5,46.5C 20.9245,48.0311 21.5912,47.6977 21.5,45.5C 21.5,44.8333 21.5,44.1667 21.5,43.5 Z"/></g>
<g><path style="opacity:0.722" fill="#06393c" d="M 146.5,41.5 C 145.833,42.8333 145.167,44.1667 144.5,45.5C 143.163,46.3149 142.163,47.4815 141.5,49C 140.207,49.49 138.873,49.6567 137.5,49.5C 137.167,49.5 136.833,49.5 136.5,49.5C 136.5,49.1667 136.5,48.8333 136.5,48.5C 140.538,47.5214 143.038,44.8547 144,40.5C 144.671,41.2524 145.504,41.5858 146.5,41.5 Z"/></g>
<g><path style="opacity:0.85" fill="#0f6971" d="M 158.5,48.5 C 156.744,49.5521 156.077,51.2188 156.5,53.5C 156.167,53.5 155.833,53.5 155.5,53.5C 154.313,49.624 152.98,45.7907 151.5,42C 152.167,41.3333 152.833,41.3333 153.5,42C 155.054,44.2869 156.721,46.4535 158.5,48.5 Z"/></g>
<g><path style="opacity:0.004" fill="#4a494e" d="M 8.5,47.5 C 7.83333,48.1667 7.83333,48.1667 8.5,47.5 Z"/></g>
<g><path style="opacity:0.004" fill="#17171a" d="M 30.5,47.5 C 31.8333,48.1667 31.8333,48.1667 30.5,47.5 Z"/></g>
<g><path style="opacity:0.459" fill="#05393f" d="M 115.5,42.5 C 114.035,43.7368 112.368,44.7368 110.5,45.5C 107.91,46.1283 105.577,47.295 103.5,49C 101,52.1667 98.5,55.3333 96,58.5C 95.5357,57.9056 95.369,57.2389 95.5,56.5C 96.1667,56.5 96.5,56.1667 96.5,55.5C 96.5,55.1667 96.5,54.8333 96.5,54.5C 100.269,49.6954 104.769,45.6954 110,42.5C 111.626,42.8541 113.459,42.8541 115.5,42.5 Z"/></g>
<g><path style="opacity:0.702" fill="#063d44" d="M 100.5,43.5 C 98.502,45.5998 96.3353,47.5998 94,49.5C 92.878,51.4068 92.0447,53.4068 91.5,55.5C 90.8333,55.5 90.1667,55.5 89.5,55.5C 89.4914,53.6916 89.9914,52.0249 91,50.5C 93.8008,46.7485 96.9675,44.4151 100.5,43.5 Z"/></g>
<g><path style="opacity:1" fill="#0d92a6" d="M 104.5,42.5 C 104.141,44.4846 103.308,45.1513 102,44.5C 99.0615,47.2604 97.2282,50.5937 96.5,54.5C 96.5,54.8333 96.5,55.1667 96.5,55.5C 96.1667,55.5 95.8333,55.5 95.5,55.5C 94.1667,55.5 92.8333,55.5 91.5,55.5C 92.0447,53.4068 92.878,51.4068 94,49.5C 96.3353,47.5998 98.502,45.5998 100.5,43.5C 101.833,43.1667 103.167,42.8333 104.5,42.5 Z"/></g>
<g><path style="opacity:0.982" fill="#0b8eae" d="M 165.5,45.5 C 166.833,45.8333 168.167,46.1667 169.5,46.5C 169.786,52.2586 169.452,57.9252 168.5,63.5C 169.919,64.4511 171.585,64.7845 173.5,64.5C 170.9,67.4603 167.567,68.7937 163.5,68.5C 164.092,65.8728 164.425,63.2062 164.5,60.5C 164.5,59.8333 164.5,59.1667 164.5,58.5C 165.485,54.3656 165.818,50.0323 165.5,45.5 Z"/></g>
<g><path style="opacity:0.512" fill="#054049" d="M 163.5,41.5 C 165.176,42.1834 165.843,43.5168 165.5,45.5C 165.818,50.0323 165.485,54.3656 164.5,58.5C 164.786,52.7414 164.452,47.0748 163.5,41.5 Z"/></g>
<g><path style="opacity:0.11" fill="#054b59" d="M 125.5,48.5 C 125.232,50.099 125.566,51.4324 126.5,52.5C 124.811,55.8421 122.145,57.3421 118.5,57C 122.157,55.1493 124.49,52.3159 125.5,48.5 Z"/></g>
<g><path style="opacity:0.753" fill="#033a4a" d="M 130.5,46.5 C 130.5,47.8333 130.5,49.1667 130.5,50.5C 128.696,55.6417 125.696,59.975 121.5,63.5C 119.364,64.4026 117.364,65.5693 115.5,67C 111.973,67.8075 108.64,67.6408 105.5,66.5C 118.584,65.7478 126.917,59.0812 130.5,46.5 Z"/></g>
<g><path style="opacity:1" fill="#043b48" d="M 84.5,57.5 C 82.2646,57.2053 80.2646,57.5386 78.5,58.5C 77.5,58.5 76.5,58.5 75.5,58.5C 75.5,58.1667 75.5,57.8333 75.5,57.5C 76.8333,57.1667 76.8333,56.8333 75.5,56.5C 72.248,56.9021 69.5813,58.2354 67.5,60.5C 67.7329,58.9382 68.3995,57.6049 69.5,56.5C 72.4478,55.6802 75.4478,55.0135 78.5,54.5C 81.1016,54.4672 83.1016,55.4672 84.5,57.5 Z"/></g>
<g><path style="opacity:0.959" fill="#0986a5" d="M 144.5,45.5 C 141.933,51.2021 141.933,56.8688 144.5,62.5C 144.5,63.1667 144.5,63.8333 144.5,64.5C 143.167,64.5 141.833,64.5 140.5,64.5C 140.5,65.5 140.5,66.5 140.5,67.5C 139.009,64.8136 138.343,61.8136 138.5,58.5C 138.532,56.2412 138.866,54.0745 139.5,52C 138.619,51.2917 137.953,50.4584 137.5,49.5C 138.873,49.6567 140.207,49.49 141.5,49C 142.163,47.4815 143.163,46.3149 144.5,45.5 Z"/></g>
<g><path style="opacity:1" fill="#39353e" d="M 19.5,46.5 C 19.4459,48.1937 19.4459,49.8604 19.5,51.5C 19.8333,51.5 20.1667,51.5 20.5,51.5C 21.172,52.2674 22.0053,52.9341 23,53.5C 24.3561,52.6198 25.8561,52.2865 27.5,52.5C 27.3505,53.552 27.5172,54.552 28,55.5C 29.0113,54.6634 30.1779,54.33 31.5,54.5C 31.6567,55.8734 31.49,57.2068 31,58.5C 29.512,57.8042 28.012,58.1375 26.5,59.5C 26.9377,60.5063 27.6043,60.5063 28.5,59.5C 29.9985,62.133 29.1652,63.4664 26,63.5C 23.4731,63.3304 22.9731,62.3304 24.5,60.5C 17.5189,59.1302 14.5189,55.1302 15.5,48.5C 16.3449,46.2381 17.6783,45.5714 19.5,46.5 Z M 23.5,55.5 C 24.3023,54.1153 24.9689,54.282 25.5,56C 25.1667,56.5 24.8333,57 24.5,57.5C 24.2129,56.7997 23.8795,56.1331 23.5,55.5 Z"/></g>
<g><path style="opacity:1" fill="#854554" d="M 17.5,53.5 C 18.7211,52.5354 20.0544,52.702 21.5,54C 21.5,55 21.5,56 21.5,57C 20.8333,57.6667 20.1667,57.6667 19.5,57C 18.9152,55.6976 18.2485,54.531 17.5,53.5 Z"/></g>
<g><path style="opacity:1" fill="#0a8dac" d="M 110.5,45.5 C 106.699,48.9584 103.699,52.9584 101.5,57.5C 100.751,58.531 100.085,59.6976 99.5,61C 96.854,61.4974 94.1873,61.6641 91.5,61.5C 91.5,59.5 91.5,57.5 91.5,55.5C 92.8333,55.5 94.1667,55.5 95.5,55.5C 95.5,55.8333 95.5,56.1667 95.5,56.5C 95.369,57.2389 95.5357,57.9056 96,58.5C 98.5,55.3333 101,52.1667 103.5,49C 105.577,47.295 107.91,46.1283 110.5,45.5 Z"/></g>
<g><path style="opacity:0.84" fill="#098dad" d="M 158.5,48.5 C 160.843,52.8631 162.176,57.5297 162.5,62.5C 160.958,61.6993 159.292,61.366 157.5,61.5C 157.806,58.6146 157.473,55.9479 156.5,53.5C 156.077,51.2188 156.744,49.5521 158.5,48.5 Z"/></g>
<g><path style="opacity:1" fill="#023747" d="M 59.5,53.5 C 61.2798,54.9899 61.9465,56.9899 61.5,59.5C 58.8127,59.3359 56.146,59.5026 53.5,60C 52.944,60.3826 52.6107,60.8826 52.5,61.5C 50.7202,62.9899 50.0535,64.9899 50.5,67.5C 48.455,63.0489 49.7883,59.8823 54.5,58C 56.4406,57.2571 58.2739,57.4238 60,58.5C 60.3845,56.8034 60.2178,55.1368 59.5,53.5 Z"/></g>
<g><path style="opacity:1" fill="#045a74" d="M 89.5,55.5 C 90.1667,55.5 90.8333,55.5 91.5,55.5C 91.5,57.5 91.5,59.5 91.5,61.5C 92.2907,63.6907 92.2907,65.6907 91.5,67.5C 89.7501,63.8171 89.0834,59.8171 89.5,55.5 Z"/></g>
<g><path style="opacity:1" fill="#0b8bac" d="M 69.5,56.5 C 67.5165,56.6168 65.8498,55.9501 64.5,54.5C 63.4808,56.4595 63.4808,58.4595 64.5,60.5C 62.0504,60.298 59.717,60.6314 57.5,61.5C 56.1667,61.8333 54.8333,62.1667 53.5,62.5C 52.8333,62.5 52.5,62.1667 52.5,61.5C 52.6107,60.8826 52.944,60.3826 53.5,60C 56.146,59.5026 58.8127,59.3359 61.5,59.5C 61.9465,56.9899 61.2798,54.9899 59.5,53.5C 59.4606,52.4168 59.1272,51.4168 58.5,50.5C 59,50.1667 59.5,49.8333 60,49.5C 63.8403,50.9951 67.0069,53.3285 69.5,56.5 Z"/></g>
<g><path style="opacity:1" fill="#098daf" d="M 131.5,49.5 C 132.609,49.5569 133.609,49.8902 134.5,50.5C 132.238,55.0897 129.238,59.0897 125.5,62.5C 124.167,62.8333 122.833,63.1667 121.5,63.5C 125.696,59.975 128.696,55.6417 130.5,50.5C 131.167,50.5 131.5,50.1667 131.5,49.5 Z"/></g>
<g><path style="opacity:1" fill="#26242b" d="M 47.5,60.5 C 47.5,59.8333 47.1667,59.5 46.5,59.5C 45.1667,59.8333 45.1667,60.1667 46.5,60.5C 44.6838,62.1366 42.6838,63.6366 40.5,65C 41.448,65.4828 42.448,65.6495 43.5,65.5C 43.7373,66.791 43.404,67.791 42.5,68.5C 41.0011,67.506 39.3344,67.506 37.5,68.5C 37.5,68.1667 37.5,67.8333 37.5,67.5C 38.1667,67.5 38.5,67.1667 38.5,66.5C 39.4602,64.5393 40.7935,62.8726 42.5,61.5C 40.9223,60.7022 39.2556,60.2022 37.5,60C 38.756,59.5831 39.4226,58.7498 39.5,57.5C 43.2561,55.2283 46.5894,56.0617 49.5,60C 48.9056,60.4643 48.2389,60.631 47.5,60.5 Z"/></g>
<g><path style="opacity:0.961" fill="#047498" d="M 75.5,56.5 C 75.5,56.8333 75.5,57.1667 75.5,57.5C 75.5,57.8333 75.5,58.1667 75.5,58.5C 74.7375,59.2679 73.7375,59.7679 72.5,60C 73,60.5 73.5,61 74,61.5C 75.0495,60.4829 76.2161,60.3162 77.5,61C 76.3094,61.6979 75.3094,62.5313 74.5,63.5C 72.5544,64.0347 71.5544,65.368 71.5,67.5C 70.4415,66.3998 69.6082,65.0664 69,63.5C 67.2894,66.0459 65.1227,68.0459 62.5,69.5C 61.5,69.5 60.5,69.5 59.5,69.5C 60.2178,67.8632 60.3845,66.1966 60,64.5C 59.586,64.9574 59.086,65.2907 58.5,65.5C 57.5713,64.3112 57.238,62.9778 57.5,61.5C 59.717,60.6314 62.0504,60.298 64.5,60.5C 65.7399,62.9845 66.7399,62.9845 67.5,60.5C 69.5813,58.2354 72.248,56.9021 75.5,56.5 Z M 63.5,63.5 C 65.337,63.6395 65.6704,64.3061 64.5,65.5C 63.7025,65.0431 63.3691,64.3764 63.5,63.5 Z"/></g>
<g><path style="opacity:0.227" fill="#044559" d="M 155.5,53.5 C 155.833,53.5 156.167,53.5 156.5,53.5C 157.473,55.9479 157.806,58.6146 157.5,61.5C 156.73,63.9354 155.063,65.2687 152.5,65.5C 152.5,64.8333 152.167,64.5 151.5,64.5C 149.167,64.5 146.833,64.5 144.5,64.5C 144.5,63.8333 144.5,63.1667 144.5,62.5C 145.742,63.0434 147.075,63.3767 148.5,63.5C 150.841,62.8178 153.174,62.1511 155.5,61.5C 155.5,58.8333 155.5,56.1667 155.5,53.5 Z"/></g>
<g><path style="opacity:0.59" fill="#013142" d="M 164.5,60.5 C 164.425,63.2062 164.092,65.8728 163.5,68.5C 162.566,67.4324 162.232,66.099 162.5,64.5C 163.167,63.1667 163.833,61.8333 164.5,60.5 Z"/></g>
<g><path style="opacity:0.607" fill="#0692c4" d="M 78.5,58.5 C 80.2646,57.5386 82.2646,57.2053 84.5,57.5C 85.3693,62.6547 83.7026,67.1547 79.5,71C 75.7536,72.2223 73.0869,71.0557 71.5,67.5C 71.5544,65.368 72.5544,64.0347 74.5,63.5C 74.6287,65.2161 74.962,66.8828 75.5,68.5C 77.1534,69.7994 78.6534,69.4661 80,67.5C 81.6357,64.7732 81.8024,62.1066 80.5,59.5C 79.8333,59.1667 79.1667,58.8333 78.5,58.5 Z"/></g>
<g><path style="opacity:0.993" fill="#0381ad" d="M 101.5,57.5 C 101.337,59.8568 101.503,62.1902 102,64.5C 103.302,65.0848 104.469,65.7515 105.5,66.5C 102.813,66.3359 100.146,66.5026 97.5,67C 96.944,67.3826 96.6107,67.8826 96.5,68.5C 95.2101,67.9423 94.3768,66.9423 94,65.5C 93.7811,66.938 93.2811,68.2713 92.5,69.5C 91.7025,69.0431 91.3691,68.3764 91.5,67.5C 92.2907,65.6907 92.2907,63.6907 91.5,61.5C 94.1873,61.6641 96.854,61.4974 99.5,61C 100.085,59.6976 100.751,58.531 101.5,57.5 Z"/></g>
<g><path style="opacity:1" fill="#023749" d="M 174.5,61.5 C 174.5,62.5 174.5,63.5 174.5,64.5C 174.167,64.5 173.833,64.5 173.5,64.5C 171.585,64.7845 169.919,64.4511 168.5,63.5C 170.858,63.7475 172.858,63.0808 174.5,61.5 Z"/></g>
<g><path style="opacity:0.492" fill="#524f58" d="M 46.5,59.5 C 47.1667,59.5 47.5,59.8333 47.5,60.5C 48.5366,62.7375 48.7033,65.0709 48,67.5C 47.3333,68.8333 46.6667,68.8333 46,67.5C 45.9428,69.9102 44.7761,71.2435 42.5,71.5C 42.5,71.1667 42.5,70.8333 42.5,70.5C 42.5,69.8333 42.5,69.1667 42.5,68.5C 43.404,67.791 43.7373,66.791 43.5,65.5C 42.448,65.6495 41.448,65.4828 40.5,65C 42.6838,63.6366 44.6838,62.1366 46.5,60.5C 46.5,60.1667 46.5,59.8333 46.5,59.5 Z"/></g>
<g><path style="opacity:0.384" fill="#013d54" d="M 80.5,59.5 C 81.8024,62.1066 81.6357,64.7732 80,67.5C 78.6534,69.4661 77.1534,69.7994 75.5,68.5C 78.4205,66.3375 80.0871,63.3375 80.5,59.5 Z"/></g>
<g><path style="opacity:1" fill="#048bbb" d="M 157.5,61.5 C 159.292,61.366 160.958,61.6993 162.5,62.5C 162.5,63.1667 162.5,63.8333 162.5,64.5C 155.573,68.2703 148.24,69.2703 140.5,67.5C 140.5,66.5 140.5,65.5 140.5,64.5C 141.833,64.5 143.167,64.5 144.5,64.5C 146.833,64.5 149.167,64.5 151.5,64.5C 152.167,64.5 152.5,64.8333 152.5,65.5C 155.063,65.2687 156.73,63.9354 157.5,61.5 Z"/></g>
<g><path style="opacity:0.729" fill="#2d2b36" d="M 39.5,57.5 C 39.4226,58.7498 38.756,59.5831 37.5,60C 39.2556,60.2022 40.9223,60.7022 42.5,61.5C 40.7935,62.8726 39.4602,64.5393 38.5,66.5C 38.1667,66.5 37.8333,66.5 37.5,66.5C 36.0689,66.8807 35.2355,67.8807 35,69.5C 34.5034,71.8098 34.3367,74.1432 34.5,76.5C 34.1667,76.5 33.8333,76.5 33.5,76.5C 33.4694,71.8639 33.4694,67.1972 33.5,62.5C 33.7948,60.0294 34.7948,57.8627 36.5,56C 34.6031,53.0614 33.7697,49.8947 34,46.5C 34.9246,47.0465 35.7579,47.7132 36.5,48.5C 37.3507,51.5777 38.3507,54.5777 39.5,57.5 Z"/></g>
<g><path style="opacity:1" fill="#0292cb" d="M 125.5,62.5 C 118.314,69.6171 109.648,72.4505 99.5,71C 98.6266,69.955 97.6266,69.1217 96.5,68.5C 96.6107,67.8826 96.944,67.3826 97.5,67C 100.146,66.5026 102.813,66.3359 105.5,66.5C 108.64,67.6408 111.973,67.8075 115.5,67C 117.364,65.5693 119.364,64.4026 121.5,63.5C 122.833,63.1667 124.167,62.8333 125.5,62.5 Z"/></g>
<g><path style="opacity:0.784" fill="#46444c" d="M 42.5,68.5 C 42.5,69.1667 42.5,69.8333 42.5,70.5C 41.1667,70.8333 41.1667,71.1667 42.5,71.5C 44.0906,73.6805 45.4239,76.0139 46.5,78.5C 46.0676,82.3615 44.7343,83.0282 42.5,80.5C 42.5,80.1667 42.5,79.8333 42.5,79.5C 43.8333,78.1667 43.8333,76.8333 42.5,75.5C 42.5,74.8333 42.1667,74.5 41.5,74.5C 40.8333,73.1667 39.8333,72.1667 38.5,71.5C 38.1667,68.8333 37.8333,68.8333 37.5,71.5C 36.2311,71.2572 36.2311,70.2572 37.5,68.5C 39.3344,67.506 41.0011,67.506 42.5,68.5 Z"/></g>
<g><path style="opacity:1" fill="#0288bf" d="M 52.5,61.5 C 52.5,62.1667 52.8333,62.5 53.5,62.5C 52.6152,67.283 54.6152,69.6163 59.5,69.5C 60.5,69.5 61.5,69.5 62.5,69.5C 60.22,71.2227 57.5533,71.8893 54.5,71.5C 54.1667,71.5 53.8333,71.5 53.5,71.5C 53.1667,71.5 52.8333,71.5 52.5,71.5C 51.3995,70.3951 50.7329,69.0618 50.5,67.5C 50.0535,64.9899 50.7202,62.9899 52.5,61.5 Z"/></g>
<g><path style="opacity:0.098" fill="#036ea4" d="M 47.5,71.5 C 46.8333,70.1667 46.8333,70.1667 47.5,71.5 Z"/></g>
<g><path style="opacity:1" fill="#586481" d="M 37.5,66.5 C 37.5,66.8333 37.5,67.1667 37.5,67.5C 37.5,67.8333 37.5,68.1667 37.5,68.5C 36.2311,70.2572 36.2311,71.2572 37.5,71.5C 37.8333,71.5 38.1667,71.5 38.5,71.5C 38.5,72.1667 38.5,72.8333 38.5,73.5C 37.7638,75.2294 36.4305,76.2294 34.5,76.5C 34.3367,74.1432 34.5034,71.8098 35,69.5C 35.2355,67.8807 36.0689,66.8807 37.5,66.5 Z"/></g>
<g><path style="opacity:0.973" fill="#0c6ca5" d="M 47.5,71.5 C 49.1667,71.5 50.8333,71.5 52.5,71.5C 52.8333,72.8333 53.1667,72.8333 53.5,71.5C 53.8333,71.5 54.1667,71.5 54.5,71.5C 54.3932,73.3786 54.8932,73.7119 56,72.5C 58.9562,74.7221 61.7895,77.0554 64.5,79.5C 62.3469,78.4271 60.3469,78.4271 58.5,79.5C 54.8098,76.8015 51.1431,74.1348 47.5,71.5 Z"/></g>
<g><path style="opacity:0.902" fill="#10334d" d="M 28.5,74.5 C 24.4729,77.8604 20.8062,81.5271 17.5,85.5C 20.423,79.7425 24.5897,75.0759 30,71.5C 31.2352,72.6129 30.7352,73.6129 28.5,74.5 Z"/></g>
<g><path style="opacity:0.792" fill="#302e34" d="M 38.5,73.5 C 39.391,74.1098 40.391,74.4431 41.5,74.5C 42.1667,74.5 42.5,74.8333 42.5,75.5C 42.4894,77.0174 41.8228,78.1841 40.5,79C 41.0944,79.4643 41.7611,79.631 42.5,79.5C 42.5,79.8333 42.5,80.1667 42.5,80.5C 41.4479,82.256 39.7812,82.9227 37.5,82.5C 37.7725,84.9582 36.7725,86.6249 34.5,87.5C 33.269,86.3493 33.269,85.1827 34.5,84C 32.3598,81.8265 32.0265,79.3265 33.5,76.5C 33.8333,76.5 34.1667,76.5 34.5,76.5C 36.4305,76.2294 37.7638,75.2294 38.5,73.5 Z M 37.5,76.5 C 38.2389,76.369 38.9056,76.5357 39.5,77C 35.9557,82.9397 35.2891,82.7731 37.5,76.5 Z"/></g>
<g><path style="opacity:1" fill="#2467a9" d="M 64.5,79.5 C 68.7966,82.1295 72.4633,85.4628 75.5,89.5C 73.0267,87.6005 70.36,85.9339 67.5,84.5C 66.8333,84.8333 66.1667,85.1667 65.5,85.5C 66.3094,87.0709 66.6427,88.7376 66.5,90.5C 64.5551,86.2637 61.8884,82.5971 58.5,79.5C 60.3469,78.4271 62.3469,78.4271 64.5,79.5 Z"/></g>
<g><path style="opacity:0.004" fill="#0e2540" d="M 121.5,85.5 C 120.833,84.1667 120.833,84.1667 121.5,85.5 Z"/></g>
<g><path style="opacity:1" fill="#306bb9" d="M 129.5,96.5 C 128.167,96.5 126.833,96.5 125.5,96.5C 126.258,93.6481 126.258,90.9815 125.5,88.5C 123.418,88.6243 121.918,89.6243 121,91.5C 119.984,90.3659 119.317,90.6992 119,92.5C 118.617,91.944 118.117,91.6107 117.5,91.5C 119.64,88.9387 121.973,86.6054 124.5,84.5C 127.23,82.1868 130.396,80.5202 134,79.5C 132.998,85.3329 131.498,90.9996 129.5,96.5 Z"/></g>
<g><path style="opacity:1" fill="#286fbc" d="M 28.5,74.5 C 25.5918,79.4456 23.5918,84.7789 22.5,90.5C 20.5648,89.8505 18.5648,89.5172 16.5,89.5C 17.2341,88.2921 17.5674,86.9587 17.5,85.5C 20.8062,81.5271 24.4729,77.8604 28.5,74.5 Z"/></g>
<g><path style="opacity:1" fill="#3665b7" d="M 75.5,89.5 C 75.0074,91.8056 74.6741,94.139 74.5,96.5C 72.9519,96.1788 72.2852,95.1788 72.5,93.5C 71.1667,93.5 69.8333,93.5 68.5,93.5C 68.7148,91.8212 68.0481,90.8212 66.5,90.5C 66.6427,88.7376 66.3094,87.0709 65.5,85.5C 66.1667,85.1667 66.8333,84.8333 67.5,84.5C 70.36,85.9339 73.0267,87.6005 75.5,89.5 Z"/></g>
<g><path style="opacity:0.941" fill="#1a3058" d="M 124.5,84.5 C 121.973,86.6054 119.64,88.9387 117.5,91.5C 117.607,93.3786 117.107,93.7119 116,92.5C 114.887,94.3293 113.387,95.1626 111.5,95C 114.729,91.6014 118.062,88.4347 121.5,85.5C 122.391,84.8902 123.391,84.5569 124.5,84.5 Z"/></g>
<g><path style="opacity:0.18" fill="#1c284d" d="M 138.5,92.5 C 137.624,92.3691 136.957,92.7025 136.5,93.5C 136.229,96.0473 135.229,98.0473 133.5,99.5C 133.756,97.0628 134.423,94.7294 135.5,92.5C 136.614,91.2241 137.614,91.2241 138.5,92.5 Z"/></g>
<g><path style="opacity:0.624" fill="#253160" d="M 17.5,85.5 C 17.5674,86.9587 17.2341,88.2921 16.5,89.5C 17.1115,92.696 17.1115,95.696 16.5,98.5C 14.1782,99.8021 12.8449,101.802 12.5,104.5C 12.3605,106.337 11.6939,106.67 10.5,105.5C 11.2385,101.919 12.9052,98.9194 15.5,96.5C 14.4383,93.8971 14.2716,91.2305 15,88.5C 15.3768,87.0577 16.2101,86.0577 17.5,85.5 Z"/></g>
<g><path style="opacity:0.004" fill="#3657a3" d="M 34.5,93.5 C 33.8333,94.1667 33.8333,94.1667 34.5,93.5 Z"/></g>
<g><path style="opacity:0.156" fill="#2a3060" d="M 66.5,90.5 C 68.0481,90.8212 68.7148,91.8212 68.5,93.5C 67.8333,95.8333 67.1667,98.1667 66.5,100.5C 65.8698,102.75 64.8698,104.75 63.5,106.5C 63.7678,104.901 63.4345,103.568 62.5,102.5C 61.8333,102.833 61.1667,103.167 60.5,103.5C 62.0621,98.812 64.0621,94.4787 66.5,90.5 Z"/></g>
<g><path style="opacity:1" fill="#4653a7" d="M 68.5,93.5 C 69.8333,93.5 71.1667,93.5 72.5,93.5C 72.2852,95.1788 72.9519,96.1788 74.5,96.5C 74.8333,97.1667 75.1667,97.8333 75.5,98.5C 73.0122,100.388 70.0122,101.055 66.5,100.5C 67.1667,98.1667 67.8333,95.8333 68.5,93.5 Z"/></g>
<g><path style="opacity:0.475" fill="#181b37" d="M 101.5,96.5 C 96.3599,95.9103 91.6932,96.9103 87.5,99.5C 86.5084,99.3284 85.8417,99.6618 85.5,100.5C 82.5794,100.283 79.9128,100.949 77.5,102.5C 77.5,101.833 77.5,101.167 77.5,100.5C 82.4302,99.8709 87.0968,98.3709 91.5,96C 95.0267,95.1925 98.3601,95.3592 101.5,96.5 Z"/></g>
<g><path style="opacity:0.718" fill="#4659ae" d="M 16.5,89.5 C 18.5648,89.5172 20.5648,89.8505 22.5,90.5C 22.7556,93.5979 23.4222,96.5979 24.5,99.5C 21.6146,99.8064 18.9479,99.4731 16.5,98.5C 17.1115,95.696 17.1115,92.696 16.5,89.5 Z"/></g>
<g><path style="opacity:1" fill="#464d9c" d="M 101.5,96.5 C 104.754,96.7936 107.421,98.127 109.5,100.5C 102.209,99.6076 94.8761,99.2743 87.5,99.5C 91.6932,96.9103 96.3599,95.9103 101.5,96.5 Z"/></g>
<g><path style="opacity:1" fill="#1d1d3b" d="M 49.5,99.5 C 47.3146,99.7036 45.3146,100.37 43.5,101.5C 43.5,101.167 43.5,100.833 43.5,100.5C 45.5232,98.3 47.8565,97.6333 50.5,98.5C 50.3764,99.1067 50.0431,99.44 49.5,99.5 Z"/></g>
<g><path style="opacity:1" fill="#544ca5" d="M 85.5,100.5 C 85.8417,99.6618 86.5084,99.3284 87.5,99.5C 94.8761,99.2743 102.209,99.6076 109.5,100.5C 111.104,101.287 111.771,102.62 111.5,104.5C 110.833,105.167 110.167,105.833 109.5,106.5C 105.556,106.113 101.889,106.78 98.5,108.5C 100.385,106.947 101.385,104.947 101.5,102.5C 97.1516,101.246 92.8183,101.246 88.5,102.5C 87.7095,101.599 86.7095,100.932 85.5,100.5 Z"/></g>
<g><path style="opacity:1" fill="#584ba7" d="M 16.5,98.5 C 18.9479,99.4731 21.6146,99.8064 24.5,99.5C 24.3284,100.492 24.6618,101.158 25.5,101.5C 25.4326,102.959 25.7659,104.292 26.5,105.5C 24.7354,106.461 22.7354,106.795 20.5,106.5C 20.9118,104.027 19.9118,102.694 17.5,102.5C 15.4862,102.392 13.8195,103.058 12.5,104.5C 12.8449,101.802 14.1782,99.8021 16.5,98.5 Z"/></g>
<g><path style="opacity:1" fill="#3f4790" d="M 43.5,100.5 C 43.5,100.833 43.5,101.167 43.5,101.5C 42.1667,101.5 41.5,102.167 41.5,103.5C 40.8333,103.167 40.1667,102.833 39.5,102.5C 38.3846,99.1132 36.7179,96.1132 34.5,93.5C 33.7101,92.2058 32.7101,91.0391 31.5,90C 32.5,89.3333 33.5,89.3333 34.5,90C 38.0845,93.0781 41.0845,96.5781 43.5,100.5 Z"/></g>
<g><path style="opacity:1" fill="#6446a3" d="M 85.5,100.5 C 86.7095,100.932 87.7095,101.599 88.5,102.5C 83.4193,106.996 80.7526,112.663 80.5,119.5C 78.8235,118.817 78.1568,117.483 78.5,115.5C 79.0909,112.282 80.0909,109.116 81.5,106C 81.1639,104.97 80.4972,104.47 79.5,104.5C 78.6714,104.836 77.6714,104.836 76.5,104.5C 77.3382,104.158 77.6716,103.492 77.5,102.5C 79.9128,100.949 82.5794,100.283 85.5,100.5 Z"/></g>
<g><path style="opacity:1" fill="#4c4a9e" d="M 125.5,88.5 C 126.258,90.9815 126.258,93.6481 125.5,96.5C 126.833,96.5 128.167,96.5 129.5,96.5C 129.343,97.8734 129.51,99.2068 130,100.5C 131.011,99.6634 132.178,99.33 133.5,99.5C 135.229,98.0473 136.229,96.0473 136.5,93.5C 136.957,92.7025 137.624,92.3691 138.5,92.5C 138.5,94.5 138.5,96.5 138.5,98.5C 137.957,98.56 137.624,98.8933 137.5,99.5C 141.614,99.9228 145.28,101.256 148.5,103.5C 140.414,103.199 132.414,103.533 124.5,104.5C 124.5,101.833 124.5,99.1667 124.5,96.5C 124.401,93.7628 124.735,91.0961 125.5,88.5 Z"/></g>
<g><path style="opacity:0.475" fill="#2e2c56" d="M 138.5,98.5 C 143.225,98.6678 147.225,100.334 150.5,103.5C 149.833,103.5 149.167,103.5 148.5,103.5C 145.28,101.256 141.614,99.9228 137.5,99.5C 137.624,98.8933 137.957,98.56 138.5,98.5 Z"/></g>
<g><path style="opacity:1" fill="#58469e" d="M 75.5,98.5 C 76.1667,99.1667 76.8333,99.8333 77.5,100.5C 77.5,101.167 77.5,101.833 77.5,102.5C 77.6716,103.492 77.3382,104.158 76.5,104.5C 73.4029,100.357 71.4029,101.023 70.5,106.5C 66.9864,107.784 63.653,109.45 60.5,111.5C 60.5,110.833 60.5,110.167 60.5,109.5C 61.1667,109.5 61.5,109.167 61.5,108.5C 62.3382,108.158 62.6716,107.492 62.5,106.5C 62.8333,106.5 63.1667,106.5 63.5,106.5C 64.8698,104.75 65.8698,102.75 66.5,100.5C 70.0122,101.055 73.0122,100.388 75.5,98.5 Z"/></g>
<g><path style="opacity:1" fill="#5f47a5" d="M 148.5,103.5 C 149.167,103.5 149.833,103.5 150.5,103.5C 151.906,103.973 152.573,104.973 152.5,106.5C 150.052,107.473 147.385,107.806 144.5,107.5C 140.355,105.65 136.021,105.15 131.5,106C 130.244,106.417 129.577,107.25 129.5,108.5C 127.283,107.631 124.95,107.298 122.5,107.5C 123.167,106.5 123.833,105.5 124.5,104.5C 132.414,103.533 140.414,103.199 148.5,103.5 Z"/></g>
<g><path style="opacity:1" fill="#2b1f49" d="M 124.5,96.5 C 124.5,99.1667 124.5,101.833 124.5,104.5C 123.833,105.5 123.167,106.5 122.5,107.5C 121.094,107.973 120.427,108.973 120.5,110.5C 119.833,110.833 119.167,111.167 118.5,111.5C 117.833,111.5 117.167,111.5 116.5,111.5C 118.461,109.037 120.628,106.703 123,104.5C 123.183,101.635 123.683,98.9686 124.5,96.5 Z"/></g>
<g><path style="opacity:1" fill="#513885" d="M 37.5,112.5 C 35.2034,110.706 33.0367,108.706 31,106.5C 31.9323,108.582 32.4323,110.915 32.5,113.5C 32.1667,113.5 31.8333,113.5 31.5,113.5C 31.6716,112.508 31.3382,111.842 30.5,111.5C 30.6716,110.508 30.3382,109.842 29.5,109.5C 29.1667,108.167 28.8333,108.167 28.5,109.5C 24.3352,107.583 22.6686,108.583 23.5,112.5C 21.0116,109.534 19.0116,106.201 17.5,102.5C 19.9118,102.694 20.9118,104.027 20.5,106.5C 22.7354,106.795 24.7354,106.461 26.5,105.5C 27.4709,104.038 27.1376,102.705 25.5,101.5C 25.3367,99.1432 25.5034,96.8098 26,94.5C 29.1061,101.065 32.9394,107.065 37.5,112.5 Z"/></g>
<g><path style="opacity:1" fill="#6044a0" d="M 49.5,99.5 C 48.8466,100.807 48.1799,102.14 47.5,103.5C 48.4565,105.075 49.1231,106.742 49.5,108.5C 47.1667,108.5 44.8333,108.5 42.5,108.5C 42.3713,106.784 42.038,105.117 41.5,103.5C 41.5,102.167 42.1667,101.5 43.5,101.5C 45.3146,100.37 47.3146,99.7036 49.5,99.5 Z"/></g>
<g><path style="opacity:0.995" fill="#6d3593" d="M 122.5,107.5 C 124.95,107.298 127.283,107.631 129.5,108.5C 129.23,112.85 129.897,117.017 131.5,121C 130.552,121.483 129.552,121.649 128.5,121.5C 127.157,117.136 125.657,112.803 124,108.5C 122.887,109.305 121.721,109.972 120.5,110.5C 120.427,108.973 121.094,107.973 122.5,107.5 Z"/></g>
<g><path style="opacity:1" fill="#321e4b" d="M 39.5,102.5 C 40.1667,102.833 40.8333,103.167 41.5,103.5C 42.038,105.117 42.3713,106.784 42.5,108.5C 41.3263,109.514 40.6596,110.847 40.5,112.5C 40.5,113.167 40.1667,113.5 39.5,113.5C 38.8333,113.5 38.5,113.167 38.5,112.5C 40.4694,109.303 40.8028,105.97 39.5,102.5 Z"/></g>
<g><path style="opacity:1" fill="#2a193e" d="M 60.5,103.5 C 58.8333,108.5 55.5,111.833 50.5,113.5C 50.5,113.167 50.5,112.833 50.5,112.5C 54.4818,110.183 57.8151,107.183 60.5,103.5 Z"/></g>
<g><path style="opacity:1" fill="#703799" d="M 42.5,108.5 C 44.8333,108.5 47.1667,108.5 49.5,108.5C 50.2341,109.708 50.5674,111.041 50.5,112.5C 50.5,112.833 50.5,113.167 50.5,113.5C 47.0613,113.747 43.728,113.414 40.5,112.5C 40.6596,110.847 41.3263,109.514 42.5,108.5 Z"/></g>
<g><path style="opacity:0.995" fill="#703291" d="M 152.5,106.5 C 153.79,107.058 154.623,108.058 155,109.5C 155.805,112.696 155.638,115.696 154.5,118.5C 152.461,120.05 150.128,121.05 147.5,121.5C 147.5,120.833 147.5,120.167 147.5,119.5C 149.292,114.792 148.292,110.792 144.5,107.5C 147.385,107.806 150.052,107.473 152.5,106.5 Z"/></g>
<g><path style="opacity:1" fill="#7b369d" d="M 109.5,106.5 C 101.805,113.689 92.8047,118.856 82.5,122C 83.4158,122.278 84.0825,122.778 84.5,123.5C 83.8333,123.5 83.1667,123.5 82.5,123.5C 81.609,122.89 80.609,122.557 79.5,122.5C 86.3958,118.605 92.7292,113.939 98.5,108.5C 101.889,106.78 105.556,106.113 109.5,106.5 Z"/></g>
<g><path style="opacity:0.996" fill="#78379d" d="M 62.5,102.5 C 62.5,103.833 62.5,105.167 62.5,106.5C 61.6618,106.842 61.3284,107.508 61.5,108.5C 60.8333,108.5 60.5,108.833 60.5,109.5C 59.6618,109.842 59.3284,110.508 59.5,111.5C 58.8333,111.5 58.5,111.833 58.5,112.5C 57.6618,112.842 57.3284,113.508 57.5,114.5C 56.8333,114.5 56.5,114.833 56.5,115.5C 55.8333,115.5 55.5,115.833 55.5,116.5C 54.8333,116.5 54.5,116.833 54.5,117.5C 54.1667,117.5 53.8333,117.5 53.5,117.5C 52.1722,115.255 50.3388,114.922 48,116.5C 45.8265,114.36 43.3265,114.026 40.5,115.5C 40.1667,114.833 39.8333,114.167 39.5,113.5C 40.1667,113.5 40.5,113.167 40.5,112.5C 43.728,113.414 47.0613,113.747 50.5,113.5C 55.5,111.833 58.8333,108.5 60.5,103.5C 61.1667,103.167 61.8333,102.833 62.5,102.5 Z"/></g>
<g><path style="opacity:0.443" fill="#351b49" d="M 79.5,104.5 C 80.4972,104.47 81.1639,104.97 81.5,106C 80.0909,109.116 79.0909,112.282 78.5,115.5C 77.9033,115.265 77.5699,114.765 77.5,114C 78.2223,110.829 78.8889,107.662 79.5,104.5 Z"/></g>
<g><path style="opacity:0.42" fill="#37143f" d="M 98.5,108.5 C 92.7292,113.939 86.3958,118.605 79.5,122.5C 77.7749,123.905 75.7749,124.405 73.5,124C 76.2387,122.974 78.572,121.474 80.5,119.5C 86.2467,116.227 92.2467,112.56 98.5,108.5 Z"/></g>
<g><path style="opacity:1" fill="#73308f" d="M 37.5,112.5 C 37.8333,112.5 38.1667,112.5 38.5,112.5C 38.5,113.167 38.8333,113.5 39.5,113.5C 39.8333,114.167 40.1667,114.833 40.5,115.5C 38.2188,115.077 36.5521,115.744 35.5,117.5C 34.8333,117.5 34.5,117.833 34.5,118.5C 32.1445,117.425 29.8111,117.425 27.5,118.5C 28.2458,119.736 28.5792,121.07 28.5,122.5C 26.0875,119.632 24.4208,116.299 23.5,112.5C 22.6686,108.583 24.3352,107.583 28.5,109.5C 28.8333,109.5 29.1667,109.5 29.5,109.5C 29.3284,110.492 29.6618,111.158 30.5,111.5C 30.3284,112.492 30.6618,113.158 31.5,113.5C 31.8333,114.833 32.1667,114.833 32.5,113.5C 32.4323,110.915 31.9323,108.582 31,106.5C 33.0367,108.706 35.2034,110.706 37.5,112.5 Z"/></g>
<g><path style="opacity:0.999" fill="#7c349a" d="M 70.5,106.5 C 68.9612,111.021 66.6279,115.021 63.5,118.5C 61.7354,117.539 59.7354,117.205 57.5,117.5C 59.0248,115.784 60.0248,113.784 60.5,111.5C 63.653,109.45 66.9864,107.784 70.5,106.5 Z"/></g>
<g><path style="opacity:0.375" fill="#301537" d="M 59.5,111.5 C 59.8333,111.5 60.1667,111.5 60.5,111.5C 60.0248,113.784 59.0248,115.784 57.5,117.5C 56.3951,118.6 55.0618,119.267 53.5,119.5C 53.5,119.167 53.5,118.833 53.5,118.5C 54.1667,118.5 54.5,118.167 54.5,117.5C 55.1667,117.5 55.5,117.167 55.5,116.5C 56.1667,116.5 56.5,116.167 56.5,115.5C 57.1667,115.5 57.5,115.167 57.5,114.5C 58.3382,114.158 58.6716,113.492 58.5,112.5C 59.1667,112.5 59.5,112.167 59.5,111.5 Z"/></g>
<g><path style="opacity:0.991" fill="#80288d" d="M 53.5,117.5 C 53.5,117.833 53.5,118.167 53.5,118.5C 53.5,118.833 53.5,119.167 53.5,119.5C 51.8333,119.5 50.1667,119.5 48.5,119.5C 48.5,120.5 48.5,121.5 48.5,122.5C 47.3793,120.259 46.2126,117.925 45,115.5C 44.1534,117.193 43.3201,118.86 42.5,120.5C 38.1667,120.5 33.8333,120.5 29.5,120.5C 29.5,121.5 29.5,122.5 29.5,123.5C 28.8333,123.5 28.5,123.167 28.5,122.5C 28.5792,121.07 28.2458,119.736 27.5,118.5C 29.8111,117.425 32.1445,117.425 34.5,118.5C 35.1667,118.5 35.5,118.167 35.5,117.5C 36.5521,115.744 38.2188,115.077 40.5,115.5C 43.3265,114.026 45.8265,114.36 48,116.5C 50.3388,114.922 52.1722,115.255 53.5,117.5 Z"/></g>
<g><path style="opacity:0.757" fill="#6b277b" d="M 111.5,104.5 C 112.985,106.934 114.652,109.267 116.5,111.5C 117.167,111.5 117.833,111.5 118.5,111.5C 118.082,112.222 117.416,112.722 116.5,113C 120.032,116.59 124.032,119.423 128.5,121.5C 129.167,122.167 129.833,122.833 130.5,123.5C 128.833,123.5 127.167,123.5 125.5,123.5C 117.839,119.488 113.172,113.155 111.5,104.5 Z"/></g>
<g><path style="opacity:1" fill="#8f228d" d="M 57.5,117.5 C 59.7354,117.205 61.7354,117.539 63.5,118.5C 61.1882,122.47 58.5216,126.137 55.5,129.5C 55.1667,129.5 54.8333,129.5 54.5,129.5C 54.1667,128.167 53.8333,128.167 53.5,129.5C 52.5,129.5 51.5,129.5 50.5,129.5C 49.8333,127.167 49.1667,124.833 48.5,122.5C 48.5,121.5 48.5,120.5 48.5,119.5C 50.1667,119.5 51.8333,119.5 53.5,119.5C 55.0618,119.267 56.3951,118.6 57.5,117.5 Z"/></g>
<g><path style="opacity:0.984" fill="#330e34" d="M 147.5,119.5 C 147.5,120.167 147.5,120.833 147.5,121.5C 145.703,122.73 143.703,123.396 141.5,123.5C 143.463,122.18 145.463,120.846 147.5,119.5 Z"/></g>
<g><path style="opacity:0.998" fill="#981d8b" d="M 42.5,120.5 C 40.8946,123.378 39.5612,126.378 38.5,129.5C 37.1667,129.5 35.8333,129.5 34.5,129.5C 32.8333,127.5 31.1667,125.5 29.5,123.5C 29.5,122.5 29.5,121.5 29.5,120.5C 33.8333,120.5 38.1667,120.5 42.5,120.5 Z"/></g>
<g><path style="opacity:0.999" fill="#981f8d" d="M 85.5,125.5 C 93.3094,127.438 100.476,126.104 107,121.5C 107.74,120.251 107.573,119.251 106.5,118.5C 105.684,116.856 104.35,115.69 102.5,115C 107.515,114.507 110.849,116.673 112.5,121.5C 111.201,123.59 109.701,125.59 108,127.5C 107.667,127.167 107.333,126.833 107,126.5C 101.351,128.488 95.518,128.988 89.5,128C 87.6803,127.8 86.347,126.966 85.5,125.5 Z"/></g>
<g><path style="opacity:1" fill="#9b1d8e" d="M 154.5,118.5 C 153.017,123.481 149.684,126.647 144.5,128C 141.167,128.667 137.833,128.667 134.5,128C 130.89,127.528 127.89,126.028 125.5,123.5C 127.167,123.5 128.833,123.5 130.5,123.5C 134.142,126.011 137.808,126.011 141.5,123.5C 143.703,123.396 145.703,122.73 147.5,121.5C 150.128,121.05 152.461,120.05 154.5,118.5 Z"/></g>
<g><path style="opacity:1" fill="#470f42" d="M 130.5,123.5 C 134.127,124.539 137.794,124.539 141.5,123.5C 137.808,126.011 134.142,126.011 130.5,123.5 Z"/></g>
<g><path style="opacity:1" fill="#4e0f48" d="M 106.5,118.5 C 107.573,119.251 107.74,120.251 107,121.5C 100.476,126.104 93.3094,127.438 85.5,125.5C 83.9731,125.573 82.9731,124.906 82.5,123.5C 83.1667,123.5 83.8333,123.5 84.5,123.5C 91.3315,126.171 97.9982,125.671 104.5,122C 105.305,120.887 105.972,119.721 106.5,118.5 Z"/></g>
</svg>
