<?xml version="1.0" encoding="UTF-8"?>
<!DOCTYPE svg PUBLIC "-//W3C//DTD SVG 1.1//EN" "http://www.w3.org/Graphics/SVG/1.1/DTD/svg11.dtd">
<svg xmlns="http://www.w3.org/2000/svg" version="1.1" width="257px" height="176px" style="shape-rendering:geometricPrecision; text-rendering:geometricPrecision; image-rendering:optimizeQuality; fill-rule:evenodd; clip-rule:evenodd" xmlns:xlink="http://www.w3.org/1999/xlink">
<g><path style="opacity:1" fill="#007744" d="M -0.5,-0.5 C 85.1667,-0.5 170.833,-0.5 256.5,-0.5C 256.5,7.16667 256.5,14.8333 256.5,22.5C 210.833,22.5 165.167,22.5 119.5,22.5C 114.409,20.7897 109.409,18.7897 104.5,16.5C 101.149,18.8586 97.8153,21.1919 94.5,23.5C 63.2103,22.515 31.877,22.1816 0.5,22.5C 0.5,23.5 0.5,24.5 0.5,25.5C 0.5,27.8333 0.5,30.1667 0.5,32.5C 0.67158,33.4916 0.338246,34.1583 -0.5,34.5C -0.5,22.8333 -0.5,11.1667 -0.5,-0.5 Z"/></g>
<g><path style="opacity:1" fill="#fdcb29" d="M 119.5,22.5 C 123.856,25.0684 128.522,27.0684 133.5,28.5C 136.74,30.951 140.407,32.6176 144.5,33.5C 147.979,35.4031 151.646,37.0698 155.5,38.5C 162.982,42.0697 170.648,45.403 178.5,48.5C 182.213,50.685 186.213,52.3517 190.5,53.5C 197.771,57.5959 205.438,60.9292 213.5,63.5C 227.507,70.3981 241.84,76.7315 256.5,82.5C 256.5,82.8333 256.5,83.1667 256.5,83.5C 228.692,83.0341 201.025,84.7007 173.5,88.5C 170.709,86.2651 167.709,84.2651 164.5,82.5C 143.78,70.2776 121.447,66.4443 97.5,71C 87.5174,73.4989 78.184,77.3323 69.5,82.5C 63.2547,86.1175 57.588,90.4508 52.5,95.5C 50.5,96.8333 48.8333,98.5 47.5,100.5C 45.1223,102.878 43.1223,105.545 41.5,108.5C 32.9416,118.96 27.6083,130.96 25.5,144.5C 17.3201,151.614 8.65347,158.281 -0.5,164.5C -0.5,141.833 -0.5,119.167 -0.5,96.5C -0.166667,96.5 0.166667,96.5 0.5,96.5C 12.2367,87.9704 23.57,78.9704 34.5,69.5C 38.3523,67.0753 42.019,64.4086 45.5,61.5C 50.7218,57.7294 55.7218,53.7294 60.5,49.5C 63.1354,48.1891 65.4687,46.5224 67.5,44.5C 71.1464,42.1829 74.4797,39.5162 77.5,36.5C 80.4735,34.8532 83.1401,32.8532 85.5,30.5C 88.8103,28.5179 91.8103,26.1846 94.5,23.5C 97.8153,21.1919 101.149,18.8586 104.5,16.5C 109.409,18.7897 114.409,20.7897 119.5,22.5 Z"/></g>
<g><path style="opacity:1" fill="#158143" d="M 94.5,23.5 C 91.8103,26.1846 88.8103,28.5179 85.5,30.5C 57.5442,29.5168 29.5442,29.1835 1.5,29.5C 1.76781,27.901 1.43448,26.5676 0.5,25.5C 0.5,24.5 0.5,23.5 0.5,22.5C 31.877,22.1816 63.2103,22.515 94.5,23.5 Z"/></g>
<g><path style="opacity:1" fill="#128043" d="M 119.5,22.5 C 165.167,22.5 210.833,22.5 256.5,22.5C 256.5,24.1667 256.5,25.8333 256.5,27.5C 215.457,27.178 174.457,27.5114 133.5,28.5C 128.522,27.0684 123.856,25.0684 119.5,22.5 Z"/></g>
<g><path style="opacity:1" fill="#238943" d="M 256.5,27.5 C 256.5,29.5 256.5,31.5 256.5,33.5C 219.007,33.5341 181.674,33.5341 144.5,33.5C 140.407,32.6176 136.74,30.951 133.5,28.5C 174.457,27.5114 215.457,27.178 256.5,27.5 Z"/></g>
<g><path style="opacity:1" fill="#298c44" d="M 0.5,25.5 C 1.43448,26.5676 1.76781,27.901 1.5,29.5C 29.5442,29.1835 57.5442,29.5168 85.5,30.5C 83.1401,32.8532 80.4735,34.8532 77.5,36.5C 52.2411,35.5099 26.9078,35.1766 1.5,35.5C 1.73731,34.209 1.40397,33.209 0.5,32.5C 0.5,30.1667 0.5,27.8333 0.5,25.5 Z"/></g>
<g><path style="opacity:1" fill="#3e9744" d="M 0.5,32.5 C 1.40397,33.209 1.73731,34.209 1.5,35.5C 26.9078,35.1766 52.2411,35.5099 77.5,36.5C 74.4797,39.5162 71.1464,42.1829 67.5,44.5C 45.3329,43.1769 23.1663,41.8436 1,40.5C 0.503354,42.8098 0.336688,45.1432 0.5,47.5C 0.5,50.8333 0.5,54.1667 0.5,57.5C 0.5,60.5 0.5,63.5 0.5,66.5C 0.5,76.5 0.5,86.5 0.5,96.5C 0.166667,96.5 -0.166667,96.5 -0.5,96.5C -0.5,75.8333 -0.5,55.1667 -0.5,34.5C 0.338246,34.1583 0.67158,33.4916 0.5,32.5 Z"/></g>
<g><path style="opacity:1" fill="#349243" d="M 144.5,33.5 C 181.674,33.5341 219.007,33.5341 256.5,33.5C 256.5,35.1667 256.5,36.8333 256.5,38.5C 222.833,38.5 189.167,38.5 155.5,38.5C 151.646,37.0698 147.979,35.4031 144.5,33.5 Z"/></g>
<g><path style="opacity:1" fill="#4c9e44" d="M 155.5,38.5 C 189.167,38.5 222.833,38.5 256.5,38.5C 256.5,41.5 256.5,44.5 256.5,47.5C 230.455,47.1848 204.455,47.5181 178.5,48.5C 170.648,45.403 162.982,42.0697 155.5,38.5 Z"/></g>
<g><path style="opacity:1" fill="#54a344" d="M 67.5,44.5 C 65.4687,46.5224 63.1354,48.1891 60.5,49.5C 40.5,48.8333 20.5,48.1667 0.5,47.5C 0.336688,45.1432 0.503354,42.8098 1,40.5C 23.1663,41.8436 45.3329,43.1769 67.5,44.5 Z"/></g>
<g><path style="opacity:1" fill="#62aa44" d="M 256.5,47.5 C 256.5,49.1667 256.5,50.8333 256.5,52.5C 234.455,52.1882 212.455,52.5216 190.5,53.5C 186.213,52.3517 182.213,50.685 178.5,48.5C 204.455,47.5181 230.455,47.1848 256.5,47.5 Z"/></g>
<g><path style="opacity:1" fill="#71b244" d="M 0.5,47.5 C 20.5,48.1667 40.5,48.8333 60.5,49.5C 55.7218,53.7294 50.7218,57.7294 45.5,61.5C 30.8817,60.5329 16.215,60.1996 1.5,60.5C 1.73731,59.209 1.40397,58.209 0.5,57.5C 0.5,54.1667 0.5,50.8333 0.5,47.5 Z"/></g>
<g><path style="opacity:1" fill="#7cb744" d="M 256.5,52.5 C 256.5,55.8333 256.5,59.1667 256.5,62.5C 242.118,62.2004 227.785,62.5337 213.5,63.5C 205.438,60.9292 197.771,57.5959 190.5,53.5C 212.455,52.5216 234.455,52.1882 256.5,52.5 Z"/></g>
<g><path style="opacity:1" fill="#90c244" d="M 0.5,57.5 C 1.40397,58.209 1.73731,59.209 1.5,60.5C 16.215,60.1996 30.8817,60.5329 45.5,61.5C 42.019,64.4086 38.3523,67.0753 34.5,69.5C 22.9926,69.1588 11.6592,68.1588 0.5,66.5C 0.5,63.5 0.5,60.5 0.5,57.5 Z"/></g>
<g><path style="opacity:1" fill="#9fc944" d="M 256.5,62.5 C 256.5,69.1667 256.5,75.8333 256.5,82.5C 241.84,76.7315 227.507,70.3981 213.5,63.5C 227.785,62.5337 242.118,62.2004 256.5,62.5 Z"/></g>
<g><path style="opacity:1" fill="#a8cf44" d="M 0.5,66.5 C 11.6592,68.1588 22.9926,69.1588 34.5,69.5C 23.57,78.9704 12.2367,87.9704 0.5,96.5C 0.5,86.5 0.5,76.5 0.5,66.5 Z"/></g>
<g><path style="opacity:1" fill="#1296d6" d="M 164.5,82.5 C 132.833,82.5 101.167,82.5 69.5,82.5C 78.184,77.3323 87.5174,73.4989 97.5,71C 121.447,66.4443 143.78,70.2776 164.5,82.5 Z"/></g>
<g><path style="opacity:1" fill="#fcfcfb" d="M 256.5,83.5 C 256.5,94.1667 256.5,104.833 256.5,115.5C 214.572,112.901 172.905,115.068 131.5,122C 118.501,124.286 105.835,127.453 93.5,131.5C 87.2352,132.979 81.2352,134.979 75.5,137.5C 71.617,138.459 67.9503,139.792 64.5,141.5C 60.503,142.603 56.8363,144.269 53.5,146.5C 50.0884,147.075 47.0884,148.408 44.5,150.5C 41.5152,151.326 38.8485,152.659 36.5,154.5C 33.2402,155.774 30.2402,157.44 27.5,159.5C 26.5084,159.328 25.8417,159.662 25.5,160.5C 21.8822,162.137 18.5488,164.137 15.5,166.5C 10.8679,169.143 6.5346,172.143 2.5,175.5C 1.5,175.5 0.5,175.5 -0.5,175.5C -0.5,171.833 -0.5,168.167 -0.5,164.5C 8.65347,158.281 17.3201,151.614 25.5,144.5C 25.369,145.239 25.5357,145.906 26,146.5C 47.8377,131.163 71.3377,118.829 96.5,109.5C 102.433,107.3 108.433,105.3 114.5,103.5C 120.731,101.22 127.065,99.22 133.5,97.5C 146.846,94.0597 160.179,91.0597 173.5,88.5C 201.025,84.7007 228.692,83.0341 256.5,83.5 Z"/></g>
<g><path style="opacity:1" fill="#0f85ca" d="M 69.5,82.5 C 101.167,82.5 132.833,82.5 164.5,82.5C 167.709,84.2651 170.709,86.2651 173.5,88.5C 160.179,91.0597 146.846,94.0597 133.5,97.5C 133.082,96.7784 132.416,96.2784 131.5,96C 105.169,95.5 78.8354,95.3334 52.5,95.5C 57.588,90.4508 63.2547,86.1175 69.5,82.5 Z"/></g>
<g><path style="opacity:1" fill="#1875bd" d="M 52.5,95.5 C 78.8354,95.3334 105.169,95.5 131.5,96C 132.416,96.2784 133.082,96.7784 133.5,97.5C 127.065,99.22 120.731,101.22 114.5,103.5C 92.4804,101.809 70.147,100.809 47.5,100.5C 48.8333,98.5 50.5,96.8333 52.5,95.5 Z"/></g>
<g><path style="opacity:1" fill="#1f69b3" d="M 47.5,100.5 C 70.147,100.809 92.4804,101.809 114.5,103.5C 108.433,105.3 102.433,107.3 96.5,109.5C 78.3409,108.503 60.0076,108.17 41.5,108.5C 43.1223,105.545 45.1223,102.878 47.5,100.5 Z"/></g>
<g><path style="opacity:1" fill="#2a59a5" d="M 41.5,108.5 C 60.0076,108.17 78.3409,108.503 96.5,109.5C 71.3377,118.829 47.8377,131.163 26,146.5C 25.5357,145.906 25.369,145.239 25.5,144.5C 27.6083,130.96 32.9416,118.96 41.5,108.5 Z"/></g>
<g><path style="opacity:1" fill="#b2d243" d="M 256.5,115.5 C 256.5,121.5 256.5,127.5 256.5,133.5C 201.823,134.162 147.49,133.496 93.5,131.5C 105.835,127.453 118.501,124.286 131.5,122C 172.905,115.068 214.572,112.901 256.5,115.5 Z"/></g>
<g><path style="opacity:1" fill="#9ac843" d="M 93.5,131.5 C 147.49,133.496 201.823,134.162 256.5,133.5C 256.5,135.167 256.5,136.833 256.5,138.5C 195.998,138.832 135.664,138.499 75.5,137.5C 81.2352,134.979 87.2352,132.979 93.5,131.5 Z"/></g>
<g><path style="opacity:1" fill="#86be44" d="M 75.5,137.5 C 135.664,138.499 195.998,138.832 256.5,138.5C 256.5,139.833 256.5,141.167 256.5,142.5C 192.459,142.826 128.459,142.493 64.5,141.5C 67.9503,139.792 71.617,138.459 75.5,137.5 Z"/></g>
<g><path style="opacity:1" fill="#73b644" d="M 64.5,141.5 C 128.459,142.493 192.459,142.826 256.5,142.5C 256.5,143.833 256.5,145.167 256.5,146.5C 188.833,146.5 121.167,146.5 53.5,146.5C 56.8363,144.269 60.503,142.603 64.5,141.5 Z"/></g>
<g><path style="opacity:1" fill="#61ae45" d="M 53.5,146.5 C 121.167,146.5 188.833,146.5 256.5,146.5C 256.5,147.833 256.5,149.167 256.5,150.5C 185.833,150.5 115.167,150.5 44.5,150.5C 47.0884,148.408 50.0884,147.075 53.5,146.5 Z"/></g>
<g><path style="opacity:1" fill="#4ea646" d="M 44.5,150.5 C 115.167,150.5 185.833,150.5 256.5,150.5C 256.5,151.833 256.5,153.167 256.5,154.5C 183.167,154.5 109.833,154.5 36.5,154.5C 38.8485,152.659 41.5152,151.326 44.5,150.5 Z"/></g>
<g><path style="opacity:1" fill="#3a9c47" d="M 36.5,154.5 C 109.833,154.5 183.167,154.5 256.5,154.5C 256.5,156.167 256.5,157.833 256.5,159.5C 180.167,159.5 103.833,159.5 27.5,159.5C 30.2402,157.44 33.2402,155.774 36.5,154.5 Z"/></g>
<g><path style="opacity:1" fill="#2a9547" d="M 27.5,159.5 C 103.833,159.5 180.167,159.5 256.5,159.5C 256.5,160.5 256.5,161.5 256.5,162.5C 179.833,162.667 103.166,162.5 26.5,162C 25.944,161.617 25.6107,161.117 25.5,160.5C 25.8417,159.662 26.5084,159.328 27.5,159.5 Z"/></g>
<g><path style="opacity:1" fill="#178c48" d="M 25.5,160.5 C 25.6107,161.117 25.944,161.617 26.5,162C 103.166,162.5 179.833,162.667 256.5,162.5C 256.5,164.167 256.5,165.833 256.5,167.5C 175.998,167.833 95.6649,167.499 15.5,166.5C 18.5488,164.137 21.8822,162.137 25.5,160.5 Z"/></g>
<g><path style="opacity:1" fill="#018348" d="M 15.5,166.5 C 95.6649,167.499 175.998,167.833 256.5,167.5C 256.5,170.167 256.5,172.833 256.5,175.5C 171.833,175.5 87.1667,175.5 2.5,175.5C 6.5346,172.143 10.8679,169.143 15.5,166.5 Z"/></g>
</svg>
